<?xml version="1.0" standalone="no"?>
<!DOCTYPE svg PUBLIC "-//W3C//DTD SVG 20010904//EN"
 "http://www.w3.org/TR/2001/REC-SVG-20010904/DTD/svg10.dtd">
<svg version="1.0" xmlns="http://www.w3.org/2000/svg"
 width="2134.000000pt" height="2134.000000pt" viewBox="0 0 2134.000000 2134.000000"
 preserveAspectRatio="xMidYMid meet">
<metadata>
Created by potrace 1.14, written by Peter Selinger 2001-2017
</metadata>
<g transform="translate(0.000000,2134.000000) scale(0.100000,-0.100000)"
fill="#000000" stroke="none">
<path d="M8489 21336 c-2 -2 -55 -7 -117 -11 -63 -4 -124 -8 -135 -10 -12 -2
-49 -6 -82 -10 -33 -3 -73 -8 -90 -10 -16 -3 -48 -7 -70 -10 -22 -2 -51 -6
-65 -9 -14 -2 -47 -7 -75 -11 -84 -11 -440 -84 -589 -121 -78 -19 -150 -37
-161 -39 -84 -18 -667 -202 -715 -226 -8 -4 -37 -15 -65 -24 -279 -97 -674
-270 -1075 -473 -269 -136 -309 -157 -460 -243 l-85 -49 -120 123 c-178 182
-262 254 -497 423 -122 87 -383 223 -538 278 -393 142 -637 126 -835 -55 -102
-94 -135 -159 -215 -419 -23 -74 -50 -162 -60 -195 -35 -111 -42 -150 -46
-225 -8 -183 76 -363 221 -478 55 -44 159 -95 215 -106 138 -28 328 -111 448
-195 39 -28 72 -55 72 -60 0 -5 -44 -44 -97 -87 -82 -66 -278 -232 -398 -339
-244 -215 -598 -573 -792 -801 -23 -27 -54 -62 -68 -79 -342 -395 -714 -963
-907 -1380 -88 -192 -126 -278 -138 -315 -5 -14 -20 -56 -35 -95 -54 -145
-134 -411 -161 -540 -60 -286 -79 -460 -79 -740 0 -115 4 -239 8 -275 12 -103
31 -213 41 -248 3 -9 8 -31 10 -47 11 -65 65 -236 110 -349 160 -399 409 -734
741 -997 178 -141 420 -280 597 -342 16 -6 15 -12 -8 -79 -13 -40 -24 -74 -24
-76 0 -1 -17 -60 -39 -130 -126 -406 -273 -1049 -307 -1347 -3 -22 -9 -65 -14
-95 -5 -30 -12 -80 -15 -110 -4 -30 -8 -66 -10 -80 -2 -14 -6 -52 -10 -85 -5
-56 -8 -76 -20 -187 -2 -24 -7 -86 -10 -138 -4 -52 -8 -111 -10 -130 -22 -219
-22 -992 0 -1210 2 -25 7 -85 10 -135 3 -49 8 -106 10 -125 9 -79 17 -157 20
-195 1 -22 6 -60 9 -85 7 -46 23 -167 31 -230 3 -19 7 -46 10 -60 3 -14 7 -43
10 -65 10 -68 15 -102 29 -170 2 -11 7 -40 11 -65 5 -36 33 -168 80 -390 2 -8
13 -53 25 -100 11 -47 23 -92 25 -100 14 -60 48 -190 56 -215 5 -16 32 -106
60 -200 95 -319 251 -750 354 -980 7 -16 25 -57 40 -90 61 -140 105 -232 209
-440 60 -121 121 -240 136 -265 14 -25 44 -76 65 -115 36 -66 85 -152 105
-185 249 -402 310 -494 469 -713 47 -66 93 -129 101 -141 8 -12 68 -89 132
-171 473 -606 1034 -1165 1662 -1656 193 -151 508 -374 716 -505 36 -23 98
-62 138 -88 40 -25 74 -46 77 -46 2 0 45 -25 95 -55 50 -30 94 -55 98 -55 5 0
13 -5 20 -12 16 -16 211 -120 442 -236 704 -353 1517 -637 2270 -792 58 -12
114 -24 125 -26 17 -3 84 -16 218 -39 15 -3 55 -10 90 -16 65 -11 90 -15 171
-24 27 -3 52 -7 55 -9 3 -2 37 -7 74 -11 37 -3 76 -8 85 -10 9 -1 49 -6 87
-10 39 -3 84 -8 100 -10 17 -2 68 -7 115 -10 47 -4 101 -9 120 -11 263 -26
1175 -26 1430 0 19 2 71 7 115 10 44 4 100 9 125 12 25 2 63 6 85 8 22 2 63 7
90 11 169 22 277 37 294 40 10 2 41 7 68 11 26 3 57 8 68 10 11 2 45 8 75 14
140 24 172 30 270 50 58 12 151 32 208 46 56 13 113 26 125 28 45 10 63 14
107 27 25 7 50 13 55 14 33 7 265 74 405 117 441 135 926 327 1355 538 210
104 468 241 557 297 21 13 40 23 42 23 11 0 369 226 526 332 222 150 281 192
427 303 856 651 1594 1433 2167 2295 75 113 142 214 149 225 42 62 187 307
187 315 0 6 3 10 8 10 4 0 14 15 21 33 8 17 29 57 47 87 120 208 313 598 411
830 25 58 50 119 58 135 58 129 175 444 246 660 72 218 80 243 84 261 3 10 18
66 35 124 29 99 76 275 85 316 2 11 15 66 29 124 14 58 27 116 30 130 3 14 7
36 10 50 3 14 8 36 11 50 3 14 7 36 10 50 3 14 9 48 15 75 5 28 13 68 16 90 3
22 8 44 11 48 2 4 6 27 9 50 2 23 6 53 9 67 2 13 7 42 10 65 3 22 10 63 15 90
5 28 12 75 15 105 4 30 8 66 10 80 2 14 6 50 10 80 3 30 8 71 10 90 2 19 7 64
10 100 4 36 8 83 11 105 2 22 6 69 8 105 3 36 8 119 13 185 16 242 8 1057 -12
1255 -2 19 -6 71 -10 115 -4 44 -8 93 -10 110 -2 16 -7 60 -10 99 -4 38 -8 77
-10 85 -2 9 -6 45 -10 81 -3 36 -8 72 -10 80 -2 8 -7 39 -10 69 -4 30 -9 63
-11 75 -2 12 -7 41 -10 66 -6 45 -9 63 -19 110 -2 14 -7 41 -10 60 -13 80 -17
101 -46 240 -17 80 -32 154 -34 165 -3 11 -9 38 -14 60 -5 22 -13 54 -17 70
-4 17 -8 35 -10 40 -1 6 -4 21 -7 35 -18 85 -133 487 -192 665 -87 267 -225
632 -314 830 -10 22 -42 94 -72 160 -91 205 -338 682 -399 775 -6 8 -13 22
-17 30 -3 8 -21 39 -40 68 -18 29 -33 54 -33 57 0 7 -252 406 -272 430 -4 6
-58 82 -120 170 -61 88 -114 162 -118 165 -3 3 -17 21 -30 40 -26 38 -239 312
-249 320 -3 3 -18 21 -33 42 -15 20 -33 42 -41 50 -7 7 -53 60 -102 118 -50
57 -97 112 -105 120 -8 9 -58 63 -110 120 -155 170 -484 494 -644 635 -6 6
-32 28 -57 50 -83 74 -172 150 -198 170 -14 10 -28 22 -31 25 -13 15 -222 179
-365 287 -254 190 -510 362 -780 525 -132 80 -170 102 -282 164 -27 15 -73 41
-103 58 -91 53 -514 260 -675 331 -649 287 -1354 508 -2025 635 -58 11 -116
23 -130 25 -29 6 -143 25 -180 30 -31 4 -96 15 -130 21 -37 6 -247 32 -310 39
-30 3 -80 8 -110 11 -30 3 -69 7 -86 9 -32 5 -225 17 -281 19 -18 1 -34 3 -34
6 -1 3 -3 32 -4 65 -5 115 -18 221 -36 310 -6 28 -13 61 -15 75 -40 217 -166
521 -308 743 -269 421 -649 734 -1131 933 -39 16 -265 92 -295 100 -8 2 -66
17 -129 33 -63 17 -128 33 -145 36 -49 8 -89 15 -116 20 -54 11 -69 13 -120
20 -29 4 -62 8 -72 10 -11 2 -49 7 -86 11 -37 3 -83 8 -102 11 -41 5 -676 13
-681 9z"/>
</g>
</svg>
