<?xml version="1.0" encoding="UTF-8"?>
<svg id="_レイヤー_2" data-name="レイヤー_2" xmlns="http://www.w3.org/2000/svg" viewBox="0 0 946.19 248.23">
  <defs>
    <style>
      .cls-1 {
        fill: #ff7bac;
      }

      .cls-2 {
        fill: #e26149;
      }

      .cls-3 {
        fill: #fff;
      }

      .cls-4 {
        fill: #39b54a;
      }

      .cls-5 {
        fill: #1a1a1a;
      }
    </style>
  </defs>
  <g id="_レイヤー_1-2" data-name="レイヤー_1">
    <g>
      <g>
        <path class="cls-5" d="M355.05,70.83c-4.27.21-12.27.53-15.96.63l-.42-6.16h1.58c3.16,0,6.32-.11,9.53-.26v-2.42h-9.96v-5.27h9.96v-1.84h-9.64v-17.91h9.64v-1.63h-10.9v-5.48h10.9v-1.58c-2.58.05-5.11.11-7.69.11h-2.11l-.68-5.43h3c7.06,0,16.43-.32,22.39-1.53l1.84,5.48c-3.27.53-6.53.74-9.8,1v1.95h10.69v1.26h3.11v-9.27h7.64v9.27h9.59c0,7.01,0,29.55-1.47,35.19-.95,3.53-2.32,5.37-6.22,5.37h-5.37l-1.32-7.69c-1.47,3-2.9,5.27-5.11,7.8l-2.63-2.32c-3.63.32-7.06.58-10.59.74ZM346.47,41.86v2.79h3.32v-2.79h-3.32ZM346.47,48.18v2.74h3.32v-2.74h-3.32ZM370.54,39.54h-3.16v-3.58h-10.64v1.63h9.64v17.91h-9.64v1.84h10.06v2.84c3.16-6,3.63-13.96,3.74-20.65ZM356.74,41.86v2.79h3.42v-2.79h-3.42ZM356.74,48.18v2.74h3.42v-2.74h-3.42ZM365.48,62.61h-8.74v2.16c2.53-.16,5.06-.32,7.58-.47.42-.53.79-1.11,1.16-1.69ZM377.39,49.18c-.63,5.53-1.53,9.96-3.79,15.06h3.53c2,0,2.16-.47,2.48-2.74.68-4.63.84-16.75.95-21.96h-2.37c-.11,3.21-.42,6.43-.79,9.64Z"/>
        <path class="cls-5" d="M410.11,44.23l28.6,22.49-6.06,6-29.76-23.39c-1.9-1.53-3.42-2.79-3.42-4.95,0-2.48,1.53-3.95,3.16-5.16l23.81-17.33,5.74,6.22-22.07,16.12Z"/>
        <path class="cls-5" d="M471.67,34.22c.58,0,1.16,0,1.74.05.21-3.79.37-7.64.37-11.43h8.11c0,4.37-.16,8.74-.53,13.17,3.9,1.69,7.16,4.16,9.48,7.74,2.11-1.05,4.16-1.69,6.69-1.69v7.64c-1.37,0-2.58.21-3.74,1.11,1.05,2.48,1.53,5.27,1.53,8.01,0,4.53-1.74,9.11-6.95,9.11-4.74,0-7.38-4.21-7.38-8.69,0-3.63,1.74-7.01,3.9-9.9-1-2.27-2.69-3.79-4.58-5.16-1,5.69-2.16,10.69-4.79,15.54-3.05,5.64-8.11,9.69-14.8,9.69-7.74,0-12.85-5.64-12.85-13.27,0-6.9,3.58-13.38,9.17-17.33l-3.37-12.75,7.9-1.58,2.84,10.8c2.37-.68,4.79-1.05,7.27-1.05ZM461.72,56.5l-2.48-9.22c-2.05,2.37-3.32,5.43-3.32,8.59s1.37,6.32,4.9,6.32c4.06,0,6.74-3.9,8.22-7.16l-7.32,1.47ZM469.41,54.19c1.69-4.06,2.48-8.17,3.16-12.64-.37-.05-.68-.05-1.05-.05-1.79,0-3.53.37-5.21.95l3.11,11.75ZM486.74,58.93c0,.79.47,1.79,1.47,1.79s1.16-1.11,1.16-1.84c0-1.26-.32-2.37-.95-3.58-.9,1-1.69,2.21-1.69,3.63Z"/>
        <path class="cls-5" d="M518.99,43.44l7.32-1.95,2.53,7.8-18.91,4.9v-29.87h9.06v19.12ZM545.59,45.81c0,8.38-3.69,15.59-10.59,20.75-3.42,2.58-7.32,4.48-11.27,6.06l-3.48-7.48c4.21-1.69,8.06-3.74,11.27-6.85,3.27-3.16,5-7.85,5-12.33,0-7.22-2.79-13.33-6.9-19.07l7.32-4.69c5.16,6.85,8.64,14.64,8.64,23.6Z"/>
        <path class="cls-5" d="M593.45,43.02l-14.38,12.54c1.63,1.74,3.32,3.58,4.95,5.11,1.21,1.16,2.16,1.95,3.37,1.95,3.9,0,8.01-4.69,10.69-8.01l6.79,4.69c-4.21,4.85-10.43,11.32-17.38,11.32-4.79,0-7.85-2.58-11.38-6.69-1.05-1.21-2.26-2.42-3.05-2.42-.9,0-2.05.95-2.69,1.53l-10.85,9.43-6-5.48,27.44-23.91h-21.38v-7.69h33.87v7.64ZM584.81,27.01l-2.53,7.32-17.59-4.74,2.53-7.37,17.59,4.79Z"/>
        <path class="cls-5" d="M634.34,71.94l-8.27-2.84,11.22-25.7h-12.43v13.38h-8.85v-13.38h-7.11v-7.9h7.11v-11.17h8.85v11.17h15.85l5.43-12.43,8.27,2.84-4.21,9.59h6.21v7.9h-9.64l-12.43,28.55Z"/>
        <path class="cls-5" d="M707.09,51.45h-38.93v-8.06h38.93v8.06Z"/>
        <path class="cls-5" d="M730.27,59.82h30.13v7.9h-32.66v-5.37h-6.32V23.69h8.85v15.49l26.23-8.11,3,7.43-29.23,9.06v12.27ZM760.3,28.8h-6.69v-6.69h6.69v6.69ZM767.25,35.75h-6.69v-6.69h6.69v6.69Z"/>
        <path class="cls-5" d="M808.37,49.23l13.48,15.38-7.01,4.85-13.33-15.22-8.64,17.8-8.22-3.06,16.75-33.92h-25.18v-7.9h38.45l-12.91,26.6,6.58-4.53Z"/>
      </g>
      <g>
        <path class="cls-5" d="M379.9,159.74c-5.57-8.48-13.35-14.83-23.77-19.38.88-10.7,1.31-21.55,1.31-33.14v-.38h-21.31v.38c0,8.19-.29,17.28-.91,28.57-1.36-.1-2.73-.1-4.05-.1-6,0-12.11.87-18.16,2.58l-7.2-27.34-20.76,4.15,8.58,32.44c-14.52,10.37-23.18,26.83-23.18,44.08,0,20.03,13.55,34.02,32.95,34.02,15.75,0,29.19-8.79,37.85-24.76,6.37-11.72,9.37-23.61,12.08-38.91,4.02,2.95,8.36,6.73,10.92,12.38-6.61,8.92-9.82,17.15-9.82,25.15,0,11.13,6.55,22.4,19.07,22.4,11.27,0,18-8.77,18-23.47,0-7.26-1.31-14.23-3.79-20.17,3.03-2.24,6.12-2.55,9.02-2.55h.38v-20.11h-.38c-5.78,0-10.98,1.29-16.83,4.16ZM375.66,198.55c0,1.96-.44,4.3-2.56,4.3-2.45,0-3.36-2.55-3.36-4.16,0-2.8,1.21-5.53,3.81-8.55,1.46,2.93,2.11,5.54,2.11,8.42ZM299.48,169.96l6.18,23.01,18.18-3.66c-3.16,6.75-9.75,17.27-20.18,17.27-5.82,0-12.04-4.11-12.04-15.65,0-7.46,2.79-14.88,7.86-20.98ZM330.77,154.86c.79,0,1.48,0,2.24.08-1.77,11.51-3.76,21.18-7.51,30.54l-7.5-28.35c4.54-1.53,8.72-2.27,12.77-2.27Z"/>
        <polygon class="cls-5" points="469.1 174.1 463.03 155.36 446.22 159.83 446.22 115.73 424.53 115.73 424.53 185.65 468.72 174.2 469.1 174.1"/>
        <path class="cls-5" d="M487.47,110.73l-17.55,11.24.23.32c10.84,15.14,15.88,29.08,15.88,43.87,0,10.73-4.28,21.29-11.46,28.23-6.56,6.34-14.56,11.2-25.94,15.75l-.37.15,8.35,17.98.33-.13c10.91-4.36,19.22-8.83,26.15-14.05,16.11-12.05,24.63-28.75,24.63-48.29s-6.56-36.89-20.05-54.79l-.21-.28Z"/>
        <polygon class="cls-5" points="600.86 119.51 557.59 107.72 557.25 107.63 550.85 126.31 594.45 138.06 600.86 119.51"/>
        <path class="cls-5" d="M632.43,186.8c-7.3,9.02-16.83,19.37-25.77,19.37-2.87,0-5.21-2.01-7.96-4.65-3.34-3.13-6.81-6.83-10.16-10.42l-1.62-1.74,34.75-30.3.13-.11v-19.16h-83.29v19.49h51.49l-66.45,57.9,15.19,13.86,26.7-23.2c2.55-2.34,4.79-3.62,6.29-3.62,1.42,0,3.83,1.94,7.16,5.77,8.94,10.41,16.39,16.43,28.01,16.43,16.33,0,30.72-14.02,42.65-27.73l.28-.32-17.19-11.86-.22.27Z"/>
        <path class="cls-5" d="M735.32,121.7l.26-.31-16.69-11.64-.22.27c-6.36,7.71-11.51,14.33-16,21.54h-28.54v18.53h18.93c-1.26,2.99-2.4,6.13-3.49,9.6h-27.62v18.53h24.21c-.1,1.58-.1,3.1-.1,4.13,0,15.71,7.38,28.58,20.77,36.25,8.23,4.72,18.54,7.11,30.64,7.11,4.87,0,9.98-.32,15.63-.98l.39-.04-3.04-18.64-1.8.18c-3.34.33-7.14.71-11.06.71-19.27,0-30.32-8.96-30.32-24.59,0-1.33.1-2.76.21-4.13h52.04v-18.53h-47.83c1.25-3.51,2.81-6.8,4.21-9.6h53.37v-18.53h-41.64c2.49-3.28,5.06-6.65,7.7-9.86Z"/>
        <path class="cls-5" d="M889.45,182.92l-.25.27c-7.63,8.38-15.8,16.57-24.37,16.57-2.62,0-4.93-1.75-9.12-5.68-9.61-8.99-16.59-15.53-28.27-16.73l32.58-57.13.21-.36-20.46-9.03-59.73,104.79-.21.36,20.46,9.03,16.39-28.78c1.09-.23,2.03-.34,2.97-.34,6.05,0,12.05,5.14,16.04,9.01,7.55,7.2,16.96,16.15,29.27,16.15,15.92,0,28.33-11.23,40.7-23.73l.28-.29-16.5-14.11Z"/>
      </g>
      <g>
        <g>
          <polygon class="cls-3" points="922.19 147.89 905.75 142.08 915.43 103.75 938.73 111.97 922.19 147.89"/>
          <path class="cls-5" d="M915.43,103.75l23.3,8.23-16.54,35.91-16.44-5.81,9.68-38.34M910.86,102.01c-.07.18-.12.36-.17.54l-9.68,38.34c-.62,2.45.73,4.97,3.11,5.81l16.44,5.81c2.38.84,5.01-.27,6.07-2.57l16.54-35.91c.05-.1.09-.21.13-.31.45-1.17.42-2.48-.07-3.64-.54-1.27-1.58-2.25-2.88-2.71l-23.3-8.23c-1.3-.46-2.73-.35-3.94.3-1.05.56-1.85,1.48-2.26,2.58h0Z"/>
        </g>
        <g>
          <path class="cls-3" d="M918.26,154.78l-13.79-4.87c-1.29-9.47,4.34-21.46,4.34-21.46l19.54,6.9s-3.24,12.35-10.1,19.43Z"/>
          <path class="cls-5" d="M907.59,131.42c.7-1.84,1.23-2.96,1.23-2.96l19.54,6.9s-.55,2.08-1.66,5.03c-1.6,4.23-4.39,10.23-8.43,14.4l-13.79-4.87c-.89-6.57,1.54-14.35,3.12-18.5M903.02,129.68h0c-3.79,9.99-3.94,16.88-3.39,20.9.25,1.82,1.49,3.34,3.22,3.95l13.79,4.87c1.8.64,3.81.16,5.14-1.21,4.61-4.75,7.71-11.36,9.49-16.07,1.2-3.15,1.8-5.43,1.82-5.52.64-2.46-.7-5.01-3.1-5.85l-19.54-6.9c-2.37-.84-4.99.26-6.06,2.53-.06.13-.63,1.35-1.37,3.31h0Z"/>
        </g>
        <g>
          <path class="cls-2" d="M923.33,100.98c-2.18-.77-4.67-1.53-6.72-.46-1.9.99-2.74,3.21-3.43,5.24-.47,1.38-.68,3.37.7,3.87,1.67.61,2.96-1.98,4.73-1.97,2.48,0,2.78,4.62,5.26,4.74,1.43.07,2.6-1.54,4-1.28,1.02.19,1.6,1.28,1.82,2.29s.23,2.1.77,2.99c.43.7,1.13,1.18,1.82,1.63,1.61,1.06,3.58,2.12,5.37,1.4,1.63-.65,2.38-2.51,2.93-4.18.48-1.47.94-3.04.62-4.55-1.29-6.04-13.17-8.04-17.86-9.7Z"/>
          <path class="cls-5" d="M913.59,104.6c.63-1.66,1.48-3.28,3.02-4.09,2.05-1.07,4.54-.31,6.72.46,4.69,1.67,16.57,3.66,17.86,9.7.32,1.52-.14,3.08-.62,4.55-.1.31-.21.62-.33.94-.52,1.38-1.27,2.71-2.6,3.25-1.79.72-3.76-.35-5.37-1.4-.69-.45-1.39-.93-1.82-1.63-.54-.88-.55-1.97-.77-2.99-.22-1.01-.8-2.1-1.82-2.29-1.4-.26-2.58,1.35-4,1.28-2.48-.12-2.78-4.74-5.26-4.74-1.77,0-3.06,2.58-4.73,1.97-1.37-.5-1.16-2.49-.7-3.87.13-.38.26-.77.41-1.15M909.02,102.86c-.18.49-.35.96-.47,1.32-.34,1.01-.72,2.57-.58,4.24.23,2.74,1.81,4.91,4.24,5.79,2.29.84,4.22.21,5.58-.55,1.06,1.54,2.84,3.46,5.85,3.6.67.03,1.28-.03,1.83-.16.18.58.44,1.2.82,1.81,1.02,1.67,2.46,2.61,3.32,3.17,1.5.98,5.5,3.6,9.87,1.85,3.61-1.44,4.92-4.91,5.36-6.05.13-.35.26-.72.4-1.16.51-1.57,1.37-4.2.75-7.09-1.65-7.74-11.41-10.51-17.87-12.35-1.22-.35-2.37-.67-3.14-.95-2.29-.81-6.54-2.32-10.63-.19-3.12,1.63-4.53,4.6-5.33,6.68h0Z"/>
        </g>
        <g>
          <path class="cls-3" d="M883.17,243.34l-8.51-3c11.71-54.43,29.64-86.12,29.64-86.12l11.55,4.08s-11.3,44.08-32.68,85.05Z"/>
          <path class="cls-5" d="M891.35,183.31c7.16-18.85,12.95-29.09,12.95-29.09l11.55,4.08s-4.79,18.68-14.03,43.02c-4.96,13.05-11.19,27.73-18.65,42.03l-8.51-3c5.05-23.48,11.26-42.73,16.69-57.03M886.78,181.57l4.57,1.74-4.57-1.74c-6.86,18.06-12.54,37.48-16.9,57.73-.52,2.41.83,4.82,3.15,5.64l8.51,3c2.3.81,4.84-.19,5.97-2.35,6.65-12.75,13.01-27.07,18.89-42.56,9.23-24.31,13.99-42.76,14.19-43.54.63-2.45-.72-4.98-3.11-5.83l-11.55-4.08c-2.24-.79-4.72.14-5.89,2.2-.24.43-6.06,10.79-13.27,29.77h0Z"/>
        </g>
      </g>
      <g>
        <path class="cls-4" d="M196.65,139.36c3.31-.4,6.12-2.83,7.71-5.75,2.01-3.68,3.32-8.96,7.5-9.34,3.35-.31,5.91,3.05,9.18,3.85.32.08.64.14.94.19-1.29-17.57-7.07-33.92-16.19-47.9-16.24-3.05-33.02,5.37-16.22,23.09,4.53,4.78,8.09,11.75,5.53,17.82-1.92,4.54-7.05,8.23-6.07,13.06.67,3.26,4.3,5.37,7.61,4.97Z"/>
        <path class="cls-1" d="M103.65,232.44c-.43-5.73-7.08-8.64-12.76-9.49-5.68-.85-12.23-1.26-15.69-5.84-2.11-2.78-2.5-6.45-3.46-9.81-.96-3.36-3.05-6.91-6.5-7.5-1.22-.21-2.48,0-3.66.36-4.79,1.47-8.39,5.47-10.35,10.14,14.14,13.16,32.01,22.35,51.84,25.79.44-1.16.68-2.37.58-3.66Z"/>
        <path class="cls-5" d="M106.43,232.23c-.54-7.3-8.17-11-15.13-12.04-.59-.09-1.18-.17-1.78-.25h-.09c-4.72-.67-9.61-1.34-12.01-4.51-1.23-1.61-1.76-3.84-2.32-6.2-.21-.88-.43-1.79-.69-2.69-1.53-5.35-4.71-8.8-8.71-9.47-1.51-.26-3.13-.11-4.94.44-4.92,1.51-9.19,5.46-11.71,10.84l-.08.17.13.13c1.27,1.25,2.6,2.48,3.95,3.67l.29.26.13-.36c1.69-4.68,5.02-8.18,8.92-9.38.97-.3,1.73-.39,2.38-.28,2.63.44,3.94,4.34,4.28,5.52.22.76.4,1.54.6,2.37l.02.08c.67,2.81,1.36,5.72,3.3,8.28,3.8,5,10.11,5.88,15.69,6.65l.27.04c.52.07,1.03.14,1.54.22,4.61.68,10.09,2.91,10.39,6.94.07.89-.12,1.83-.57,2.88l-.13.3.32.06c1.67.33,3.38.63,5.07.88l.22.03.07-.21c.5-1.49.69-2.91.58-4.36Z"/>
        <path class="cls-5" d="M120.5,241.22c-58.11,0-105.39-47.28-105.39-105.39S62.39,30.45,120.5,30.45s105.39,47.28,105.39,105.39-47.28,105.39-105.39,105.39ZM120.5,30.98c-57.82,0-104.86,47.04-104.86,104.86s47.04,104.86,104.86,104.86,104.86-47.04,104.86-104.86S178.32,30.98,120.5,30.98Z"/>
        <path class="cls-5" d="M120.5,27.08c-59.97,0-108.75,48.79-108.75,108.75s48.79,108.75,108.75,108.75,108.75-48.79,108.75-108.75S180.47,27.08,120.5,27.08ZM222,135.84c0,55.97-45.53,101.5-101.5,101.5S19.01,191.8,19.01,135.84,64.54,34.34,120.5,34.34s101.5,45.53,101.5,101.5Z"/>
        <g>
          <path class="cls-5" d="M183.09,174.24c0,1.54,1.25,2.79,2.79,2.79h27.95l.07-.16c.73-1.66,1.43-3.36,2.07-5.06l.13-.36h-30.22c-1.54,0-2.79,1.25-2.79,2.79Z"/>
          <path class="cls-5" d="M53.65,171.45h-28.76l.13.36c.64,1.7,1.34,3.4,2.07,5.06l.07.16h26.48c1.54,0,2.79-1.25,2.79-2.79s-1.25-2.79-2.79-2.79Z"/>
          <path class="cls-5" d="M183.67,194c-.32,1.5.63,2.99,2.14,3.31l13.73,2.96.1-.12c1.17-1.43,2.32-2.92,3.42-4.44l.24-.33-16.31-3.52c-1.51-.33-2.99.63-3.31,2.14Z"/>
          <path class="cls-5" d="M185.81,151.16c-1.5.32-2.46,1.81-2.14,3.31.27,1.27,1.42,2.2,2.72,2.2.2,0,.4-.02.59-.06l34.5-7.45.18-.04.02-.18c.23-1.76.41-3.54.54-5.3l.03-.35-36.45,7.87Z"/>
          <path class="cls-5" d="M53.14,156.67c1.3,0,2.45-.92,2.72-2.2.32-1.5-.63-2.99-2.14-3.31l-34.95-7.55.03.35c.14,1.74.33,3.53.56,5.3l.02.18,33.16,7.16c.19.04.39.06.59.06Z"/>
          <path class="cls-5" d="M54.65,192.24c-.63-.4-1.37-.54-2.1-.38l-15.04,3.25.24.33c1.08,1.5,2.23,3,3.4,4.44l.1.13,12.48-2.7c1.5-.32,2.46-1.81,2.14-3.31-.16-.73-.59-1.35-1.21-1.75Z"/>
        </g>
        <path class="cls-5" d="M176.82,44.81c-.83-1.65-2.84-2.32-4.49-1.49l-49,24.53c-.49,0-.98-.01-1.47-.01h-.26c-1.2,0-2.46.04-3.75.1l-49.17-24.62c-1.65-.82-3.67-.16-4.49,1.49-.4.8-.47,1.71-.18,2.56.28.85.88,1.54,1.68,1.94l40.2,20.13c-11.63,2.37-22.26,7.35-30.78,14.42-1.42,1.18-1.62,3.3-.44,4.72.64.77,1.58,1.21,2.58,1.21.78,0,1.54-.27,2.14-.77,11.18-9.28,26.18-14.42,42.24-14.47h.24c15.18,0,29.69,4.65,39.81,12.76.7.56,1.57.81,2.46.71.89-.1,1.69-.54,2.25-1.23s.81-1.57.72-2.46c-.1-.89-.54-1.69-1.23-2.25-8.05-6.45-18.42-10.94-30.01-13l39.47-19.76c.8-.4,1.4-1.09,1.68-1.94.28-.85.22-1.76-.18-2.56Z"/>
        <g>
          <path class="cls-5" d="M81.52,129.91c-1.94,1.94-3.21,4.33-3.57,6.72-.37,2.42.24,4.56,1.7,6.02,1.21,1.21,2.86,1.79,4.67,1.79,2.67,0,5.66-1.27,8.06-3.67,4.03-4.03,4.87-9.74,1.87-12.74-3-3-8.71-2.15-12.74,1.87Z"/>
          <path class="cls-5" d="M162.82,136.62c-.36-2.39-1.63-4.78-3.57-6.72-4.03-4.03-9.74-4.87-12.74-1.87-3,3-2.16,8.71,1.87,12.74,2.4,2.4,5.4,3.67,8.06,3.67,1.81,0,3.46-.58,4.67-1.79,1.46-1.46,2.07-3.6,1.7-6.02Z"/>
        </g>
        <g>
          <g>
            <g>
              <path class="cls-2" d="M42.5,20.52s-5.9-8.22-14.3-9.78l-1.48,4.79s7.69,1.5,11.31,7.45l4.47-2.46Z"/>
              <path class="cls-2" d="M37.94,23.34l-.13-.22c-3.52-5.78-11.06-7.32-11.13-7.33l-.29-.06,1.64-5.29.23.04c8.41,1.55,14.41,9.8,14.47,9.88l.17.24-4.96,2.73ZM27.06,15.33c1.42.34,7.78,2.13,11.06,7.3l3.99-2.2c-1.04-1.34-6.44-7.93-13.72-9.39l-1.33,4.29Z"/>
            </g>
            <path class="cls-5" d="M48.19,16.44c-.77-1.08-7.86-10.57-18.71-12.58-.42-.08-.85-.12-1.28-.12-3.08,0-5.77,1.98-6.68,4.93l-1.48,4.79c-.6,1.95-.37,4.03.65,5.7,1.05,1.73,2.71,2.87,4.66,3.23,1.33.29,5.12,1.62,6.7,4.23,1.28,2.1,3.52,3.36,5.98,3.36,1.17,0,2.34-.3,3.37-.87l4.47-2.46c1.75-.96,3.01-2.63,3.45-4.58.44-1.95.03-4-1.14-5.62ZM42.11,20.43l-3.99,2.2c-3.28-5.16-9.64-6.95-11.06-7.3l1.33-4.29c7.28,1.46,12.69,8.05,13.72,9.39Z"/>
          </g>
          <g>
            <path class="cls-2" d="M119.88,29.8c-.97,10.72-9.52,20.49-20.7,24.21-5.9,1.96-15.17,5.71-25.27,12.34-10.58,6.94-18.38,14.62-22.81,19.49-7.3,8.02-18.47,11.93-28.22,9.61-.27-.06-.53-.13-.8-.2-9.24-2.53-15.33-11.25-15.07-20.83C8.03,37.62,74.02-3.46,107.04,9.41c8.04,3.13,13.38,10.98,12.89,19.6-.01.26-.03.53-.06.8Z"/>
            <path class="cls-5" d="M109.58,2.89c-4.92-1.92-10.52-2.89-16.65-2.89-9.24,0-19.8,2.25-30.54,6.52-10.16,4.03-20.3,9.76-29.33,16.58C12.53,38.58.49,57.21.01,74.22c-.36,12.99,7.95,24.41,20.21,27.77.33.09.67.18,1.02.26,2.38.57,4.87.86,7.38.86,10.15,0,20.48-4.69,27.63-12.56,4.39-4.82,11.67-11.91,21.48-18.35,9.44-6.19,18.06-9.7,23.64-11.55,14.02-4.66,24.25-16.8,25.46-30.22.03-.35.06-.69.08-1.04.65-11.56-6.31-22.21-17.34-26.51ZM119.67,28.99c-.01.26-.03.53-.06.79-.94,10.42-9.38,20.28-20.53,23.98-5.99,1.99-15.24,5.75-25.33,12.37-10.44,6.85-18.2,14.4-22.86,19.53-5.81,6.38-14.13,10.18-22.27,10.18-1.95,0-3.87-.22-5.7-.66-.27-.06-.53-.13-.79-.2-9.03-2.47-15.14-10.93-14.87-20.57.41-14.79,11.41-31.39,30.16-45.54C55.11,15.54,76.38,7.26,92.93,7.26c5.22,0,9.94.81,14.01,2.39,8.09,3.15,13.2,10.92,12.72,19.33Z"/>
          </g>
        </g>
        <path class="cls-5" d="M178.52,168.14c-1.77,0-3.22,1.44-3.22,3.22,0,12.18-11.57,22.08-25.79,22.08-11.96,0-22.25-6.94-25.06-16.9l10.6-11.4c.87-.94,1.1-2.3.59-3.48-.51-1.17-1.67-1.93-2.95-1.93h-24.37c-1.28,0-2.44.76-2.95,1.93-.51,1.17-.28,2.54.59,3.48l10.59,11.4c-2.81,9.95-13.1,16.9-25.06,16.9-14.22,0-25.79-9.9-25.79-22.08,0-1.77-1.44-3.22-3.22-3.22s-3.22,1.44-3.22,3.22c0,15.72,14.45,28.51,32.22,28.51,12.28,0,23.64-6.31,29.01-16.11,5.37,9.79,16.73,16.11,29.01,16.11,17.77,0,32.22-12.79,32.22-28.51,0-1.77-1.44-3.22-3.22-3.22ZM125.31,166.17l-4.8,5.17-4.8-5.17h9.61Z"/>
        <g>
          <path class="cls-5" d="M162.15,112.4c-8.82-8.34-19.6-4.49-20.05-4.32-1.16.43-1.76,1.73-1.34,2.9.43,1.17,1.73,1.77,2.9,1.35.35-.13,8.63-3.03,15.39,3.36.42.4.97.62,1.55.62.62,0,1.22-.26,1.64-.71.41-.44.64-1.01.62-1.62-.02-.6-.27-1.17-.71-1.58Z"/>
          <path class="cls-5" d="M96.16,108.08c-.45-.17-11.25-4.01-20.05,4.32-.44.41-.69.98-.71,1.58-.02.6.2,1.18.62,1.62.42.45,1.02.71,1.64.71.58,0,1.13-.22,1.55-.62,6.75-6.39,15.04-3.49,15.38-3.36,1.17.43,2.47-.17,2.9-1.34.43-1.17-.17-2.47-1.34-2.91Z"/>
        </g>
        <path class="cls-5" d="M222.4,130.86c-.08-1.73-.21-3.48-.38-5.2l-.02-.19-.3-.07c-.93-.22-1.94-.86-3.03-1.55-1.96-1.23-4.19-2.64-7.07-2.37-4.87.45-6.9,4.85-8.52,8.38-.38.82-.77,1.67-1.17,2.4-1.31,2.41-3.45,4.06-5.59,4.32-2.04.24-4.21-1.08-4.55-2.76-.39-1.91,1.06-3.93,2.75-6.27,1.15-1.6,2.34-3.25,3.15-5.15,2.64-6.25.37-14.03-6.07-20.83-3.41-3.6-8.59-10.3-4.97-14.76,2.21-2.72,6.55-4.22,12.23-4.22,2.86,0,5.91.4,8.82,1.16l.63.16-.33-.56c-1.23-2.03-2.54-4.06-3.91-6.01l-.07-.1h-.12c-9.33-1.18-17.59,1.14-21.57,6.04-2.71,3.33-5.62,10.64,5.26,22.11,3.76,3.96,7.04,9.94,4.98,14.82-.56,1.32-1.51,2.64-2.54,4.06-2.14,2.97-4.57,6.33-3.69,10.64.84,4.14,4.92,7.26,9.49,7.26.39,0,.79-.02,1.18-.07,3.96-.47,7.63-3.16,9.83-7.19.48-.88.91-1.82,1.33-2.73,1.39-3.03,2.42-5.02,3.97-5.16,1-.1,2.2.66,3.59,1.54,1.34.84,2.87,1.8,4.68,2.24.55.13,1.11.23,1.72.31l.31.04v-.31Z"/>
      </g>
    </g>
  </g>
</svg>