<?xml version="1.0" encoding="UTF-8"?>
<svg id="_レイヤー_2" data-name="レイヤー 2" xmlns="http://www.w3.org/2000/svg" viewBox="0 0 792.55 490.81">
  <defs>
    <style>
      .cls-1 {
        fill: #f3582c;
        stroke-width: 0px;
      }
    </style>
  </defs>
  <g id="Camada_1" data-name="Camada 1">
    <g>
      <path class="cls-1" d="M743.16,297.71c4.59-.41,9.17-.81,13.68-1.21,1.35-1.68,2.66-3.31,3.91-4.88,2-.07,4.04-.87,5.58,1.63-1.03,1.57-2.12,3.23-3.31,5.06.09,1.26.19,2.74.29,4.23,1.54,3.18,4.74,1.13,6.72,2.71,2.1,1.68,3.91,3.84,4.91,4.85,1.13,3.23,1.8,5.17,2.47,7.07,3.03-.27,5.62-.5,9.25-.82,1.36,1.58,3.22,3.67,5,5.85.39.48.46,1.27.72,1.91.68,1.69-.62,5.48-1.96,5.6-7.82.7-15.64,1.39-23.02,2.04-1.68,1.95-3.02,3.51-3.95,4.6-3.11.27-5.66.5-7.97.71-2.75-2.7-5.24-5.14-7.74-7.59-3.29,2.28-5.08,6.23-7.7,9.14-1.47-1.29-2.93-2.58-4.39-3.86-.96,1.29-1.82,2.43-2.68,3.58-4.18,2.56-8.76.93-12.41,2.23-6.33-5.72-6.61-5.7-11.77.65-1.41-1.19-2.85-2.39-4.36-3.66-1.2,1.46-2.48,3.01-3.71,4.5-1.46-1.28-2.92-2.55-4.37-3.81-.97,1.3-1.83,2.44-2.68,3.58-2.12,1.54-14.87,2.79-40.63,3.98-2.71-4.9-6.84-3.12-11-2.97-1.16,1.29-2.52,2.8-4.2,4.69-20.45,1.81-41.33,3.66-62.23,5.5-1.42,1.68-2.75,3.25-4.15,4.92-1.14.16-2.42.35-3.74.53-1.49-1.34-3-2.7-4.46-4.02-1.32,1.62-2.64,3.24-3.73,4.58-2.89.26-5.47.48-7.72.68-1.81-1.52-3.35-2.81-4.37-3.67-3.16.28-5.71.5-7.99.71-1.09,1.46-1.95,2.6-2.94,3.93-4.87,1.74-10.13,1.24-15.26,1.86-5.87.71-11.77,1.09-17.66,1.61-5.14.45-10.29.91-14.66,1.3-1.54,2.06-2.39,3.2-3.44,4.59-14.13,1.25-28.47,2.52-42.83,3.79-1.42,1.68-2.75,3.25-4.16,4.92-1.14.16-2.42.35-3.76.54-1.47-1.34-2.98-2.7-4.44-4.03-1.32,1.62-2.63,3.24-4.01,4.93-9.13.81-18.25,1.61-27.23,2.41-5.21,6.43-5.57,6.48-10.98,1.55-.95-.33-1.81.34-2.68,1.94-.34.63-.84,1.15-1.45,1.97-3.66.32-7.53.67-11.41,1.01-1.42,1.69-2.75,3.27-4.24,5.03-12.84,1.14-25.9,2.29-38.95,3.44-1.36,1.69-2.67,3.33-4.02,5l-11.6,1.03c-1.38,1.7-2.7,3.32-4.08,5.02-6.51.58-13.02,1.15-19.38,1.71-.98,1.31-1.84,2.45-3.01,4.02-6.44,2.47-13.77.69-20.59,3.01-.86,1.15-1.71,2.29-2.57,3.43-.55.3-1.08.8-1.65.86-7.19.68-14.39,1.3-22,1.98-1.13,1.26-2.49,2.76-4.2,4.66-2.1.19-4.66.41-7.23.64-1.43,1.69-2.76,3.26-4.25,5.03-3.67.32-7.57.67-11.45,1.01-1.36,1.7-2.67,3.33-4.02,5.01-6.49.57-13.03,1.15-19.46,1.72-1.38,1.7-2.7,3.32-4.08,5.02l-7.6.67c-.98,1.31-1.84,2.45-2.94,3.92-2.77.63-5.83,1.32-8.83,2-.91,1.22-1.76,2.36-2.77,3.71-4.85,1.72-10.12,1.05-15.69,1.99-1.08,1.2-2.44,2.71-4.14,4.6-3.42.3-7.29.64-11.17.99-1.42,1.69-2.75,3.27-4.25,5.03-3.67.32-7.58.67-11.45,1.01-1.37,1.7-2.68,3.33-4.02,5.01-5.18.46-10.41.92-15.52,1.37-1.39,1.7-2.7,3.32-4.08,5.02-6.51.58-13.02,1.15-19.38,1.71-.98,1.31-1.84,2.46-2.7,3.61-1.16.43-2.3,1.14-3.49,1.26-8.43.83-16.88,1.54-24.8,2.24-1.05-1.03-1.93-1.47-1.98-2.01-.41-4.47-.67-8.96-.98-13.53,1.14-1.65,2.35-3.39,3.61-5.21-.09-1.41-.19-2.88-.29-4.26.5-.67.87-1.66,1.37-1.75,3.84-.68,7.69-1.19,11.6-1.76,1.59,1.38,3.12,2.7,4.71,4.08,1.22-1.47,2.49-3.01,3.73-4.51,1.51,1.36,3.03,2.72,4.47,4.02,1.41-.25,2.67-.47,3.94-.7,1.68-3.5,4.41-5.07,7.75-5.47.87-1.16,1.72-2.3,2.72-3.64,4.86-1.7,10.13-1.05,15.29-1.91,3.33-2.4,5.28-6.37,8.04-9.65l3.86-.34c1.42,1.26,2.93,2.61,4.38,3.9,1.32-1.61,2.64-3.22,4.03-4.92,2.58-.23,5.15-.46,7.36-.65,1.52-1.68,2.76-3.05,3.98-4.39,1.3,1.28,2.3,2.25,3.64,3.57,1.2-1.3,2.43-2.64,3.99-4.34,6.08-.54,12.57-1.11,19.41-1.72,3.71-4.95,7.49-10,11.21-14.96,2.87-.25,5.44-.48,7.85-.69,1.01-1.35,1.86-2.49,2.72-3.63,4.1-2.47,8.88-.74,13.06-2.75.85-1.14,1.71-2.28,2.56-3.42.56-.28,1.1-.74,1.68-.8,5.89-.57,11.78-1.07,17.67-1.59,3.32-2.48,5.31-6.42,8.04-9.69,3.84-.34,7.75-.69,11.73-1.04,1.45,1.31,2.97,2.68,4.43,4,2.66-.24,5.27-.47,7.7-.68,1.43-1.73,2.76-3.33,4.06-4.91,3.14.53,4.91-1.52,6.33-4,2.35-2.04,5.08-1.07,7.96-1.8,1.33,1.03,2.89,2.23,4.74,3.66.63.13,1.85-.58,1.92-2.28.13-2.94-.31-5.91-.49-8.6.64-.86,1.35-1.99,1.46-1.92,1.57,1.04,3.06,2.23,4.79,3.57.98-.09,2.28-.2,3.64-.32,2.46-3.13,4.98-6.32,7.48-9.5,1.25,1.23,2.25,2.21,3.72,3.65,5.29.17,10.99-.37,16.39-1.46,4.99-6.18,5.32-6.2,11.14-.95,5.1.17,5.13.13,5.88-5.48.09-.69.12-1.44.38-2.04.29-.65.82-1.16,1.25-1.73,2.99,2.77,5.98,5.55,8.59,7.97,3.05-.27,5.61-.5,7.99-.71,1.03-1.38,1.78-2.66,2.76-3.63,1.86-1.86,5-.7,6.53-3.76.96-1.92,2.5-3.46,3.78-5.17.43-.57.85-1.14,1.41-1.89,5.05-.45,10.24-.91,15.76-1.39,1.25,1.12,2.77,2.49,4.38,3.93,10.33-.91,20.79-1.84,31.27-2.77,1.71-1.48,1.89-3.53,1.71-5.84-.17-2.13-.04-4.3-.04-5.83,1.6-3.02,3.7-2.15,5.53-2.33,1.98,1.82,1.97,1.85-1.84,6.99,2.14,1.6,4.28,3.2,6.72,5.02,2.65-1.68,4.47-5.58,6.98-8.68,2.54-3.14,4.9-6.49,7.32-9.72,1.46,1.43,2.45,2.4,3.45,3.38,3.86,1.23,7.69-.15,11.96-.19,1.14-1.24,2.51-2.72,4.36-4.72,3.16-2.22,5.37.88,7.75,3.32,3.73-1.7.38-7.07,3.61-9.06,1.28-.11,2.58-.23,4.4-.39.88,2.36,1.83,4.89,3,8.01,1.55.12,3.35.26,4.81.37,1.57-1.32,1.78-2.63,1.93-4.12.53-5.17.61-5.17,4.16-5.5,3.21-.3,6.42-.57,9.19-.82,2.97,2.91,5.46,5.35,8.2,8.04,1.23-1.39,2.48-2.8,3.85-4.34,1.36,1.24,2.76,2.66,4.3,3.84.43.33,1.28-.06,2.8-.17.34-.22-.73-.16-.8.08-.4,1.49.18,2.53,1.23,3.41,1,.83,1.77.63,2.4-1.1.11-.31-.29-.98-.58-1.33-.39-.46-.86-.95-2.25-1.05-1.02-2.16-1.17-4.37-1.32-6.58,2.62-5.14,6.97-1.22,9.44-3.44,1.85,1.81,2.83,2.77,3.81,3.74,4.4.42,9.01,1.61,11.65-4.29,3-1.01,6.03-1.69,9.69-.34.4,1.65.89,3.64,1.54,6.3,1.26.39,2.99.92,4.45,1.37,2.9-2.27,4.84-4.84,6.14-8.03q-3.55-3.68-2.02-6.15c3.84-.34,7.7-.68,11.55-1.02,1.88,1.06,2.42,2.89,2.68,5.19.14,1.2,1.33,2.25,2.05,3.36,1.28-1.6,2.56-3.2,3.85-4.81,3.22-.28,6.44-.57,9.65-.85.65,3.41,3.14,5.42,5.2,3.99,1.56-1.08,2.65-3.01,4.18-4.16,1.58-1.19,3.49-1.49,5.21-.17,1.06.82,1.85,2.29,2.98,2.76,1.73.71,3.68.82,5.16-.97.89-1.07,1.69-2.23,2.53-3.35,1.24-.22,2.48-.44,3.89-.69,1.4,1.24,2.9,2.57,4.66,4.13,3.54-.31,7.39-.48,11.19-1.08,1.36-.22,2.05-1.72,1.75-2.81-.16-.6-.89-1.32-1.42-1.39-1.25-.16-2.54.2-3.79.04-1.92-.24-2.15-1.98-.63-4.4,5.11-.45,10.25-.91,15.55-1.38,1.38,1.26,2.87,2.61,4.36,3.97,1.24-1.54,2.51-3.13,3.79-4.72,1.93-.17,3.86-.34,5.79-.51-.32,1.69.18,2.95,1.55,3.6,1.42.67,2.23-.68,2.38-3.95,5.84-.52,11.68-1.03,17.52-1.55,1.3-1.62,2.61-3.25,3.88-4.83l3.78-.33c1.59,1.44,3.09,2.8,4.42,4,5.4-.48,10.57-.94,15.53-1.37,1.46-1.75,2.78-3.33,3.83-4.6l11.6-1.03c1.8,1.52,3.32,2.81,5.07,4.28,1.68-.84,3.33-1.67,4.91-2.46-.13-1.95-.23-3.42-.33-4.84.96-.96,1.79-2.51,2.78-2.65,2.48-.37,5.07-.36,7.56-.01,1.48.21,1.97,1.85,1.63,3.6-1.28.11-2.59.42-3.86.29-1.52-.16-2.62.26-3.22,1.85-.39,1.05.33,1.9,1.6,3.04,2.54,2.28,4.94,4.79,7.4,7.19.96.94,1.87.48,2.71-1.45-.09-1.35-.19-2.8-.29-4.27-1.15-2.44-4.63-2.91-4.35-6.65ZM489.91,341.21c.47.46,1.22,1.41,1.37,1.31,1.32-.98,1.71-2.12,1.13-3.02-.36-.55-1.2-1.43-1.35-1.32-1.32.98-1.65,2.08-1.15,3.04ZM711.29,347.34c.45-.99.05-2.06-1.32-2.95-.15-.1-.94.84-1.27,1.42-.53.94-.07,2.04,1.29,2.93.15.1.85-.91,1.29-1.4Z"/>
      <path class="cls-1" d="M618.74,317.81c-.17-2.1-.34-4.19-.5-6.29,2.84-3.97,3.22-3.97,7.27-1.79-3.38,6.15-3.35,6.17-6.76,8.08Z"/>
      <path class="cls-1" d="M18.17,124.51c-.09-.16.87-1.49,1.03-1.41.89.44,2,.92,2.46,1.79.95,1.79.22,2.81-1.5,2.06-.83-.36-1.44-1.51-1.99-2.44Z"/>
      <path class="cls-1" d="M690.05,309.85c.15-3.26.96-4.62,2.38-3.95,1.37.65,1.87,1.91,1.55,3.6-1.31.12-2.62.23-3.93.35Z"/>
      <g>
        <path class="cls-1" d="M358.12,240.3c.16-.21.38-.57.57-.87-.44-.32-.91-.68-1.51-1.23.4.8.65,1.44.94,2.1Z"/>
        <path class="cls-1" d="M169.86,161.25c.93.19,1.43-.26,1.26-1.17-.65-.07-1.26-.12-1.99-.24.28.54.5.97.72,1.41Z"/>
        <path class="cls-1" d="M479.58,128.66c.88.26,1.4,0,1.48-.65-.56-.14-1.2-.35-1.98-.71.14.54.33.92.5,1.36Z"/>
        <path class="cls-1" d="M361.57,159.02c-.21-.03-.66.04-.73.2.27-.03.51-.05.78-.08-.02-.04-.03-.08-.04-.12Z"/>
        <path class="cls-1" d="M453.02,90.76c.75.15,1.19-.11,1.26-.7-.56-.14-1.2-.35-1.98-.71.28.52.49.96.72,1.4Z"/>
        <path class="cls-1" d="M368.55,108.76s0-.05,0-.08c0,0,0-.02-.01-.02,0,.03,0,.07,0,.11Z"/>
        <path class="cls-1" d="M470.46,134.29c.15-.75.36-1.59.61-2.54-.44.5-.95,1.26-1.54,2.44h-.03c.21.22.56.22.97.1Z"/>
        <path class="cls-1" d="M494,167.91c-3.81.4-7.7.81-11.53,1.21-1.59-1.4-3.12-2.75-4.63-4.08-1.86-.08-3.92,1.26-5.69-1.61-.21-1.61-.56-3.75-.74-5.9-.34-4.11.54-5.24,3.81-5.86,2.42-.46,5.33.67,7.32-3.14-.13-1.61-.33-3.79-.47-5.97-.27-3.97-.23-3.98,4.07-5.59.58-.22,1.25-.29,1.73-.67.52-.41,1.07-1.06,1.19-1.71.07-.38-.6-1.07-1.05-1.44-2.07-1.67-6.29.87-8.43-4.51-.13-.04-.22-.02-.37-.08-.83-.36-1.44-1.51-.13-1.27-1.95-1.33-.98-2.65-.83-2.58.89.44,2,.92,2.46,1.79.33.62.4,1.1.35,1.5,1.88.47,2.7-.15,3.02-1.44.33-1.33.24-2.79.33-4.19-2.09-3.81-5.57-5.92-8.34-8.91-.21-1.42-.42-2.84-.66-4.45,1.07-1.63,2.22-3.37,3.47-5.28-.1-1.24-.22-2.69-.26-3.29-1.41-4.55-4.54-2.21-5.84-2.92-2.31-1.76-3.85-2.94-4.68-3.57-4.68.08-8.49.34-12.29.12-1.18-.07-1.78-1.29-2.79-3.31-.19-.04-.35-.03-.58-.13-.83-.36-1.44-1.52-.13-1.27-1.95-1.33-.98-2.66-.83-2.58.89.44,2,.92,2.46,1.79.33.62.4,1.1.35,1.5,1.88.46,2.67-.17,3.07-1.46.92-3.04.52-5.62-2.36-7.31-2.44.26-5.02.53-7.52.79-4.1-3.9-8.11-7.73-12.46-11.87-1.16,1.36-2.3,2.81-3.56,4.11-.41.43-1.14.51-1.74.64-.64.14-1.3.15-3.03.33-2.16-2.56-4.85-5.76-7-8.32-4.98.52-8.88.93-12.71,1.33-1.52-1.33-3.01-2.63-4.4-3.85-1.32,1.56-2.55,3.02-3.72,4.4-1.66-.86-1.95-2.11-2.18-3.69-.48-3.31-1.48-4.65-3.13-4.45-2.52.3-5.16-.08-7.5,1.38-2.1,2.89-4.19,5.76-6.45,8.87-2.36.25-4.9.51-7.14.75-.78.67-1.31,1.05-1.74,1.53-.47.52-.91,1.09-1.25,1.72-.9,1.65-3.29,2.85-2.47,4.98,1.02,2.62,3.45.97,5.35,1.09.45.44,1.16.81,1.41,1.42,1.91,4.61.84,7.32-2.96,7.77-3.23.38-6.46.72-9.67,1.24-.48.08-.84,1.08-1.67,2.21.37,4.63.84,9.76,1.15,14.91.08,1.36-.32,2.76-.5,4.13-.84,1.16-1.68,2.31-2.51,3.46.01,1.45.03,2.9.05,4.58-1.06,1.61-2.22,3.36-3.47,5.24.58,7.25,1.18,14.67,1.78,22.27,1.34,1.35,2.78,2.82,4.25,4.31.17,2.14.36,4.33,1.36,6.46.1.02.15.05.04.12,1.38.08,1.87.56,2.26,1.01.3.35.71,1.01.6,1.32-.6,1.74-1.38,1.96-2.38,1.14-1.06-.86-1.66-1.89-1.27-3.38,0,0,.02,0,.02-.01-5.07.51-9.41.97-13.73,1.42-2.52-1.83-3.36-4.58-1.84-7.35,1.36-2.49,2.88-4.44,2.72-7.82-.09-1.74,1.89-3.61,2.95-5.44-.76-.65-1.61-1.97-2.55-2.05-1.92-.18-3.9.54-5.83.4-1.13-.08-2.2-1.12-3.3-1.73,1.11-1.71,2.22-3.42,3.6-5.54-2.52-.71-4.85-1.36-7.18-2.02-2.51-2.39-5.02-4.78-7.51-7.15-1.25,1.57-2.51,3.15-3.75,4.71-3.32-2.51-1.86-8.83-6.55-10.29,1.15-1.74,2.27-3.43,3.4-5.13-3.02-4.38-7.4.48-11.03-2.16-1.68-1.68-3.6-3.62-4.63-4.65-1.14-3.15-1.84-5.06-2.53-6.96-3,.32-5.57.58-8.41.88-1.1,1.4-2.39,3.04-3.69,4.69-3.44-1.4-1.19-7.15-4.99-8.52-1.13.12-2.42.25-3.53.37-1.66-1.43-3.19-2.75-4.59-3.95-1.47.01-2.87.42-3.98-.05-2.21-.95-1.7-3.59-2.25-5.62-.23-.87-1.62-1.34-2.34-1.88-1.43,1.6-2.77,3.1-3.98,4.45-2.85.14-5.37.27-6.43.32-3-.98-3.54-4.31-5.81-2.61-1.13.84-.85,2.41-.85,4.03,0,3.69-.2,3.74-5.23,4.6-1.2,1.51-2.49,3.13-3.79,4.76-1.46-1.27-2.97-2.59-4.43-3.86-2.63.28-5.22.55-7.71.81-3.25,2.05.25,7.37-3.4,9-1.49-1.18-2.92-2.32-4.21-3.34-1.67,1.34-2.04,4.45-4.19,3.66-2.27-.83-1.36-3.78-1.88-5.79-2.01-1.91-4.01-3.82-6.17-5.87-2.43.25-4.99.52-7.57.79-1.59-1.38-3.12-2.71-4.76-4.13-3.74.39-7.62.8-11.49,1.21-1.56-1.39-3.08-2.74-4.6-4.1-4.55.48-9.09.95-13.64,1.43.42,5.24.84,10.48,1.26,15.72q-4.26,3.83-10.27-1.43c-2.74,5.61.21,11.41-.92,17.11-3.13,3.13-5.1,7.91-8.8,10.91-2.53-2.41-5.05-4.81-7.57-7.21-4.9.77-.06,6.87-4.04,8.67-3.35.35-7.23.76-11.39,1.2-3.66,5.03-7.38,10.14-11.03,15.15-2.92.31-5.47.57-7.84.82-1.02,1.4-1.68,2.92-2.74,3.63-1.56,1.04-3.75,1.06-5.06,2.34-1.94,1.88-3.34,4.49-4.79,6.52-.29,5.44,2.62,10.6-.49,15.5-4.94,1.1-4.93,1.05-6.63-4.34-.4-1.27-1.41-2.28-2.16-3.43-1.29.14-2.59.27-4.03.42-2.82,3.97-5.72,8.04-8.75,12.31.1,1.2.21,2.67.32,4.05-1.25,1.87-2.42,3.63-3.64,5.45.11,1.43.23,2.92.35,4.38-1.03.86-1.92,1.96-3.03,2.46-4.45,2.02-4.48,1.95-4.2,5.54.29,3.69.59,7.38.87,10.85,3.45,2.04,4.75,5.23,5.22,8.99,3.53,3.01,6.4,7.01,10.6,9.2,1.47-2.52,2.99-4.53,5.99-4.99,1.56-.24,2.88-2.61,4.87-4.56,1.82-.19,4.37-.46,6.93-.73,1.42-1.71,2.74-3.29,4.14-4.98,1.11-.19,2.38-.42,3.79-.66,2.48-3.25,5.03-6.59,7.51-9.82,1.42-.25,2.69-.48,3.95-.71,1.46-5.9,8.63-3.37,10.22-9.08,1.73-.71,3.46-1.42,5.17-2.12,2.11-2.91,4.21-5.8,6.31-8.68,1.27-.21,2.55-.42,4.07-.67,3.61-4.93,7.35-10.03,11.18-15.26,2.11.62,3.87,1.14,5.52,1.63.4,4.97.76,9.45,1.12,14.01-1.13,3.95-6.23,1.26-7.27,5.51q3.91,3.98,2.47,6.14c-1.28.2-2.56.4-3.89.61-1.26,1.62-2.55,3.27-3.76,4.82-1.88.62-4.61-.44-5.08,2.36-.36,2.13,2.18,2.95,3.37,4.4.21,1.44.42,2.89.65,4.49-1.12,1.67-2.29,3.43-3.53,5.27.23,2.87.47,5.85.7,8.77-1.22,1.8-2.41,3.56-3.52,5.19,0,2.3.86,4.64-1.36,6.47-1.37-1.13-2.83-2.33-4.47-3.68-1.07.11-2.36.25-3.89.41-4.39,6.21-8.92,12.62-13.12,18.57-2.29.95-4.05,1.59-5.73,2.43-.41.2-.89,1.24-.75,1.59.24.62.87,1.21,1.45,1.44,1.75.69,3.83-.69,5.42,1.07,1.57,1.74,1.4,3.89.91,6.01-.15.66-.8,1.17-1.27,1.82-2.54.27-5.14.54-7.62.8-1.84,1.59-1.91,3.62-1.9,5.92,0,1.24-.97,2.59-1.72,3.69-1.18,1.73-2.35,4.24-3.74,4.62-5.27,1.43-5.36,1.22-5.05,7.3-1.13,1.67-2.32,3.43-3.54,5.23.23,2.91.47,5.9.71,8.89-4.26,3.96-4.32,4.02-9.79-1.04-1.24,1.51-2.49,3.03-3.84,4.68l-3.51.37c-2.93,1.96-1.22,5.48-2.43,7.92-.3.61-.87,1.06-1.39,1.68-1.2.13-2.49.26-3.68.39-2.91,3.22-.5,9.16-4.57,11.41-.22,2.22-.42,4.3-.61,6.2-3.43,1.78-6.52,2.1-9.69,1.22-.56-.16-.99-.93-1.5-1.44-.12-1.46-.24-2.95-.35-4.37-1.44-2.03-3.33-1.77-5.29-1.86-1.09-.05-2.22-1.25-3.18-2.16-1.34-1.26-2.53-2.72-3.75-4.07,4.56-6.81,4.53-7.14-1.09-12.96,1.02-1.64,2.06-3.31,3.15-5.04-1.32-1.38-2.71-2.83-4.15-4.34-.11-1.42-.23-2.9-.34-4.2-1.44-1.55-2.77-2.98-4.1-4.4.97-1.33,1.9-2.41,2.62-3.66,1.17-2.02,1.02-4.42-.25-6.01-1.71-2.15-3.73-3.63-4.08-7.08-.18-1.76-2.35-3.25-3.81-5.1.9-1.43,1.96-3.11,3.13-4.97-.22-2.73-.46-5.71-.7-8.76-1.33-1.4-2.73-2.87-3.72-3.91,1.1-4.37,5.21-6.18,6.01-10.69-2.55-2.43-5.07-4.83-7.79-7.42,2.3-3.39,4.62-6.79,6.87-10.1-.13-1.56-.24-3.04-.34-4.26-1.45-1.59-2.75-3.02-3.99-4.37.75-1.86,1.84-2.22,3.22-2.5,2.95-.6,4.01-1.79,3.96-3.6-.13-4.42-1.24-8.79-.56-12.69,1.27-2.25,2.29-4.05,3.02-5.35-.04-5.1-1.46-9.46-.21-13.88.84-1.16,1.68-2.31,2.66-3.66-.34-4.26-.7-8.7-1.05-13.15,1.23-1.85,2.39-3.61,3.63-5.49-.35-4.32-.71-8.8-1.06-13.23,1.21-1.81,2.39-3.57,3.64-5.43-.11-1.38-.23-2.86-.34-4.22,2.36-3.67,5.46-6.53,7.23-11.46-.18-2.21-.41-5.1-.61-7.63,3.65-5.02,7-9.64,10.38-14.29-.12-1.46-.24-2.95-.36-4.47,7.57-10.37,15.15-20.74,22.94-31.39,1.88-1.04,4.54-.78,6.23-3.61,2.57-4.32,5.62-8.27,8.24-12.06l4.25-.45c1.42-1.76,2.73-3.38,3.91-4.84,1.47-.32,2.72-.58,3.89-.84,1.74-2.35,3.43-4.64,5.09-6.88-.25-3.06-.48-6.05-.77-9.57-2.23-.63-4.86-.74-6.85-2.08-2.79-1.88-5.11-4.67-7.68-7.12-1.25.13-2.55.27-3.88.41-.58,1.16-1.67,2.37-1.67,3.59-.02,2.23.01,4.23-1.73,5.55-1.55-1.32-3.09-2.63-4.53-3.85-1.44.32-3.14.11-3.84.97-3.1,3.81-5.91,7.93-8.53,11.55-.43,4.13,1.94,7.94-.89,11.21-1.27.25-2.53.49-4.02.78-2.43,3.18-4.98,6.52-7.59,9.93-5.17.54-10.38,1.09-15.49,1.63-1.76,2.42-3.44,4.73-5.15,7.08,2.77,2.84,5.55,5.67,8.32,8.5-2.25,3.1-4.35,5.99-6.65,9.16-.52,2.31.71,5.64-2.39,7.6-3.55.37-7.45.78-11.3,1.19-1.26,5.38-6.85,3.66-9.05,7.57.11,1.38.23,2.86.35,4.41,1.37,1.41,2.8,2.9,4.18,4.33.12,1.54.24,3.03.34,4.29-1.17,1.84-2.24,3.52-3.3,5.18.67.64,1.14,1.2,1.69,1.59,1.37.97,2.14,1.99,1.84,3.01-.5,1.7-1.64,2.15-3.2,2-1.29-.12-2.61.22-3.92.36.18,2.24.36,4.49.53,6.65-1.22,1.8-2.41,3.55-3.53,5.21.05,1.62.09,3.09.13,4.55-.9,4.03-6.61.29-6.78,5.51,5.35,5.53,5.43,6.38.98,12.41-.82,1.11-1.69,2.81-2.7,2.97-5.8.91-5.43,1.83-4.85,7.19-1.14,1.68-2.32,3.43-3.54,5.23.47,5.9.95,11.89,1.43,17.79-1.22,1.8-2.41,3.55-3.54,5.23.21,1.58.4,3.03.57,4.31,1.47,1.6,2.86,3.11,4.35,4.73.23,2.93.47,5.85.68,8.5.75.72,1.28,1.17,1.76,1.69,2.7,2.97,3.42,5.08,1.95,7.45-1.51,2.43-2.94,4.44-2.77,7.85.09,1.75-1.91,3.63-3.17,5.82.32,4,.68,8.45,1.03,12.9-1.23,1.82-2.42,3.58-3.64,5.38.47,5.89.95,11.87,1.43,17.86,1.09.65,2.12,1.48,3.28,1.89,1.16.41,2.55.1,3.62.66,1.15.6,2.09,1.79,3.05,2.81.92.98,1.74,2.08,2.85,3.42.69,8.6,1.4,17.51,2.1,26.18,2.19,2.06,4.43,3.57,4.37,7.15-.03,2.13.54,4.26.79,6.03,1.34,1.27,2.34,2.23,3.36,3.19.28,1.4.64,2.79.81,4.21.26,2.23.39,4.48.56,6.73.3,4.1,1.25,4.77,6.45,4.99,1.69,1.37,3.24,2.62,4.6,3.72,6.25-.74,6.25-.68,9.47,1.2-1.12,1.69-2.24,3.39-3.43,5.2,3,3.03,6.3.83,10.81,1.2,1.85,2.25,4.53,5.5,6.66,8.08,3.75-.39,6.35-.67,8.81-.92,1.64,1.42,3.18,2.76,4.68,4.05,3.75-2.24,5.41,2.69,8.35,2.97,2.11-2.91,4.21-5.79,6.36-8.75,2.89-.8,6.68-.63,5.78-6.22-.1-.65-.07-1.72.28-2.02,3.83-3.31,2.82-7.8,2.6-12.23-.06-1.13,1.09-2.34,1.65-3.44,1.46,1.23,2.93,2.46,4.21,3.53,1.58-1.67,2.77-3.74,4.42-4.45,1.77-.76,3.76-.72,4.83-2.93.13-2.1-1.32-4.9.97-6.07,1.87-.96,2.91,1.82,4.38,2.82,1.27,0,2.54.01,3.81.02,2.3-2.49,4.69-4.91,5.76-8.44.33-3.49-2.13-7.37,1.21-10.25,1.56,1.34,3.09,2.67,4.87,4.2,1.64-.77,3.33-1.55,5.01-2.33-.52-6.45-.99-12.39-1.45-18.16.44-.81.73-1.45,1.11-2.02.81-1.18,1.79-2.23,2.48-3.49.91-1.67,1.71-2.29,2.69-1.64,1.25.82,1.72,2.08,1.5,3.81-.09.71-.04,1.44-.05,2.16q-3.17,4.65-1.31,6.61l4.22-.44c1.36-2.08,2.92-4.47,4.66-7.14-.34-3.44.81-6.67,3.45-9.19-1.57-4.2-6.19-.34-7.98-3.98-.24-2.97-.48-5.96-.72-9.01,1.66-2.26,3.35-4.55,5.07-6.89,1.19-.26,2.44-.52,4.09-.88,1.46-1.96,3.32-4.06,4.76-6.48,1.35-2.28-.48-5.92,2.49-7.88l2.63-.28c4.86-6.22,9.21-11.8,13.37-17.12-.05-1.91-.09-3.38-.16-5.91,6.28-.23.95-7.72,4.81-10.43,1.18-.12,2.47-.26,4.02-.42,1.49-2.25,3.06-4.63,4.86-7.35.07-3.06.15-6.63.22-9.8,1.13-1.55,1.97-2.71,2.81-3.86-.04-1.47-.08-2.93-.14-5.06-1.83-1.44-3.98-3.13-6.49-5.1-1.99.58-3.16,3.35-4.32,5.56-1.19,2.27-1.3,5.28-1.86,7.88-3.02.32-5.62.59-8.32.87-1.41-.72-2.19-1.9-1.52-2.8,1.7-2.3,2.95-4.43,2.79-7.84-.08-1.75,1.92-3.63,3.28-5.97-.31-3.85-.62-8.31-1.07-12.75-.06-.57-.81-1.06-1.24-1.58-1.81-.34-3.66-.53-5.42-1.07-1.23-.38-1.83-1.44-2.83-3.4-.2-.04-.36-.03-.59-.13-.83-.36-1.44-1.52-.13-1.27-1.95-1.33-.98-2.66-.83-2.58.89.44,2,.92,2.46,1.79.21.39.3.72.36,1.03,3.97.45,6.81.2,9.32-.06,4.42-5.9,8.68-11.59,12.88-17.21-.13-1.66-.25-3.14-.41-5.11,1.58-.81,3.24-1.67,6.94-3.57.94-1.66,3.05-5.41,4.71-8.35,2.49-.26,3.79-.4,5.1-.54,3.16-2.06-.17-7.33,3.46-9.15,2.02,1.92,4.03,3.84,6.05,5.76-1.1,1.72-2.21,3.43-3.26,5.08,1.42,1.5,2.83,2.99,4.15,4.39,0,1.66,0,3.11,0,4.32-1.19,1.94-2.27,3.72-3.13,5.12-.31,4.04,1.98,7.92-1.19,11.02-1.95.2-3.9.41-5.85.61.26-.39.21-1.07-.26-1.95-.46-.87-1.56-1.35-2.46-1.79-.15-.08-1.12,1.25-1.03,1.41.54.93,1.16,2.08,1.99,2.44.84.37,1.44.3,1.73-.07.42,5.21.83,10.42,1.25,15.56-1.16,1.75-2.3,3.45-3.37,5.06,1.48,1.59,2.87,3.08,4.16,4.47-.02,1.68-.04,3.13-.06,4.3-1.18,1.96-2.25,3.74-3.18,5.27.62,4.77.24,9.28,1.7,13.49,5.19,5.34,5.22,5.73.74,12.42-.1,5.96-.06,6.05,4.77,6.65,1.28.16,2.41.47,3.35,1.84-1.14,1.7-2.28,3.42-3.4,5.1.24,3.01.48,5.98.7,8.79,1.44,1.53,2.78,2.96,4.02,4.28-1.1,1.82-2.08,3.45-3.05,5.06,1.29,1.22,2.29,2.18,3.3,3.14,2.24,6.2.58,13.17,2.91,19.36,1.01.96,2.01,1.92,3.27,3.11-.99,1.62-1.99,3.26-3.09,5.06,1.27,1.34,2.64,2.77,4.07,4.27.11,1.36.23,2.85.35,4.34,1.09.66,2.13,1.77,3.26,1.89,3.13.34,4.34-1.09,4.34-5.2,0-1.6.01-3.01,1.34-3.87,1.12-.73,2.51,1.48,2.73,4.38.16,2.18.35,4.36.46,5.79-1.36,2.32-2.31,3.93-3.23,5.51,1.35,1.29,2.36,2.25,3.37,3.21.3,1.38.45,2.84.93,4.14.81,2.2,2.2,3.28,4.48,2.78,2.29-.5,3.65.95,3.87,3.49.18,2.19.56,3.98,2.64,4.29,1.41-1.6,2.74-3.12,4.14-4.7,3.15.74,6.56-2.02,9.22,1.77.11,1.4.23,2.89.35,4.34,3.55,3.38,7.07,6.73,10.59,10.09,1.28-1.61,2.57-3.23,3.79-4.76,2.66-.28,5.25-.55,7.09-.74,4.13,2.19,6.22,6.35,9.88,7.9,4.25,1.21,4.78-4.53,7.86-5.31q9.83-1.08,12.45-3.85c-.03-2.14-.92-4.47,1.33-6.33,1.35,1.1,2.8,2.28,4.46,3.63l7.59-.8c1.91-2.65,4.68-4.78,5.44-8.55-.18-2.28-.36-4.51-.57-7.17.96-1.49,2.3-3.11,3.13-5.01.81-1.86-.55-4.35.97-6.15.32-.38.87-.51,1.32-.76,2.51,2.4,5.03,4.79,7.55,7.2,2.48.6,4.84.86,5.89-2.52-1.27-1.45-2.5-2.85-3.59-4.1.83-2.16,3.15-2.91,2.44-5.46-2.53-2.41-5.05-4.81-7.65-7.29,1.13-1.7,2.26-3.4,3.42-5.15-.29-3.65-.59-7.38-.89-11.11-1.3.14-2.65.08-3.89.46-1.5.46-2.67.26-3.46-1.27-.48-.95.03-2.14,1.29-3.3,1.15-1.06,1.75-2.33,1.45-3.82-.48-2.46.23-4.51,2.17-5.29,1.77-.72,3.83-.7,5.31,1.5-1.1,1.65-2.23,3.35-3.4,5.1.17,2.15.35,4.39.53,6.62,1.83-.19,3.65-.38,6.27-.66,1.54-2.13,3.45-4.75,4.99-6.87-.2-2.49-.43-4.45-1.83-7.75-.99,1.33-1.38,1.06-2.16-.68-.55-1.23-.66-2.72,1.22-1.43h0s0,0,0,0c-1.57-3.89-1.06-5.22-.29-6.31,1.11-1.58,2.39-3,3.53-4.4,2.47,1.34,2.02,3.8,2.33,6.02-1.16,1.67-2.43,3.34-3.54,5.14-.21.34-.34.51-.52.78,1.62,1.17,2.26,1.04,2.54,1.29,1.48,1.35,2.81,2.92,3.88,4.07l8.11-.85c2.97,1.28,2.19,4.75,3.06,6.53,2.32,2.29,4.21,4.25,6.21,6.03.25.23.77.06,1.6-.77-.04-.36,0-.79.18-1.35.32-.95,1.32-1.65,1.11-.15,1.16-2.23,2.32-1.12,2.25-.95-.38,1.02-.81,2.29-1.56,2.81-.54.38-.96.45-1.3.4-.42,2.23.12,3.27,1.25,3.42,3.06.4,6.17.3,8.62.39,2.1,1.53,3.66,2.67,4.82,3.52,2.52-.26,4.46-.47,6.73-.71,1.32,1.07,2.86,2.3,4.74,3.82,2.14-.22,4.67-.49,7.25-.76,1.6,1.33,3.13,2.61,4.9,4.08,2.27-.24,4.81-.51,7.68-.81,1.07-1.34,2.35-2.94,3.76-4.7l3.8-.4c1.38,1.24,2.89,2.6,4.43,3.99,1.25-.13,2.54-.27,3.79-.4,1.29-1.68,2.56-3.33,3.8-4.95,5.23-.55,10.39-1.09,15.54-1.63,1.67-2.3,3.33-4.59,5.04-6.94-.81-.79-1.55-2.13-2.44-2.28-3.02-.49-6.32,2.02-9.36-1.31,2.12-2.52,3.32-5.95,6.1-7.46,3.14-.96,6.86.9,8.83-3.32-.15-1.89-.38-3.82-1.66-6.42-.2-.04-.36-.03-.59-.13-.83-.36-1.44-1.52-.13-1.27-1.95-1.33-.98-2.65-.83-2.58.89.44,2,.92,2.46,1.79.35.67.41,1.17.33,1.57,1.04.36,1.58.4,1.8.13,1.76-2.2,3.37-4.56,5.2-7.08-1.26-1.38-2.55-2.8-4.01-4.39-.45-5.67-.93-11.6-1.41-17.57-1.47-1.49-2.91-2.96-4.37-4.44,1.2-3.87,6.27-1.15,7.25-5.46-1.74-2.01-4.47-3.12-4.32-6.79.13-3.16-3.76-3.33-3.84-6.49,1.62-2.13,3.26-4.28,5.32-6.97.87,2.43,1.55,4.36,2.68,7.51,1.05,1.03,2.82,3.29,5,4.75,2.47,1.65,4.84.75,6.45-2.18-.12-1.44-.23-2.92-.35-4.37,2.11-2.91,4.21-5.77,6.29-8.66.81-1.12.38-2.16-1.3-3.1ZM11.71,198.09c-.17.64-.68,1.27-1.18,1.66-.82.63-1.85.12-2.66-1.41-.3-.56-.15-1.42-.21-2.14-.58-1.61-.25-2.92,1.05-3.83,1.28-.91,2.65.79,2.89,3.58.06.72.3,1.51.12,2.15ZM16.29,221.78c-.83.59-1.79.22-2.67-1.27-.1-.17.66-1.14,1.14-1.56.77-.68,1.78-.24,2.65,1.25.1.16-.73,1.04-1.12,1.58ZM16.65,186.27c-1.28.13-2.55.27-3.83.4q-3.12-4.29-.62-8.99c1.28-.13,2.55-.27,3.83-.4q3.12,4.29.62,8.99ZM133.67,279.63c-.29.62-.78,1.13-1.19,1.67-.4.53-.81,1.06-1.22,1.59-3.02-2.71-3.24-5.69-.67-8.97,1.77.1,3.99-1.41,5.18.93,1.15,2.27-1.36,3.18-2.1,4.78ZM180.52,205.38c.14-.11,1,.75,1.36,1.3.59.89.21,2.03-1.09,3.04-.14.11-.91-.83-1.38-1.28-.52-.95-.19-2.05,1.11-3.06ZM172.17,201.64c3.21,4.09,3.2,4.1.82,8.97-1.28.13-2.55.27-3.83.4-3.21-4.09-3.2-4.1-.82-8.97,1.28-.13,2.55-.27,3.83-.4ZM171.03,128.55c-.83.59-1.79.22-2.67-1.27-.1-.17.66-1.14,1.14-1.56.77-.68,1.78-.24,2.65,1.25.1.16-.73,1.04-1.12,1.58ZM215.77,160.06c-.54-.31-1.43-1.11-1.37-1.3.63-1.65,1.51-2.22,2.42-1.81.48.45,1.42,1.14,1.35,1.32-.63,1.65-1.54,2.29-2.41,1.78ZM226.12,182.4c-3.06-2.71-3.3-5.7-.72-9,3.06,2.71,3.3,5.7.72,9ZM330.47,168.46c.72-2.38,4.99-2.94,6.47-.77.24.35.34,1.06.21,1.49-.67,2.36-4.96,2.88-6.45.78-.25-.35-.17-.99-.24-1.5ZM321.46,145.99c.77-.68,1.78-.24,2.65,1.25.1.17-.73,1.04-1.12,1.58-.83.59-1.79.22-2.67-1.27-.1-.17.66-1.14,1.14-1.56ZM321.02,181.49c1.91-.2,3.85-.23,5.71-.66,1.45-.33,2.53-.2,3.43,1.08.68.98.24,1.88-.9,3.25-1.3,1.57-2.3,3.45-3.21,4.85-1.8.19-3.07.32-4.35.46-3.04-2.72-3.32-5.71-.68-8.99ZM291.33,297.05c-.77.68-1.78.24-2.65-1.25-.1-.17.72-1.04,1.12-1.58.83-.59,1.79-.22,2.67,1.27.1.17-.66,1.14-1.14,1.56ZM321.06,281.13c-3.06-2.71-3.3-5.7-.72-9,3.06,2.71,3.3,5.7.72,9ZM322.3,239.45c-1.62.88-3.38,1.4-4.16,1.71-2.37,2.77-4.15,4.86-5.72,6.69.28,3.46.51,6.38.73,9.14-1.18,1.78-2.28,3.44-3.31,5,1.75,3.69,6.36-.42,7.68,4.07-4.21,2.24-1.52,8.36-4.54,11.08-2.89,2.59-.41,7.19-3.29,9.62-1.45-1.31-2.86-2.73-4.41-3.91-.41-.31-1.22.06-1.85.14.26-.39.21-1.07-.26-1.95-.46-.87-1.56-1.35-2.46-1.79-.15-.07-1.12,1.26-1.03,1.41.54.93,1.16,2.08,1.98,2.44.84.37,1.45.3,1.73-.07.58,1.65.32,3.24-1.1,3.87-4.92,2.19-10.23,1.36-15.76,2.45-1.06,1.21-2.39,2.74-3.87,4.43-5.02,1.25-5.02,1.18-6.44-4.01-.18-.67-.23-1.45-.56-2-.36-.59-.97-.98-1.59-1.58-3.77.4-7.64.8-11.29,1.18-2.2-1.08-2.87-2.84-3.05-5.22-.18-2.45-2.33-3.3-3.67-4.83-2.18-6.18-.53-13.15-2.85-19.24-1.57-2.26-3.63-.81-5.96-1.2-.62-1.58-1.37-3.48-2.12-5.39,1.28-2.03,2.39-3.8,3.69-5.85-.21-2.6-.44-5.54-.71-8.82-1.2-1.25-2.63-2.72-4.14-4.28-.35-4.33-.7-8.79-1.06-13.21-1.43-1.5-2.82-2.96-4.16-4.37,1.15-1.76,2.3-3.52,3.42-5.22-1.88-4.62,2.49-6.45,3.11-9.88-.18-2.24-.36-4.47-.55-6.78-.54-3.6-5.66-4.11-4.65-8.89,1.47-4.16,4.57-7,6.93-10.68-.35-4.31-.7-8.75-1.06-13.21,1.22-1.8,2.4-3.54,3.62-5.35-.11-1.39-.23-2.88-.35-4.31,1.21-1.78,2.4-3.53,3.54-5.2-.06-1.58-.12-3.05-.18-4.52,2.09-2.88,4.18-5.75,6.27-8.63.56-2.67,1.11-5.33,1.64-7.85,1.81-.19,3.11-.33,4.4-.46,2.59-3.07,4.32-7.04,7.61-9.33,1.01.96,2.02,1.92,3.52,3.35,2.04-.1,4.57-.22,7.38-.36.29.1,1.02.09,1.43.51,3.39,3.4,6.73,6.87,10.08,10.32-.87,5.14,5.56,6.1,4.85,11.14,1.24,1.62,2.47,3.25,4.16,5.46.17,1.37.45,3.52.69,5.69.45,4.16.55,4.35,4.8,4.73,1.32.12,2.46.29,3.46,1.83-1.07,1.64-2.17,3.33-3.34,5.12.35,4.32.7,8.78,1.06,13.27,1.37,1.43,2.77,2.88,4.1,4.26-1.08,1.71-2.14,3.38-3.18,5.03,1.18,1.13,2.19,2.08,3.23,3.08,1.71,2.5.9,5.63,1.58,8.92-.86,1.52-1.88,3.32-3.17,5.6.99,1.16,2.17,2.55,3.68,4.31.31,3.92.67,8.33,1.06,13.27-.85,1.32-1.98,3.08-3.11,4.85,1.38,3.25,4.34,1.37,6.46,2.42,1.43.72,2,1.92,1.68,3.68,1.77-.19,3.59-.75,5.3-.45,1.72.31,3.15,1.63,2.91,4.12.04,0,.06,0,.1,0,.12-.22,1.12-.29,1.64-.14-.57.05-1.03.1-1.55.15,2.06.04,2.56.49,2.94.93.3.35.71,1.01.6,1.32-.6,1.74-1.38,1.96-2.38,1.14-1.06-.86-1.66-1.89-1.27-3.39,0,0,0,0,0,0-3.35.32-5.67.56-7.92.8.58,1.63.31,3.12-1.05,3.85ZM334.61,260.8c-.54-.31-1.43-1.11-1.37-1.3.63-1.65,1.51-2.22,2.42-1.81.48.45,1.42,1.14,1.35,1.32-.63,1.65-1.54,2.29-2.41,1.78ZM331.35,248.51c-1.58.64-2.66,2.78-4.1,4.07-.76.68-2.01.08-2.6-1.52-.47-1.27-.3-2.85-.41-4.15,1.55-3.26,4.28-2.63,6.69-3.06,1.96-.35,3.7-.06,5.05,1.75-1.04,2.06-2.88,2.21-4.64,2.92ZM341.84,277.41c-.27.62-.97,1.64-1.13,1.56-1.44-.72-2-1.77-1.56-2.76.27-.62.77-1.1,1.16-1.65,1.39.86,1.97,1.85,1.52,2.84ZM341.94,237.39c-.77.68-1.77.24-2.65-1.25-.1-.16.73-1.04,1.12-1.58.83-.59,1.79-.22,2.67,1.27.1.17-.66,1.14-1.14,1.56ZM337.77,201.62c-.48-.45-1.42-1.14-1.35-1.32.63-1.65,1.54-2.29,2.41-1.78.54.31,1.44,1.11,1.37,1.3-.63,1.65-1.51,2.22-2.42,1.81ZM336.34,183.63c-.54-.31-.96-.88-1.44-1.33.75-1.59,1.62-2.25,2.48-1.75.54.31,1.43,1.11,1.37,1.3-.63,1.65-1.54,2.29-2.41,1.78ZM347.96,189.27c.73-2.33,4.98-2.87,6.47-.77.25.35.33,1.05.21,1.49-.66,2.4-4.96,2.94-6.45.78-.24-.35-.17-.99-.24-1.5ZM349.28,204.24c-.25-.35-.17-.99-.24-1.5.72-2.38,4.99-2.94,6.47-.77.24.35.34,1.06.21,1.49-.67,2.36-4.96,2.88-6.45.78ZM359.74,222.73c-1.77-.12-4.07,1.47-5.12-1.06-.89-2.15,1.46-3.21,2.29-4.8.32-.61.77-1.14,1.2-1.67.38-.47.82-.89,1.23-1.34q2.82,4.29.4,8.86ZM364.99,170.79c-.53,1.63-1.6,2.18-3.1,1.91-.61-.11-1.26.1-2.16.2-1.02,1.56-2.15,3.3-3.28,5.04-2.11-2.01-4.06-3.86-6.08-5.79.51-.98.93-2.72,1.57-2.83,3.75-.65,7.56-.92,11.35-1.32,1.42.77,2.05,1.73,1.7,2.8ZM365.79,128.77c-.39,1.02-.81,2.29-1.57,2.81-.36.25-.67.37-.94.43,1.65-4.26,2.56-3.4,2.51-3.24ZM362.42,129.87c.32-.95,1.32-1.65,2.13-2.27-.59,1.97-1.04,3.38-1.4,4.45-.85.1-1.22-.73-.74-2.18ZM361.69,135.43c-.31.34-.88.81-1.15.69-1.52-.69-1.71-1.58-1-2.73.75-1.21,1.65-1.9,2.96-1.46.17.06.24.86.19,1.49-.53,1.43-.77,1.76-.99,2.01ZM377.03,239.03c-1.77-.1-3.99,1.41-5.18-.93-1.15-2.27,1.36-3.18,2.09-4.78.29-.62.78-1.13,1.19-1.68.4-.53.81-1.06,1.22-1.59,3.02,2.71,3.24,5.69.67,8.97ZM370.27,108.34c-.29.37-1.12.17-1.71.23,0,.05,0,.07,0,.11.19.14.25,1.28.12,1.88-.05-.69-.09-1.25-.13-1.79-.03,2.38-.43,2.95-.82,3.39-.31.34-.88.81-1.15.69-1.52-.69-1.71-1.58-1-2.73.75-1.21,1.65-1.9,2.96-1.46,0,0,0,0,0,0-.15-2.04-.25-3.16-.31-4.25-.18-3.59.7-4.8,3.82-5.25,1.21-.17,2.42-.26,3.64-.39.45-4.57,1.58-5.51,5.88-4.71.52.1,1.09.76,1.36,1.33.15.32-.19,1.07-.47,1.49-.35.52-.82,1.18-1.3,1.27-1.81.32-3.65.44-5.47.63.05.67.38,1.58.12,1.96-1.76,2.61-3.61,5.16-5.54,7.62ZM377.07,124.28c-.4.55-1,1.63-1.16,1.55-1.44-.72-2-1.76-1.56-2.76.27-.62.97-1.64,1.13-1.56,1.44.72,1.94,1.73,1.58,2.77ZM393.93,245.69c-7.06,1.63-7.06,1.56-10.45-.55,1.04-2.05,2.72-2.53,4.67-2.84,2-.32,2.6-2.91,4.06-4.1,2.25-1.83,4.59-1.58,6.59.79-1.62,2.23-3.24,4.46-4.86,6.69ZM437.34,259.08c-.54-.31-1.44-1.11-1.37-1.3.63-1.65,1.51-2.22,2.42-1.81.48.45,1.42,1.14,1.35,1.32-.63,1.65-1.54,2.29-2.41,1.78ZM444.73,195.6c-.14.11-.91-.83-1.38-1.28-.52-.95-.19-2.05,1.11-3.05.14-.11,1,.75,1.36,1.3.59.89.21,2.03-1.09,3.04ZM441.91,184.64c-1.26,1.73-2.54,3.44-3.76,5.2-1.19,1.71-2.31,3.48-3.53,5.33.24,2.96.47,5.87.69,8.57-1.83,2.48-3.91,4.46-3.11,7.93.91,3.92.07,7.27-2.65,9.94-.3,3.61-.04,7.48-3.56,9.22,1.66,4.75,6.31.79,8.06,4.41-.39.57-.67,1.44-1.17,1.67-4.93,2.24-10.24,1.36-15.79,2.5-1.05,1.2-2.39,2.72-4.31,4.91-1.84.19-4.38.52-6.94.71-1.49.11-2.77-2-2.97-4.8-.05-.69.12-1.4.18-2.1.84-1.15,1.68-2.31,2.99-4.11-.07-2.26-.17-5.14-.28-8.45-1.15-1.38-2.44-2.93-4.06-4.87.82-1.38,1.78-3,2.88-4.86-1.22-1.28-2.5-2.76-3.9-4.06-1.51-1.41-3.13-2.67-4.3-3.65-.42-5.22-.78-9.69-1.12-13.98,1.25-1.89,2.41-3.65,3.5-5.3-.25-1.62-.47-3.05-.69-4.48-5.49-5.68-5.54-6.07-1.29-12.37.15-.67.47-1.36.43-2.01-.24-3.74-.54-7.47-.88-11.2-.17-1.83-1.48-2.83-4.41-2.78-3.18.06-3.12.76-4.36-6.9,2.45-2.44,5.4-5.38,7.41-7.37-.64-7.98-1.12-13.95-1.59-19.8-1.43-1.5-2.79-2.93-4.13-4.34,1.71-3.37,4.6-2.42,7.04-2.83,3.53-.61,3.53-.56,3.98-5.73.06-.69.19-1.38.29-2.07,3.77-5.19,7.53-10.39,11.34-15.54.25-.34.88-.31,1.34-.46,1.01.96,2.01,1.92,3.02,2.88,4.64,2.21,9.99-3.47,14.33,1.56-1.16,1.81-2.29,3.58-3.12,4.88.28,3.48.51,6.4.73,9.08,2.75,2.62,5.26,5.01,7.78,7.41,1.3,4.26,1.03,8.77,1.61,13.53,1.17,1.3,2.54,2.82,4.05,4.49-1.01,1.56-2.1,3.24-3.27,5.05.34,4.3.7,8.77,1.06,13.28,1.4,1.44,2.84,2.93,4.35,4.48.23,2.89.47,5.85.69,8.61,1.54,1.63,2.95,3.12,4.27,4.52,0,1.66,0,3.11,0,4.56-1.26,1.73-3.01,3.26-3.64,5.25-.65,2.06-4.37.62-3.17,4.11ZM452.61,244.59c-.14.11-1-.75-1.36-1.3-.59-.89-.21-2.03,1.09-3.04.14-.11.91.83,1.38,1.28.52.95.19,2.05-1.11,3.06ZM457.07,233.59c-.55,1.62-1.61,2.18-3.11,1.91-.61-.11-1.34.35-1.88.12-1.47-.63-2.09-1.7-1.7-2.74.24-.64.69-1.32,1.21-1.64.52-.31,1.24-.19,1.87-.25,2.44-.23,4.14.99,3.6,2.6ZM465.09,103.04c.14-.11.91.83,1.38,1.28.52.95.19,2.05-1.11,3.06-.14.11-1-.75-1.36-1.3-.59-.89-.21-2.03,1.09-3.04ZM466.14,215.99c-.14.11-1-.75-1.36-1.3-.59-.89-.21-2.03,1.09-3.04.14-.11.91.83,1.38,1.28.52.95.19,2.05-1.11,3.06ZM464.04,164.44c.28,6.09.25,6.13-5.07,7.11-1.42-1.25-2.88-2.7-4.48-3.91-1.39-1.06-2.04-1.97-1.61-3.05.63-1.55,1.74-2.07,3.27-1.85.61.09,1.26-.19,1.9-.3q1.47-2.26-2.37-6.16c2.29-5.72,6.88-1.03,8.87-3.48,3.52,1.83,2.59,4.45,3.03,6.42-1.22,1.81-2.41,3.56-3.54,5.22ZM465.76,143.68c-2.43-.03-3.23-.79-3.7-3.52-.4-2.32.3-4.01,1.89-5.37,1.83-.19,3.68-.39,5.53-.58-.32-.33-.38-1.01-.06-1.98.32-.95,1.32-1.65,2.13-2.27-.19.65-.35,1.23-.5,1.8,1.17-1.35,1.78-.75,1.73-.63-.38,1.02-.81,2.29-1.56,2.81-.29.21-.54.28-.78.35-.66,3.18-.55,4.74-.42,6.27-.88,2.05-2.2,3.14-4.27,3.11Z"/>
        <path class="cls-1" d="M331.39,234.78s-.06,0-.09,0c0,0-.02.01-.02.02.04,0,.08,0,.12-.01Z"/>
        <path class="cls-1" d="M384.09,255.74c.06.47.31.71.68.77.12-.66.31-1.39.61-2.27-.51.67-.92,1.13-1.29,1.5Z"/>
        <path class="cls-1" d="M472.38,233.65c.71.14,1.14-.09,1.24-.62-.52-.18-1.13-.42-1.96-.78.3.51.5.95.72,1.41Z"/>
        <path class="cls-1" d="M642.96,26.37c.02-.2-.02-.58-.12-.75,0,.28,0,.47.02.8.03-.02.07-.03.1-.05Z"/>
        <path class="cls-1" d="M579.77,77.39c.07,0,.16-.02.24-.03-.08,0-.12-.01-.21-.01,0,0-.03.01-.03.02,0,0,0,.01,0,.02Z"/>
        <path class="cls-1" d="M711.77,97.13c-.23-2.89-.47-5.85-.7-8.7-.98-1.44-2.1-1.83-3.4-1.91-4.91-.29-4.65-.27-4.97-4.54-.39-5.18-.82-10.35-1.18-14.85,1.04-2.72,2.16-3.15,2.94-1.55,1.18,2.4,2.03,5.01,3.1,7.72,3.64-4.36,1.57-8.49.59-12.58-3.02-2.88-6.04-5.75-9.27-8.82-2.89-.33-5.98-.57-8.34-3.6-.58-.75-2.51-.63-3.61-.19-.92.36-1.53,1.76-2.27,2.7,2.52,2.4,5.04,4.8,7.56,7.2.49,1.07.17,2.63-1.31,3.04-2.5.69-5.16.66-7.48.9-1.5,1.86-2.81,3.47-3.99,4.93-2.14.27-4.28.78-5.48-1.46-1.41-2.63-.35-6.15,1.97-7.19,1.15-.51,2.45-.6,3.59-1.13.54-.25,1.22-1.13,1.18-1.66-.04-.53-.89-1.36-1.41-1.38-2.54-.1-5.09.05-7.64.06-1.73,0-3.15-1.78-3.15-4.53,0-2.81-1.57-5.9,1.08-8.57,1.42,1.17,2.87,2.37,4.6,3.79,1.63-.17,3.57-.55,5.5-.52,1.51.03,2.62-.32,3.29-1.82.5-1.1-.11-2-1.52-3.06-1.6-1.21-3.06-2.68-3.84-3.39-2.65-.59-4.44-.99-6.65-1.48,1.46-2.25,2.55-3.93,3.66-5.65-1.8-3.63-6.37-.02-8.22-4.13-.1-1.26-.22-2.72-.33-4.11-2.1-2-4.11-3.92-6.23-5.94-2.48.26-5.06.53-7.9.83-3.27,1.85-.12,7.11-3.27,9.29-1.92.2-3.84.42-5.71,1.56-.01.11-.04.17-.1.05-.07,1.58-.49,2.14-.88,2.59-.31.34-.88.81-1.15.69-1.52-.69-1.71-1.58-1-2.73.75-1.21,1.65-1.9,2.96-1.46.03,0,.04.07.06.11-.02-1.2.03-2.08-.26-2.38-1.93-2.03-3.99-3.9-6.02-5.82-.61-.07-1.22-.15-1.84-.19-3.25-.23-4.56-.95-4.13-2.36.5-1.67,1.69-1.94,3.13-2.14,2.88-.4,4.1-1.95,3.14-3.33-.93-1.34-2.06-1.65-3.53-1.11-.59.21-1.27.07-1.79.08-1.62-1.38-3.16-2.7-4.36-3.73-2.97.31-5.53.58-7.92.83-2.26,3.11-4.36,6-6.56,9.02-2.94.71-6,1.44-8.78,2.11-1.07,1.47-1.91,2.63-2.75,3.78-1.25.26-2.5.51-3.92.8-1.45-1.25-2.99-2.58-4.64-4.01-1.15.12-2.44.26-3.78.4-1.25,1.59-2.55,3.24-3.78,4.79l-3.74.39c-1.7-1.44-3.24-2.76-4.62-3.93-1.51-.02-2.8.11-4.03-.1-.56-.1-1.22-.8-1.45-1.41-.13-.36.39-1.25.8-1.63,2.21-1.99,4.98-1,7.42-1.73,3.03-.91,3.86-6.09,7.83-5.38.45.08,1.1-.61,1.5-1.1.36-.43.51-1.09.75-1.65-2.02-1.92-4.03-3.84-6.09-5.8l-3.9.41c-1.26,1.6-2.55,3.25-3.76,4.79-5.31.56-10.52,1.1-15.49,1.63-1.64-1.35-3.1-2.54-4.33-3.55-1.64,1.68-2.87,3.72-4.52,4.41-1.78.74-3.7.78-4.67,2.93,1.43,1.48,2.86,2.96,3.9,4.04.52,6.47,1.03,12.4,1.41,18.35.03.54-.78,1.15-1.19,1.72-2.11-.68-2.56-2.51-2.7-4.73-.13-2.17-.52-4.32-.76-6.21-1.25-1.19-2.26-2.15-3.22-3.07-3.05-4.82,1.35-12.07-4.11-16.03-1.69,2.32-3.37,4.63-5.12,7.05.23,2.86.47,5.83.71,8.91,1.32,1.38,2.74,2.86,4.16,4.34-2.34,4.96-7.55.84-10.36,4.28-2.1,2.89-4.2,5.78-6.34,8.72-.6.06-1.27.28-1.89.17-1.54-.27-2.68.28-3.23,1.92-.35,1.04.39,1.99,1.74,3.03,1.59,1.22,3.06,2.63,4.4,3.79,1.56.04,2.82.07,4.08.1,2.52,2.4,5.05,4.81,8.01,7.63,3.17-1.34,5.69.82,8.19,3.78,2.43-.26,5.02-.79,7.59-.7,1.47.05,2.13,1.4,2.06,2.19-1.2,2.09-2.23,3.88-2.93,5.08.12,3.68.22,6.57.3,8.85-2.56,3.53-4.66,6.41-6.82,9.38.23,2.89.47,5.87.71,8.92,1.36,1.41,2.8,2.9,4.23,4.37.38,2.1-.31,4.65,2.41,6.09,1.48-.07,3.39-.15,5.29-.26.66-.04,1.45-.43,1.93-.14,1.05.63,2.25,1.39,2.82,2.49.92,1.75.11,5.51-1.18,6-1.2.46-2.52.51-3.91.76-1.46-1.29-3-2.65-4.53-4.01-3.21,3.97-1.24,8.09-.07,12.61,2.5,1.06,3.79,3.42,3.6,6.72.42.6.76,1.21,1.21,1.68.97,1.01,2.01,1.94,3.02,2.9-1.14,1.74-2.28,3.48-3.46,5.29l.34,4.3q-3.34,4.89-1.5,6.76c2.48-.26,5.06-.53,7.54-.79q3.64,3.91,1.16,9.07l-5.85.61c.26-.39.21-1.07-.26-1.95-.46-.87-1.56-1.35-2.46-1.79-.15-.08-1.12,1.25-1.03,1.41.54.93,1.16,2.08,1.99,2.44.84.37,1.44.3,1.73-.06.89,11.16,1.77,22.31,2.74,33.46.05.55.82,1.13,1.37,1.46.35.2,1.08.16,1.33-.13.92-1.06,1.7-2.26,2.54-3.41.47.12,1.04.09,1.4.38.49.4,1.02.98,1.18,1.6.35,1.39.15,3.07.76,4.23,1.21,2.31,3.36,1.55,5.41,1.38,1.43,1.25,2.96,2.59,4.59,4.01,1.16-.12,2.45-.26,4.01-.42,1.47-2.16,3.06-4.51,4.72-6.96-.62-.68-1.35-2.15-2.15-2.21-2.55-.18-5.13.25-7.7.25-.5,0-1-.89-1.65-1.5-.22-2.78-.46-5.72-.77-9.65,2.63-3.19,5.75-6.96,8.96-10.84.36.3,1.78.88,1.94,1.76.52,2.86,1.12,5.99.62,8.22-.54,2.4-3.43,3.51-2.68,5.57.95,2.62,3.42,1.07,5.24,1.15,3.23-2.16.12-7.38,3.53-9.45,1.84,0,3.88-1.11,5.53,1.52-.94,1.53-1.95,3.17-2.96,4.83q3.5,3.15,7.54-.58c-.24-2.96-.48-5.94-.73-9.08,1.65-2.17,3.36-4.41,5.19-6.82,2.3-.72,4.53-2.2,5.49-3.7-2.51-2.39-5.02-4.78-7.6-7.24-1.03-2.39-.58-5.75-3.28-7.29-2.05-1.17-2.11-3.45-2.25-5.95,1.02-1.58,2.15-3.34,3.31-5.13-1.64-3.91-6.18-.2-8-3.83-.12-1.49-.24-2.98-.35-4.39-1.48-1.51-2.93-2.97-4.39-4.47-.48-5.97-.95-11.9-1.42-17.71-2.64-3.09-6.29-4.79-7.96-8.82.85-1.17,1.69-2.32,2.79-3.84-1.17-1.36-2.37-2.75-3.63-4.22.51-4.64,5.9-1.38,7-5.55-.46-5.72-.93-11.65-1.43-17.81-1.31-1.31-2.83-2.69-4.17-4.26-.35-.42-.16-1.44-.22-2.18-3.18-.26-3.48-.55-4.28-4.08-1.41.65-2.68.34-3.35-1.18-.53-1.21-.52-2.74-1.06-3.95-.54-1.2-1.46-2.17-2.21-3.23-3.82.4-7.64,1.01-11.46,1.09-1.4.03-2.17-1.48-1.89-2.56.17-.64.77-1.14,1.22-1.75,2.5-.26,5.03-.53,7.65-.8,1.23-1.59,2.49-3.2,4.19-5.39,1.28,1.46,2.55,3.06,3.98,4.44.34.33,1.23-.07,1.87-.14-.65-2.55.63-4.33,2.42-4.67,4.26-.8,8.6-1.02,12.91-1.47.45-4.57,1.58-5.51,5.88-4.71.52.1,1.09.76,1.36,1.33.15.32-.19,1.07-.47,1.49-.35.52-.82,1.18-1.3,1.27-1.81.32-3.65.44-5.47.63.06.75-.14,1.81.22,2.19,1.92,2.02,3.99,3.87,6.02,5.8,1.23,0,2.49.01,3.95.02,1.21-1.5,2.52-3.1,3.96-4.88,1.08-.11,2.36-.25,3.62-.38,1.33-1.72,2.62-3.37,3.88-5,2.62-.27,5.22-.55,7.69-.81,1.56,1.34,3.04,2.6,4.41,3.78,1.44-1.72,2.75-3.29,4.27-5.1,1.78.51,3.54,1.01,5.21,1.48.16,1.96.28,3.44.38,4.77,1.85,3.94,6.4.33,8.2,4.11q-3.31,4.84-1.35,6.82c3.62-.38,7.5-.83,11.38-1.14.51-.04,1.07.67,1.6,1.04,3.02,3.21-.58,9.15,3.71,11.83.64-.03,1.28-.05,1.93-.1.65-.05,1.3-.2,1.95-.19,1.85.03,4.21-1.5,5.35.94,1.05,2.25-1.55,3.26-2.31,5.13,2.5,4.14,6.45,6.6,9.68,10.04,2.17.96,5.15-.7,6.73,2.68.16,1.3.34,2.76.49,4.06,1.47,1.58,2.87,3.07,4.16,4.46-.02,1.68.45,4.02-.13,4.42-4.43,3.1-1.44,10.23-5.76,13.39-.62.45-.27,2.71-.28,4.13-.03,2.14.02,4.27.03,5.94-1.18,1.62-2.02,2.77-3.01,4.15.22,2.72.45,5.65.69,8.59-1.21,1.86-2.35,3.62-3.61,5.56.1,1.24.22,2.7.33,4.15-1.23,1.81-2.42,3.55-3.63,5.33.12,1.45.24,2.93.4,4.95-2.09,1.07-4.29,2.2-6.49,3.33-2.51,3.45-5.02,6.91-7.53,10.36-.12,1.41-.03,2.89-.4,4.2-.36,1.29-1.18,2.41-1.83,3.67-1.25.13-2.54.27-3.78.4-1.72,2.37-3.64,4.5-5.01,7.02-1.58,2.91-4.27,2.69-6.43,3.73-3.41,4.69-6.75,9.29-10.18,14.01-2.49.26-5.08.53-7.66.8-1.32,1.7-2.6,3.36-3.91,5.04-3.21.34-6.46.68-9.72,1.02-.28,2.81,1.72,5.88-.84,8.63-2.9.68-5.95,1.4-8.74,2.06-1.06,1.46-1.9,2.61-2.9,4-2.37.25-4.93.52-7.5.79-1.39,1.7-2.69,3.31-4.14,5.09-2.38.25-4.97.52-7.53.79-1.34,1.72-2.62,3.37-3.92,5.04-9.11.96-18.24,1.92-27.3,2.87-1.33,1.7-2.62,3.35-3.85,4.94-1.4.05-2.68.1-3.8.14-1.64-1.37-3.19-2.65-4.61-3.82-1.46.36-3.33.2-3.8,1.05-1.89,3.38-4.73,4.56-7.65,5.3-3.92,5.4-7.7,10.58-11.46,15.78-.84,1.17-.54,4.51.68,6.02.88,1.09,1.99,1.94,3.06,2.96-.67.95-1.21,2.48-2.05,2.74-1.87.58-3.88.55-5.84.73-1.33.12-2.33.88-3.05,2.48,2.85,2.87,5.71,5.75,7.87,7.92.99,2.9,1.66,4.84,2.33,6.8,3.02-.32,5.59-.59,8.49-.89,1.06-1.34,2.36-2.97,3.59-4.51,3.1,1.38,2.41,4.69,2.64,7.46.2,2.33.71,4.24,2.58,5.28,3.96-.42,7.86-.82,11.67-1.22,1.24-1.11,1.53-2.41,1.68-3.87.58-5.46.68-5.43,3.93-5.72,1.91-.17,3.83-.4,5.41-.56,1.36,1.29,2.31,2.35,3.39,3.19,1.46,1.15,4.34.93,5.31-.21,1.82-2.13,3.62-4.28,4.85-5.74-.07-3.39-.91-5.72,1.31-7.56,1.37,1.12,2.82,2.31,4.34,3.56,1.2-1.51,2.46-3.1,3.76-4.75,2.55-.27,5.15-.54,7.61-.8,1.33-1.64,2.58-3.18,3.74-4.61,1.59,1.25,3.02,2.38,4.16,3.28,1.77-1.71,3.04-3.78,4.68-4.31,1.94-.62,3.81-1.05,4.71-3.15,1.39-3.21,4.82-1.52,6.46-3.85.3-.43.36-1.08.53-1.63-.5-.48-.97-1.04-1.52-1.42-1.38-.96-2.11-1.98-1.79-3.01.53-1.67,1.68-1.94,3.2-1.99,3.27-.11,6.52-.61,9.78-.96,2.58-3.07,4.31-7.04,7.28-9.1,1.98.34,2.47,3.31,4.76,2.5,2.09-2.87,4.18-5.76,6.28-8.64,1.26-.23,2.53-.45,3.93-.7,1.22-1.55,2.5-3.2,3.77-4.82,1.49,1.32,3.01,2.67,4.48,3.97,1.37-.23,2.64-.44,3.75-.62,1.33-1.56,2.56-3.01,3.47-4.08,2.16.47,2.7,3.33,4.96,2.64.83-1.14,1.67-2.29,2.51-3.45,1.9-1.35,5.12-.05,5.78-3.68-1.39-1.54-2.75-3.06-3.99-4.43.39-5.29-2.88-10.5.79-15.37,2.53-.27,5.14-.46,7.73-.88.49-.08,1.02-.95,1.27-1.59.44-1.1-.17-2.43-1.73-2.73-1.81-.36-3.9,1.02-5.98-2.3,2.76-1.07,2.78-5.29,6.08-6.22,1.06,1.01,2.07,1.97,3.07,2.93,1.03.16,2.33-.63,2.27-2.27-.24-5.95-.86-11.88-1.27-17.05,3.19-4.66,6-8.75,8.74-12.76.85.71,1.58,1.33,2.36,1.98-.04.05-.08.11-.12.16.23,2.93.47,5.87.7,8.79-.02.03-.04.06-.06.08-.87-1.46-1.86-1.88-2.62-1.21-.48.42-1.23,1.39-1.14,1.56.87,1.48,1.82,1.85,2.65,1.28-.8,1.17-1.6,2.34-2.39,3.5.18,2.21.35,4.43.57,7.07,2.12-.67,3.33-2.37,4.51-4.15-.24.42-.46.97-.34,1.23.27.57.84,1.23,1.36,1.33,4.31.8,5.43-.14,5.88-4.71-1.83.19-3.66.3-5.47.63-.33.06-.64.4-.93.77.63-.95,1.27-1.88,2.07-2.67-.22-2.78-.45-5.66-.69-8.63,1.17-1.81,2.53-3.4,3.32-5.3.49-1.17.41-2.95,0-4.2-.05-.14-.14-.25-.22-.38.1-.14.2-.28.3-.42-.24-2.97-.48-5.95-.72-9.04,1.67-2.23,3.37-4.5,5.31-7.09,2.51-2.23,7.61,2.11,9.25-3.9-1.02-.97-2.16-1.81-3.01-2.92-1.35-1.77-1.88-4.76-.54-5.86,4.11-3.39,1.21-10.47,5.82-13.29-.49-3.97.84-7.11,3.47-9.6-1.47-1.54-2.88-3.01-4.36-4.56ZM550.98,47.87c-.54-.31-.96-.88-1.44-1.33.75-1.59,1.62-2.25,2.48-1.75.54.31,1.44,1.11,1.37,1.3-.63,1.65-1.54,2.29-2.41,1.78ZM558.59,68.99c-.4.55-1,1.63-1.16,1.55-1.44-.72-2-1.77-1.56-2.76.27-.62.97-1.64,1.13-1.56,1.44.72,1.94,1.73,1.58,2.77ZM568.15,130.64c1.59-2.75,3.85-3.48,6.35-2.15,1.62.86,2.63,3.29,4.64,3.19,1.96-.1,3.69.02,5.04,1.82-3.01,2.78-3,2.84-10.19,2.72-1.95-1.86-3.9-3.72-5.85-5.57ZM586.8,149.29c1.37-1.64,2.68-3.2,4-4.78,3.14.77,2.09,4.35,3.17,6.57,2.49,2.37,4.98,4.74,7.47,7.12q.85,4.29-1.02,7.33c-2.94-2.8-5.87-5.6-8.06-7.68-4.13-.59-5.64,1.83-7.22,4.32-2.91,1.29-5.96,1.79-9.09.84-.56-.17-1.29-.84-1.41-1.42-.3-1.43-.3-2.94-.42-4.42,1.66-2.28,3.32-4.56,5.16-7.1,2.32-.24,4.85-.51,7.42-.78ZM574.81,73.35c1.14.07,2.33.14,3.39.55,1.32.5,1.77,1.82,1.5,3.44.04,0,.06,0,.1,0,.12-.22,1.12-.29,1.64-.14-.54.05-.97.1-1.43.16,1.95.06,2.45.5,2.82.93.3.35.71,1.01.6,1.32-.6,1.74-1.38,1.96-2.38,1.14-1.05-.85-1.65-1.88-1.28-3.36-2.49.29-4.06.57-5.54.41-.81-.09-2.19-1.59-2.11-2.27.17-1.49,1.43-2.25,2.69-2.17ZM576.71,97.32c.79,1.47-.69,3.03-3.12,3.3-.63.07-1.32.34-1.88.14-.56-.2-1.11-.78-1.45-1.36-.55-.94-.11-2.12,1.23-3.05.49-.34,1.24-.18,1.87-.24,1.41-.66,2.55-.28,3.35,1.2ZM562.03,54.29q3.75-3.57,7.86-.71l.35,4.38q-3.75,3.57-7.86.71c-.12-1.46-.23-2.92-.35-4.38ZM620.45,18.63c-.14.11-1-.75-1.36-1.3-.59-.89-.21-2.03,1.09-3.04.14-.11.91.83,1.38,1.28.52.95.19,2.05-1.11,3.06ZM616.5,233.6c-.32.61-.77,1.14-1.2,1.67-.38.47-.82.89-1.23,1.34q-2.82-4.29-.4-8.86c1.77.12,4.07-1.47,5.12,1.06.89,2.15-1.46,3.21-2.29,4.8ZM657.9,213.98c.2,2.79-.87,4.74-2.27,4.12-1.42-.63-1.9-1.84-1.66-3.56.1-.7-.31-1.54-.11-2.15.55-1.68,1.48-2.39,2.39-1.94.56.28,1.16.79,1.43,1.39.27.59.16,1.42.22,2.14ZM688.62,144.42c.27-.62.97-1.64,1.13-1.56,1.44.72,1.94,1.73,1.58,2.77-.4.55-1,1.63-1.16,1.55-1.44-.72-2-1.76-1.56-2.76ZM696.06,114.19c-.83.59-1.79.22-2.67-1.27-.1-.16.66-1.14,1.14-1.56.77-.68,1.78-.24,2.65,1.25.1.17-.73,1.04-1.12,1.58Z"/>
        <path class="cls-1" d="M582.18,58.97c3.51-1.09,4.75-4.54,2.74-7.74-.94-1.5-3.17-1.82-3.05-4.31.42-.57.76-1.22,1.24-1.67,1.29-1.22,1.59-2.23.9-3.21-.9-1.27-1.98-1.48-3.42-1.06-1.22.35-2.52.31-3.78.44.36,4.49.72,8.98,1.08,13.47,3.18.26,3.48.55,4.28,4.08Z"/>
        <path class="cls-1" d="M508.21,56.91c4.4.58,5.67.47,9.01-.88.52-.21.83-1.07,1.29-1.7-.11-1.38.05-2.96-.41-4.23-.59-1.6-1.84-2.2-2.6-1.52-1.44,1.28-2.52,3.43-4.1,4.07-1.76.71-3.6.86-4.65,2.94.48.45.93,1.26,1.46,1.33Z"/>
        <path class="cls-1" d="M491.81,140.95c-1.59,1.55-1.81,3.56-1.52,5.82.36,2.78-.12,5.91,2.61,7.59,1.59-1.55,1.81-3.56,1.52-5.82-.36-2.78.12-5.91-2.61-7.59Z"/>
        <path class="cls-1" d="M499.91,53.2c.94.5,1.63-.2,2.59-1.69,1.1-1.7,2.5-3.15,3.77-4.7-3.21-3.17-5.81-2.91-8.09.64.06.73.24,1.47.15,2.16-.21,1.69.25,2.88,1.58,3.59Z"/>
        <path class="cls-1" d="M607.07,187.77c-.94.36-1.59,1.69-2.5,2.73,1.48,1.27,2.95,2.52,4.27,3.65.08.99-.08,1.99.25,2.31.33.32,1.41.22,1.72-.16.77-.95,1.66-2.1,1.82-3.29.53-4-2.16-6.53-5.56-5.23Z"/>
        <path class="cls-1" d="M603.37,2.38c-2.58,3.3-2.34,6.29.72,9,2.58-3.3,2.34-6.29-.72-9Z"/>
        <path class="cls-1" d="M517.77,24.53c4.29.8,5.43-.14,5.88-4.68.34.31.94.25,1.72-.29.76-.53,1.18-1.79,1.56-2.81.07-.18-1.09-1.28-1.23-1.17-.81.62-1.82,1.32-2.13,2.27-.32.96-.26,1.65.06,1.98-1.82.19-3.64.3-5.44.62-.49.09-.96.75-1.3,1.27-.28.42-.62,1.17-.47,1.49.27.57.84,1.23,1.36,1.33Z"/>
        <path class="cls-1" d="M170.51,83.99c.76-.53,1.18-1.79,1.56-2.81.07-.18-1.09-1.28-1.23-1.17-.81.62-1.82,1.32-2.13,2.27-.32.96-.26,1.64.05,1.97-1.46-.32-2.54.26-3.09,1.83-.57,1.64.63,2.54,3.48,2.66l-.36-4.45c.34.3.94.24,1.71-.29Z"/>
        <path class="cls-1" d="M486.52,214.69c-.91-.41-1.8.16-2.42,1.81-.07.18.83.98,1.37,1.3.87.5,1.78-.13,2.41-1.78.07-.18-.88-.87-1.35-1.32Z"/>
        <path class="cls-1" d="M503.19,35.47c.16.08.86-.95,1.13-1.56.44-.99-.14-1.98-1.52-2.84-.4.54-.89,1.03-1.16,1.65-.44.99.11,2.04,1.56,2.76Z"/>
        <path class="cls-1" d="M594.55,89.45c-1.3,1.01-1.68,2.15-1.09,3.04.37.55,1.22,1.41,1.36,1.3,1.3-1.01,1.63-2.1,1.11-3.06-.48-.45-1.24-1.39-1.38-1.28Z"/>
        <path class="cls-1" d="M605.91,198.37c-.57,1.64.63,2.54,3.48,2.66-.12-1.5-.24-2.99-.36-4.49-1.48-.34-2.57.24-3.12,1.83Z"/>
        <path class="cls-1" d="M613.13,181.75c.87.5,1.78-.13,2.41-1.78.07-.18-.83-.98-1.37-1.3-.87-.5-1.73.16-2.48,1.75.48.45.9,1.02,1.44,1.33Z"/>
        <path class="cls-1" d="M319.87,232.93c-.57,1.64.63,2.54,3.48,2.66-.12-1.5-.24-2.99-.36-4.49-1.48-.34-2.57.24-3.12,1.83Z"/>
        <path class="cls-1" d="M440.08,174.65c-.36-.32-1.02-.71-1.3-.54-.5.31-1.08.96-1.16,1.56-.7,4.93.13,6.22,4.12,6.74-.17-2.09-.27-4.19-.55-6.26-.08-.56-.66-1.1-1.11-1.49Z"/>
      </g>
    </g>
  </g>
</svg>