<?xml version="1.0" encoding="UTF-8"?>
<svg id="_レイヤー_2" data-name="レイヤー 2" xmlns="http://www.w3.org/2000/svg" viewBox="0 0 1234.38 548.42">
  <defs>
    <style>
      .cls-1 {
        fill: #f3582c;
        stroke-width: 0px;
      }
    </style>
  </defs>
  <g id="Camada_1" data-name="Camada 1">
    <g>
      <g>
        <path class="cls-1" d="M609,437.21c.97.43,2.07.59,3.14.74,1.17.17,2.41-.34,2.68-1.55.12-.55-1.06-1.9-1.81-2.04-1.67-.32-3.43-.1-5.16-.1-.38,1.31-.05,2.42,1.15,2.95Z"/>
        <path class="cls-1" d="M827.86,419.34c.73-.06,1.39-1.31,1.96-2.1.06-.08-.72-1.08-1.19-1.15-2.8-.4-5.65-.97-8.38.34-1.22.59-1.58,1.68-1.18,3.01,2.93,0,5.88.14,8.79-.1Z"/>
        <path class="cls-1" d="M1229.6,326.62c.61-.92,1.29-1.94,1.87-2.83-.29-1.93-.57-3.72-.81-5.3,1.17-2.93,4.6-4.63,3.5-8.25-.45-.4-.92-.76-1.32-1.19-.97-1.04-2.06-1.35-3.31-.92-1.59.54-3.07,2.42-2.98,4.01.07,1.22.75,2.45.64,3.62-.25,2.65-1.7,4.32-4.74,4.29-.9-.6-1.9-1.26-2.83-1.88-3.78.38-5.09,5.55-9.41,4.56-.72.97-1.43,1.95-2.21,2.99.29,1.74.59,3.53.9,5.37-1.33,2.01-2.69,4.06-4.01,6.04.31,1.86.6,3.65.87,5.24-6.69,10.08-13.27,20-19.85,29.91v-3.34c-1.1-1.01-2.45-2.13-3.62-3.4-.29-.31-.04-1.12-.04-1.71-2.81.36-4.66,2.64-3.64,4.75.76,1.57,2.09,2.87,3.18,4.32-.58.59-1.35,1.99-1.98,1.93-2.84-.28-4.51,1.3-6.18,3.12-.2.22-.94.22-1.25.02-.49-.31-1.16-.84-1.18-1.31-.12-2.45-.06-4.91-.06-7.23-.95-1.57-1.8-1.85-2.7-1.07-.98.85-1.12,1.91-1.05,3.29.1,2.13-1.14,3.41-3.29,3.24-2.14-.17-3.65.73-3.98,2.63-.31,1.8-.18,3.6-1.91,4.77-1.31-1.22-2.63-2.45-3.93-3.65-1.26.06-2.47.11-3.56.16-1.42,1.26-2.77,2.46-4.2,3.73h-7.06c-2.37,2.37-4.55,4.55-6.72,6.72-4.01.68-4.04.7-7.75-3.05-1.28,1.14-2.56,2.28-3.95,3.51h-3.48c-1.38,1.27-2.71,2.51-4.12,3.81h-3.39c-1.48,1.33-2.82,2.53-4.01,3.6-4.32.7-8.81-1.75-12.51,1.68-.07,1.21-.14,2.42-.22,3.75-1.18,1.24-2.51,2.51-3.65,3.92-.29.35-.03,1.11.69,1.73.12.02.2.05.08.11,1.29.18,1.71.62,2.04,1.02.26.31.58.89.46,1.13-.7,1.37-1.44,1.48-2.32.73-.93-.79-1.41-1.69-.94-2.88,0-.02.06-.03.09-.05-.97-.07-1.67-.18-1.97.07-1.41,1.14-2.67,2.47-3.92,3.65-1.33.08-2.54.14-3.74.21-2.68,2.11-4.28,5.51-7.78,6.59-2.04-1.32-1.08-3.3-1.21-4.93,1.27-1.39,2.49-2.73,3.63-3.97,0-1.96.36-4.05-1.61-5-2.63-1.27-5.22-.28-5.71,2.26-.34,1.78-.15,3.61-1.89,4.77-1.32-1.2-2.64-2.42-4.05-3.7h-7.07c-1.48-1.33-2.82-2.53-4.1-3.67-3.01.62-6.33-1.29-8.79,1.77,1.17,1.28,2.35,2.58,3.53,3.86-1.14,1.66-2.98,1.48-4.7,1.95-1.59.43-2.87,2.02-4.7,3.4h-7.12c-1.05-.95-2.39-2.15-3.86-3.48h-7.21c-3.08,4.03-3.08,4.06,1.22,8.72-.11.44-.09,1.01-.37,1.28-1.69,1.71-3.44,3.35-5.1,4.95-2.72-.24-5.11-.46-7.5-.67-1.98-4.42-8.19-2.11-10.35-6.47-.29-.58-2.34-.69-3.38-.39-1.87.55-2.76,2.04-2.47,4.12.17,1.26-.44,2.27-1.63,3.01-1.2.07-2.41.14-3.61.2-3.47-1.31-.9-5.89-3.96-7.39-1.34,1.25-2.67,2.5-3.94,3.69-1.31-.07-2.51-.14-3.72-.21-2.71-2.39-4.75-5.54-8.5-7.41-1.27.51-2.8,1.13-4.4,1.78,1.41,1.58,2.54,2.87,3.59,4.05-1.16,1.41-2.2,2.66-3.23,3.91,2.02,1.9,4.06,3.41,3.37,6.63-1.3,2.24-3.17,4.37-5.87,5.61-.19.09-.84-.8-1.44-1.4,0-1.67.02-3.49,0-5.32-.03-2.3-1.04-3.85-2.67-3.93-1.85-.09-3.73.19-5.53-.1-1.03-.17-1.93-1.17-2.88-1.79.98-.61,1.9-1.58,2.95-1.75,1.8-.29,3.73.16,5.51-.18.97-.18,1.76-1.35,2.63-2.07-.08-1.77.42-3.72-1.73-5.01-1.21,1.06-2.49,2.18-3.68,3.22-3.47-1.15-.65-5.82-4.06-7.12h-7.25c-3.52,3.52-6.94,7.09-10.55,10.43-.72.66-2.31.78-3.37.55-.94-.21-1.7-1.25-2.47-1.87,1.09-1.27,2.19-2.54,3.27-3.8-.62-.62-1.05-1.42-1.49-1.43-6.75-.13-13.51-.18-20.26-.21-3.62-.02-4.99,2.38-3.42,6.09.46,1.09,1.33,1.48,2.95.55.03-.25.09-.53.25-.86.37-.75,1.36-1.24,1.05-.03,1.25-1.72,2.26-.72,2.18-.58-.44.8-.93,1.8-1.68,2.17-.54.26-.94.29-1.25.21-.53,1.68-.07,2.44.9,2.97,1.96,1.07,4.84-.07,6.13,2.63v3.48c-1.28,1.36-2.51,2.66-3.74,3.97v7.25c-1.79,1.55-3.27,1.39-3.63-.42-.23-1.15-.17-2.36-.23-3.43-1.25-1.39-2.43-2.72-3.64-4.07v-8.12c-6.15.45-1.6-6.1-5.26-7.93-2.03-.01-4.56-1.21-5.26,2.14.45.45.83.95,1.32,1.29,1.25.9,1.74,1.75,1.28,2.58-.68,1.23-1.72,1.5-3.13,1.26-1.18-.2-2.42-.04-3.63-.04v5.48c1.21,1.29,2.42,2.58,3.57,3.82-1.16,1.3-2.29,2.57-3.35,3.75,1.17,1.39,2.22,2.63,3.25,3.86-2.7,2.93-5.94,1-8.76,1.63-3.32-3.86-3.31-4.26,1.12-8.82.33-2.68.52-5.59,1.1-8.43.28-1.36,1.66-1.71,3.05-1.29.43-1.4.03-2.51-1.29-3.12-2.4-1.11-4.54-.91-6.25,1.69,0,1,.12,2.22-.06,3.4-.08.49-.74,1.01-1.26,1.26-.3.14-1.12-.13-1.23-.41-.82-2.1-1.52-4.25-2.38-6.7-1.63,1.46-2.9,2.6-4.28,3.84h-6.61c-4.09-1.25-1.23-5.94-4.64-7.37h-5.36v5.46c1.22,1.33,2.41,2.62,3.6,3.91-1.81,1.81-3.55,3.55-5.28,5.28-1.2.06-2.41.11-3.51.16-2.89-1.21-1.76-4.13-2.78-6.11-.65-1.27-1.69-1.68-3.06-.54-.02.11-.05.18-.1.07-.18,1.29-.62,1.71-1.02,2.04-.31.26-.89.59-1.13.46-1.37-.69-1.48-1.44-.73-2.32.79-.93,1.69-1.41,2.88-.94,0,0,0,.02,0,.02.01-2.26.01-3.96.01-5.68-1.72-1.69-3.47-3.41-5.27-5.18-.69.66-1.99,1.32-2.04,2.05-.22,3.63-.1,7.27-.1,10.57-2.08,2.08-3.82,3.81-5.56,5.56-3.68,0-7.36.04-11.04-.06-.45-.01-.99-.72-1.29-1.22-.18-.31-.14-1.01.09-1.25,2.13-2.22,4.32-4.37,6.57-6.62-1.2-1.27-2.47-2.5-3.55-3.86-.3-.38-.04-1.19-.04-1.81-1.41.43-2.48.01-3.15-1.3-1.01-1.99.11-4.91-2.8-6.1-1.1.06-2.3.12-3.37.17-1.42,1.26-2.77,2.45-3.99,3.53-2.07,0-3.92-.03-5.77.02-.56.01-1.13.23-1.44.31-1.41,1.14-2.65,2.14-3.84,3.1-5.11-4.74-5.44-4.73-10.55-.02-1.19.1-2.38.2-3.72.32-1.26-1.14-2.59-2.35-3.94-3.57-1.27,1.16-2.59,2.36-3.96,3.6h-3.45c-1.44,1.31-2.78,2.53-3.42,3.11-2.49.75-4.13,1.24-5.89,1.76v5.82c0,.62.25,1.43-.05,1.81-.69.87-1.54,1.97-2.51,2.19-2.82.64-6.14-1.09-8.44,1.79-.38,1.75.65,3.8-1.64,5.24-2.58.34-5.49.67-8.38,1.16-.46.08-.81.85-1.26,1.35v4.6c-8.14,8.14-16.76,16.76-25.4,25.4.79,1,3.1,1.9,2.6,3.58-.64,2.2-3.09,1.24-4.84,1.43-1.32,1.22-2.66,2.46-4.05,3.75h-7.13c-1.45,1.31-2.79,2.53-4.01,3.64-1.38.12-2.57.22-3.76.32-2.18,2.18-4.35,4.35-6.53,6.53-1.15.19-2.38.2-3.43.63s-2.08,1.16-2.84,2.01c-.91,1.03-1.81,1.51-3.03,1.69-1.67.25-4.05-.98-4.26-2.42-.42-2.87,1.21-6.14-1.6-8.54-1.26-.07-2.46-.13-3.77-.2-1.26,1.2-2.52,2.52-3.93,3.67-.35.28-1.1.1-1.72.77-.02.13-.05.22-.11.09-.18,1.29-.62,1.71-1.02,2.04-.31.26-.89.59-1.13.46-1.37-.69-1.48-1.44-.73-2.32.79-.93,1.69-1.41,2.88-.94,0,0,0,.02.01.02.01-2.25.02-3.92.02-5.47,1.34-2.72,4.26-1.51,6.21-2.67,1.53-.9,1.49-1.73-.18-2.59-2.95-1.73-7.25,1.66-9.55-2.51,2.15-2.16,4.33-4.28,6.45-6.48.75-.78.32-1.71-1.07-2.59h-3.61c-1.33-1.25-2.65-2.48-3.99-3.74h-7.26q-2.73-4.27,1.86-9.26l-12.54-12.54c-3.19.08-5.72-1.19-7.53-3.83-1.19-.1-2.36-.19-3.71-.3-1.24,1.12-2.57,2.32-4.12,3.72-5.8,0-11.88.07-17.94-.1-.68-.02-1.32-1.37-1.92-2.05,1.77-1.79,3.43-3.58,5.23-5.22.33-.3,1.18-.04,1.79-.04-.43-1.41,0-2.49,1.31-3.15,1.99-1,4.91.12,6.1-2.81-.06-1.1,0-2.32-.25-3.49-.1-.5-.81-.88-1.6-1.67-3.3,0-6.96.13-10.59-.07-1.31-.07-2.1-1.21-1.93-2.16.09-.5.81-.88,1.4-1.47,2.29,0,4.76.24,7.16-.09,1.41-.2,1.93-1.47,1.48-2.34-.27-.51-.85-1.22-1.29-1.22-8.62-.07-17.25-.05-25.79-.05-1.34,1.22-2.63,2.4-3.89,3.56-1.31-.8-1.72-1.82-1.78-3.08-.11-2.1,1-3.98,2.48-4.19,2.87-.4,6.16,1.19,8.6-1.75v-3.65c-.84-.63-1.7-1.82-2.66-1.9-1.89-.16-3.44-.51-4.78-1.98-.75-.82-1.87-1.38-2.92-1.8-1.6-.63-3.82.53-4.36,2.21-.18.56.05,1.24-.04,1.84-.48,3.02-.52,3.05-5.28,3.34-1.26-1.15-2.59-2.37-4.08-3.73-1.59,1.74-3.23,3.53-5.08,5.54.91,1.07,1.99,2.34,3.09,3.62-.84,1.75-2.42,1.95-4.26,2.02-1.99.07-2.81,2.09-4.26,3.07-.76.51-2.02-.22-2.27-1.61-.32-1.79-.16-3.69-.05-5.53.08-1.33-.31-2.35-1.74-3.18-1.22,1.07-2.5,2.19-3.79,3.32-1.26-1.14-2.58-2.34-3.94-3.57h-10.99c-.61-1.02-1.55-1.96-1.72-3.01-.28-1.8.14-3.72-.17-5.51-.15-.85-1.32-1.52-1.96-2.2-1.36,1.17-2.72,2.34-3.91,3.36-4.61,0-8.92-.11-13.23.08-1.01.04-1.98,1.1-2.97,1.69-.03.61-.18,1.24-.05,1.81.33,1.42,0,2.5-1.25,3.18-.84.46-1.61-.15-2.64-1.31-1.63-1.84-3.46-3.51-5.2-5.25-1.2-.07-2.41-.14-3.72-.21-1.26,1.2-2.52,2.53-3.93,3.67-.35.29-1.11.1-1.72.77-.02.13-.05.22-.11.09-.18,1.29-.62,1.71-1.02,2.04-.31.26-.89.59-1.13.46-1.37-.69-1.48-1.44-.73-2.32.79-.93,1.69-1.41,2.88-.94,0,0,0,.02.01.02.02-3.54.06-6.43-.04-9.3-.02-.45-.71-1.02-1.23-1.29-.87-.44-1.79.11-2.39,1.48-.22.52.02,1.22-.05,1.83-.31,3.02-.35,3.04-5.18,3.5-1.23-1.09-2.58-2.27-4-3.52-1.06-.06-2.26-.13-3.57-.21-1.27,1.18-2.59,2.42-3.97,3.7h-3.58c-1.33-1.25-2.65-2.49-3.85-3.62h-3.66c-1.29.82-1.6,1.87-1.87,3.05-1.15,5.05-3.12,5.97-7.04,2.55-2.75-2.41-7.07-1.43-9.12-5.02-.36-.64-2.18-.51-3.33-.64-1.75-.19-3.51-.28-4.92-.39-1.19-1.18-2.05-2.05-2.94-2.94-2.41,1.33-4.44,3.01-5.44,5.68,4.38,4.54,4.37,4.79,1.08,8.75-1.21-.06-2.41-.11-3.48-.16-1.35-1.17-2.62-2.26-3.87-3.34q-4.8,4.42-9.08,1.64v-3.68c-4.29-2.91-4.35-2.94-9.09,1.66h-8.2c-1.68-2.1-3.96-4.95-5.78-7.23h-15.74c-1.32,1.21-2.62,2.41-3.84,3.54-1.33-1.16-2.6-2.26-3.84-3.33-1.91,1.9-3.7,3.58-5.35,5.4-.31.34-.04,1.19-.04,1.8,3.7.76,4.37,1.89,3.35,5.87-.12.48-.71.97-1.21,1.17-.27.12-.86-.26-1.18-.55-.39-.36-.89-.85-.92-1.31-.11-1.72-.04-3.45-.04-5.17h-9.18c-1.34-1.22-2.63-2.4-3.9-3.56-1.32.81-1.92,1.82-1.74,3.09.3,2.09-.64,3.93-2.5,4.06-4.86.33-9.75.11-14.16.11-3.97,3.67-3.98,3.52-6.51,3.75-3.3.3-6-.46-7.94-3.53h-7.69c-.96.84-2.31,2.02-3.75,3.28-1.06.06-2.26.14-3.57.21-1.28-1.19-2.61-2.43-3.91-3.65-1.3,1.22-2.64,2.46-4.02,3.75h-7.13c-1.39.85-1.63,1.91-1.87,3.13-.91,4.8-3.44,5.58-7.27,2.43-.89-.74-1.92-1.32-2.73-1.87-2.54-.12-4.92-.24-6.98-.33-1.92-2.31-3.61-4.06-6.85-3.33-1.06.93-2.41,2.11-3.85,3.37-1.06.06-2.27.13-3.57.2-1.28-1.2-2.61-2.44-3.98-3.72h-7.24c-1.35-1.22-2.64-2.4-3.85-3.49-1.47,1.28-2.83,2.46-3.95,3.43-3.2.62-6.55-1.26-8.92,1.89v3.55c-1.74,2.34-4.06,2.9-6.21,1.29-1.94-1.45-3.36-3.56-6.62-2.8-1.05.93-2.4,2.12-3.93,3.47h-7.29c-1.17-1.09-2.5-2.33-3.79-3.53-1.32,1.22-2.65,2.46-3.78,3.5h-10.99c-1.58-1.37-2.93-2.54-3.87-3.36h-44.56c-4.86,4.67-4.92,4.64-9.11,1.41v-3.53c-2.34-3.02-7.46-1.11-9-5.31-1.21-.07-2.41-.13-3.73-.21-.97-.91-2.01-1.87-3.04-2.84-.91,1.22-1.86,2.42-2.85,3.59-.13.15-.23.31-.36.46-3.27-.3-6.66-.62-10.03-.93-.88-.92-1.72-1.8-2.47-2.58-1.89-.24-3.67-.47-5.59-.72l-4.64-5.32c-1.51-.1-2.87.12-3.93-.35-1.55-.69-2.89-1.87-4.31-2.85-3.08-.21-6.16-.42-9.39-.64.03-1.73.06-3.46.08-5.29l-12.06-13.83c-1.77-.2-3.52-.4-5.18-.59.01-1.91.03-3.71.04-5.34-.96-1.1-1.78-2.03-2.59-2.97-2.46-2.86-2.45-2.76-7.34-.3-1.32.67-2.46.1-2.65-.87-.11-.57-.11-1.37.2-1.77,1.09-1.36,3.25-1.99,2.61-5.3-2.23-2.56-5.08-5.74-7.8-9.01-.72-.86-1.09-2.03-1.61-3.04.08-1.24.17-2.47.25-3.7-.72-.96-1.45-1.92-2.26-3,.05-1.7.1-3.52.16-5.42l-7.14-8.19c-.8-3,2.37-3.97,2.92-6.17.13-1.91.25-3.76.39-5.61.15-2.01-2.12-2.94-2.24-4.64-.16-2.36.24-4.5-1.41-6.82-1.82-2.55-.34-5.92-.15-8.9.26-4.28.91-8.54,1.32-12.15-1.54-1.58-2.38-2.45-3.23-3.31-4.18,1.6-6.11-3.51-9.65-3.31-1.92,3.23,3.28,4.91,1.43,8.35l-2.5,2.17c-.3,4.38-.6,8.69-.89,13l2.39,2.74c-.06,1.87-.12,3.69-.18,5.42.81,1.06,2.22,2.04,2.18,2.96-.27,6.78-.82,13.55-1.29,20.33.74.95,1.48,1.91,2.29,2.95-.16,3.56-.32,7.2-.47,10.71.83,1.09,1.56,2.05,2.29,3.01-.21,3.08-.42,6.16-.64,9.24.6,1,1.5,1.94,1.72,3.02.35,1.72.03,3.59.41,5.29.24,1.07,1.26,1.97,2.05,3.12,1.65.22,3.43.45,5.33.7-.04,1.67-.08,3.43-.12,5.21l4.77,5.47c1.89.21,3.7.4,5.22.57l9.57,10.98c.11,2.19-.48,4.54.43,5.66,1.78,2.18,1.75,4.32,1.61,6.77-.05.92,1.29,1.5,2.62.84,1.55-.77,2.5-2.81,5.25-1.89-.16,3.32-.52,6.84-.64,10.32l4.8,5.51c1.9.21,3.71.41,5.47.6,1.29,3.77,5.18,1.97,7.41,3.65-.23,2.41-.8,4.89,1.7,6.77,2.69,1.13,5.67,1.01,7.61.84,2.5-1.06,4.08-1.72,5.86-2.47-.03,2.22-.06,3.97-.09,5.72,4.93.34,9.85.68,14.78,1.01.5.28,1.03.51,1.49.85,3.46,2.52,3.57,2.58,6.75.27.28.71.74,1.32,1.66,1.68h21.9c1.31,1.24,2.63,2.47,3.94,3.71,3.04,0,6.08,0,9.13,0,.38-2.84,2.55-4.63,4.7-3.64,1.57.72,2.87,2.04,4.66,3.37,4.79,1.17,10.32-.83,15.36.91,1.05,1.05,1.92,1.92,2.91,2.91,1.27-1.13,2.55-2.27,3.83-3.41,1.26,1.16,2.58,2.36,3.89,3.57,12.25,0,24.51,0,36.76,0,1.33-1.24,2.65-2.47,3.96-3.69h10.93c1.35,1.23,2.63,2.4,3.89,3.54,1.31-.8,1.56-1.86,1.8-3.06.94-4.76,3.49-5.6,7.19-2.54.89.74,1.88,1.37,2.54,1.84h29.34c1.88-1.85,3.26-3.89,6.18-3.56,1.73.19,3.53-.16,5.29-.27,1.52-.65,1.58-3.47,3.89-2.64.87.87,1.73,1.73,2.96,2.96,6.94,0,14.24.02,21.55-.03.5,0,1-.51,1.6-.83,1.47-1.94,3.28-3.42,6.37-2.71,1.09.99,2.43,2.2,3.88,3.52h7.16c2.72-1.17,1.6-4.08,2.63-6.06.55-1.06,1.4-1.55,3.04-2.35.05-.18.06-.35.17-.56.37-.75,1.36-1.24,1.05-.03,1.25-1.72,2.26-.72,2.18-.58-.44.8-.93,1.8-1.68,2.17-.58.28-.99.29-1.32.19-.39.95-.47,1.45-.26,1.68,1.65,1.83,3.45,3.53,5.35,5.43,2.56-2.37,5.12-4.75,7.63-7.07,1.29,1.13,2.57,2.25,3.73,3.27,1.43-1.17,2.67-2.18,3.87-3.16,5.14,4.76,5.44,4.75,10.72-.11h7.11c1.42-1.28,2.76-2.5,4.21-3.81h55.38c1.27,1.16,2.6,2.37,3.88,3.53,1.29-1.15,2.58-2.29,3.76-3.34,1.41,1.16,2.66,2.2,3.89,3.21,1.14-1.14,2.01-2.01,2.88-2.88.54-.19,1.07-.55,1.61-.55,6.78-.04,13.57-.04,20.36,0,.52,0,1.04.44,1.55.68.87.87,1.75,1.75,2.79,2.79,1.26-1.09,2.53-2.19,3.84-3.32,1.23,1.11,2.53,2.28,3.79,3.41,1.34-1.23,2.68-2.45,3.79-3.47h37.05c1.53,1.28,2.73,2.92,4.31,3.47,2.7.94,4.37-1.23,6.13-2.94.66-.65,1.98-.01,2.35,1.42.44,1.67-.48,3.73,1.9,5.13h10.57c1.44,1.27,2.79,2.46,4.32,3.81h18.2c1.37,1.28,2.71,2.53,4.07,3.81h5.64c1.27,1.89,3.34,4.96,4.82,7.17,4.06.78,7.41-1.09,9.79,2.05v3.39c1.35,2.91,4.33,1.67,6.33,2.89,3.44,3.46,6.92,6.95,10.39,10.44h5.05c-1.21,6.38,4.39,8.85,7.88,12.93v3.55c1.28,1.39,2.52,2.73,3.74,4.05.17,1.76-.6,3.77,1.06,4.74,3.23,2.07,7.66-1.77,9.69,2.73-1.19,1.41-2.34,2.77-3.53,4.18.26,2.5.31,4.93.82,7.26.24,1.12,1.22,1.5,2.9.54.03-.25.09-.52.25-.84.37-.75,1.36-1.24,1.05-.03,1.25-1.72,2.26-.72,2.18-.58-.44.8-.93,1.8-1.68,2.17-.3.15-.55.19-.79.23-.8,5.02-.86,8.93-.78,12.78,0,.43.83.85,1.39,1.38,3.42.99,7.1.17,10.7.59.89.1,1.66,1.27,2.49,1.95-1.75,1.75-3.49,3.49-5.3,5.3h-3.52q-2.96,3.68-.14,7.51h7.23c1.42,1.3,2.75,2.53,4.15,3.81h14.45c2.14,1.32,1.62,3.26,1.89,5.01.29,1.91,1.9,2.02,3.6.51.86-.76,1.91-1.31,2.73-1.84,2.54-.13,4.92-.24,6.83-.34,2.62-2.62,4.8-4.8,6.98-6.98,1.21-.06,2.41-.13,3.88-.2,3.74-3.71,7.61-7.56,10.31-10.24,3.2-1.12,4.81-1.69,6.39-2.24,0-2.23.15-4.08-.05-5.9-.16-1.43.03-2.5,1.26-3.19.84-.47,1.73.02,2.61,1.32,1.18,1.75,2.98,1.83,4.86,1.72,2.28-1.62,4.58-3.26,5.61-6.07-.9-.9-1.77-1.77-2.64-2.65-.18-.54-.48-1.08-.52-1.63-.08-1.23-.12-2.47,0-3.69.12-1.14.22-2.42.79-3.35,1.14-1.86,3.3-.83,4.98-1.37,1.71-1.71,3.46-3.46,5.26-5.26v-7.36c-1.15-1.26-2.35-2.59-3.56-3.91.44-.44.84-1.2,1.32-1.25,2.39-.27,4.81-.54,7.2-.4.78.04,1.48,1.33,2.21,2.04-.88.88-1.92,1.64-2.59,2.64-1.55,2.33-1.1,4.48.98,6.29,1.34-1.24,2.66-2.48,3.93-3.66,1.3-.07,2.51-.13,3.72-.19,1.19-.74,1.75-1.74,1.67-3.01-.21-3.06,1.26-4.41,4.27-4.23,1.25.07,2.25-.52,2.72-1.26.44-2.16.79-3.85,1.07-5.22,1.03-.46,1.53-.79,2.07-.91,1.14-.26,2.3-.42,3.45-.62,2.18-2.18,4.36-4.36,6.54-6.54,1.74-1.74,3.65-3.36,5.18-5.27,1.36-1.7-.14-4.8,2.6-5.89,1.28,1.1,2.55,2.19,3.81,3.28,1.05-1.05,1.92-1.92,2.79-2.79.52-.24,1.04-.68,1.56-.68,7.4-.04,14.8-.05,22.2,0,1.16,0,2.31.35,3.47.54,4.81,4.47,5.13,4.46,10.39-.39,1.26,1.12,2.55,2.25,3.95,3.48h7.24c1.27-1.15,2.59-2.35,3.86-3.5,1.35,1.21,2.69,2.42,4.24,3.82,1.6-.5,3.24-1,5.21-1.61-1.56-1.67-2.83-2.9-3.91-4.27-.3-.38-.05-1.2,1.73-4.55.08,2.73,1.93,2.65,3.77,2.79.46.04.87.82,1.34,1.29.99,2.28.15,4.78.61,7.12.19.98,1.35,1.77,2.07,2.65,1.21-.07,2.41-.14,3.62-.21,3.21-1.15-.32-6.21,3.93-6.77.87.87,1.74,1.75,2.74,2.74,6.4,1.65,13.19-.57,19.59,1.06,2.3,2.3,4.48,4.48,6.75,6.75,1.29-1.17,2.58-2.35,3.92-3.58h3.55c1.37-1.28,2.7-2.52,3.98-3.71,1.31.08,2.52.15,3.56.21,1.36,1.15,2.63,2.22,3.66,3.1,1.74-1.24,3.17-3.1,4.63-3.13,2.88-.06,4.36-1.74,6.23-3.67h18.65c.96.84,2.32,2.02,3.76,3.28,1.06.06,2.26.14,3.58.22,1.26-1.2,2.53-2.52,3.94-3.67.37-.3,1.2-.05,1.81-.05v-3.71c-1.73,0-3.5.21-5.17-.1-.75-.14-1.31-1.33-1.95-2.05,1.67-1.67,3.3-3.3,4.98-4.98.71.64,1.9,1.2,2.05,1.95.31,1.67.1,3.44.1,5.17,2.66.35,3.72,1.19,3.06,2.48-.63,1.25-1.7,1.63-3.06,1.23-.43,1.4-.07,2.7,1.31,3.08,1.69.46,3.5.59,5.26.6,9.19.05,18.38.03,27.58.03,1.23,0,2.45-.05,3.67.02.55.03,1.08.33,1.62.51.87.87,1.73,1.73,2.6,2.6.92.31,2.22-.16,2.33-1.53.31-3.64.12-7.32.26-10.97.02-.45.81-.87,1.53-1.59,3.82,3.65,7.64,7.3,11.41,10.9h3.53c1.45-1.32,2.78-2.52,4.15-3.77h10.74c1.75-.99,2.06-2.1.8-2.67-2.05-.93-4.25-1.52-6.51-2.3,3.01-4.11,6.62-1.94,9.96-1.74.87.87,1.73,1.73,2.87,2.88,1.21-1,2.45-2.01,3.79-3.11,3.57.93.7,5.57,3.84,6.91,1.23-1.13,2.52-2.33,3.84-3.55h5.46c0-.61.26-1.47-.04-1.8-1.65-1.81-3.44-3.5-5.28-5.33-2.71-1.69-7.13,2.24-9.11-2.43,1.74-1.78,3.44-3.54,5.11-5.25,1.37,1.28,2.7,2.52,3.96,3.69.74,0,1.35-.04,1.96,0,2.71.18,3.13-.98,3.39-3.22.26-2.15-.62-3.64-2.42-4.17-.56-.17-1.22-.04-1.83-.02-1.25.04-2.52-.45-2.84-1.73-.11-.44,1.44-1.52,2.39-1.92,1.04-.44,2.27-.44,3.42-.63,2.17-2.17,4.34-4.34,6.52-6.52.72.71,1.98,1.36,2.07,2.15.27,2.37.1,4.79.1,6.78,4.81,4.97,4.78,5.03,1.8,9.28-1.72.21-4.14-.86-4.85,1.37-.57,1.76,1.82,2.54,2.72,3.88,2.13,3.2,7.1,1.44,8.96,5.17.19.39,1.01.7,1.51.67,2.38-.12,4.83.55,7.11-.53,2.19-2.19,4.36-4.36,6.53-6.53,4.87-.68,4.94-.67,5.82-4.62.26-1.17.6-2.22,1.32-2.68,2.16-.44,3.84-.78,5.34-1.09.33-1.62.41-2.81.84-3.86.43-1.04,1.23-1.93,1.86-2.88,4.91,0,9.83,0,14.7,0,1.35-1.27,2.67-2.51,4-3.76h18.26c1.45-1.31,2.78-2.53,4.18-3.79h6.96c1.6-1.38,2.95-2.54,4.05-3.49,3.21-.62,6.55,1.25,8.91-1.89v-7.33c-.28-.3-.57-.62-.86-.92-.18-.89-.64-1.87-.65-2.74,2.68-.8,4.52-.31,5.63,1.63.72,1.25.52,2.43-.5,3.37-1.07.97-1.37,2.07-.8,3.32.42.92,1.34.82,2.86.47.09-.02.18-.04.27-.06-.07.06-.13.13-.21.19-1.17.96-1.79,1.79-1.41,2.6.62,1.31,1.7,1.51,3.12,1.34,1.81-.21,3.66-.05,5.44-.05l7.45-7.45c.18-.09.41-.21.5-.25.71-.58,1.26-1.28,1.74-1.99l3.36-3.36v-.34c.54-.22,1.14-.37,1.9-.32,1.51.84,2.79,2.5,5.15,1.36-.19-1.55-.39-3.21-.61-4.91,2.86-2.11,5.19,2.63,8.13.78.67-1,1.35-2.03,1.98-2.98,1.84-.44,3.6-.87,5.34-1.28.79-3.91,4.83-2.7,6.89-4.54-.08-.48-.13-.86-.2-1.27.24-.19.47-.46.69-.9.13-.25-.2-.82-.46-1.13-.16-.2-.34-.4-.54-.57-.13-2.52.81-2.89,4.32-4.18,1.55.82,3.11,2.93,4.82,1.45,1.3-1.12-.1-3.18-.26-4.83,2.14-4.09,2.09-4.05-.66-7.43-.71-.87-1-2.07-1.48-3.13.68-1.02,1.35-2.04,2.13-3.21-.13-.48-.12-1.21-.47-1.64-.74-.89-1.85-1.51-2.47-2.46-.57-.86-1.25-2.62-.92-2.93.98-.9,2.37-.67,3.31.17,1.04.93,2.08,1.38,3.28,1.02.43-.13,1.07-.46,1.12-.78.09-.57-.01-1.31-.34-1.78-1.1-1.59-4.61-1.8-2.96-4.81,1.88-.62,3.54-1.18,4.82-1.6.97-1.47,1.68-2.48,2.33-3.52,1.87-2.97,1.85-3.42-.96-5.88-.96-.84-1.73-1.6-1.64-3.23,1.59-.42,3.24-.87,5.04-1.35,1.26-1.9,2.62-3.95,4.03-6.07.6-3.4-4.6-3.81-3.96-7.44ZM85.75,428.59c-.35.85-1.26,1.13-2.65.62-.16-.06-.05-1.12.12-1.67.26-.88,1.24-1.14,2.63-.63.15.06-.05,1.09-.09,1.67ZM328.03,415.67c-.14.08-.88-.7-1.18-1.18-.49-.78-.05-1.68,1.25-2.39.14-.08.79.76,1.2,1.17.41.82.03,1.69-1.27,2.4ZM447.26,411.39c-.78.49-1.68.05-2.39-1.25-.08-.14.76-.79,1.17-1.2.82-.41,1.7-.03,2.41,1.27.08.14-.7.88-1.18,1.18ZM466.39,407.07c-.3.48-1.04,1.26-1.18,1.18-1.3-.71-1.68-1.58-1.27-2.4.41-.41,1.06-1.25,1.2-1.17,1.3.71,1.74,1.62,1.25,2.39ZM523.87,407.68c-.48-.3-1.26-1.04-1.18-1.18.71-1.3,1.58-1.68,2.4-1.27.41.41,1.25,1.06,1.17,1.2-.71,1.3-1.61,1.74-2.39,1.25ZM576.3,434.27c-1.65-.24-3.61.71-4.83-1.21-.52-.82.02-1.54,1.15-2.55,1.3-1.16,2.36-2.58,3.53-3.88,2.87,2.77,2.88,5.22.16,7.64ZM597.22,431.9c-.35.48-.82.87-1.26,1.27-.43.38-.89.73-1.34,1.09-2.39,0-4.77.06-7.15-.06-.44-.02-.97-.72-1.24-1.22-.45-.82.02-1.9,1.39-2.35,1.07-.36,2.36-.07,3.8-.07,1.06-1.21,2.23-2.55,3.3-3.76,1.95.29,4.25-.82,5.03,1.36.66,1.83-1.63,2.51-2.54,3.75ZM622.66,462.05c2.48-2.66,4.95-2.66,7.43,0-2.48,2.66-4.95,2.66-7.43,0ZM635.61,452.72c-.14.08-.79-.76-1.2-1.17-.41-.82-.03-1.69,1.27-2.4.14-.08.88.7,1.18,1.18.49.78.05,1.68-1.25,2.39ZM693.1,523.13c-.14.56-.02,1.18-.02,1.77-3.5,2.77-3.52,2.74-7.34.24,1.2-1.25,2.45-2.43,3.54-3.75.95-1.15,1.72-1.7,2.54-1.3,1.28.63,1.64,1.66,1.29,3.03ZM700.48,506.52c2.48-2.66,4.95-2.66,7.43,0-2.48,2.66-4.95,2.66-7.43,0ZM710.36,489.21c-.78.49-1.68.05-2.39-1.25-.08-.14.76-.79,1.17-1.2.82-.41,1.7-.03,2.41,1.27.08.14-.7.88-1.18,1.18ZM743.71,446.02c.48.3,1.26,1.04,1.18,1.18-.71,1.3-1.61,1.74-2.39,1.25-.48-.3-.84-.8-1.25-1.21.82-1.24,1.68-1.7,2.46-1.22ZM744.92,465.74c-.21.51-.73.98-1.23,1.26-.82.45-1.74-.06-2.39-1.38-.24-.48-.04-1.17-.04-1.77-.42-1.37-.01-2.41,1.27-3.05,1.27-.63,2.42.88,2.44,3.17,0,.6.17,1.26-.05,1.77ZM748.66,465.76c2.48-2.66,4.95-2.66,7.43,0-2.48,2.66-4.95,2.66-7.43,0ZM758.54,441.03c-.78.49-1.68.05-2.39-1.25-.08-.14.76-.79,1.17-1.2.82-.41,1.69-.03,2.4,1.27.08.14-.7.88-1.18,1.18ZM770.29,458.92c-.8,1.91-4.87,1.98-6.1.08-.2-.31-.09-.83-.11-1.25.86-1.85,4.88-1.92,6.12-.07.2.31.24.89.09,1.24ZM783.64,426.79c-.38.19-.71.27-.98.29-1.4,2.85-2.09,3.11-4.34,3.48,0,1.73.22,3.49-.1,5.16-.14.75-1.49,1.93-2.04,1.81-1.21-.27-1.72-1.51-1.55-2.68.16-1.06.32-2.17.74-3.14.53-1.2,1.64-1.52,2.95-1.15.48-2.94.75-3.22,3.67-3.7-.28-.29-.28-.86.09-1.63.37-.75,1.36-1.24,2.17-1.68-.24.55-.44,1-.64,1.46,1.23-1.05,1.76-.49,1.71-.39-.44.8-.93,1.8-1.68,2.17ZM801.8,441.03c-.48-.3-1.26-1.04-1.18-1.18.71-1.3,1.58-1.68,2.4-1.27.41.41,1.25,1.06,1.17,1.2-.71,1.3-1.61,1.74-2.39,1.25ZM806.62,430.04c-3.58-.4-1.88-3.24-2.47-4.94,2.61-2.77,5.07-2.75,7.52-.11-1.68,1.68-3.36,3.36-5.05,5.05ZM814.18,444.68c-.31.2-.89.23-1.24.09-1.91-.8-1.98-4.87-.09-6.1.31-.2.83-.08,1.25-.11,1.89.85,1.97,4.9.08,6.12ZM820.89,452.72c-.14.08-.88-.7-1.18-1.18-.49-.78-.05-1.68,1.25-2.39.14-.08.79.76,1.2,1.17.41.82.03,1.69-1.27,2.4ZM843.15,449.79c-.2-.35-2.23.52-1.84,3-.58,0-1.3.23-1.7-.04-2.07-1.37-2.6-3.72-1.68-5.86.5-1.15,2.74-2.03,4.55-1.45.89.28,1.54,1.24.67,4.34ZM859.49,447.54c-.12.48-.71.97-1.21,1.17-.27.12-.86-.26-1.18-.55-.39-.36-.89-.85-.92-1.31-.11-1.71-.04-3.43-.04-5.14-.3.28-.86.28-1.62-.09-.75-.37-1.24-1.36-1.68-2.17.55.24.99.44,1.47.66-1.07-1.24-.51-1.78-.41-1.73.8.44,1.8.93,2.17,1.68.2.41.28.76.28,1.04,3.63,1.92,3.94,3.29,3.13,6.44ZM864.79,441.03c-.48-.3-.84-.8-1.25-1.21.82-1.24,1.68-1.7,2.46-1.22.48.3,1.26,1.04,1.18,1.18-.71,1.3-1.61,1.74-2.39,1.25ZM913.19,445.78c.8.44,1.8.93,2.17,1.68.17.35.24.65.27.91-3.34-1.87-2.56-2.66-2.44-2.59ZM913.8,449.02c-.75-.37-1.24-1.36-1.68-2.17,1.56.7,2.67,1.22,3.52,1.64,0,.81-.7,1.09-1.84.53ZM916.43,451.99c-.93-.79-1.41-1.69-.94-2.88.06-.15.72-.16,1.24-.07,1.12.6,1.37.85,1.56,1.08.26.31.59.89.46,1.13-.7,1.37-1.44,1.48-2.32.73ZM925.31,452.17c-.82.41-1.69.03-2.4-1.27-.08-.14.7-.88,1.18-1.18.78-.49,1.68-.05,2.39,1.25.08.14-.76.79-1.17,1.2ZM933.88,432.27c-.47,1.39-1.87,2.01-2.33,1.34-2.13-3.07-5.81-3.27-9.34-3.91,2.32-3.47,4.83-2.72,7.12-2.87,1.86-.12,3.47.27,4.62,1.89,0,1.17.29,2.47-.07,3.54ZM946.93,441.65c-2.43-1.61-1.75-4.13-1.87-6.44-.1-1.87.25-3.5,1.86-4.63,2.43,1.61,1.75,4.13,1.87,6.44.1,1.87-.26,3.5-1.86,4.63ZM958.65,455.86c-.78.49-1.68.05-2.39-1.25-.08-.14.76-.79,1.17-1.2.82-.41,1.7-.02,2.41,1.27.08.14-.7.88-1.18,1.18ZM988.29,433.62c-.78.49-1.68.05-2.39-1.25-.08-.14.76-.79,1.17-1.2.82-.41,1.69-.03,2.41,1.27.08.14-.7.88-1.18,1.18ZM1010.73,444.53c-.31.26-.89.59-1.13.46-1.37-.69-1.48-1.44-.73-2.32.79-.93,1.69-1.41,2.88-.94,0,0,0,.02.01.03-.21,2.01-.63,2.44-1.03,2.77ZM1013.02,452.15c-.48-.3-1.26-1.04-1.18-1.18.71-1.3,1.58-1.68,2.41-1.27.41.41,1.25,1.06,1.17,1.2-.71,1.3-1.62,1.74-2.39,1.25ZM1018.26,440.7c-.36.39-.85.89-1.32.92-1.63.1-3.28.05-4.92.04.81-3.81,2.09-4.26,5.61-3.35.48.12.97.71,1.17,1.21.12.27-.26.86-.55,1.18ZM1035.83,426.78c-.14.08-.88-.7-1.18-1.18-.49-.78-.05-1.68,1.25-2.39.14-.08.79.76,1.2,1.17.41.82.02,1.69-1.27,2.4ZM1072.89,426.81c1.3-1.15,2.36-2.58,3.53-3.88,2.87,2.77,2.88,5.22.16,7.64-1.65-.24-3.61.71-4.83-1.21-.52-.82.02-1.54,1.15-2.55ZM1081.57,440.39c-.27.5-.8,1.2-1.24,1.22-2.38.12-4.77.06-8.09.06-.7-.86-1.7-2.36-2.97-3.58-1.06-1.02-1.7-1.75-1.31-2.56.62-1.29,1.66-1.64,3.05-1.29.56.14,1.19.02,2.04.02,1.07,1.19,2.26,2.52,3.32,3.71,1.45,0,2.74-.29,3.81.07,1.37.46,1.84,1.54,1.39,2.35ZM1102.07,415.03c1.27.23,2.62-.47,3.73-2.17.15-.22-1.42-1.23-2.2-1.88-.93-.39-1.88-.26-2.79.29.22-2.09,1.02-2.27,4.38-2.92.48-.09,1.19.15,1.55.49,1.74,1.63,3.4,3.35,5.09,5.04,0,1.19.29,2.48-.07,3.55-.46,1.37-1.61,1.92-2.34,1.38-1.38-1.01-2.21-2.93-4.11-3.03-1.21-.06-2.3-.22-3.24-.76ZM1117.99,407.71c-1.63.87-3.28.87-4.91,0-1.25-.66-1.65-1.7-1.25-3.06-.3.27-.86.27-1.62-.1-.75-.37-1.24-1.36-1.68-2.17.48.19.91.34,1.35.49-.87-1.12-.38-1.61-.28-1.56.8.44,1.8.93,2.17,1.68.11.22.12.38.17.57,3.46,1.04,5.39,1.06,7.31,1.06v-8.85c.91-1.65,2.19-2.47,4.17-2.31,1.23.1,2.61.33,2.83,1.58.52,2.88.64,5.82,4.06,7.08-.91,1.04-1.51,2.34-2.2,2.4-2.94.24-5.91.1-8.86.1.41,1.38,0,2.42-1.25,3.09ZM1137.07,418.25c-1.24,1.85-5.29,1.79-6.1-.08-.15-.34-.1-.92.1-1.23.31-.47.8-1.08,1.28-1.14,1.17-.16,2.4-.17,3.56,0,.47.07.85.79,1.27,1.21-.03.42.09.94-.11,1.25ZM1156.38,389.29c.03-.12.09-.22.12-.34.02.1.04.18.06.28-.06.01-.12.04-.18.06ZM1171.36,383.94c.5-.45,1.01-.9,1.51-1.35.37.28,1.09.52,1.2.94.28,1.03.47,1.85.61,2.6-1.1-.73-2.21-1.46-3.32-2.18ZM1192.18,397.63c-1.73-1.11-3.43-2.26-5.15-3.38.1-.09.19-.18.29-.27.93-.83,3.71-.72,4.95.32.93.78,1.74,1.71,2.87,2.85.09-.09.18-.18.27-.27.05.33.1.67.15,1-1.15-.06-2.56.29-3.4-.25ZM1195.39,389.61c-1.25-1.14-2.46-2.35-3.79-3.4-1.24-.97-1.77-1.79-1.28-2.63.7-1.22,1.78-1.34,3.2-1.26.58.03,1.16.02,1.75.04.41,2.02.82,4.07,1.24,6.14-.36.36-.72.73-1.12,1.12ZM1202.87,393.66c-1.31.69-2.31.56-2.68-.28-.13-.28-.19-.59-.24-.91.35-.34.7-.69,1.06-1.03.71-.08,1.29.04,1.54.59.24.52.48,1.56.33,1.64ZM1216.66,329.39c-.16-.01-.34-1.07-.33-1.64.02-.92.89-1.43,2.37-1.3.16.01.24,1.07.35,1.64-.11.91-.92,1.43-2.39,1.3Z"/>
        <path class="cls-1" d="M533.72,402.76c2.46,2.65,4.92,2.67,7.39.04-.4-.42-.79-.85-1.19-1.26-.41-.43-.78-.93-1.27-1.24-1.25-.81-1.78-3.23-3.73-2.32-2.01.94-.97,3.13-1.2,4.78Z"/>
        <path class="cls-1" d="M851.46,412.95c-.32-.29-.9-.67-1.18-.55-.49.21-1.08.69-1.21,1.17-1.02,3.97-.35,5.1,3.35,5.87,0-1.73.07-3.45-.04-5.17-.03-.46-.53-.95-.92-1.32Z"/>
        <path class="cls-1" d="M138.86,441.71c-.49-.17-1.5-.2-1.57-.01-.47,1.19,0,2.09.94,2.88.88.75,1.62.64,2.32-.73.12-.25-.21-.82-.46-1.13-.33-.41-.75-.84-1.22-1Z"/>
        <path class="cls-1" d="M597.98,411.39c.78.49,1.68.05,2.39-1.25.08-.14-.76-.79-1.17-1.2-.82-.41-1.7-.03-2.41,1.27-.08.14.7.88,1.18,1.18Z"/>
        <path class="cls-1" d="M632.54,433.62c.48-.3,1.26-1.04,1.18-1.18-.71-1.3-1.58-1.68-2.41-1.27-.41.41-1.25,1.06-1.17,1.2.71,1.3,1.62,1.74,2.39,1.25Z"/>
        <path class="cls-1" d="M727.67,505.29c-.41.41-1.25,1.06-1.17,1.2.71,1.3,1.62,1.74,2.39,1.25.48-.3,1.26-1.04,1.18-1.18-.71-1.3-1.58-1.68-2.41-1.27Z"/>
        <path class="cls-1" d="M828.95,423.78c-.78-.49-1.63-.02-2.46,1.21.41.41.77.91,1.25,1.22.78.49,1.68.05,2.39-1.25.08-.14-.7-.88-1.18-1.18Z"/>
        <path class="cls-1" d="M1001.89,418.82c.82.41,1.7.03,2.41-1.27.08-.14-.7-.88-1.18-1.18-.78-.49-1.68-.05-2.39,1.25-.08.14.76.79,1.17,1.2Z"/>
        <path class="cls-1" d="M1050.47,452.83c-.49-.17-1.5-.2-1.57-.01-.47,1.19,0,2.09.94,2.88.88.75,1.62.64,2.32-.73.12-.25-.2-.82-.46-1.13-.33-.41-.75-.84-1.22-1Z"/>
      </g>
      <g>
        <path class="cls-1" d="M998.42,116.28c-3.79-2.48-5.37-2.65-7.04-.89-1.59,1.67-1.07,3.6-.62,5.42.98,1.56,3.23,2.14,3.01,4.41-2.89,2.89-5.76,5.8-8.67,8.65-.89.87-1.91.42-2.89-1.15v-8.03c-1.36-1.49-2.66-2.92-3.93-4.3,1.33-3.66,6.87.16,7.52-4.4-.92-1.53-3.25-2.06-2.91-4.37.97-.97,1.93-1.93,3.14-3.14v-8.08c-1.53-2.21-3.36-4.72-6.45-5.87-2.43,2.43-4.84,4.84-7.25,7.25-.79-.8-2.14-1.53-2.27-2.42-.27-1.99-.11-4-2.17-5.35h-3.87c-.15-.14-.28-.26-.43-.4,2.15-4.05,1.08-5.96-3.02-13.09-2.8,3.07-5.59,6.14-8.38,9.22-2.27,0-4.54-.03-6.81-.04-.76-3.78-3.59-5.19-6.63-3.22-1.12.72-1.95,1.88-2.91,2.85-1.06.19-2.17-.38-2.52-1.91-.28-1.23-.34-2.93.3-3.88,1.32-1.96,3.55-3.25,3.67-6,.21-.26.42-.54.64-.75-.91-2.54-3.23-3.9-4.94-5.75-1.17-1.27-3.78-1.3-5.46-.13-1.1.77-1.96,1.87-3.19,3.09-1.17-.99-2.39-2.03-3.67-3.11-.04-.13-.11-.24-.14-.37-2.8-2.02-5.85-3.87-9.11-3.62-.85.06-1.7.24-2.56.46,1.25,1.38,2.56,2.83,3.82,4.22-.76.86-1.51,1.72-2.26,2.58l-2.58-.02c-1.12-1.06-2.18-2.06-3.22-3.04-.02-.81,0-1.62-.03-2.42-3.1,1.03-6.21,1.91-9.27.79-.27-.1-.48-.27-.71-.42-.27.24-.53.46-.81.71h-7.18c-2.23,1.58-3.69,3.28-5.45,3.68-1.96.45-3.86.49-4.96,2.31v3.9c1.46,1.63,2.79,3.11,4.02,4.48-.43,5.57-.46,5.61-5.94,5.77-1.42-1.32-2.88-2.69-4.35-4.06h-8.1c-3.14,4.72-3.19,4.78,1.75,9.86.1,1.32.21,2.63.33,4.14,1.25,1.36,2.6,2.84,3.96,4.32-2.69,4.34-7.64.31-10.87,2.82-2.4,2.4-4.81,4.81-6.95,6.95-2.15.44-4.01.83-5.94,1.23-.4,3.66-.75,6.87-1.08,9.87-2.6,2.6-5,5-7.68,7.68,0,9.2.07,18.68-.12,28.15-.02.83-1.67,2.13-2.73,2.33-1.97.38-4.09-.12-6.08.2-1.16.19-2.18,1.25-3.28,1.92v8.07c-1.41,1.51-2.78,2.98-4.09,4.38-.07,1.44-.14,2.77-.21,3.95-1.39,1.58-2.7,3.06-3.65,4.14v6.72c.93,3.4,3.96,3.85,3.05,6.06-.96,2.31-3.55,1.11-5.28,1.46-1.57,1.42-2.93,3.63-4.42,3.83-5.53.76-5.6.56-5.82,6.08-1.3,1.39-2.67,2.86-4.04,4.33.44.44.89,1.29,1.41,1.34,3.3.32,6.62.6,9.94.61,2.16,0,4.02.44,4.85,2.47.48,1.16.24,2.62.32,3.95.96.96,1.93,1.92,2.88,2.88.94.96.61,1.92-1.07,2.94h-12.35c-1.74,1.89-3.58,3.88-5.56,6.04.17,3.31-1.47,6.01-4.33,8.07-.07,1.34-.14,2.67-.24,4.51,1.79,1.53,3.84,3.28,6.41,5.47.46.07,1.78.12,3.01.47,2.4.67,3.87,4.23,2.52,6.34-.96,1.5-2.32,2.75-3.23,3.79,2.04,2.34,3.82,4.37,5.34,6.11,2.44.19,4.63-.54,6.08,1.93.22,2.12,1.29,4.74-2.16,5.86-.97-.97-1.83-2.08-2.92-2.86-1.73-1.24-3.73-1.21-5.47-.09-1.61,1.03-2.99,2.43-3.92,3.2-3.4.53-6.17-.67-8.53,1.02-1.02,1.02-1.98,1.98-3.09,3.08h-20.44c-1.24-1.14-2.71-2.5-4.15-3.83-1.38,1.26-2.81,2.55-4.15,3.77-1.49-1.27-2.89-2.46-4.27-3.64-1.18,1.18-2.14,2.14-3.84,3.84-3.89,0-8.56-.14-13.22.04-5.34.21-10.74-.76-15.85.49-1.13,1.13-2.09,2.09-3.09,3.09-3.18.38-6.39.76-9.25,1.1-1.27,1.27-2.23,2.23-3.32,3.32h-8.65c-2.77-3.06-5.94-6.57-9.3-10.29,2.29-2.44,4.96-5.29,7.69-8.21v-15.99c1.46-1.62,2.79-3.1,3.82-4.25v-12.3q-4.93-5.35-1.81-10c1.91-.26,4.6.93,5.37-1.53.6-1.93-1.97-2.85-3.17-4.44,1.23-1.39,2.49-2.8,3.85-4.32v-7.93c1.4-1.51,2.77-2.98,4.03-4.33v-7.97c-1.37-1.59-2.58-2.99-3.77-4.38,2.02-2.08,3.76-3.7,4.08-6.82.23-2.25,2.57-4.28,3.87-6.26-.36-4.18.79-8.24-.93-12.08-.96-.96-1.92-1.92-2.95-2.95,1.37-3.74,6.35-.9,7.93-4.44v-16.07c-1.32-1.45-2.63-2.88-3.86-4.23,1.39-1.58,2.7-3.07,4.11-4.67v-7.74c1.19-1.19,2.25-2.07,3.08-3.14.69-.88.08-1.9-1.45-2.54-3.04-1.39-6.78,1.49-9.56-1.74,1.4-2.76,3.31-4.94,6.23-6.07.99.99,1.95,1.95,2.96,2.96,2.77-.44,3.78-3.12,5.7-4.64,1.05-.83.63-1.9-.96-2.86-.67-.04-1.36-.22-1.99-.08-1.56.36-2.76,0-3.52-1.37-.51-.92.03-1.91,1.46-2.88,1.94-1.31,1.99-3.29,1.87-5.63-1.15-1.31-2.46-2.79-3.85-4.37-.06-1.18-.13-2.51-.2-3.84-.98-.78-1.86-1.79-2.96-2.27-.87-.38-1.96-.3-2.9-.49,3.75-3.74,7.61-7.58,11.42-11.39h8.16c2.9-4.44,2.92-4.45-.46-8.1-1.31.08-2.62.15-3.79.22-1.55,1.38-3.02,2.68-4.54,4.03h-6.54c-5.45,5.43-10.09,10.07-14.77,14.73.34.41.72.7,1.11.93-.77.29-1.64.4-2.67.15-.57-.14-2.22,1.64-2.33,2.65-.3,2.61-.02,5.28.02,7.12,1.25,2.29,3.73,2.74,3.16,5.22-1.89,1.78-3.82,3.61-4.78,4.52-3.05,1-4.85,1.58-6.59,2.15v24.8c-2.83,2.97-5.59,5.88-8.26,8.68.12,1.53.23,2.84.33,4.16.96.96,2.1,1.8,2.85,2.91,1.73,2.56,1.22,4.93-1.04,6.91-1.93.34-4.59-.92-5.44,1.51-.71,2.02,1.91,2.84,3.08,4.49-1.18,1.36-2.41,2.77-3.77,4.34v3.88c.36.42.78.93,1.24,1.42.92.98,1.85,1.95,2.72,2.87v4.05c-1.01,1.01-2.01,1.95-2.92,2.95-.35.39-.51.95-.75,1.43.48.48.89,1.11,1.46,1.4.55.28,1.27.18,1.92.29,5.15.88,5.75,2.94,2.39,8.15h-6.08c.3-.33.31-.95-.11-1.78-.4-.82-1.5-1.36-2.39-1.85-.15-.08-1.26,1.02-1.17,1.18.48.89,1.02,1.98,1.84,2.39.84.41,1.46.41,1.79.1,0,.67.28,1.6-.05,1.95-2.74,2.91-5.59,5.71-7.91,8.04v16.44c1.55,1.85,2.81,3.34,3.58,4.26v7.9c-1.1,2.19-3.7,2.57-2.98,4.99.98.98,1.94,1.94,2.89,2.89.46,5.39-.15,6.3-4.31,6.51-1.97.1-3.96.17-5.91.47-.54.08-.97.9-1.45,1.37-.06,1.33-.13,2.65-.2,4.08,1.32,1.41,2.69,2.87,4.08,4.35v8c-1.4,1.49-2.77,2.95-4.18,4.46v7.78c-1.37,1.6-2.57,2.99-3.76,4.37,1.16,1.16,2.12,2.12,3.07,3.07.26.57.75,1.14.75,1.71.05,8.8-.03,17.59.12,26.39.02,1.09,1.24,2.16,1.92,3.25h4.02c1.43-1.32,2.86-2.63,4.22-3.89,1.55,1.38,3.02,2.7,4.16,3.72h7.99c1.83-1.54,3.32-2.81,3.94-3.33,4.98-1.2,9.04.19,12.96-1.11,4.95-4.78,5.39-4.75,9.82-1.31,3.57,2.77,4.78,2.73,8.37-.56.5-.46.96-.95,1.55-1.54h7.94c1.51-1.41,2.97-2.77,4.47-4.18h4.11c.87-.91,1.79-1.9,2.76-2.84.46-.46,1-.83,1.51-1.24,1.33.06,2.65.13,3.98.19.96.96,1.88,1.95,2.89,2.85.37.33.94.42,1.42.62,5.55-5.11,5.88-5.12,11.49.07,5.66.52,11.57.57,16.99,0,1.42-1.42,2.38-2.38,3.52-3.52,1.39,1.2,2.78,2.41,4.25,3.69,1.35-1.24,2.78-2.56,4.26-3.92h3.94c3.45-1.67.56-6.74,4.14-8.03h12.28q4.01,3.76,5.94,2.02v-7.92q3.95-3.29,8.24-.28v4.04c1.08.68,2.13,1.86,3.24,1.92,2.12.11,3.82.55,5.01,2.7v7.61c1.4,2.21,3.61,1.56,5.39,2.18,1.75.61,3.09,2.39,4.85,3.85h7.93c1.3-1.22,2.76-2.59,4.25-3.99h6.04c-.43-1.47-.04-2.67,1.31-3.32,2.99-1.44,6.13-.81,9.22-.37.51.07,1.37,1.18,1.31,1.26-.63.87-1.36,2.25-2.16,2.32-3.21.26-6.44.11-9.67.11-.46,2.36,1.01,3.84,2.88,3.98,4.46.32,8.95.1,13.43.1,0-.68-.29-1.63.05-1.98,3.27-3.41,6.66-6.72,10.01-10.06.45.34,1.19.61,1.35,1.08.41,1.19.64,2.46.81,3.72.27,1.93.34,3.9.69,5.81.1.54.92,1.33,1.37,1.31.5-.02,1.36-.84,1.38-1.33.14-5.23,3.61-8.1,6.36-10.05,4.1-1.61,7.82.8,10.4-2.56.07-1.34.14-2.66.19-3.83,1.32-3.23,4.74-1.73,6.66-3.17,2.09-1.57,3.63-3.37,6.71-3.58,3.03-.21,4.45-5,8.46-3.9,1.52-1.25,3.05-2.5,4.73-3.88,1.08-.06,2.4-.13,4.04-.22,4.47-4.7,9.11-9.57,14.18-14.89,1.27-2.25-1.43-5.9,1.25-8.73,1.9-.49,3.74-.96,4.55-1.17,2.74-2.32,4.79-4.05,6.5-5.49.1-1.92.16-3.24.23-4.56.48-.48.89-1.23,1.45-1.38,1.25-.32,2.71-.04,3.83-.55,1.06-.48,2.68-1.87,2.53-2.49-.92-3.8,3-5.27,3.72-8.12-1.06-1.06-2.02-2.02-2.97-2.97.08-.48-.02-1.13.25-1.41,3.81-3.82,7.68-7.59,11.38-11.22,0-4.67-.06-9.11-1.51-14.48-.1-.04-.17-.03-.28-.08-.82-.4-1.36-1.5-.03-1.16-1.9-1.38-.79-2.49-.64-2.4.89.48,1.98,1.02,2.39,1.85.31.63.33,1.09.21,1.45,1.05.43,1.6.51,1.85.29,2.01-1.82,3.89-3.8,5.81-5.72.12-1.31.23-2.62.37-4.21,2.61-2.75,5.38-5.67,8.06-8.5v-20.34c-1.03-1.03-2.03-1.96-2.94-2.97-.34-.38-.46-.94-.68-1.42,5.15-5.59,5.15-5.9.04-11.43.77-4.31,6.09-.89,7.57-4.73v-7.88c-2.49-2.62-5.26-5.53-8.09-8.5v-7.98ZM805.51,244.1c-.34.22-.98.26-1.36.1-2.1-.88-2.18-5.36-.09-6.71.34-.22.91-.09,1.38-.13,2.08.94,2.17,5.39.08,6.74ZM690.63,265.33c.16-.09.87.83,1.32,1.29.45.91.03,1.86-1.4,2.65-.16.09-.96-.77-1.3-1.3-.54-.85-.05-1.85,1.38-2.63ZM841.45,277.42c-.16.09-.87-.83-1.32-1.29-.45-.91-.03-1.86,1.4-2.65.16-.09.96.77,1.3,1.3.54.85.05,1.85-1.38,2.63ZM966.61,156.45c.76-1.31,1.88-1.69,3.38-1.33.62.15,1.3.02,1.96.02,2.98,2.65,2.97,5.34-.19,8.39-1.28-1.44-2.45-3-3.88-4.27-1.25-1.11-1.81-1.89-1.28-2.81ZM922.42,78.31c1.4-.69,2.66.96,2.68,3.49,0,.66.18,1.39-.05,1.95-.23.56-.8,1.08-1.36,1.38-.9.49-1.92-.06-2.63-1.52-.26-.53-.04-1.29-.04-1.95-.46-1.5-.01-2.65,1.4-3.35ZM905.79,78.04c1.79.01,3.66.02,5.49.04.24.26.52.51.71.81,1.68,2.58,1.17,4.95-1.15,6.93-1.37,0-2.73,0-4.09,0-.68-1.08-1.89-2.13-1.94-3.24-.09-1.9-.08-3.8-.08-5.7.34.4.74.75,1.07,1.17ZM886.53,77.64c1.81.27,4.32-.94,5.19,1.44.74,2.02-1.77,2.75-2.76,4.11-.38.52-.89.95-1.38,1.39-.44.39-.92.73-1.38,1.09-2.7-4.13-2.73-4.15.33-8.02ZM853.69,261.11c-.16.09-.96-.77-1.3-1.3-.54-.85-.05-1.85,1.38-2.63.16-.09.87.83,1.32,1.29.45.91.03,1.86-1.4,2.65ZM858.49,284.97c-.91.45-1.86.03-2.65-1.4-.09-.16.77-.96,1.3-1.3.85-.54,1.85-.05,2.63,1.38.09.16-.83.87-1.29,1.32ZM980.21,191.73c-4.77.09-9.58.06-14.47.06.26-.06.52-.1.78-.28.77-1.09,2.33-2.8,2.19-3.18-1.33-3.44-3.02-4.61-4.47-3.32-.9.8-2.35,2.75-2.21,3.13.89,2.29,1.91,3.42,2.94,3.65-.4,0-.78,0-1.19,0-1.8,1.91-3.65,3.88-6.07,6.45,0,1.94.19,4.61-.11,7.23-.1.85-1.5,1.55-2.31,2.31-.96-.97-1.88-1.98-2.91-2.85-.31-.26-1.05-.36-1.39-.17-.57.31-1.36.91-1.38,1.4-.11,4.07-.06,8.14-.06,12.12-1.41,1.51-2.78,2.98-4.09,4.38.09,1.45.17,2.77.25,4.09.81,1.32,1.98,1.6,3.32,1.86,5.54,1.08,6.04,2.69,2.61,8.1-3.97,0-8.04-.22-12.06.11-1.54.13-2.09,1.66-1.54,2.6.32.55.91,1.23,1.45,1.31,1.32.19,2.68.06,3.94.06,2,2,3.92,3.92,5.84,5.85-.85.77-1.6,1.98-2.58,2.22-2.33.59-3.01.08-6.72-3.37-3.83,1.33-5.67,5-8.72,7.45h-3.83c-2.39,2.96-2.44,2.96-2.35,9.2-1.24,3.23-4.09,5.02-6.52,7.2-1.33.1-3.27-.32-3.85.38-2.28,2.74-5.11,3.93-8.5,4.22-1.88,3.22-5.37,3.26-8.36,4.4-1.16.44-1.95,1.83-3.14,3.02h-20.83c-2.28-2.27-5.08-5.14-7.99-7.89-.36-.34-1.31-.05-1.99-.05,0,.04-.01.06-.02.1.19.14.16,1.18-.03,1.7,0-.61.01-1.1.02-1.62-.23,2.13-.69,2.61-1.12,2.97-.34.28-.98.65-1.25.51-1.51-.76-1.63-1.58-.8-2.55.87-1.02,1.86-1.55,3.17-1.03,0,0,0,0,0,0,.02-2.69.03-4.41.03-6.07-1.36-1.43-2.72-2.87-4.08-4.3v-7.98c-1.36-1.43-2.72-2.86-4.08-4.29,0-2,0-3.99,0-5.99h-5.71c-3.31-3.25-3.27-3.65-.92-7.64,5.22,3.99,5.24,3.97,6.63,7.64,1.56.48,3.1.08,3.41-1.45,1.37-6.64.31-13.39.75-19.94-2.03-3.76-5.43-6.07-8.07-9.03,1.07-1.97,2.86-2.12,4.87-2.31,1.1-.11,2.09-1.32,3.09-2.02v-8.01c-1.43-1.56-2.78-3.03-4.06-4.42.11-1.47.21-2.78.31-4.1,2.4-2.4,4.8-4.8,7.2-7.2-.86-2.58-.84-2.65-5.64-2.87-3.32-2.6-1.23-6.27-1.93-9.74-1.11-1.26-2.43-2.74-3.82-4.31-.06-1.18-.13-2.51-.19-3.84.98-.78,1.87-2.03,2.95-2.23,1.97-.36,4.09.13,6.07-.19,1.15-.19,2.15-1.29,3.2-1.97v-3.96c-1.35-1.48-2.64-2.9-3.93-4.32.59-.59.98-1.26,1.56-1.51,1.75-.77,3.98.26,5.5-1.47,1.51-1.71.87-3.78.93-5.71.08-2.65.02-5.3.02-7.07,1.79-3.15,4.03-2.2,5.87-2.5,1.51,1.38,2.97,2.7,4.78,4.35.68-1.95,1.3-3.73,1.93-5.53-1.49-1.71-2.78-3.2-4.21-4.84,2.61-2.76,5.3-5.62,7.95-8.43.07-1.4.14-2.73.21-4.01,1.3-2.07,3.53-1.39,5.3-2.02,1.75-.62,3.09-2.4,4.83-3.86h3.64c1.54-1.43,3.01-2.79,4.51-4.19h7.95c1.55-1.43,3.02-2.78,4.25-3.9h12.27c1.1,1.1,2.06,2.06,3.02,3.02,4.39,2.05,9.2,0,12.94,1.19,2.51,2.24,4.52,4.04,6.39,5.72v4.14c1.46,1.62,2.79,3.1,3.99,4.43.15,1.54.27,2.85.39,4.16.96.96,1.92,1.92,2.88,2.88.28.56.79,1.13.79,1.69.05,8.07.03,16.13.03,23.68-2.51,2.33-4.72,4.02-3.97,7.52,1.31,2.8,4.15,4.58,5.49,5.93,3.04,1.01,4.83,1.61,6.55,2.18v8.9c1.87,1.64,3.89,3.42,6.35,5.59,4.89.98,4.99.9,9.5,7.05-.48.48-.95,1.37-1.44,1.38ZM997.81,170.08c-.33.53-1.14,1.39-1.3,1.3-1.43-.78-1.85-1.74-1.4-2.65.45-.45,1.16-1.37,1.32-1.29,1.43.78,1.91,1.78,1.38,2.63Z"/>
        <path class="cls-1" d="M211.53,140.13c.02.45.27.7.67.77.15-.52.36-1.14.78-1.99-.59.56-1.05.93-1.45,1.22Z"/>
        <path class="cls-1" d="M418.36,185.62c.9.32,1.47.11,1.58-.49-.53-.15-1.15-.36-2-.78.18.45.27.84.42,1.27Z"/>
        <path class="cls-1" d="M359.59,242.68s0-.03,0-.04c-.12-.04-.37-.07-.61-.02.21.03.39.02.62.07,0,0,0,0,0,0Z"/>
        <path class="cls-1" d="M1129.57,30.2c4.99-5.4,4.98-5.71-.55-11.72,0-3.54.16-7.55-.12-11.54-.07-.95-1.77-2.69-2.42-2.56-4.06.8-5.6-3.02-8.41-4.24-5.43.32-10.81-.55-14.27.12-4.85,4.08-8.45,7.1-11.68,9.81v16.87c-3.3,2.04-4.21,5.1-4.47,8.47-2.41,2.41-4.81,4.81-7.57,7.57,0,7.7.03,15.78-.02,23.86-.01,1.92.61,4-.96,5.69-1.54,1.65-3.76.65-5.49,1.46-.58.27-.97.92-1.45,1.4.89.75,1.7,1.98,2.7,2.17,2.58.48,5.31-.42,5.47-.35,4,3.12,6.07,4.73,8.02,6.26-1.58,1.85-2.77,3.24-3.94,4.62,1.18,1.18,2.14,2.14,3.31,3.31-1.16,1.93-3.23,3.87-3.35,5.92-.19,3.2-2.27,4.62-4.28,6.89,0,1.66.04,3.65,0,5.64-.08,3.26-.12,3.19-4.78,4.56-1.18.35-2.19,1.25-3.32,1.92v3.95c-1.41,1.52-2.77,2.99-4.17,4.51v11.92c-1.36,1.53-2.61,2.94-3.85,4.34.63.63,1.04,1.4,1.6,1.52,1.28.28,2.68.02,3.92.39,1.51.44,2.39,2.19,1.85,2.43-5.06,2.19-1.94,9.4-7.41,11.47,1.27,1.48,2.47,2.87,3.75,4.36.06,1.16.12,2.49.2,3.92-1.32,1.41-2.69,2.87-4.09,4.36v3.91c-1.41,1.51-2.77,2.97-3.96,4.24v6.3c1.89,5.4,6.41,6.5,7.39,10.57-3.87,3.87-7.7,7.7-11.56,11.55v8.09c1.3,1.42,2.62,2.86,3.87,4.22-1.26,1.46-2.48,2.86-3.64,4.19,2.08,2.13,3.97,4.06,5.82,5.96h10.23c0-.67-.29-1.62.05-1.98,2.72-2.91,5.56-5.71,7.75-7.93,1.93-4.76-2.7-6-2.92-7.44,3.54-4.43,6.47-8.09,8.26-10.32,3.57-1.11,5.36-1.67,7.13-2.22v-7.89c3.63-3.63,6.94-6.94,10.53-10.53.9.76,2.27,1.92,3.96,3.33,1.71-1.71,3.55-3.49,5.31-5.35.24-.25.03-.92.03-1.4-2.1-1.76-4.03-3.59-2.99-8.27,2.05-1.59,5.22-4.04,8.35-6.47-2.01-2.19-3.34-3.63-4.67-5.07v-18.15c.33.3.95.31,1.79-.1.82-.4,1.36-1.5,1.85-2.39.08-.15-1.02-1.26-1.18-1.17-.89.48-1.98,1.02-2.39,1.84-.41.83-.4,1.44-.11,1.77-3.08-.41-5.08-2.88-3.97-5.2.83-1.73,2.28-3.16,3.72-5.07.03-.15.21-.77.27-1.4.07-.67.02-1.35.01-2.03-.04-5.71.48-6.16,6.28-7.06,2.1-1.99,4.05-3.84,5.97-5.66-1.36-2.02-3.6-1.54-5.26-2.29-2.3-1.04-4.09-3.25-6.05-5.03-.98-.88-.59-1.9,1.08-2.91h8.6c1.56-1.7,3.44-3.63,5.18-5.69,1.59-1.89.45-5.98-2.02-6.52-1.89-.41-4.05.23-5.43-2,1.23-1.36,2.5-2.78,3.86-4.28v-12.02c1.38-1.49,2.74-2.96,4.17-4.5v-7.82c1.45-1.61,2.78-3.09,3.84-4.25v-8c-1.53-1.8-2.81-3.3-3.92-4.61.21-4.32-.46-8.34.57-12.29ZM1087.56,194.57c-.45.45-1.16,1.37-1.32,1.29-1.43-.78-1.91-1.78-1.38-2.63.33-.53,1.14-1.39,1.3-1.3,1.43.78,1.85,1.74,1.4,2.65ZM1090.96,178.93c-.91.45-1.87.03-2.65-1.4-.09-.16.77-.96,1.3-1.3.85-.54,1.85-.05,2.63,1.38.09.16-.83.87-1.29,1.32ZM1095.69,88.51c-.33.53-1.14,1.39-1.3,1.3-1.43-.78-1.85-1.74-1.4-2.65.45-.45,1.16-1.37,1.32-1.29,1.43.78,1.91,1.78,1.38,2.63ZM1103.19,19.87c-.91.45-1.86.03-2.65-1.4-.09-.16.77-.96,1.3-1.3.85-.54,1.85-.05,2.63,1.38.09.16-.84.87-1.29,1.32Z"/>
        <path class="cls-1" d="M581.12,77.7c.89.31,1.46.11,1.57-.49-.52-.15-1.14-.36-1.99-.79.18.45.27.84.42,1.27Z"/>
        <path class="cls-1" d="M562.95,81.64c-.19-.03-.5-.01-.65.07.25.02.42.04.72.05-.03-.04-.04-.07-.07-.11Z"/>
        <path class="cls-1" d="M627.53,270.48c-.54-1.88-.34-3.92-2.24-5.22h-9.37c-1.94-2.48-4.42-5.67-6.28-8.05-3.38-.23-5.33-.07-6.64,1.84-1.84,2.68-4.67,1.91-7.26,2.19-3.22.35-4.8-1.81-6.86-3.91h-12.37c-1.08.95-2.57,2.27-4.15,3.65-1.18.06-2.51.13-3.92.2-1.42-1.32-2.88-2.67-4.3-3.99-1.46,1.35-2.93,2.71-4.35,4.02-3.27-.7-6.92,1.43-9.76-1.93v-36.75c1.11-1.21,2.46-2.68,3.89-4.25v-7.95c1.4-1.51,2.77-2.98,4.2-4.51v-15.96c1.47-1.66,2.79-3.14,4.2-4.72v-7.52c1.57-1.88,2.82-3.39,3.05-3.67,1.62-5.35-.09-9.44,1.45-13.3,1.28-1.54,3.57-2.53,3.37-4.75-.3-3.28,2.15-4.66,4.01-6.75v-7.88c1.42-1.54,2.78-3.01,4.2-4.55v-8.01c-1.37-1.47-2.74-2.94-4.07-4.36.13-2.04-.51-4.21,1.91-5.65,1.33,1.15,2.74,2.38,4.14,3.6.67-.89,1.83-1.77,2.04-2.84.51-2.57-.53-5.32.76-7.82.98-.99,1.95-1.95,3.15-3.15-1.15-1.37-2.33-2.76-3.6-4.28,1.21-1.33,2.51-2.75,3.86-4.23v-5.98c.33.3.95.31,1.78-.1.82-.4,1.36-1.5,1.84-2.39.08-.15-1.02-1.26-1.17-1.17-.89.48-1.98,1.02-2.39,1.85-.41.84-.41,1.46-.1,1.78-4.58,0-9.15.11-13.72-.11-.76-.04-1.51-1.47-2.11-2.36-.07-.1.86-.88,1.59-1.61,1.65,0,3.59-.13,5.51.03,2.16.19,3.64-.64,4.69-2.47,0-2.92-.07-5.92-1.39-9.76-.14-.05-.24-.04-.39-.12-.82-.4-1.36-1.5-.03-1.16-1.9-1.38-.79-2.48-.64-2.4.88.48,1.98,1.02,2.39,1.84.28.57.31,1,.25,1.35.99.29,1.51.28,1.78.49,1.5,1.21,2.84,2.62,4.24,3.95,1.93-1.93,3.81-3.81,6.04-6.04,0-3.58.02-7.52,0-11.47-.01-1.56-1.97-2.84-4.36-2.81-1.98.02-3.96,0-5.83,0-5.28,5.28-10.46,10.45-15.64,15.64-1.79.44-3.66.74-5.4,1.38-1.42.52-1.81,1.79-.57,3.28.12.02.2.06.07.11,1.42.2,1.88.68,2.25,1.13.28.34.65.98.51,1.25-.77,1.51-1.58,1.63-2.55.8-1.02-.87-1.55-1.86-1.03-3.17.01-.03.07-.04.1-.05-1.09-.07-1.87-.2-2.17.07-2.01,1.82-3.89,3.8-5.99,5.9v11.91c-1.42,1.56-2.76,3.04-4.2,4.63v3.92c1.31,1.42,2.67,2.89,3.95,4.29v4.03c-2.47,2.47-4.9,4.86-7.25,7.31-.27.28-.14.93-.2,1.41.96.96,1.92,1.92,2.95,2.95-.6.93-1.02,2.12-1.86,2.77-1.94,1.48-1.7,3.46-1.71,5.62,1.26,1.38,2.61,2.85,3.97,4.33-2.72,2.83-5.48,5.71-8.09,8.43.18,1.64,0,3.1.53,4.21,1.11,2.28,3.51,1.26,5.36,1.73,1.58.4,2.13,1.66,1.6,2.61-.31.56-.9,1.24-1.45,1.32-1.32.19-2.69.06-3.96.06-3.44,3.44-6.8,6.8-10.18,10.18v12.19c-2.51,2.97-5.93,5.1-7.7,8.63.91,1.52,3.24,2.05,2.89,4.42-2.06,1.74-4.02,3.57-3.22,7.17,1.01,1.15,2.31,2.64,3.81,4.35v8.09c-1.32,3.52-6.38.68-8.04,4.11,0,1.36,0,2.72,0,4.56-2.23.77-4.62,1.54-6.95,2.45-.43.17-.99,1.04-.88,1.37.2.58.8,1.17,1.38,1.44,2,.94,5.29-.79,5.96,2.91-.49.49-1.01.94-1.45,1.46-3.08,3.66-3.1,4.32.04,8.4,2.81,3.66,2.78,4.77-.54,8.4-.46.5-.96.96-1.52,1.52,1.31,1.43,2.61,2.86,3.93,4.3v12.06c-1.42,1.54-2.78,3.01-4.2,4.55v7.89c-1.11,1.11-2.09,2.05-3.02,3.03-.88.93-.5,1.92,1.11,2.91h8.04c1.5,1.4,2.97,2.77,4.3,4.02h24.33c1.66-1.47,3.14-2.79,4.52-4.01,1.52.17,2.82.31,3.87.42,1.67,1.38,3.17,2.63,4.56,3.79,2.93-.13,5.56-.25,7.29-.32,2.29-1.78,3.82-2.97,4.97-3.86,1.97,0,3.33-.03,4.69,0,3.84.09,4.05.23,4.76,4.54.22,1.36.49,2.53,2.05,3.48h12.19c1.24-1.15,2.71-2.5,4.24-3.92h3.95c.7-1.08,1.88-2.09,1.99-3.21.19-1.99.34-3.76,2.37-4.73,2.98,2.62,5.22,6.1,9.39,8.16,1.4-.59,3.11-1.31,4.71-1.98v-4.31c1.45-1.6,2.78-3.08,4.04-4.47-.14-1.49.12-3-.46-4.06-.92-1.7-2.98-2.93-3.48-4.67ZM560.74,105.5c-.85.54-1.85.05-2.63-1.38-.09-.16.83-.87,1.29-1.32.91-.45,1.86-.03,2.65,1.4.09.16-.77.96-1.3,1.3ZM566.21,91.93c-2.73,2.93-5.45,2.93-8.18,0,2.73-2.93,5.45-2.93,8.18,0Z"/>
        <path class="cls-1" d="M523.53,79.33c2.08-1.54,3.5-3.26,5.26-3.72,1.9-.49,3.88-.35,5.38-2.62-2.46-.84-5.08-1.25-7.11-2.57-2.16-1.41-3.75-3.69-4.52-4.49-1.09-3.23-1.7-5.01-2.37-7-1.81,1.65-3.25,2.97-4.66,4.26h-8c-1.55-1.43-3.02-2.78-4.27-3.94h-24.29c-1.68,1.49-3.16,2.79-4.73,4.17h-11.83c-1.16,1.16-2.08,2.17-3.1,3.05-.3.26-.93.13-1.41.19-.96-.96-1.91-1.92-3.09-3.09-5.7-.52-11.6-.57-17.01,0-1.44,1.44-2.4,2.39-3.53,3.53-1.39-1.21-2.79-2.43-4.36-3.79h-24.26c-2.71,2.57-5.56,5.27-8.41,7.97-2.03-2.03-4.04-3.86-5.84-5.88-2.02-2.26-4.25-2.84-6.98-1.47-3.81,3.81-7.64,7.64-11.55,11.55-.59,0-1.29.13-1.92-.03-1.56-.37-2.75,0-3.49,1.38-.49.92.06,1.91,1.48,2.86,1.94,1.3,1.73,3.32,2.01,5.29.13.88,1.48,1.58,2.28,2.37.96-.96,1.84-2.02,2.9-2.85,1.71-1.34,3.73-1.26,5.45-.23,1.64.98,2.98,2.45,3.98,3.3,3.31.17,5.91.31,7.98.41,1.47,1.47,2.42,2.42,3.39,3.39.18-.09.32-.23.49-.33v7.85c1.89,1.89,3.77,3.77,5.66,5.66,1.27.15,2.65.68,3.78.35.21-.06.45-.18.69-.3v9.5c-.46.5-.93,1-1.39,1.5-.02-2.62-.04-5.24-.11-7.85-.02-.73-1.83-1.77-2.96-2.04-1.99-.48-3.79.22-5.02,2.03-.02-.71-.01-1.42-.03-2.14-.02-.73-1.83-1.77-2.96-2.04-.75-.18-1.46-.14-2.13,0,0-.07,0-.14,0-.2-.02-.73-1.83-1.77-2.96-2.04-2.01-.48-3.83.23-5.06,2.07v7.97c-1.36,1.44-2.72,2.87-4.08,4.3v8.01c1.89,1.89,3.77,3.77,5.66,5.66,1.09.13,2.25.5,3.27.41.61.61,1.22,1.22,1.83,1.83.58.07,1.19.22,1.78.32v4.48c-1.36,1.44-2.72,2.87-4.08,4.3v4.29c-.08,0-.17.01-.24.01-1.92,1.92-3.83,3.83-5.84,5.84,1.3,1.42,2.6,2.84,3.94,4.3q-.06,5.72-5.24,6.02c-.67.04-1.36-.03-2.03.01-4.35.25-4.71.69-5.16,6.3-5.27,5.27-10.53,10.53-15.77,15.77-.69,2.73-.88,5.9,2.42,6.27,3,.34,4.73,1.74,6.77,3.5,1.87,1.61,5.35,0,6.73,2.99v3.96c-5.32,5.32-10.58,10.58-15.86,15.86.3,3.67-1.49,6.27-4.38,8.43,1.32,1.44,2.63,2.87,3.97,4.33,0,4.66,0,9.39,1,14.11.07.02.1.04,0,.04h0c3.74-2.71,6.48-5.42,9.8-8.71.73,2.57,1.23,4.36,1.68,5.95-2.34,2.76-4.23,5.46-7.24,6.81-2.18.26-4.03-.22-5.2-2.07-.3-.48-.31-1.57.03-1.91.08-.08.19-.12.31-.14-2.12-.28-3.29.15-3.81,1.52-.44,1.18-.45,2.52-.66,3.79,1.96,3.6,5.35,5.91,7.89,8.75-1.27,3.94-6.38.86-7.91,4.68v7.75c-1.35,1.5-2.63,2.91-3.9,4.32.59.6,1.06,1.47,1.55,1.49,5.37.21,10.75.16,16.1.51.91.06,2.6,1.89,2.44,2.53-.95,3.79,3.16,5.18,3.67,8.1-1.08,1.08-2.04,2.04-3.09,3.09,2.2,4.06,6.1,6.61,9.12,9.93.38.41,1.14.47,1.67.68,5.36.4,10.74-.7,15.8.53,1.17,1.17,2.12,2.12,3.56,3.56,2.16,0,4.81.15,7.44-.04,3.26-.23,6.66.91,9.62-.71,2.56-2.56,4.95-4.95,7.38-7.38h8.1c1.43,1.33,2.9,2.69,4.31,3.99h12.14c3.02-2.73,5.37-6.07,8.92-8.1,3.89-.21,8.29,1.2,10.77-3.42,5.04-.34,8.28-3.34,10.85-7.33-.72-4.48,1.96-9.4-1.9-13.59h-12.01c-1.51-1.4-2.98-2.76-4.44-4.11-1.41,1.32-2.87,2.67-4.38,4.07h-7.81c-1.64,1.47-3.11,2.79-4.67,4.18h-7.57c-1.83,1.54-3.32,2.81-4.95,4.18h-7.61c-1.25,1.25-2.21,2.21-3.16,3.17-.59.21-1.18.59-1.77.59-6.09.04-12.19.05-18.28,0-.58,0-1.15-.47-1.72-.73-.96-.96-1.91-1.92-2.87-2.87-.62-.15-1.23-.4-1.85-.43-1.35-.07-2.71.02-4.06-.03-3.75-.15-4.73-1.08-4.73-4.58,0-3.34,0-6.68,0-9.44-1.56-1.88-2.7-3.26-3.81-4.6,1.25-1.25,2.74-2.05,3.06-3.19.9-3.13,1.43-6.25,4.31-8.46.71-.55.37-2.48.53-4-1.21-1.37-2.52-2.85-3.91-4.42,1.24-1.35,2.55-2.78,3.89-4.24v-10.09c-2.93-.38-4.09-1.31-3.37-2.73.7-1.37,1.87-1.8,3.37-1.35,0-.67-.29-1.6.05-1.96,2.68-2.91,5.47-5.71,8.03-8.34.75-3.41-1.35-6.98,2.15-10.09,4.81,0,10.09.12,15.35-.1,1.02-.04,1.98-1.39,2.97-2.13,0-3-.07-6.06-1.4-9.96-.14-.05-.24-.04-.39-.11-.82-.4-1.36-1.5-.03-1.16-1.9-1.38-.79-2.48-.64-2.4.89.48,1.98,1.02,2.39,1.84.28.57.31.99.25,1.34,1.02.29,1.57.27,1.81.49,2.91,2.74,5.71,5.6,8.3,8.18,1.85-.21,3.46.07,4.37-.6,2.16-1.59,3.98-3.62,5.66-5.21.31-2.38-.71-4.62,1.78-6.05,2.99-.35,6.2-.72,9.11-1.06,1.22-1.22,2.18-2.18,3.3-3.3h20.05c1.54-1.38,3.01-2.71,4.64-4.17h4.16c1.65-1.86,3.43-3.88,5.69-6.45.45-5.13.51-11.03-.06-16.53-2.4-2.25-4.33-4.05-6.08-5.69-1.67.21-2.95.36-4.24.52-2.39,2.4-4.79,4.79-7.27,7.27-4.26-.85-.91-6.1-4.42-7.51-1.31,1.18-2.73,2.46-4.23,3.81h-16.08c-1.49,1.38-2.96,2.74-4.49,4.16h-11.92c-1.59,1.44-3.06,2.78-4.45,4.05-4.65-.72-9.56,1.87-13.81-1.89v-10.47c.24-.28.41-.57.42-.82.01-.49,0-.99.02-1.48,1.02-1.12,2.17-2.38,3.34-3.67-.84-1.45-2-1.92-3.27-2.05.05-4.98.04-9.96-.08-14.93.27-.24.6-.52.81-.71,2.4-1.39,5.77.67,6.09-2.24-.47-2.72-3.32-2.89-2.64-5.34.94-.94,1.88-1.88,2.91-2.9-2.23-3.98-6.06-6.54-9.06-9.83-.11-.12-.34-.14-.75-.15.12-5.62.12-11.24.03-16.87,1.49,1.38,2.93,2.72,4.19,3.9h20.23c1.66-1.47,3.13-2.79,4.69-4.17h11.86c1.15-1.15,2.02-2.22,3.08-3.04,1.71-1.31,3.73-1.24,5.45-.2,1.07.65,1.96,1.45,2.23,1.74,6.89,2.86,10.47,1.8,13.26-2.22,1.43,1.23,2.82,2.44,4.41,3.81h16.14c1.3-1.22,2.76-2.59,4.26-3.99h7.98c1.46,1.34,2.89,2.65,4.23,3.89,1.58-1.39,3.06-2.7,4.63-4.09h7.33ZM393.2,152.59s-.08-.08-.13-.13c.04.04.08.08.13.13ZM398.69,163.78c-.88,2.1-5.36,2.18-6.71.09-.22-.34-.09-.91-.13-1.38.95-2.03,5.38-2.12,6.74-.08.22.34.26.98.1,1.36ZM405.5,152.95c-1.42,0-2.9.02-4.38.02.15-.22.26-.44.26-.64.09-3.56.12-7.13.13-10.69.66.66,1.31,1.31,1.97,1.97v3.26q3.87,4.1,2.01,6.07Z"/>
        <path class="cls-1" d="M461.3,81.94s-.09-.03-.14-.05c.3.26.28.2.14.05Z"/>
        <path class="cls-1" d="M1077.76,285.29q3.84-4.09,2.1-5.94h-8.17c-2.68,2.53-5.53,5.23-8.18,7.72-3.57-3.39-7-6.65-10.24-9.73-.2-2.25.6-4.46-1.6-5.79-1.44,1.12-2.88,2.25-4.47,3.49h-12.19c-4.61,4.85-9.26,9.75-14,14.74,4.93,4.79,10.25,9.96,15.08,14.66.43,1.32.66,1.91.81,2.52.31,1.23.48,2.51.91,3.7.16.43,1.03.99,1.36.88.58-.2,1.18-.8,1.43-1.38.77-1.75-.25-3.98,1.47-5.5,1.71-1.51,3.79-.88,5.72-.91,1.29-.02,2.58.29,3.87.45,3.84,3.84,7.68,7.68,11.62,11.62,1.42-1.3,2.85-2.6,4.32-3.94,5.41.01,5.43-.04,5.42-1.45-.01-2.18-2.07-2.89-3.14-4.33.8-.79,1.5-2.11,2.42-2.27,1.98-.35,4.09.11,6.08-.19,1.16-.18,2.2-1.2,3.34-1.87v-8.14c-1.3-1.41-2.66-2.88-3.96-4.29v-4.03Z"/>
        <path class="cls-1" d="M336,67.35h-12.03c-1.56,1.43-3.02,2.77-4.28,3.93-4.47,1.6-5.77-2.89-8.08-3.74h-8.09c-2.3,2.19-4.26,4.04-6.09,5.77v4.22c1.94,1.94,3.85,3.85,5.92,5.92h10.5c-.04.06-.1.1-.14.16v6.01c-.38-.18-.75-.33-1.07-.4-1.71-.41-3.27.1-4.46,1.39-.74-1.51-2.08-3.13-3.23-4.55-.28-.34-3.9-.02-3.86.34.27,2.11.47,4.65,2,6.43,1.79,2.08,3.43,2.87,4.49,2.48v2.59c-3.67-3.29-4.29-2.87-8.2.14.04,2.66.07,5.33.11,7.95,1.36,1.39,2.7,2.75,4.01,4.08v1.5l.15.15c.02,1.52.04,3.02.06,4.53h-4.28c-1.93,1.93-3.85,3.85-5.94,5.94v7.83c-1.41,1.56-2.74,3.03-4.19,4.63v3.78c-1.42,1.53-2.78,3-4.18,4.52v16.15c-1.97,1.97-3.88,3.88-5.94,5.94h-7.9c-1.53,1.41-3,2.77-4.54,4.19h-5.85c-1.57,2.22-3.92,5.53-5.69,8.04-2.53.27-3.83.42-5.13.56-2.4,2.4-4.8,4.8-7.27,7.27-3.13.37-6.33.74-9.24,1.09-1.23,1.23-2.19,2.19-3.16,3.16-2.57-1.9-5.17-3.77-6.51-7.1.12-2.42.25-5.04.35-7.14,1.45-1.45,2.41-2.41,3.59-3.59v-7.75c1.4-1.59,2.7-3.07,4.19-4.76v-7.79c1.42-1.52,2.79-2.98,4.19-4.48v-20.23c1.4-1.49,2.77-2.96,4.18-4.47v-15.96c1.48-1.67,2.79-3.15,4.31-4.86-.58-1.78-1.17-3.57-1.74-5.3h-4.04c-.37-.24-.84-.4-1.44-.49.62-.56,1.24-1.09,1.91-1.16,2.02-.22,3.85-.42,5.09-2.27-.04-1.46-.11-2.53-.27-3.36.07-.56.13-1.19.16-1.97.06-1.33,0-2.66,0-5.09,5.35-5.56,5.32-5.63,1.89-10.22h-7.95c-1.45,1.39-2.88,2.75-4.27,4.08h-12.07q-2.92,4.14.08,8.16c.96,0,1.92,0,2.88,0-.31.23-.6.45-.96.73.03,2.29.06,4.57.1,6.83-1.13.03-2.26.85-4.27,2.4.04,2.66.07,5.33.11,7.95.92.94,1.81,1.85,2.71,2.76-2.38.49-2.49,1.39-2.72,5.56,1.27,1.39,2.61,2.86,3.96,4.32-.96.67-1.9,1.8-3,1.98-1.98.33-4.1-.15-6.07.19-1.05.18-1.93,1.36-2.82,2.04,1.32,1.48,2.65,2.95,4.17,4.64-1.21,2.97,1.26,6.7-2.09,9.31-.67.08-1.32.15-1.96.23-2.93.34-4.16,1.1-4.38,2.9-.25,2.08.15,4.02,2.05,5.21.34.21.87.11,1.78-.54-.01-.33.06-.71.3-1.19.4-.82,1.5-1.36,1.16-.03,1.38-1.9,2.48-.79,2.4-.64-.48.88-1.02,1.98-1.84,2.39-.57.28-.99.31-1.34.25-.29,1.01-.28,1.54-.5,1.81-1.26,1.55-2.71,2.93-4.13,4.42v7.82c-1.48,1.66-2.79,3.14-4.18,4.71v7.78c-2,2.07-4.3,3.57-3.94,6.8.21,1.92-.17,3.9-.25,5.21-1.62,2.04-2.82,3.55-3.8,4.78.33,4.44-.66,8.47.82,12.34.96.96,1.92,1.91,2.87,2.87-.79,4.45-6.19.81-7.54,4.29-.07,1.33-.14,2.65-.21,4.1-1.3,1.39-2.67,2.85-4.07,4.34v18.03c2.22,1.59,5.51,3.96,8.32,5.98-.89,5.45,1.81,10.38-2.06,14.54-.55-.51-1.1-1.01-1.65-1.51-.09-.89-.25-1.79-.68-2.38-.57-.78-2.11-1.76-2.44-1.45-2.1,1.91-2.37,4.11-1.82,6.51.07.33.21.54.32.79-.07,4.41.6,8.84-.55,13.02-1.17,1.17-2.12,2.12-3.49,3.49,2.65,2.75,5.47,5.4,8.11,8.2-1.66,3.41-6.71.54-8.13,4.4.08,1.32.16,2.64.26,4.4,3.39,1.33,3.99,4.55,4.16,7.58,1.46,1.77,2.71,3.27,4.07,4.91v7.18c1.65,2.11,2.84,3.63,3.75,4.79v2.61c0,.68-.09,1.37.02,2.03.22,1.25.26,2.65.9,3.67,1.26,2.02,3.63.9,5.22,1.41,1.54,1.31,2.93,2.49,3.79,3.21,3.82-3.35,7.36-6.44,10.33-9.04v-12.68c-1.51-1.74-2.8-3.22-3.76-4.33v-48.69c1.54-1.81,2.8-3.3,4.18-4.91v-6.31c3.89-4.61,6.91-8.21,9.64-11.43h8.63c1.62-1.63,3.06-3.06,4.5-4.5.48-.48,1.14-.88,1.38-1.46.24-.58.05-1.33.05-2.01-1.9,0-3.84.24-5.68-.11-.83-.16-2.13-1.64-1.99-2.25.3-1.33,1.66-1.89,2.95-1.7,1.17.17,2.39.35,3.45.82,1.32.58,1.68,1.8,1.26,3.24h6.04c1.5-1.4,2.96-2.77,4.48-4.19h7.88c1.49-.92,1.79-2.09,2.05-3.41.91-4.62.99-4.64,4.66-4.62,1.98,0,3.95.16,5.36.22,2.37,2.18,4.35,3.99,6.25,5.74-1.4,1.58-2.66,2.99-3.94,4.43,3.2,2.08,4.36,5.02,4.47,8.48.97.97,1.99,1.88,2.85,2.92.22.26-.05.93-.1,1.41-2.4,2.4-4.8,4.8-7.28,7.28v3.7c-1.59,3.93-6.62,1.13-8.23,4.59v16.2c1.42,1.53,2.78,2.99,4.07,4.39-.1,1.46.18,2.95-.35,4.06-1.05,2.17-3.31,1.73-5.29,1.86-.55.04-1.15.6-1.56,1.07-.3.35-.58,1.06-.42,1.39.28.58.82,1.21,1.4,1.43,1.96.74,5.37-1.34,5.53,2.86-2.46,2.46-4.85,4.85-7.35,7.35,1.29,1.42,2.59,2.84,3.86,4.23-1.33,1.42-2.7,2.89-4.01,4.29.09,1.44.17,2.77.24,3.91,1.27,1.5,2.45,2.89,3.26,3.85-.55,2.28-3.28,2.54-2.76,4.97.95.95,1.91,1.91,2.94,2.94-.71.82-1.29,2.16-2.15,2.36-3.11.74-6.74-1.24-9.55,1.96,1.31,1.44,2.6,2.86,3.86,4.25-1.32,1.41-2.68,2.87-3.99,4.28.08,1.43.15,2.76.21,3.94,1.39,1.57,2.7,3.06,3.9,4.43-.18,1.53-.33,2.82-.45,3.86-1.38,1.67-2.63,3.18-3.77,4.56.13,2.93.25,5.56.29,6.47,2.62,3.34,4.28,5.46,5.47,6.98h12.64c1.67-1.39,3.05-2.54,4.4-3.67,1.23,1.23,2.19,2.19,3.15,3.15,1.02.39,2.47-.1,2.59-1.63.32-4.02.11-8.09.11-11.84,1.54-1.72,2.87-3.2,4.26-4.76v-19.81c1.54-1.83,2.81-3.32,3.86-4.56.35-5.76-.56-11.14.49-16.32,1.09-1.09,2.05-2.05,3.34-3.34-1.09-1.33-2.2-2.7-3.48-4.28,1.12-1.28,2.34-2.69,3.71-4.25v-3.72c1.43-1.55,2.79-3.02,4.18-4.53v-16.08c1.43-1.56,2.78-3.03,1.79-1.96,4.44-6.82-.97-7.76-1.31-10.61,1.36-1.69,2.58-3.2,3.42-4.24.17-3.29.3-5.9.4-7.99,1.46-1.46,2.42-2.42,3.6-3.6v-7.76c1.4-1.58,2.71-3.07,4.19-4.74v-15.95c1.41-1.51,2.78-2.97,4.18-4.47v-12.06c-1.34-1.47-2.64-2.89-3.96-4.34,2.99-2.13,4.57-4.86,4.42-8.24,1.35-1.64,2.59-3.15,3.59-4.36.28-4.45-.57-8.49.72-12.4.96-.96,1.92-1.92,2.88-2.88.96-3.97.33-8,.53-12.33,1.11-1.29,2.4-2.78,3.92-4.54v-7.69c1.41-1.54,2.76-3.01,4.15-4.52-.56-3.09,1.4-6.61-1.27-9.51-.23-.07-.46-.1-.7-.16.03-.09.11-.19.12-.28.2-8,.2-16-.01-24,0-.22-.2-.46-.45-.7.05,0,.1,0,.15,0,1.4-1.32,2.85-2.68,4.34-4.08,1.82-.29,4.07.87,5.48-1.54.93-4.43,1.17-8.98-.21-13.48-.16-.53-.95-.88-1.4-1.27ZM234.06,83.62c.59.82,1.48,1.61,1.86,2.45-.5.01-1.06.02-1.69.03-1.12-1.05-1.98-1.83-2.74-2.48.86,0,1.71,0,2.57,0ZM263.4,319.47c-.85.54-1.85.05-2.63-1.38-.09-.16.83-.87,1.29-1.32.91-.45,1.86-.03,2.65,1.4.09.16-.77.96-1.3,1.3ZM274.93,271.15c-.16.09-.96-.77-1.3-1.3-.54-.85-.05-1.85,1.38-2.63.16-.09.87.83,1.32,1.29.45.91.03,1.86-1.4,2.65ZM321.78,86.84c0-.4,0-.8-.02-1.19.3.26.59.53.89.79-.31.09-.59.24-.88.4ZM315.99,116.01c-.16-.14-.34-.29-.51-.43.04-.11.13-.22.13-.32.05-1.88.05-3.76.07-5.64.49.08.99.19,1.49.28.93.93,1.85,1.85,2.78,2.78-.28.08-.56.12-.85.22-.98.98-1.94,1.94-3.12,3.12Z"/>
        <path class="cls-1" d="M1058,240.79c1.1-1.2,2.31-2.79,3.79-4.07,1.29-1.12,1.81-1.89,1.19-2.84-.81-1.24-1.93-1.46-3.45-1.3-1.95.21-3.95.05-5.94.05-2.99,2.7-2.95,5.42-.04,8.16h4.44Z"/>
        <path class="cls-1" d="M389.01,132.56c-.65,0-1.34.13-1.95-.03-1.52-.38-2.65.01-3.34,1.42-.44.9.17,1.75,1.43,2.79,1.45,1.2,2.75,2.59,4.12,3.9,2.75-4.21,2.78-4.23-.26-8.08Z"/>
        <path class="cls-1" d="M806.89,224.5c1.53.39,2.66-.01,3.36-1.42.69-1.4-.96-2.66-3.49-2.68-.66,0-1.39-.18-1.95.05-.56.23-1.08.81-1.38,1.36-.49.9.06,1.92,1.52,2.63.53.26,1.32-.09,1.94.07Z"/>
        <path class="cls-1" d="M190.45,242c.28-1.81-.71-3.68-1.47-5.26-.13-.27-2.85.79-2.89,1.12-.24,1.98-.61,4.38.14,5.78,1.56,2.9,3.64,2.09,4.22-1.64Z"/>
        <path class="cls-1" d="M360.58,279.46c-.16-.09-.96.77-1.3,1.3-.54.85-.05,1.85,1.38,2.63.16.09.87-.83,1.32-1.29.45-.91.03-1.86-1.4-2.65Z"/>
        <path class="cls-1" d="M394.58,220.94c.72-1.42-.44-2.34-3.37-2.73v4.08c1.5.45,2.67.02,3.37-1.35Z"/>
        <path class="cls-1" d="M701.57,81.71c1.54.82,3.17.05,4.5-2.54.15-.29-1.31-1.75-2.21-2.35-1.45-.97-3.14-.09-4.48,2.5-.15.29,1.42,1.57,2.19,2.39Z"/>
        <path class="cls-1" d="M831.14,158.43c.19-.43-1.68-2.65-2.83-3.57-1.86-1.48-3.92-.06-5.89,3.68.99,1.25,1.84,2.76,2.99,3.68,1.86,1.47,4.03.14,5.73-3.79Z"/>
        <path class="cls-1" d="M877.96,310.17c-.54-.19-1.65-.22-1.73-.01-.52,1.31.01,2.3,1.03,3.17.97.83,1.79.71,2.55-.8.14-.27-.23-.9-.51-1.25-.37-.45-.83-.92-1.34-1.1Z"/>
        <path class="cls-1" d="M1075.58,230.95c.14-.27-.23-.9-.51-1.25-.37-.45-.83-.92-1.34-1.1-.54-.19-1.65-.22-1.73-.01-.52,1.31.01,2.3,1.03,3.17.97.83,1.79.71,2.55-.8Z"/>
        <path class="cls-1" d="M1083.27,208.22c-.12.24,1.05,1.49,1.77,2.01,1.16.83,2.52.08,3.58-2.13.12-.24-1.13-1.34-1.75-2.04-1.23-.7-2.53-.04-3.6,2.16Z"/>
        <path class="cls-1" d="M1097.94,199.78c-1.16-.83-2.44-.03-3.68,2.07.62.7,1.15,1.55,1.87,2.07,1.16.83,2.52.08,3.58-2.13.12-.24-1.05-1.49-1.77-2.01Z"/>
        <path class="cls-1" d="M862.53,168.03c-.46.03-1.03-.1-1.38.13-2.09,1.35-2.01,5.83.09,6.71.38.16,1.03.13,1.36-.1,2.03-1.36,1.95-5.79-.08-6.74Z"/>
        <path class="cls-1" d="M923.05,244.93c-1.28-.2-2.63-.19-3.92,0-.53.07-1.07.74-1.41,1.26-.22.34-.27.97-.11,1.36.88,2.1,5.36,2.18,6.71.09.22-.34.09-.91.12-1.38-.46-.46-.88-1.25-1.4-1.33Z"/>
        <path class="cls-1" d="M906.79,265.33c-1.43.78-1.91,1.78-1.38,2.63.33.53,1.14,1.39,1.3,1.3,1.43-.78,1.85-1.74,1.4-2.65-.45-.45-1.16-1.37-1.32-1.29Z"/>
        <path class="cls-1" d="M385.88,95.99c.28-1.81-.71-3.68-1.47-5.26-.13-.27-2.85.79-2.89,1.12-.24,1.98-.61,4.38.14,5.78,1.56,2.9,3.64,2.09,4.22-1.64Z"/>
      </g>
    </g>
  </g>
</svg>