<?xml version="1.0" encoding="UTF-8"?>
<svg id="_レイヤー_2" data-name="レイヤー 2" xmlns="http://www.w3.org/2000/svg" viewBox="0 0 881.44 766.88">
  <defs>
    <style>
      .cls-1 {
        fill: #f4943d;
        stroke-width: 0px;
      }
    </style>
  </defs>
  <g id="Camada_1" data-name="Camada 1">
    <g>
      <g>
        <path class="cls-1" d="M498.47,517.82c2.06,3.13.82,4.34-.77,4.73-1.57.4-3.32.09-4.99.09.41-1.36.02-2.43-1.23-3.06-1.29-.66-2.13.4-2.48,3.06-.61,0-1.44.26-1.81-.05-1.4-1.14-2.66-2.46-3.93-3.67-1.31.07-2.51.13-3.82.19-1.71,2.69-4.38,3.49-7.46,4.04-1.53.27-2.66,2.32-4.2,3.13-1.92,1.01-4.31-.97-3.6-5.29.31-1.21-.69-.72-1.05.03-.76,1.55,0,2.32,1.56,1.56.75-.37,1.24-1.36,1.68-2.17.07-.14-.93-1.14-2.18.58-1.73,1.65-2.54,1.4-2.91,1.69-1.37,1.09-2.59,2.36-3.79,3.5-1.35-1.17-2.61-2.27-3.86-3.36-1.03,1.03-1.89,1.89-3.09,3.09-1.65-1.05-3.35-2.98-5.16-3.09-2.83-.18-4.28-1.81-6.16-3.68h-7.32c-2.09,1.29-4.18,3.13-5.46,5.76.89,1.32,3.29,1.99,2.56,3.87-.84,2.18-3.18.98-4.73,1.29-1.38-1.26-2.66-2.43-3.87-3.53-1.44,1.27-2.78,2.45-4.01,3.54-1.38-.15-2.55-.27-3.72-.39-.86-.87-1.73-1.73-2.82-2.82-2.65-.29-5.54-.61-8.33-.92-.96-.96-1.82-1.82-2.69-2.69-2.06-.23-2.56,1.81-4.29,2.88h-10.97c-.91-.78-2.26-1.93-3.75-3.19-1.51-.31-3.25-.8-4.76.64-1.46,1.39-.57,3.4-1.3,4.96-.24.52-.77,1.06-1.29,1.24-.3.1-1.08-.42-1.23-.82-.81-2.1-1.49-4.25-2.18-6.28h-4.04c-1.35-1.26-2.67-2.5-3.99-3.73-4.28,0-8.55,0-14.48-1.11-1.21-.31-.72.69.03,1.05,1.55.76,2.32,0,1.56-1.56-.37-.75-1.36-1.24-2.17-1.68-.14-.07-1.14.93.58,2.18,1.28,3.95-.94,5.76-3.07,4.76-1.57-.74-2.87-2.06-4.74-3.46h-10.37c-1.42-1.25-2.76-2.44-4.2-3.71-1.22,1.12-2.51,2.3-3.77,3.46-1.29-1.21-2.61-2.45-3.97-3.73h-7.23c-2.26-2.26-4.43-4.43-6.62-6.63-2.39-1.3-4.49-.97-6.26,1.18,0,1.85,0,3.69,0,5.53-.59,0-1.4-.25-1.73.04-1.3,1.18-2.44,2.53-3.89,4.09-2.6-2.74-4.99-5.32-7.48-7.8-.3-.29-1.14-.04-1.73-.04.39-1.34.05-2.47-1.2-3-1-.42-2.15-.66-3.23-.68-4.7-.07-9.4-.03-14.1-.03.41-1.36.02-2.43-1.23-3.06-1.29-.66-2.13.4-2.48,3.06-1.41.43-2.45,0-3.16-1.3-1.04-1.89.26-4.82-2.53-5.84-1.28,1.08-2.54,2.16-3.79,3.22-1.08-1.08-1.95-1.95-3.25-3.25-1.92-.09-4.3-.21-6.91-.34-3.18-1.5-5.18-4.69-7.91-7.06-3.61,1.11-.8,5.75-4.75,7.5-2.04-2.62-4.29-5.5-6.25-8-3.75.84-5.47-.83-7-2.72-3.66-1.89-8.94,1.16-11.49-4.19h-7.11c-1.47-1.26-2.83-2.42-4.45-3.81h-7.27c-1.09.99-2.43,2.21-3.77,3.44-2.5-2.36-5.06-4.76-7.53-7.08-1.58,1.06-2.23,3.28-4.16,2.83-1.02-.24-1.63-1.92-2.67-2.44-2.02-1.02-4.81-.23-6.29-2.66-1.14-1.87-3.12-1.36-4.84-1.74-.91-.2-1.67-1.47-2.29-2.39-.28-.43-.05-1.2-.05-1.82,0-1.23-.58-2.23-1.83-3.03h-3.51c-1.39-1.29-2.73-2.53-4.02-3.72h-7.24c-1.39,1.23-2.68,2.37-3.97,3.51-3.34-3.91-1.05-8.36-1.67-12.45-.85-.74-1.67-2.05-2.57-2.12-4.85-.36-9.72-.38-14.58-.63-.46-.02-.87-.82-1.31-1.25,1.17-1.3,2.34-2.6,3.52-3.92-2.42-2.89-5.74-1.12-8.55-1.79-.94-.23-1.75-1.4-2.4-2.3-.29-.4-.05-1.2-.05-1.81v-4.79c-1.54-2.57-3.5-2.03-5.39-2.13-1.26-1.18-2.59-2.42-3.95-3.7h-5.49c.44-1.42.07-2.79-1.32-3.09-2.33-.51-4.76-.56-7.7-.86-2.91-1.37-4.54-4.99-8.27-7.12h-2.78c-3.33-1.6-1.23-5.76-4.09-7.66-2.02-1.34-3.55-3.41-5.37-5.23,1.17-1.29,2.35-2.59,3.8-4.18-1.71-.63-3.32-1.22-6.46-2.38-2.76-2.67-6.69-6.47-10.66-10.32h-3.5c-1.31-.82-1.84-1.83-1.83-3.08.02-2.47.03-4.94,0-7.41-.04-3.24-.04-3.32-4.25-4.2-1.19-.25-2.25-.55-3.03-1.79,1.16-1.29,2.34-2.58,3.5-3.87-1.17-1.75-3-1.57-4.78-1.9-1.9-.35-2.89-1.9-2.56-4.02.2-1.29-.37-2.31-1.8-3.17h-6.61c-3.36-1.26-2.13-4.27-3.26-6.16-.89-1.5-3.19-2.32-3.06-4.26.2-2.95-1.79-4.32-3.6-6.19,1.1-1.27,2.21-2.55,3.45-3.97v-3.5c-.85-.63-1.69-1.72-2.7-1.9-1.8-.32-3.73.13-5.53-.18-.99-.17-1.83-1.21-2.68-1.82,1.22-1.34,2.43-2.68,3.44-3.79.71-3.12-.81-4.92-2.8-6.44-.27-1.19-.74-2.32-.75-3.45-.06-8.64-.02-17.29-.05-25.93,0-1.78-.19-3.56-.28-5.1-1.11-1.11-1.98-1.98-2.87-2.87.37-2.77,4.63-3.92,3.01-7.84-.97-1.07-2.18-2.41-3.4-3.76,1.15-1.27,2.35-2.6,3.49-3.86v-3.55c-1.32-1.47-2.53-2.81-3.48-3.86v-11.18c1.04-1.04,1.92-1.92,2.79-2.79,1.41-3.52.47-7.21.79-11.34.82-1.03,1.92-2.41,3.39-4.26.07-1.22.42-3.03.22-4.78-.33-2.97,1.86-4.27,3.46-6.01.1-1.19.2-2.39.32-3.77,1.12-1.23,2.34-2.57,3.65-4.01v-7.19c1.24-1.36,2.44-2.67,3.57-3.91-1.14-1.32-2.24-2.59-3.18-3.67,1.23-1.67,2.29-3.1,3.35-4.53-1.08-4.09,4.89-5.45,3.71-9.58,1.58-1.82,3.11-3.68,4.76-5.43,2.06-2.18,4.23-4.26,6.28-6.31-1.25-1.46-2.34-2.74-3.42-3.99,1.06-1.06,2.55-1.84,2.7-2.83.6-3.77,2.46-6.6,5.34-8.94,1.86-1.52,3.12-3.74,5.45-4.7h5.71c3.05-.86,4.24-3.97,6.63-5.59v-7.49l5.4-5.4h7.37c1.28,1.18,2.62,2.41,3.96,3.66,1.74-.16,3.75.59,4.96-1.43-1.02-1.31-2.14-2.57-2.94-4-.1-.18,1.42-1.74,2.33-1.9,1.8-.31,3.72.12,5.53-.17,1.04-.17,1.95-1.16,2.87-1.75-1.17-1.29-2.34-2.58-3.55-3.92,4.4-1.56,2.33-6.78,5.44-9.04h3.66c1.27,1.16,2.58,2.35,3.89,3.55,3.52-3.52,7.01-7.01,10.5-10.5.55-.17,1.1-.49,1.65-.47,2.87.09,4.37-.9,4.5-4.11.12-3.04.45-3.06,5.25-3.34,1.25-1.14,2.58-2.37,4-3.67h11.1c1.65-1.73,3.36-3.51,5.16-5.4.1-1,.23-2.18.35-3.37,4.38-5.28,5.06-5.6,9.88-6.7,2.18-2.18,4.37-4.37,6.65-6.65,1.29,1.16,2.58,2.33,3.89,3.51,3.07-1.46.5-6.05,3.95-7.36,1.21.07,2.41.13,3.46.19,1.36,1.16,2.63,2.23,3.95,3.35,2.36-4.42,6.32-3.4,9.9-3.54,3.39-1.63,5.41-4.81,8.26-7.31h7.2c1.39-1.29,2.72-2.54,4.09-3.82h22.09c1.37-1.28,2.71-2.52,3.98-3.71,1.32.08,2.52.16,3.72.24.87.87,1.63,1.95,2.66,2.56.95.56,2.19.72,3.32.88.52.07,1.47-.11,1.6-.44,1.89-4.67,8.51-1.81,10.39-6.73h7.17c1.45-1.28,2.8-2.47,4.33-3.82h10.79c2.7-2.57,5.34-5.08,7.88-7.51,1.97.04,3.78-.24,5.13,1.54.69.9,1.83,1.46,2.45,1.93h7.29c.68-.68,1.19-1.06,1.54-1.56.92-1.31,1.8-1.79,2.62-1.18.47.35,1.1.89,1.11,1.36.09,3.68.05,7.37.05,10.79-.9,1.43-1.91,1.96-3.16,1.95-6.79-.02-13.58,0-20.6,0-1.22,1.09-2.57,2.29-4.08,3.62h-7.1c-1.39,1.3-2.72,2.54-4.09,3.82h-3.53c-1.42,1.3-2.76,2.53-4.16,3.82h-7.15c-1.01,1.01-1.89,1.89-2.89,2.89-5.12,1.8-10.7-.29-16,1.18-.87.87-1.75,1.75-2.62,2.62-.54.19-1.07.55-1.61.56-4.32.05-8.64.03-13.34.03-1.13.99-2.33,2.93-3.83,3.19-3.12.54-5.77,1.4-7.54,4.16h-7.34c-1.42,1.3-2.76,2.54-4.14,3.82h-3.48c-1.44,1.31-2.78,2.53-4.2,3.82h-6.79c-1.8,1.38-3.22,2.47-4.64,3.55-4.11-1.15-5.48,4.83-9.58,3.71-2.75,2.38-5.49,4.75-8.5,7.36h-3.44c-3.35,3.49-6.76,7.04-9.42,9.81-2.84,1.95-5.62.85-7.31,3.19-1.43,1.97-3.43,3.54-5.17,5.29-1.19.1-2.39.2-4.04.34-3.62,3.62-7.49,7.48-11.03,11.02-1.76.18-3.36-.14-4.06.51-3.64,3.33-7.05,6.91-10.55,10.4-1.2.09-2.4.18-3.75.28-1.24,1.15-2.58,2.38-3.99,3.67h-3.53c-3.22,1.5-.66,6.08-4.07,7.43-4.89.13-4.72.2-5.46,5.25-.2,1.34-2.15,2.58-3.48,4.07v4.15c-1.5,1.34-3.43,2.88-5.14,4.63-2.11,2.16-4.04,4.49-6.04,6.74.54,2.86-1.36,4.45-3.15,6.11-.05,3.98-2.49,6.54-5.23,8.95-.92.82-1.75,1.74-2.68,2.67v7.25c-1.29,1.4-2.53,2.74-3.82,4.14v10.85c-1.32,1.46-2.53,2.81-3.82,4.23v7.11c-1.04,1.04-1.91,1.91-2.79,2.79-.63.87,0,1.51,1.07,2.67,2.82,3.05,2.71,4.28-.21,7.59-.41.46-.87.88-1.46,1.47v18.25c-1.29,1.42-2.51,2.76-3.82,4.2v7.28c1.19,1.3,2.43,2.64,3.73,4.05v7.09c1.33,1.48,2.53,2.83,3.82,4.26v25.6c4.85,5.27,4.86,5.55.33,10.45-.17.96.35,2.02,1.73,2.29,1.74.33,3.86-.33,4.82,1.67.49,1.01.26,2.36.37,3.78,2.39,2.51,4.91,5.15,7.47,7.85v7.01c3.19,3.29,6.2,6.39,9.15,9.44h3.76c3.14,2.22,1,7.48,5.29,8.98.08,1.2.17,2.4.26,3.75,1.16,1.25,2.39,2.59,3.68,3.98v7.3c.98.64,1.91,1.73,2.92,1.81,3.07.24,6.17.06,9.26.1,1.5.02,2.38,1.37,2.66,3.97.07.59.13,1.18.19,1.78,2.6,1.87,4.09,4.33,3.93,7.33,1.81,1.96,3.47,3.77,5.06,5.48h3.85c3.02,2.31,1.06,7.46,5.28,8.99,1.59,3.16,5.97.92,7.63,4.09v3.51c1.18,1.72,3.04,1.54,4.75,2.03,1.58.45,2.7,2.32,4.24,3.16.96.52,2.34.29,4.02.44,3.6,3.59,7.47,7.46,11.03,11.02,1.73.17,3.35-.17,4.03.48,4.93,4.67,9.68,9.53,14.51,14.37h8.55c1.94,2.05,4.45,4.7,7.22,7.63h6.81c1.8,5.01,8.58,1.93,10.35,6.83,4.81.89,9.72.13,14.91.42,1.16,1,2.52,2.17,3.98,3.43,1.03.07,2.23.16,3.59.26,1.25,1.15,2.58,2.38,3.98,3.68h10.94c1.37,1.28,2.7,2.52,4.09,3.82h10.8c1.53,1.35,2.88,2.54,4.32,3.82h7.14c2.33,4.34,6.28,3.37,10.31,3.52,1.1.89,2.47,2.01,4.26,3.46h10.44c1.46,1.27,2.82,2.45,4.29,3.73,1.21-1.1,2.5-2.27,3.85-3.5h3.55c1.36,1.27,2.69,2.51,4.08,3.8h32.99c1.48,1.25,2.74,2.32,3.98,3.37,5.22-4.82,5.47-4.82,10.71.01h29.23c1.46,1.27,2.81,2.46,4.36,3.82h7.07c1.39,1.29,2.72,2.54,4.08,3.81h3.57c1.38-1.28,2.71-2.52,3.99-3.71,1.32.09,2.52.16,3.72.24.87.87,1.7,1.8,2.63,2.61,1.54,1.34,3.28.97,5,.41,1.98-4.44,8.2-2.13,10.38-6.49.29-.58,2.24-.33,3.62-.49,1.25,1.1,2.6,2.29,4.12,3.64h7.29c1.19-1.11,2.52-2.35,3.89-3.63h10.94c1.4-1.29,2.74-2.52,3.86-3.56h7.45c.57.57.98,1.03,1.44,1.44,3.39,2.95,4.13,2.97,7.63.34,3.73-2.8,3.98-2.95,7.57.18,1.57,1.36,3.09,1.67,5.16,1.6,1.21-1.08,2.56-2.27,4.06-3.61h18.21c1.4-1.3,2.73-2.54,4.11-3.82h7.22c1.42-1.3,2.76-2.53,4.07-3.72,2.8.42,4.92-.45,5.97-2.82,5.6-1.96,11.18.12,16.47-1.35.87-.87,1.62-1.95,2.65-2.57,1.59-.96,3.39-1.02,4.97.13,1.42,1.03,2.2,2.98,4.34,2.96.62,0,1.23,0,2.13,0,2.49-2.38,5.13-4.9,7.71-7.36h3.55c1.4,1.23,2.68,2.36,3.96,3.48,2.33-2.33,4.4-4.64,6.75-6.62.77-.65,2.34-.78,3.4-.54,1.91.44,3.01,1.79,2.64,3.94-.23,1.32.23,2.63,1.56,2.93.53.12,1.7-1.18,2.07-2.05.45-1.04.37-2.32.43-2.82,1.93-2.24,3.5-4.08,5.01-5.83,1.54,1.34,2.82,2.45,4.16,3.62,2.01-2.75,4.42-4.31,7.31-3.74l10.93-10.93h18.43c1.37-1.27,2.71-2.51,4.11-3.82h3.36c1.44-1.24,2.72-2.34,3.92-3.38,1.49.85,1.66,1.91,1.77,3.22.29,3.33,1.58,4.44,4.48,3.87,1.04-.2,1.92-1.22,2.9-1.88v-3.63c1.78-1.78,3.52-3.52,5.4-5.4,2.55,2.38,5.11,4.77,7.65,7.15,1.27-.79,1.83-1.8,1.74-3.06-.21-3.08,1.29-4.38,4.29-4.23.55.03,1.12-.25,1.13-.25,2.16-1.95,3.97-3.58,5.71-5.14-1.29-1.46-2.42-2.75-3.54-4.02,2.59-3.01,5.91-1.07,8.93-1.73,1.22-1.14,2.56-2.38,3.93-3.66h12.9c0,1.85-.09,3.71.06,5.55.04.47.75.99,1.27,1.27.31.16,1.02.05,1.26-.2,2.38-2.5,4.16-3,5.31-8.91.1-.5.83-.88,1.36-1.42,2.36,0,4.82.06,7.27-.05.47-.02,1.02-.68,1.33-1.17.52-.86.06-2.17-1.38-2.38-2.4-.36-4.89-.1-7.12-.1-2.02-1.3-2.26-3.18-1.86-4.94.22-.95,1.42-2.3,2.25-2.36,3.64-.26,7.31-.11,10.48-.11,1.78,1.28,2.54,3.65,4.37,3.02,2.22-.77,1.08-3.19,1.37-4.91.96-.6,1.87-1.44,2.94-1.77,4.14-1.29,4.16-1.23,4.67-5.85,4.28-1.5,2.15-6.75,5.29-8.98h18.62c1.62-1.72,3.3-3.52,5.13-5.47.29-2.65.62-5.57.91-8.22.85-.55,1.34-1.12,1.83-1.13,3.65-.08,7.31-.04,10.57-.04q1.8-1.71,1.87-5.31c1.35-3.4,5.94-.85,7.44-4.07v-3.53c1.3-1.41,2.53-2.75,3.82-4.15v-7.73c1.66-.48,3.3-.96,5.79-1.69,1.98-1.88,4.62-4.4,7.22-6.87,1.28-.06,2.49-.12,3.71-.18,3-2.38,1.1-5.71,1.93-9.83,2.1-1.52,5.08-3.69,7.19-5.22v-5.14c1.22-1.84,3.04-1.7,4.84-1.98.93-.14,2.01-1.26,2.45-2.21.47-1.02-.08-2.56.46-3.49.88-1.51,2.3-2.71,3.33-3.87v-10.1c.84-1.07,1.93-2.45,3.42-4.35v-6.04c2.06-3.8,5.16-5.9,7.63-8.68v-7.23c2.57-2.71,5.08-5.35,7.63-8.05v-29.2c1.27-1.55,2.29-2.79,3.29-4.01-1.16-1.16-2.03-2.03-3.03-3.03-.97-4.71-.12-9.61-.45-14.84-.95-1.13-2.11-2.49-3.51-4.14v-6.92c-1.29-1.42-2.5-2.76-3.82-4.21v-7.16c-1.29-1.39-2.52-2.74-3.82-4.14v-3.48c-1.51-1.92-3.99-3-3.69-6.04.27-2.74-3.37-3.43-3.59-5.88-.17-1.88-.23-3.69-1.96-4.75-2.5-1.51-1.05-4.57-2.63-6.33-1.64-1.84-3.43-3.56-5.23-5.25-1.79-1.68-3.67-3.26-5.15-4.57v-4.13c-3.18-3.26-6.19-6.35-9.16-9.4h-3.76c-6.14-6.14-12.25-12.25-18.43-18.43h-3.9c-5.94-6.01-11.96-12.19-18.15-18.2-.67-.65-2.31-.29-3.7-.42-1.22-1.1-2.56-2.32-4.02-3.63h-3.45c-2.7-2.56-5.34-5.08-7.85-7.46-.87,0-1.48,0-2.1,0-2.15.04-2.84-2.11-4.37-2.89-1.5-.77-3.45-.67-4.94-1.46-1.52-.81-2.29-3.06-4.3-3-2.04.06-3.45-.74-4.69-2.16-.41-.46-.87-.88-1.45-1.46h-7.14c-1.41-1.29-2.75-2.51-4.18-3.82h-3.5c-1.38-1.27-2.72-2.51-4.14-3.82h-3.45c-1.92-1.55-3.03-4.02-6.06-3.68-2.11.24-2.95-1.84-4.92-3.42-1.74-.09-4.12-.21-7.12-.37-.94-.76-2.32-1.87-4.14-3.33h-6.68c-1.48-1.27-2.83-2.44-4.44-3.82h-10.69c-1.4-1.29-2.74-2.52-4.15-3.82h-7.23c-1.37-1.28-2.7-2.52-4.09-3.82h-7.23c-2.27-2.27-4.45-4.45-6.73-6.73-2.81-1.25-5.89-.31-8.88-.59-2.38-.22-4.85.54-7.14-.6-.89-.89-1.76-1.77-2.73-2.74-4.75-.86-9.66-.12-14.84-.4-1.16-1.01-2.52-2.18-4.1-3.55h-7.02c-1.4-1.29-2.73-2.53-4.12-3.82h-25.78c-1.37-1.28-2.7-2.52-4.09-3.81h-22.05c-.97-.97-1.84-1.84-2.71-2.71-13.98-1.29-38.52-1.46-71.71-.5q-3.32,3.19-6.79-.17h-7.52c-.94.81-2.29,1.99-3.87,3.36h-18.15c-1.39,1.29-2.73,2.53-4.11,3.82h-22.07c-1.37,1.28-2.7,2.52-3.88,3.62h-25.82c-1.54-1.35-2.89-2.54-4.13-3.63-1.39.17-2.92-.11-3.68.52-2.36,1.97-4.43,4.29-6.83,6.69h-14.42c-1.46,1.27-2.81,2.46-4.26,3.72-1.05.06-2.26.14-3.57.22-1.28-1.19-2.61-2.44-3.98-3.71h-5.49c0-3.04,0-6.09,0-9.13,1.21-1.3,2.42-2.61,3.59-3.87-1.15-1.28-2.3-2.55-3.45-3.82,1.83-1.83,3.55-3.55,5.33-5.33,1.27,1.2,2.49,2.48,3.86,3.57.37.3,1.18.04,1.79.04,0,1.73-.07,3.45.04,5.17.03.46.53.95.92,1.32.32.29.9.67,1.18.55.49-.21,1.08-.69,1.21-1.17,1.02-3.97.35-5.1-3.35-5.87v-5.56q3.12-1.81,12.2-1.85c.95-.69,1.92-1.36,2.84-2.09.48-.38.88-.86,1.48-1.46h11.18c1.07.97,2.41,2.19,3.76,3.41,1.28-1.16,2.61-2.36,3.86-3.5h7.25c1.48,1.33,2.83,2.53,4.05,3.63,2.04.05,4.07.25,5.01-1.69.49-1,.07-2.41.29-3.59.35-1.84,1.94-1.92,3.71-.23.45.43.88.87,1.57,1.57,1.23-1.02,2.48-2.06,4.17-3.46,5.63,0,11.77.02,17.91-.04.48,0,1.01-.58,1.41-1,.82-.83.44-1.7-.95-2.63-.5-.33-.89-.86-1.36-1.33.92-2.87,3.31-4.43,5.54-6.12,4.64.43,4.64.46,5.03,3.49.35,2.74,1.08,3.81,2.72,3.9,1.85.09,3.7.02,6,.02,1.11-.9,2.49-2.02,4.43-3.58,1.75-.03,4.16-.14,6.57-.1,1.76.03,3.64-.52,5.21.82,1.6,1.37.66,3.41,1.34,5,.23.53.78,1.07,1.3,1.26.3.11,1.1-.39,1.24-.77.4-1.08.44-2.29.87-3.35.44-1.05,1.18-1.98,1.8-2.97h7.36c1.35,1.26,2.68,2.51,3.85,3.59h18.41c1.55-1.35,2.9-2.54,4.36-3.82h10.71c5.24-4.83,5.48-4.83,10.72,0h7.9c1.83,2.63,3.94,5.67,5.3,7.62h9.15c1.35-1.22,2.64-2.39,3.98-3.6,1.86,4.85,8.33,2.18,10.4,6.66.31.67,1.87,0,2.32-1.43.34-1.11.07-2.41.07-3.49q1.82-1.66,5.39,1.7c1.21.06,2.42.11,3.69.17,1.31-1.22,2.64-2.46,3.95-3.68h3.58c1.42,1.3,2.76,2.53,4.16,3.82h7.14c1.9,1.72,3.18,3.89,6.15,3.64,2-.17,2.91,1.92,4.31,3.09,3.52,1.06,7.2.42,10.82.52,3.7.11,7.46-.34,11.1.13,3.31.43,7.32-2.16,9.88,1.83-1.12,1.31-2.2,2.58-3.21,3.76,1.34,2.29,3.35,1.56,5.08,1.72,3.33-1.36.75-5.93,4-7.33.59.99,1.44,1.92,1.71,2.99,1.15,4.5,1.12,4.54,5.92,4.01.44-.44.93-.83,1.3-1.32.91-1.21,1.81-1.86,2.62-1.5,1.35.6,1.62,1.7,1.36,3.14-.21,1.2-.04,2.46-.06,4.52.15.33.18-.68,0-.75-1.19-.47-2.09.01-2.88.94-.75.88-.64,1.62.73,2.32.24.12.82-.21,1.13-.46.41-.33.84-.75,1.02-2.04.63-.82,1.45-1.07,1.83-.77,1.37,1.08,2.59,2.35,3.79,3.47,1.37-1.16,2.63-2.24,3.88-3.3,1.08,1.08,1.95,1.95,2.95,2.95,6.38,1.65,13.14-.53,19.58,1.05.96.96,1.83,1.83,2.95,2.95h6.52c3.62,2.12,5.78,5.14,8.47,7.58,1.32-1.21,2.65-2.42,3.91-3.57h10.94c1.46,1.32,2.8,2.53,4.21,3.81h7.01c1.49.88,1.87,1.89,1.83,3.21-.09,3.08-.21,6.17.06,9.23.12,1.36,1.32,1.89,2.27,1.72,4.9-4.53,5.19-4.52,10.65.5,2.61,0,5.64-.02,8.66,0,3.32.03,3.4.04,4.22,4.21.24,1.2.51,2.26,1.86,3.1h7.16c1.37,1.29,2.7,2.53,4.07,3.8h8.53c1.96,1.99,4.52,4.58,7.39,7.48.6.07,1.78.2,2.96.34,2.18,2.18,4.35,4.36,6.53,6.53,1.17.16,2.33.32,3.5.47,3.17,1.91,5.35,4.91,8.03,7.35,1.3-1.18,2.59-2.35,3.89-3.52,1.78,1.78,3.53,3.53,5.35,5.35v7.01c1.43,3.64,6,1.09,7.5,4.23v3.63c1.18,1.73,2.96,1.69,4.77,1.97,1.9.3,2.62,1.79,2.73,3.91.15,2.97.44,2.95,6.15,3.52,1.7,2.15,3.97,5.03,5.79,7.33h4.68c3.07,2.25,1.01,7.45,5.25,8.96,1.59,3.15,5.88,1.04,7.65,3.97v7.25c1.49,3.27,6.04.73,7.5,4.21v3.42c1.37,1.37,2.54,2.87,4.02,3.94,2.67,1.93,3.27,4.72,3.94,7.65.32,1.39,1.68,1.75,3.09,1.32,0,.6-.25,1.44.04,1.76,1.23,1.29,2.63,2.41,3.66,3.32v4.41c2.44,1.08,4.96,2.19,7.85,3.46-1.62,1.39-2.98,2.56-4.11,3.53v3.88c1.28,1.34,2.5,2.63,3.72,3.92v3.5c1.29,1.37,2.5,2.66,3.66,3.9,0,3.1,0,6.1-.02,9.91.15.33.18-.68,0-.75-1.19-.47-2.09,0-2.88.94-.75.88-.64,1.62.73,2.32.25.12.82-.21,1.13-.46.41-.33.84-.75,1.02-2.04.61-.82,1.43-.57,1.75-.86,1.3-1.19,2.45-2.54,3.69-3.87.76,1.14,1.89,2.06,1.91,3,.15,7.1.08,14.2.08,21.62,1.12,1.05,2.48,2.2,3.66,3.5.29.32.04,1.14.04,1.73-1.73,0-3.5-.21-5.17.1-.75.14-1.31,1.33-1.95,2.05,1.67,1.67,3.31,3.3,4.98,4.98.71-.64,1.9-1.2,2.05-1.95.31-1.67.1-3.44.1-5.17.61,0,1.46-.26,1.79.04,1.8,1.65,3.46,3.43,5.22,5.22-.76,2.22-2.68,3.73-4.46,4.97-1.77,1.24-4.18,1.56-6.39,2.31,1.28,2.06,2.93,2.21,4.76,2.38.95.09,1.81,1.19,2.65,1.8-1.14,1.27-2.28,2.54-3.34,3.72,1.3,3.2,6.04.13,6.81,4.02-.9.9-1.99,1.64-2.57,2.67-.54.95-.39,2.27-.81,3.32-.43,1.04-1.19,1.95-2.21,3.55-2.41-2.93-4.71-5.74-6.66-8.13-2.03.19-3.23.18-4.37.46-.51.12-.88.81-1.41,1.34,1.16,1.27,2.32,2.55,3.48,3.83-1.14,1.24-2.33,2.53-3.52,3.82,1.01.59,1.95,1.5,2.99,1.66,1.79.27,3.69-.14,5.47.17.86.15,2.29,1.48,2.17,1.97-.3,1.29-1.58,1.76-2.85,1.64-1.81-.17-3.28.22-3.75,2.18,1.74,1.76,3.41,3.54,5.2,5.19.33.3,1.18.04,1.79.04,0,.62.27,1.49-.04,1.81-3.42,3.55-6.93,6.99-10.37,10.52-.22.22-.03.84-.03,1.32.83.83,1.7,1.7,2.63,2.63-.62.75-1.22,2.13-1.88,2.15-4.88.18-9.78.1-14.43.1-3.03,2.7-1.58,5.96-1.71,8.84-.06,1.27,1.88,2.22,2.1,1.77,2.13-4.35,8.31-2.05,10.43-6.42.2-.42,2.16.56,2.09,1.82-.23,4,1.43,5.57,5.32,5.16.43-.04,1,.6,1.38,1.03.75.83.37,1.73-1.05,2.61h-11c-1.75,1.15-1.68,2.93-2.12,4.68-.4,1.59-1.96,2.89-3.2,4.58.91,1.06,2,2.33,3.24,3.79v10.97c-1.1,1.17-2.34,2.5-3.61,3.86v3.55c-1.22,1.34-2.41,2.63-3.51,3.84,1.16,1.37,2.24,2.63,3.3,3.88-2.71,2.95-5.99,1-9.27,1.74-2.68,2.86-5.61,5.99-8.83,9.43-.52,4.47-1.06,5.18-4.59,5.31-1.79.07-3.58.21-5.34.5-.49.08-.88.82-1.32,1.25,1.16,1.31,2.33,2.61,3.45,3.86-1.21,1.35-2.42,2.69-3.51,3.9-.36,5.07-.42,4.86-5.36,5.44-1.38.16-2.61,2.26-4.26,3.8-.78-2.27-1.47-4.43-2.29-6.54-.16-.41-.94-.96-1.24-.86-.52.17-1.29.81-1.27,1.23.19,4.49-1.99,6.44-6.36,6.36-.43,0-.87.81-1.36,1.3,1.19,1.3,2.39,2.6,3.59,3.91v11.03c-3.06,3.06-6.11,6.11-9.2,9.2h-11.05c-1.27-1.16-2.59-2.36-3.91-3.57-.44.44-1.1.8-1.27,1.32-1.31,4.02-.16,5.89,3.62,6,1.81.05,3.62,0,4.93,0,2.06,1.15,2.33,2.2,1.02,2.85-2.55,1.28-5.68,1.08-7.72,3.86-.99,1.35-3.29,1.09-4.86-.01-.99-.7-1.76-1.71-2.63-2.58-4.24,3.35-4.17,3.39-6.54,9.4-.54,1.36-1.72,1.74-4.78.19-1.21-.31-.72.69.03,1.05,1.55.76,2.32,0,1.56-1.56-.37-.75-1.36-1.24-2.17-1.68-.14-.07-1.14.93.58,2.18,2.08,2.53,1.72,3.88.33,4.2-2.92.68-5.71,1.27-7.64,3.94-1.07,1.48-2.57,2.64-3.89,3.96-1.3-1.17-2.6-2.34-3.86-3.47-1.34,1.23-2.67,2.45-4.06,3.73h-7.08c-1.42.86-1.88,1.86-1.82,3.16.32,7.53.53,8.16-8.01,7.84-1.23-.05-2.46-.05-3.69.01-.56.03-1.12.26-1.14.26-1.85,1.34-3.15,2.9-4.74,3.29-1.75.43-3.52.38-4.67,2.16v3.58c-2.93,1.83-2.93,1.88-8.53,1.81-3.37-1.66-5.04-5.22-8.28-7.12-4.52,3.56.16,9.12-2.35,13.36-2.57,2.43-5.82.49-8.56,1.22-1.4,1.29-2.74,2.51-4.13,3.79h-7.17c-2.19,2.3-4.07,4.97-7.74,3.11-2.16-2.16-4.34-4.34-6.54-6.54-2.37.7-3.83,2.68-5.08,4.46-1.26,1.78-1.59,4.21-2.28,6.24h-7.77c-1.35,1.27-2.68,2.51-4.04,3.78h-10.88c-1.93,1.24-1.65,3.11-1.97,4.87-.16.93-1.41,2.32-2.22,2.36-4.87.22-9.76.11-14.12.11-1.7-1.41-2.95-2.45-4.18-3.46-2.43,2.43-4.61,4.61-6.78,6.78-3.95.69-4.53.88-7.7,4h-7.23c-2.67,2.55-5.3,5.06-7.95,7.59h-18.22c-1.5,1.34-2.84,2.53-3.87,3.45h-7.32c-2.29-1.37-1.51-3.38-1.9-5.08-.32-1.4-1.44-1.97-2.32-1.57-.52.24-1.18.79-1.26,1.28-.18,1.2-.06,2.45-.06,3.71-.42.42-.83,1.18-1.31,1.23-3.6.36-7.21.57-11.53.88-.82.69-2.18,1.83-3.76,3.15-2.84.05-5.67.78-7.08,4.16-1.59-1.47-2.89-2.66-4.22-3.88-4.25,0-8.56,0-14.51-1.12-1.21-.31-.72.69.03,1.05,1.55.76,2.32,0,1.56-1.56-.37-.75-1.36-1.24-2.17-1.68-.14-.07-1.14.93.58,2.18ZM792.87,365.15c2.48,2.66,4.95,2.66,7.43,0-2.48-2.66-4.95-2.66-7.43,0ZM850.9,330.53c-.42.03-.94-.09-1.25.11-1.85,1.24-1.79,5.29.08,6.1.34.15.93.11,1.24-.09,1.85-1.24,1.77-5.26-.07-6.12ZM572.38,504.12c2.66-2.48,2.66-4.95,0-7.43-2.66,2.48-2.66,4.95,0,7.43ZM47.4,161.95c.41-.82.03-1.69-1.27-2.4-.14-.08-.88.7-1.18,1.18-.49.78-.05,1.68,1.25,2.39.14.08.79-.76,1.2-1.17ZM169.08,473.85c.41-.41,1.25-1.06,1.17-1.2-.71-1.3-1.62-1.74-2.39-1.25-.48.3-1.26,1.04-1.18,1.18.71,1.3,1.58,1.68,2.4,1.27ZM443.3,8.16c-.82-.41-1.69-.03-2.4,1.27-.08.14.7.88,1.18,1.18.78.49,1.68.05,2.39-1.25.08-.14-.76-.79-1.17-1.2ZM560.65,486.2c-.41.41-1.25,1.06-1.17,1.2.71,1.3,1.62,1.74,2.39,1.25.48-.3,1.26-1.04,1.18-1.18-.71-1.3-1.58-1.68-2.4-1.27ZM590.29,22.98c-.41.41-1.25,1.06-1.17,1.2.71,1.3,1.62,1.74,2.39,1.25.48-.3,1.26-1.04,1.18-1.18-.71-1.3-1.58-1.68-2.4-1.27ZM695.29,55.1c.41-.41,1.25-1.06,1.17-1.2-.71-1.3-1.62-1.74-2.39-1.25-.48.3-1.26,1.04-1.18,1.18.71,1.3,1.58,1.68,2.4,1.27ZM702.7,455.32c.41-.41,1.25-1.06,1.17-1.2-.71-1.3-1.62-1.74-2.39-1.25-.48.3-1.26,1.04-1.18,1.18.71,1.3,1.58,1.68,2.4,1.27ZM731.73,418.88c-.41.41-.91.77-1.21,1.25-.49.78-.05,1.68,1.25,2.39.14.08.88-.7,1.18-1.18.49-.78.02-1.63-1.21-2.46ZM736.05,433.09c.41-.41,1.25-1.06,1.17-1.2-.71-1.3-1.62-1.74-2.39-1.25-.48.3-1.26,1.04-1.18,1.18.71,1.3,1.58,1.68,2.4,1.27Z"/>
        <path class="cls-1" d="M681.7,628.25c2.29,2.65,5.39,4.57,6.85,7.56-1.69,1.88-3.3,3.69-4.85,5.42-3.38-1.42-.38-6.16-4.18-7.12-1.45,4.32-6.73,2.08-8.91,5.22-2.57,3.71-6.95.64-10.5,2.78-.29,1.42-.64,3.1-1.04,5.06-1.51,1.51-3.25,3.25-5,5-3.42-1.25-.77-5.8-3.86-7.18-1.35,1.25-2.68,2.48-3.82,3.54h-11.14c-2.29-2.29-4.47-4.47-6.85-6.85-2.69-.29-5.6-.6-8.37-.9-2.84-4.09-.21-8.54-2.06-13.24-1.53-1.53-3.71-3.71-5.89-5.88-.27-1.12-.76-2.24-.77-3.36-.07-7.95-.04-15.9-.04-23.38,1.32-1.32,2.19-2.19,3.48-3.48.09-1.95.2-4.33.32-6.91,1.93-3.67,5.58-6.06,8.39-9.22,1.67-.43,3.34-.87,4.11-1.07,2.48-2.1,4.34-3.69,5.9-5.02.09-1.73.15-2.94.21-4.1,1.18-1.87,3.2-1.27,4.81-1.84,1.59-.56,2.81-2.18,4.4-3.5h3.29c2.66-2.5,5.25-4.93,7.82-7.34,1.44,1.13,2.16,2.9,4.07,3.07,1.26.11,1.3.1,1.37-4.97,1.24-1.34,2.47-2.67,3.77-4.08v-3.43c1.24-1.93,3.22-1.45,4.86-1.99,1.59-.52,2.83-2.13,4.37-3.38.97-.05,2.17-.12,3.49-.2,1.26-1.18,2.59-2.42,3.95-3.7h3.57c1.36-1.28,2.69-2.52,3.97-3.71,1.31.07,2.51.14,3.72.21,1.19.74,1.47,1.79,1.7,3,.81,4.39.88,4.44,5.91,3.8,2.18-2.18,4.36-4.36,6.54-6.54,3.18-.02,5.79-1.19,7.69-4.04h22.55c3.51,3.51,7.37,7.36,11.15,11.14h7.4c3.03,2.61,1.09,5.91,1.75,8.94,1.13,1.21,2.36,2.55,3.65,3.93v7.28c-1.24,1.33-2.49,2.66-3.77,4.03v7.09c-1.24,1.44-2.34,2.71-3.43,3.97,1.05,1.05,1.92,1.92,2.82,2.82,1.32,2.22.48,4.7.66,7.07.04.52-.19,1.37-.56,1.56-3.68,1.89-2.2,6.71-5.19,8.98-1.42,1.08-2.7,2.37-4.15,3.42-.41.29-1.2.04-1.82.04-1.23,0-2.22.59-3.03,1.83v3.51c-1.29,1.39-2.52,2.73-3.81,4.11v3.56c-3.62,4.07-8.35.08-12.2,2.17-3.22,1.57-5.4,4.56-8.11,7.03h-10.88c-2.83,1.35-1.37,4.48-2.83,6.23-1.54,1.84-3.42,3.4-4.79,4.74h-7.6q-4.83-4.45-9.11-1.68ZM709.6,604.17c2.08-2.35,3.67-4.17,6.53-3.73,1.73.27,3.5.31,4.89.42,1.21,1.21,2.08,2.08,2.95,2.95,3.88.47,3.88.43,5.52-1.89-2.18-2.18-4.35-4.35-6.58-6.58.56-.84,1.08-1.73,1.7-2.55.36-.49,1.04-.8,1.26-1.33.66-1.59-.43-3.88,1.38-4.91,1.44-.82,3.29-.94,4.42-1.23,2.17-1.96,3.99-3.6,5.68-5.13v-11.18c1.31-1.44,2.53-2.77,3.67-4.03-.11-1.34-.21-2.53-.31-3.72-1.74-1.74-3.48-3.48-5.24-5.24h-25.83c-1.3,1.18-2.62,2.38-3.88,3.53-1.29-1.13-2.56-2.26-3.83-3.38-1.01,1.01-1.74,2.19-2.78,2.68-1.54.72-3.59.53-4.9,1.46-1.93,1.37-3.33,3-6.11,3.31-2.01.23-3.81,2.43-5.33,3.49h-6.31c-1.22,1.07-2.56,2.26-3.99,3.53-1.22-1.12-2.51-2.3-3.81-3.48-1.71,1.71-3.45,3.45-5.19,5.19-.11,1.19.07,2.5-.4,3.52-.44.95-1.45,2.04-2.4,2.27-2.81.67-6.13-1.1-8.51,1.78,1.18,1.32,2.35,2.63,3.51,3.94-1.4,2.57-4.63.91-6.27,2.64-1.75,1.84-3.45,3.2-6.24,2.98-.68-.05-1.95,1.46-2.14,2.41-.35,1.78.1,3.7-.18,5.51-.16,1.05-1.1,1.99-1.68,2.97-2.85.8-6.1-1.14-8.71,1.28-.99,2.91-.95,5.81,0,8.77,1.71,1.64,3.46,3.32,5.06,4.84,1.47.12,2.66.21,3.85.31,1.79,4.71,8.34,1.95,10.27,6.5.06.13,1.13.1,1.21-.08,2.01-4.43,8.45-1.83,10.31-6.61,1.33,1.21,2.62,2.4,3.95,3.62h7.31c3.11-1.51.56-6.07,4.21-7.5h6.87c1.51-1.34,2.85-2.53,4.28-3.8h6.85c1.69-1.41,3.05-2.55,4.2-3.52h10.75Z"/>
        <path class="cls-1" d="M692.82,763.51h-5.49c-1.36-1.27-2.69-2.52-3.97-3.71-1.31.07-2.51.14-3.7.21-1.8,1.51-2.98,3.99-5.96,3.54-.53-.08-1.17.14-1.67.4-5.09,2.61-5.15,2.64-5.23-2.38-1.84-2.06-3.98-2.49-6.29-.89-1,.69-1.76,1.71-2.88,2.83-1.66-1.65-3.53-3.15-4.92-5.01-1.33-1.77.04-4.87-2.87-6.11-1.08-.05-2.29-.1-3.5-.16-1.74-1.74-3.49-3.49-5.23-5.23-.06-1.21-.11-2.42-.17-3.69-1.2-1.29-2.43-2.61-3.62-3.9,1.23-1.34,2.46-2.67,3.5-3.79v-7.44c-1-1-2.07-1.75-2.68-2.77-.56-.95-.71-2.18-.86-3.32-.07-.52.1-1.42.45-1.6,3.67-1.91,2.4-6.59,5.18-9,1.86-1.61,3.51-3.46,5.25-5.2.07-1.2.14-2.41.21-3.73,1.18-1.26,2.42-2.59,3.7-3.95,0-1.17,0-2.4,0-3.64.98-.62,1.94-1.74,2.93-1.77,5.54-.17,11.09-.08,17.14-.08,4.01-3.16,7.45-7.49,11.57-11.15h3.48c1.38-1.23,2.67-2.37,3.94-3.51,1,1,1.87,1.87,2.74,2.74.44.1,1.21.37,1.26.28,1.88-3.68,6.3-2.73,9.07-5.09,4.07-3.47,6.13-2.64,7.11,2.45.23,1.2.54,2.25,1.72,2.99,1.21.06,2.42.12,3.63.17.46-.38.96-.72,1.37-1.14.87-.87,1.69-1.78,2.42-2.56h7.51c1.39,1.29,2.72,2.52,3.97,3.68,1.34.09,2.54.17,3.74.25,1.2.73,1.79,1.75,1.61,3.03-.31,2.1.63,3.73,2.51,4.05,2.34.4,4.79.1,6.41.1,2.05,1.14,2.36,2.16,2.24,3.55-.16,1.83-.04,3.69-.04,5.54,1.24,1.34,2.47,2.67,3.66,3.96v3.54c-1.23,1.4-2.37,2.68-3.49,3.95,1.01,1.01,1.88,1.88,2.75,2.75.09.44.4,1.1.23,1.27-3.44,3.53-6.94,7.01-10.45,10.52,1.2,1.31,2.4,2.62,3.56,3.89v3.67c-1.78,1.78-3.52,3.52-5.27,5.27-1.2.09-2.39.17-3.72.27-1.27-1.17-2.6-2.4-3.92-3.62-1.26,1.14-2.55,2.32-3.77,3.43-1.34-1.15-2.61-2.24-3.8-3.26-2.25,1.33-1.59,3.31-1.75,5.46,1.65,1.44,3.5,3.05,5.63,4.9.93-.81,2.04-2.11,3.44-2.86.97-.52,2.44-.57,3.51-.26.77.23,1.26,1.41,1.66,1.91-1.7,1.93-3.33,3.77-4.7,5.33h-7.67c-1.92-1.53-3.01-4.03-6.04-3.68-2.11.25-2.94-1.84-4.33-2.9-.31-.23-.96-.33-1.27-.16-.51.28-1.24.83-1.25,1.27-.09,4.31-.06,8.63-.06,12.94h-5.36c-1.19,1.11-2.45,2.27-3.81,3.54-1.17-1.06-2.39-2.16-3.66-3.31-5.35-.22-5.63.03-5.7,5.44,0,.58,0,1.16,0,1.75ZM670.59,709.7c1.22,1.33,2.41,2.62,3.94,4.29-1.93.61-3.56,1.13-6.33,2.01-.86.83-2.92,2.28-4.21,4.25-1.2,1.83-1.56,4.21-2.25,6.21h-4.52c-.56,1.46-1.16,3.05-1.75,4.59,3.06,4.12,6.4,7.5,9.84,10.01h29.33c1.76-1.44,3.13-2.56,4.12-3.37,2.92-.13,5.29-.24,7.25-.33,2.57-2.57,4.62-4.88,6.97-6.82.75-.62,2.31-.27,3.73-.39,2.49-2.38,5.12-4.89,7.79-7.43h3.58q2.7-4.25-1.75-9.07c1.13-1.27,2.27-2.54,3.5-3.93v-3.55c-2.8-3.62-6.43-1.68-9.84-1.32-.87.87-1.74,1.74-2.85,2.85-1.23-1.02-2.47-2.06-3.99-3.32h-7.25c-1.08.98-2.41,2.19-3.75,3.4-1.25-1.12-2.55-2.29-3.81-3.42-1.34,1.22-2.67,2.44-4.05,3.71h-7c-1.57,1.37-2.92,2.54-4.46,3.89-1.62-.56-3.23-1.11-4.77-1.64v-7.67q-3.62-2.8-7.47-.21v7.28ZM690.35,696.19c.82.41,1.69.03,2.4-1.27.08-.14-.7-.88-1.18-1.18-.78-.49-1.68-.05-2.39,1.25-.08.14.76.79,1.17,1.2Z"/>
        <path class="cls-1" d="M88.78,431.97c1.15,1.04,2.43,2.19,3.72,3.35-.94.77-1.65,1.81-2.55,2.02-3.28.77-5.61-1.53-4.81-4.76.24-.96,1.17-1.83,1.95-2.54.32-.29,1.34-.27,1.62.02s.06,1.09.06,1.91Z"/>
        <path class="cls-1" d="M281.48,511.52c-.76,3.7-1.89,4.38-5.87,3.35-.48-.12-.97-.71-1.17-1.21-.12-.28.26-.86.55-1.18.36-.39.85-.89,1.32-.92,1.72-.11,3.45-.04,5.17-.04Z"/>
        <path class="cls-1" d="M435.86,523.23c1.85.86,1.92,4.88.07,6.12-.31.2-.89.24-1.24.09-1.87-.81-1.93-4.86-.08-6.1.31-.2.83-.08,1.25-.11Z"/>
        <path class="cls-1" d="M700.23,430c0-1.73-.22-3.49.1-5.16.14-.75,1.49-1.93,2.04-1.81,1.21.27,1.72,1.51,1.55,2.68-.15,1.06-.32,2.17-.74,3.14-.53,1.2-1.64,1.52-2.95,1.15Z"/>
        <path class="cls-1" d="M262.95,507.82c-.35,2.66-1.19,3.72-2.48,3.06-1.25-.63-1.63-1.7-1.23-3.06h3.71Z"/>
        <path class="cls-1" d="M297.94,515.27c.47.16.89.6,1.22,1,.26.31.59.89.46,1.13-.69,1.37-1.44,1.48-2.32.73-.93-.79-1.41-1.69-.94-2.88.08-.19,1.08-.16,1.57.01Z"/>
        <path class="cls-1" d="M298.16,33.48c1.24.82,1.7,1.68,1.21,2.46-.3.48-1.04,1.26-1.18,1.18-1.3-.71-1.74-1.62-1.25-2.39.3-.48.8-.84,1.21-1.25Z"/>
        <path class="cls-1" d="M307.38,46.24c-.16.47-.6.89-1,1.22-.31.26-.89.59-1.13.46-1.37-.69-1.48-1.44-.73-2.32.79-.93,1.69-1.41,2.88-.94.19.08.16,1.08-.01,1.57Z"/>
        <path class="cls-1" d="M492.71,522.64c-.35,2.66-1.19,3.72-2.48,3.06-1.25-.63-1.63-1.7-1.23-3.06h3.71Z"/>
        <path class="cls-1" d="M694.46,763.55c.47.16.89.6,1.22,1,.26.31.59.89.46,1.13-.69,1.37-1.44,1.48-2.32.73-.93-.79-1.41-1.69-.94-2.88.08-.19,1.08-.16,1.57.01Z"/>
        <path class="cls-1" d="M712.99,756.14c.47.16.89.6,1.22,1,.26.31.59.89.46,1.13-.69,1.37-1.44,1.48-2.32.73-.93-.79-1.41-1.69-.94-2.88.08-.19,1.08-.16,1.57.01Z"/>
        <path class="cls-1" d="M850.69,163.59c.14-.07,1.14.93,1.07,1.07-.44.8-.93,1.8-1.68,2.17-1.55.76-2.32,0-1.56-1.56.37-.75,1.36-1.24,2.17-1.68Z"/>
        <path class="cls-1" d="M876.63,278.47c.14-.07,1.14.93,1.07,1.07-.44.8-.93,1.8-1.68,2.17-1.55.76-2.32,0-1.56-1.56.37-.75,1.36-1.24,2.17-1.68Z"/>
        <path class="cls-1" d="M717.53,596.14c-.82.41-1.69.03-2.4-1.27-.08-.14.7-.88,1.18-1.18.78-.49,1.68-.05,2.39,1.25.08.14-.76.79-1.17,1.2Z"/>
      </g>
      <g>
        <path class="cls-1" d="M351.56,386.67c-.08.67.27,1.03.94.96.12-.61.21-1.17.36-1.84-.5.41-.9.65-1.3.88Z"/>
        <path class="cls-1" d="M236.77,371.53c-.19.71,0,1.15.5,1.24.14-.48.33-1.04.71-1.81-.44.25-.81.39-1.21.57Z"/>
        <path class="cls-1" d="M313.79,298.65c.7.13,1.14-.13,1.13-.75-.58-.14-1.17-.29-1.87-.52.33.47.54.87.75,1.26Z"/>
        <path class="cls-1" d="M419.54,228.85c-2.18,2.18-4.36,4.36-6.6,6.6h-3.66c-1.28-1.18-2.62-2.42-3.9-3.6h-7.36q-3.71,3.49-5.4,1.91v-7.2c-2.51-2.66-4.96-5.26-7.41-7.85.55-.55,1.01-.97,1.42-1.43,3-3.33,3.02-4.23.43-7.63-2.82-3.69-2.87-3.69.05-7.51,1.75-.18,3.76.6,4.97-1.46-1.59-3.24-4.7-5.17-6.98-7.83,0-5.55,0-11.11,0-16.66-1.73,0-3.49.22-5.16-.1-.75-.14-1.93-1.49-1.81-2.04.27-1.21,1.51-1.72,2.68-1.55,1.06.15,2.17.32,3.14.74,1.2.53,1.52,1.64,1.15,2.95.62,0,1.43-.25,1.81.05,1.37,1.08,2.59,2.35,3.83,3.51,1.97-1.24,1.32-3.27,1.9-4.87.58-1.59,2.19-2.8,3.51-4.37v-3.45c-1.15-1.25-2.36-2.58-3.57-3.9q3.49-3.7,1.8-5.49c-2.18,0-4.62.17-7.02-.1-.69-.08-1.24-1.41-1.85-2.16.5-.5.88-1.01,1.38-1.36,1.3-.91,1.75-1.77,1.22-2.62-.73-1.17-1.81-1.53-3.21-1.17-1.35.34-2.55-.11-3.04-1.45-.31-.87.56-1.78,1.88-2.21.56-.18,1.22-.06,1.84-.02,1.27.08,2.55-.39,2.87-1.69.11-.47-1.43-1.88-2.28-1.93-3.58-.24-7.44.69-9.77-3.24-4.72-.1-7.41-3.2-9.82-6.69-.13-1.18-.03-2.44-.45-3.51-.67-1.72-1.69-1.76-3.03.46-.13,3.34-.29,7.49-.42,10.86-1.6,2.04-2.68,3.42-2.07,2.64-2.41,5.9-.37,9.65-2.2,13.11-.89.89-1.76,1.76-2.79,2.79v7.46c.95,1.06,2.16,2.4,3.37,3.74-1.12,1.25-2.28,2.56-3.4,3.82,1.22,1.34,2.44,2.68,3.44,3.77v7.27c-1.38,1.61-2.55,2.96-3.8,4.42v14.38c-1.1,1.1-1.97,1.97-2.89,2.89-.19,2.02,1.82,2.56,2.91,4.25v7.33c-.84.96-2.02,2.31-3.38,3.87v7.04c-1.28,1.38-2.52,2.71-3.8,4.1v18.28c-1.6,3.19-6.02.93-7.54,4.04-1.44,2.95-6.01.17-6.91,3.66,1.17,1.55,3.1,2.94,3.14,4.39.07,2.84,1.66,4.34,3.28,6.12.59.64-.17,2.09-1.55,2.27-2.4.31-4.86.09-7.11.09-.63-.63-1.17-1-1.47-1.52-.27-.48-.27-1.12-.39-1.68-.95-4.39-.95-4.45-5.94-3.83-2.18,2.18-4.35,4.35-6.54,6.54-2.33.91-4.82.09-7.16.56-1.9.38-2.95,1.85-2.59,3.98.22,1.31-.32,2.33-1.8,3.21h-17.85c-2.67,2.85-5.15,5.51-7.06,7.54h-12.11c-1.37-1.23-2.66-2.38-3.85-3.45-1.39,1.16-2.65,2.21-3.53,2.95-2.13-1.79-3.97-3.34-5.74-4.83,1.46-1.63,2.67-2.97,3.79-4.23-.13-1.36-.25-2.55-.34-3.53-1.12-1.38-2.13-2.62-3.21-3.94,3.57-1.75,3.37-5.06,4.28-7.78,2.2-2.2,4.37-4.37,6.61-6.61v-7.34c-1.15-1.26-2.36-2.58-3.53-3.86,1.23-1.34,2.45-2.68,3.86-4.22-.47-1.59-.95-3.23-1.54-5.25-1.71,1.53-2.99,2.69-4.29,3.85-2.17-1.67-2.69-3.98-1.07-6.1,1.47-1.92,3.54-3.37,2.78-6.6-.93-1.05-2.12-2.4-3.38-3.83-.06-1.07-.12-2.28-.18-3.37,1.19-2.92,4.12-1.79,6.1-2.8,1.3-.66,1.73-1.72,1.31-3.12.3.27.86.27,1.62-.1.75-.37,1.24-1.36,1.68-2.17.07-.14-.93-1.14-1.07-1.07-.8.44-1.8.93-2.17,1.68-.37.76-.37,1.33-.09,1.62h-9.16q-2.75-3.79.09-7.4c1.74-.18,3.74.62,5.17-1.84v-7.3c-.79-.92-1.95-2.27-3.33-3.88v-10.62c-1.24-1.39-2.44-2.72-3.52-3.93.86-3.15,3.93-1.49,5.8-2.64,1.24-.77,1.71-1.75,1.28-3.16-3.05,0-6.12.24-9.13-.11-1.4-.16-1.85-1.54-1.32-2.38.31-.49.85-1.15,1.31-1.17,3.04-.1,6.09-.05,9.14-.05.35-2.66,1.19-3.72,2.48-3.06,1.25.63,1.63,1.7,1.23,3.06,1.41.43,2.72.07,3.09-1.32.46-1.7.38-3.53.63-5.3.16-1.14.48-2.26.73-3.39.87-.87,1.74-1.74,2.62-2.61.12-1.18.23-2.37.36-3.73-1.12-1.25-2.33-2.6-3.66-4.07v-7.1c-4.15-3.19-4.19-3.19-8.85,1.11-.44-.11-1.06-.08-1.28-.36-2.24-2.83-1.17-5.87,2.26-6.57,3.29-.67,4.14-1.19,3.57-2.31-1.07-2.12-3.2-1.22-5.36-1.44-1.46-1.54-3.31-3.21-4.75-5.17-.61-.83-.35-2.3-.5-3.68,1.1-1.24,2.29-2.59,3.48-3.94-.76-.63-1.66-1.97-2.4-1.88-4.07.49-8.61-2.06-12.18,1.73v29.57c-1.26,1.34-2.5,2.67-3.79,4.05v7.11c-1.34,1.5-2.53,2.85-3.79,4.26v29.11c-1.4,1.65-2.55,3.02-3.54,4.18,0,13.27,0,26.21.02,39.15,0,.55.3,1.1.41,1.48.83,1.51,3.06,1.92,2.59,4.07-2.19,2.19-4.37,4.37-6.62,6.62,1.19,1.3,2.38,2.59,3.58,3.91v3.53c-1.23,1.36-2.39,2.65-3.47,3.84,1.16,1.38,2.22,2.64,3.26,3.88-1.1,1.1-1.97,1.97-2.84,2.84-.39.87.06,1.74,1.35,2.61,1.76,1.19,1.81,2.99,1.65,5.97-2.2,1.73-5.08,4-7.34,5.79v8.42c1.28,1.36,2.52,2.69,3.6,3.85v7.43c-.54.54-.99.96-1.41,1.41-3,3.29-3.03,4.3-.48,7.62,2.84,3.69,2.83,4.32.05,7.62-.4.47-.87.88-1.54,1.55,1.03,1.23,2.09,2.49,3.34,3.99v6.99c1.28,1.39,2.51,2.73,3.81,4.13v4.68c-2.24,1.77-5.12,4.03-7.21,5.68v8.29c1.05,1.05,1.92,1.92,2.99,2.99,1.28,4.57.06,9.48.6,14.28.12,1.03,1.17,1.95,1.79,2.93,1.57,0,3.19-.07,5.45-1.08.05-.18.06-.33.16-.54.37-.75,1.36-1.24,1.05-.03,1.25-1.72,2.26-.72,2.18-.58-.44.8-.93,1.8-1.68,2.17-.52.25-.9.28-1.22.23-.27.92-.25,1.41-.45,1.65-1.14,1.41-2.47,2.68-3.77,4.05v7.04c-1.25,1.49-2.32,2.75-3.37,3.99,1.09,1.1,2.08,1.89,2.81,2.87.59.79.05,1.92-1.39,2.4-1.11.37-2.45-.02-3.62.24-1.26.28-2.13,3-1.73,4.8.37,1.64,2.45,2.65,4.21,2.49,2.12-.2,2.87-2.06,4.34-2.99,2.32-1.47,4.48-1.07,6.23,1.12-1.75,1.75-3.5,3.5-5.21,5.21-1.88.8-4.87-.8-5.3,1.98,1.78,2.19,3.3,4.05,4.75,5.83,1.69-1.5,3.04-2.7,4.04-3.59h14.73c1.71,1.06,2.22,3.12,4.28,2.9,1.38-1.14,2.24-3.09,4.3-3.07,4.45.05,5.81-3.68,8.32-6.56-.87-3.38.46-7.08-.65-10.33-.86-1.69-3.22-2.05-2.57-4.25.89-.89,1.77-1.77,2.81-2.81v-7.48c-.95-1.05-2.16-2.4-3.48-3.86v-21.97c-2.48-2.62-4.91-5.19-7.33-7.75,2.39-2.39,4.57-4.57,6.77-6.77.96-2.33.55-4.8.4-7.18-.06-.91-1.35-1.74-2.09-2.6-1.2.08-2.57-.17-3.57.32-1.44.71-2.24,3.26-3.93,2.77-2.21-.64-1.24-3.1-1.44-4.84.95-.66,1.83-1.48,2.86-1.92,1.05-.44,2.4-.26,3.36-.81,1.04-.58,1.78-1.68,3.05-2.95,2.02,0,4.45.16,6.85-.06,1.32-.12,2.27-1.26,1.97-2.14-.45-1.34-1.67-1.73-3.03-1.52-.6.1-1.23.02-1.9.02-1.31-1.22-2.64-2.46-4.04-3.76-1.16,0-2.4.12-3.6-.06-.49-.08-1.09-.74-1.27-1.27-.31-.91.37-2.15,1.72-2.24,3.65-.24,7.33-.08,10.71-.08,2.03,2.03,3.77,3.77,5.56,5.56,0,.58.12,1.22-.02,1.79-.35,1.43,0,2.53,1.31,3.16.82.4,1.75-.17,2.61-1.44,1.21-1.8,3.05-1.7,5.14-1.65,2.5-2.39,5.14-4.91,7.82-7.47h7.28c.48-.48,1.02-.86,1.33-1.37.29-.47.35-1.09.48-1.65,1.05-4.52,1.07-4.56,5.88-4.02.44.44.93.83,1.3,1.32.91,1.21,1.81,1.86,2.62,1.5,1.35-.6,1.62-1.7,1.37-3.14-.17-.96-.14-1.99-.95-3.55-.22-.04-.44-.08-.72-.21-.75-.37-1.24-1.36-.03-1.05-1.72-1.25-.72-2.26-.58-2.18.8.44,1.8.93,2.17,1.68.2.4.28.74.29,1.02,2.31.57,3.81.6,5.26.6,1.34-1.26,2.66-2.5,4.01-3.78h3.55c1.81-1.81,3.54-3.54,5.28-5.27.07-1.2-.07-2.46.26-3.57.41-1.37,1.63-2.18,2.27-1.62,1.8,1.57,3.32,2.97,6.06,3.33,2.84.37,4.55,3.26,6.16,5.65-.49.49-.95.9-1.35,1.36-2.91,3.39-2.93,4.02-.26,7.58,2.77,3.69,2.76,4.19-.1,7.58-.39.47-.86.87-1.31,1.32-.4,2.91-1.05,5.84.4,8.63.9.9,1.76,1.76,2.74,2.74-1.14,1.27-2.29,2.55-3.56,3.96,0,4.72-.15,9.62.1,14.5.07,1.36,1.44,1.82,2.35,1.46.87-.87,1.73-1.73,2.6-2.6.95-.18,1.97.33,2.31,1.71.7,2.89-.45,4.64-3.17,5.21-4.36.91-4.41.93-3.78,6.13,5.98,5.92,12.07,11.95,18.13,17.95-.03,5.05-.07,5.07-1.34,5.04-1.95-.05-2.61-1.89-4.07-2.99-1.24,1.09-2.51,2.21-3.6,3.16-1.85.38-3.53.71-5.05,1.02-1.13,3.36-1.17,6.28-.17,9.14.38,1.1,1.29,1.48,2.92.54.03-.25.09-.53.25-.86.37-.75,1.36-1.24,1.05-.03,1.25-1.72,2.26-.72,2.18-.58-.44.8-.93,1.8-1.68,2.17-.34.16-.62.23-.87.26-.71,3.69-.75,6.4-.75,8.98-1.22,1.34-2.4,2.63-3.51,3.85,1.27,1.46,2.46,2.81,3.73,4.26v6.76c1.44,1.76,2.57,3.13,3.37,4.12.68,3.32-1.35,6.7,2.01,8.76,1.36-1.23,2.7-2.44,3.96-3.58,5.66.5,4.83.21,5.3,3.4.54,3.69,3.25,5.21,6.04,3.45,1.02-.64,1.77-1.71,2.66-2.59,2.31-1.01,4.77-.32,7.16-.54,2.98-.28,6.07.73,8.99-.71,1.65-1.75,3.3-3.51,4.55-4.85v-18.73c-2.39-2.39-4.57-4.57-6.74-6.74-1.88-3.69.84-5.56,3.11-7.74-1.17-1.29-2.34-2.58-3.57-3.93v-40.56c-1.22-1.34-2.41-2.64-3.53-3.86,1.16-1.35,2.25-2.62,3.22-3.76-1.32-1.6-2.45-2.97-3.3-3.99-.6-3.33,1.31-6.72-1.99-8.85h-3.58c-1.39,1.23-2.67,2.37-4.4,3.91-.59-2.06-1.06-3.7-1.51-5.29,1.43-1.55,2.66-2.88,3.88-4.2-1.14-1.26-2.32-2.55-3.37-3.7,3.06-3.18,6.05-6.28,8.91-9.25,1.97-.23,4,.63,5.22-1.48.61-4.11,1.16-8.27-.39-12.37-.87-.87-1.75-1.75-2.73-2.72,1.16-1.28,2.33-2.57,3.55-3.93v-3.52c1.28-1.37,2.52-2.7,3.81-4.08v-6.84c3.23-3.4,6.17-6.51,9.05-9.55,1.43,1.27,2.72,2.4,3.99,3.53,3.63-3.63,7.12-7.12,10.61-10.61,1.19-.11,2.37-.23,3.75-.36,3.4-3.83,8.83-6.22,9.91-12.6-3.04-3.04-6.04-6.06-9.1-9.03-.19-.18-.84.11-1.28.18ZM234.41,294.16c-.48-.3-1.26-1.04-1.18-1.18.71-1.3,1.58-1.68,2.4-1.27.41.41,1.25,1.06,1.17,1.2-.71,1.3-1.61,1.74-2.39,1.25ZM241.82,308.98c-.48-.3-1.26-1.04-1.18-1.18.71-1.3,1.58-1.68,2.4-1.27.41.41,1.25,1.06,1.17,1.2-.71,1.3-1.62,1.74-2.39,1.25ZM247.35,393.6c-.3.48-1.03,1.26-1.18,1.18-1.3-.71-1.68-1.58-1.27-2.4.41-.41,1.06-1.25,1.2-1.17,1.3.71,1.74,1.62,1.25,2.39ZM254.76,315.78c-.3.48-1.04,1.26-1.18,1.18-1.3-.71-1.68-1.58-1.27-2.4.41-.41,1.06-1.25,1.2-1.17,1.3.71,1.74,1.62,1.25,2.39ZM254.76,245.37c-.3.48-1.04,1.26-1.18,1.18-1.3-.71-1.68-1.58-1.27-2.4.41-.41,1.06-1.25,1.2-1.17,1.3.71,1.74,1.62,1.25,2.39ZM264.62,302.14c-.14.08-.79-.76-1.2-1.17-.41-.82-.03-1.69,1.27-2.4.14-.08.88.7,1.18,1.18.49.78.05,1.68-1.25,2.39ZM284.4,304.66c-.3.48-1.04,1.26-1.18,1.18-1.3-.71-1.68-1.58-1.27-2.4.41-.41,1.06-1.25,1.2-1.17,1.3.71,1.74,1.62,1.25,2.39ZM298.63,291.71c.41.41,1.25,1.06,1.17,1.2-.71,1.3-1.62,1.74-2.39,1.25-.48-.3-1.26-1.04-1.18-1.18.71-1.3,1.58-1.68,2.4-1.27ZM297.96,305.92c-1.65-.24-3.61.71-4.83-1.21-.52-.82.03-1.54,1.15-2.55,1.29-1.16,2.33-2.6,3.48-3.92,2.91,2.81,2.92,5.26.2,7.68ZM353.56,265.08c-.14.08-.79-.76-1.2-1.17-.41-.82-.03-1.69,1.27-2.4.14-.08.88.7,1.18,1.18.49.78.05,1.68-1.25,2.39ZM357.3,354.09c-2.66-2.48-2.66-4.95,0-7.43,2.66,2.48,2.66,4.95,0,7.43ZM380.16,362.11c.41.41,1.25,1.06,1.17,1.2-.71,1.3-1.62,1.74-2.39,1.25-.48-.3-1.26-1.04-1.18-1.18.71-1.3,1.58-1.68,2.4-1.27ZM375.21,328.76c.82-.41,1.69-.03,2.4,1.27.08.14-.7.88-1.18,1.18-.78.49-1.68.05-2.39-1.25-.08-.14.76-.79,1.17-1.2ZM369.03,176.85c.48.3,1.26,1.04,1.18,1.18-.71,1.3-1.62,1.74-2.39,1.25-.48-.3-.84-.8-1.25-1.21.82-1.24,1.68-1.7,2.46-1.22ZM365.33,286.76c-.82.41-1.69.03-2.4-1.27-.08-.14.7-.88,1.18-1.18.78-.49,1.68-.05,2.39,1.25.08.14-.76.79-1.17,1.2ZM365.33,208.94c-.82.41-1.69.03-2.4-1.27-.08-.14.7-.88,1.18-1.18.78-.49,1.68-.05,2.39,1.25.08.14-.76.79-1.17,1.2ZM364.95,202.06c-1.34-.18-1.89-1.43-1.52-2.28.22-.51.77-1.16,1.24-1.23,1.16-.18,2.37-.06,3.88-.06,1.04-1.21,2.2-2.57,3.36-3.92,2.92,2.64,2.86,5.1.23,7.57-2.41,0-4.83.23-7.18-.09ZM374.02,221.98c-.6,1.12-.85,1.37-1.08,1.56-.31.26-.89.59-1.13.46-1.37-.69-1.48-1.44-.73-2.32.79-.93,1.69-1.41,2.88-.94.15.06.16.72.07,1.24ZM374.04,219.06c.37-.75,1.36-1.24,2.17-1.68-.7,1.56-1.23,2.67-1.64,3.52-.81,0-1.09-.7-.53-1.84ZM375.6,220.62c-.35.17-.65.25-.91.27,1.87-3.34,2.66-2.56,2.59-2.44-.44.8-.93,1.8-1.68,2.17ZM378.32,155.22c.3-.48,1.03-1.26,1.18-1.18,1.3.71,1.68,1.58,1.27,2.4-.41.41-1.06,1.25-1.2,1.17-1.3-.71-1.74-1.62-1.25-2.39ZM383.35,231.9c-2.77-2.61-2.75-5.07-.11-7.52,1.68,1.68,3.36,3.36,5.05,5.05-.4,3.58-3.24,1.88-4.94,2.47ZM421.56,240.48c.63,1.27-.88,2.42-3.17,2.44-.6,0-1.26.17-1.77-.05-.51-.21-.98-.73-1.26-1.23-.45-.82.06-1.74,1.38-2.39.48-.23,1.17-.04,1.77-.04,1.37-.42,2.41-.01,3.05,1.27Z"/>
        <path class="cls-1" d="M522.18,229.94c-1.61-1.62-3.2-3.29-4.88-4.87-1.12-1.05-3.48-1.09-4.97-.02-.99.71-1.76,1.71-2.64,2.58-4.36-.45-.68-5.6-4.28-6.83h-6.93c-1.39-1.28-2.73-2.52-4.13-3.81h-4.69c-1.77,2.24-4.04,5.12-5.1,6.47-3.53,1.15-5.16,1.67-6.74,2.19v37.34c-1.26,1.36-2.5,2.69-3.78,4.06v10.96c-1.27,1.36-2.51,2.69-3.72,3.97.06,1.29.12,2.5.17,3.56,1.17,1.36,2.25,2.63,3.34,3.89-1.87,1.87-3.89,3.28-3.56,6.21.19,1.74-.18,3.54-.25,4.66-1.5,1.92-2.58,3.31-3.4,4.36,0,2.39,0,4.23,0,6.08-.7.94-1.25,2.09-2.14,2.78-1.75,1.34-1.55,3.13-1.56,5.09-1.14,1.25-2.36,2.59-3.59,3.93,1.17,1.28,2.38,2.61,3.65,4v7.08c1.24,1.42,2.35,2.7,3.46,3.96-1.9,1.9-3.7,3.59-5.36,5.41-.77.84-1.26,1.93-1.87,2.9-.28,3.6.67,7.28-.75,10.79-.87.87-1.74,1.74-2.78,2.78v21.9c-1.26,1.42-2.46,2.76-3.8,4.26v7.08c-1.28,1.39-2.51,2.71-3.7,3.99,1.23,1.34,2.46,2.67,3.63,3.94q-.29,3.39-3.72,7.84c.54,2.85-1.32,6.19,1.82,8.55h7.36c1.27-1.15,2.59-2.35,3.86-3.5,1.35,1.21,2.69,2.42,3.91,3.52,4.82.36,5.1.38,5.2,3.41.07,2.14.82,3.71,2.71,3.91,2.35.25,4.83.56,7.15-.41.88-.88,1.76-1.76,2.92-2.92,1.19,1.02,2.3,2.23,3.65,3.05,2.24,1.35,5.92.23,5.68-2.02-.37-3.46,2.94-4.71,3.4-7.36-.98-.98-1.85-1.85-2.77-2.77-.88-2.93-.33-5.99-.38-9-.02-1.12.49-2.24.76-3.35.88-.88,1.75-1.75,2.76-2.76v-14.55c1.27-1.4,2.49-2.74,3.72-4.08-1.12-1.26-2.28-2.57-3.4-3.82,1.21-1.35,2.42-2.69,3.69-4.11v-7.1c.6-.6,1.07-1.01,1.47-1.48,2.89-3.37,2.91-4.23.21-7.62-2.01-2.53-1.71-3.18,2.16-3.65,1.28-.15,2.34-.34,3.22-1.86-1.52-1.62-3.1-3.3-4.59-4.89-.66-.28-1.16-.58-1.71-.71-1.13-.27-2.32-.34-3.41-.7-.47-.15-1.13-.9-1.06-1.24.11-.5.75-1.22,1.23-1.27,2.39-.27,4.8-.32,7.2-.54.52-.05,1.07-.45,1.48-.83.42-.38,1.03-.97.98-1.4-.37-2.89,1.27-6.15-1.76-8.85-2.2,0-4.65.2-7.05-.08-1.36-.16-2.03-1.34-1.72-2.25.18-.52.83-.89,1.32-1.38,3.63,0,7.32.04,11.01-.05.46-.01.89-.77,1.96-1.75,0-3.64-.13-7.88.03-12.11.19-4.84-.7-9.73.45-14.37.59-.59,1.07-1,1.46-1.47,3.19-3.8,2.39-6.39-2.39-7.26-1.22-.22-2.57-.39-2.88-1.7-.12-.49,1.33-1.82,2.21-1.97,2.35-.43,4.78-.36,7.16-.65.48-.06,1.17-.78,1.22-1.26.04-.38-.68-1.18-1.14-1.24-2.37-.31-4.76-.43-7.14-.64-1.67-.15-2.74-1.67-2.7-3.93.03-1.83,0-3.66,0-5.2,1.41-1.58,2.61-2.92,3.55-3.97.18-4.04.3-7.69.57-11.33.03-.46.82-.88,1.22-1.28,1.68-.51,3.82.51,5.01-1.35,1.49-2.34,1.05-4.5-1.09-6.29h-5.54c.04,3.63-3.61,4.53-5.27,7.2h-7.54c-.91-.82-2.1-2.2-3.58-3.11-1.43-.89-3.56.18-4.91-1.33-.3-.33-.39-.85-.58-1.28,1.72-1.72,3.44-3.44,5.18-5.18h3.64c1.3,1.22,2.61,2.46,3.92,3.69,3.04,0,6.09,0,9.14,0,0-3.71,0-7.41,0-11.12-1.2,0-2.4.01-3.62.77.03-.13.03-.34,0-.51-.03.2-.07.33-.09.56-.18,1.29-.62,1.71-1.02,2.04-.31.26-.89.59-1.13.46-1.37-.69-1.48-1.44-.73-2.32.79-.93,1.69-1.41,2.88-.94.05.02.08.1.1.19.4-2.97,1.2-3.93,2.4-3.32,1.25.63,1.63,1.7,1.23,3.06h5.57c1.72-1.74,3.46-3.48,5.52-5.56ZM507.32,318.84c-.71,1.3-1.62,1.74-2.39,1.25-.48-.3-1.26-1.04-1.18-1.18.71-1.3,1.58-1.68,2.4-1.27.41.41,1.25,1.06,1.17,1.2ZM498.21,261.44h7.23c.43.4.97.74,1.28,1.23.52.82.02,1.69-1.28,2.48h-7.23c-.43-.4-.97-.74-1.28-1.23-.52-.82-.02-1.69,1.28-2.48ZM486.4,305.27c-.48-.3-.84-.8-1.25-1.21.82-1.24,1.68-1.7,2.46-1.22.48.3,1.26,1.04,1.18,1.18-.71,1.3-1.61,1.74-2.39,1.25ZM490.67,239.14c-.14.08-.79-.76-1.2-1.17-.41-.82-.03-1.69,1.27-2.4.14-.08.88.7,1.18,1.18.49.78.05,1.68-1.25,2.39Z"/>
        <path class="cls-1" d="M673.49,133.95c-4.25-2.73-8.85-5.68-13.48-8.65-.11-1.05-.23-2.12-.33-3.06-1.59-1.1-3.06-2.12-3.77-2.61-1.07-2.09-1.77-3.46-2.52-4.92-1.54.93-2.7,1.94-3.68,3-1.58-.57-3.15-1.14-4.75-1.71-1.21.36-2.49.74-3.75,1.12-1.89-.62-3.71-1.23-5.53-1.83-2.61.78-5.2,1.55-7.78,2.32-1.25,1.99-2.49,3.97-3.73,5.94.29,1.01.59,2.01.94,3.2-.74,1.34-1.56,2.82-2.45,4.44.78,1.86,1.62,3.87,2.46,5.87-.88,1.52-1.74,3-2.6,4.46.85,2.02,1.69,4.04,2.51,5.98,1.83.73,3.6,1.43,5.28,2.1.37,1.11.71,2.11,1,3-.84,1.57-1.62,3.05-2.36,4.43,1.68,2.3.84,5.63,4.96,6.64,1.11-.33,2.34-.7,3.7-1.1.55.37,1.09.73,1.64,1.11.12,1.1.23,2.16.35,3.2-1.42,1.39-2.81,2.75-4.19,4.1-1.45-.48-2.89-.96-4.29-1.42-2.61.78-5.2,1.55-7.78,2.32-1.25,1.99-2.49,3.97-3.73,5.94.3,1.01.59,2.01.94,3.2-.74,1.34-1.56,2.82-2.45,4.44.78,1.86,1.62,3.87,2.46,5.87-.88,1.52-1.74,3-2.6,4.46.3.71.58,1.39.88,2.1-.21.2-.46.44-.68.64.13,1.19.24,2.26.35,3.22,1.49,1.04,2.9,2.02,4.29,3-3.65,3.57-7.18,7.03-10.92,10.68.21,1.93.44,4.03.67,6.14-1.28,1.41-2.47,2.73-3.73,4.12.04.94.09,2,.14,3.15-1.2,1.25-2.45,2.56-3.71,3.88.11,1.04.23,2.12.34,3.11,1.56,1.05,3.05,2.07,4.33,2.93.25,2.35.48,4.47.68,6.29-1.04,3.26-7.05.72-7.18,4.53.52.33,1,.72,1.58.97,1.51.64,2.13,1.34,1.65,2.14-.68,1.13-1.84,1.58-3.44,1.43-1.54-.14-2.64.42-3.45,1.87,1.22.91,2.53,1.88,4.06,3.02.2,1.89.44,4.01-.14,8.89-.28,2.72.23,3.05.63,3.36.31.24.73.7.62.93-.64,1.28-1.45,1.47-2.5.92-1.1-.58-1.72-1.3-1.31-2.4.07-.17,1.18-.27,2.56-2.81.15-.75-3.55.17-2.63,2.8-3.39-.18-3.64,3.26-6.14,3.55-1.38.17-3.02-1.28-4.57-2.01-2.11,1.3-1.1,2.96-1.11,4.48,1.89,2.7,6.71-.05,8.54,2.53.13,1.16.24,2.22.34,3.15-1.32,1.42-2.54,2.73-3.52,3.79.26,2.41.49,4.53.69,6.33,1.55,1.19,2.81,2.15,4.04,3.09-2.49,2.43-4.7,4.59-6.9,6.76-.07.51-.29,1.04-.2,1.53.48,2.67-1.05,3.97-4.38,4.18-1.38.09-2.43.74-3.22,1.95.1.97.22,2.02.33,3.02-1.28,1.38-2.5,2.68-3.67,3.94,1.48,1.02,2.96,2.04,4.17,2.87.26,2.4.49,4.51.71,6.5-.59.58-1.11.97-1.45,1.45-.58.8-1.65,1.81-1.42,2.43.44,1.17,1.97,1.35,3.48.83,1.52-.53,2.79-.32,3.62.73.53.67-.09,1.47-1.31,2.46-1.44,1.16-2.73,2.42-3.76,3.35-4.5.67-8.53,1.22-12.54,1.9-.51.09-.89.82-1.34,1.25,1.72,2.8,6.52-.05,8.12,2.23-.75,3.47-6.52,1.18-7.25,4.6,2.09,1.3,4.18,2.61,6.32,3.95,1.32-.14,2.68-.29,4-.43,1.63.94,3.23,1.86,4.7,2.72,1.47-.16,2.81-.31,3.94-.43.45-.4.86-.76,1.21-1.06,7.18-4.84,8.5-.41,10.43-.6,2.75-2.09,4.76-3.63,6.59-5.02-2.15-3.59,2.31-5.11,3.31-8.17-.17-1.54-.39-3.63-.57-5.29,1.44-1.73,2.55-3.06,3.43-4.12-.21-3.52-1.68-6.85,2.7-9.28,1.02-4.78-1.86-9.39-.3-13.99,1.09-1.07,1.98-1.94,2.97-2.91-.22-2.03-.45-4.15-.68-6.28,1.3-1.36,2.55-2.67,3.84-4.02-.11-1.01-.23-2.09-.34-3.1,1.29-1.34,2.54-2.65,3.84-4.01-.23-2.13-.46-4.25-.67-6.17,1.35-1.5,2.54-2.82,3.81-4.23-.35-3.19-.69-6.36-1.03-9.5,2.04-1.71,3.66-3.23,3.5-5.73-.08-1.3,1.79-2.75,3.15-4.65-.03.11.24-.4.19-.89-.24-2.69-.56-5.38-.85-8.06.7-.9,1.21-1.97,2.14-2.68,1.83-1.39,1.37-2.93,1.22-4.62,1.16-1.23,2.4-2.55,3.7-3.93-.34-3.12-.69-6.34-1.03-9.54,1.28-1.34,2.53-2.65,3.83-4.01-.11-1.03-.23-2.08-.32-2.96,1.34-1.46,2.54-2.78,3.81-4.18-.46-4.27-.92-8.52-1.37-12.63,1.06-1.04,2.35-1.82,2.75-2.79,1.01-2.44.56-5.27,3.7-7.1.14-2.68.76-5.22,3.62-7.12-.44-2.84.9-5.17,3.68-7.06l-.7-6.44c1.29-1.36,2.53-2.68,3.83-4.05-.34-3.17-.69-6.38-1.02-9.39,1.3-1.49,3-2.74,3.5-4.2.5-1.46-.47-3.19,1.5-4.41,2.56-1.59,1.57-3.88,2.29-5.83,4.42-2.46,2.74-5.79,2.56-9.43ZM651.53,137.35c-.53-1.27-1.06-2.54-1.61-3.83.77-1.29,1.53-2.57,2.28-3.83,1.62.92,3.13,1.76,4.55,2.56-1.79,1.75-3.49,3.41-5.22,5.1Z"/>
        <path class="cls-1" d="M594.2,379.34c-1.24.13-2.58.28-4.13.45-3.41,1.51-.18,5.16-3.51,6.85-1.56.17-3.15.34-4.8.52-.89-2.11-1.69-4.04-2.47-5.88-2.58-.93-5.02-1.81-7.55-2.72-1.21.36-2.49.74-3.75,1.12-1.89-.62-3.71-1.23-5.53-1.83-2.61.78-5.2,1.55-7.78,2.32-1.25,1.99-2.49,3.97-3.73,5.94.3,1.01.59,2.01.94,3.2-.74,1.34-1.56,2.82-2.45,4.44.78,1.86,1.62,3.87,2.46,5.87-.88,1.52-1.74,3-2.6,4.46.85,2.02,1.69,4.04,2.51,5.98,1.83.73,3.6,1.43,5.28,2.1.37,1.11.71,2.11,1,3-.84,1.57-1.62,3.05-2.36,4.43,1.68,2.3.84,5.63,4.96,6.64,1.18-.35,2.46-.73,3.94-1.17,1.43-1.01,1.15-2.22.81-3.46,1.46.91,2.91,1.82,4.38,2.74,1.26-.14,2.6-.28,3.93-.43,1.63.96,3.22,1.88,4.79,2.8,2.73-.3,5.45-.59,8.16-.88,1.77-1.74,3.54-3.46,5.3-5.18,0-1.05.01-2.09.02-3.32,1.1-1.19,2.31-2.5,3.63-3.93-.21-1.98-.45-4.1-.68-6.22,1.29-1.34,2.54-2.64,3.78-3.93-.23-2.15-.46-4.29-.69-6.35-1.55-1.05-3.05-2.06-4.48-3.02-.04-1.16-.07-2.21-.1-3.14,1.26-1.4,2.44-2.71,3.54-3.94-.96-2.57.82-5.7-2.86-7.44Z"/>
        <path class="cls-1" d="M544.28,163.17c-2.01-3.13-7.36-1.04-8.86-5.27-.17-.01-.36-.02-.53-.03-.4-1.09-.79-2.17-1.2-3.28-.68-.38-1.41-.98-2.21-1.17-1.04-.25-1.9.38-1.56.8.73.9.78,1.79.65,2.68-.96-1.15-2.1-2.53-3.55-4.28,1.4-.1,2.82-.19,4.34-.3.79-1.02,1.61-2.55,3.58-1.65,1.16.53,2.09,1.52,2.08,2.9-.41,1-1.76,1.57-1.11,3.07,1.75,1.61,3.04,4.15,5.99,3.56-.18-1.2-.37-2.38-.53-3.46.45-.75.84-1.38,1.22-2.01-.33-1.62-.62-3.24-1.04-4.85-.08-.3-.66-.54-1.01-.8-.29.89-1.02,1.42-1.91.96-1.5-.78-2.96-1.74-4.25-2.83-.5-.42-.5-1.42-.73-2.15.49-.57.99-1.13,1.41-1.62,1.17-.18,2.25-.34,3.32-.5-.79-3.83-1.53-7.47-2.32-11.11-.05-.23-.42-.45-.81-.83-3.02,1.31-3.78,4.62-5.94,6.67.94.39,1.47,1.08,1.27,1.95-.43,1.88-1.67,3.19-3.11,4.27-2.48.18-3.57-2.16-5.82-3.24-.12-.96-.21-2.15-.46-3.32-.06-.27-.6-.48-1.23-.38.04-.04.08-.11.12-.18-.07.07-.12.1-.2.17-.59.56-.99.58-1.35.57-.27,0-.72-.09-.82-.26-.52-.94-.3-1.35.46-1.46.8-.12,1.49.03,1.99.78.02.04-.04.13-.08.2,1.4-1.31,2.15-1.46,3.12-.84,1.41.9,2.76,1.94,4.23,2.69.87.44,1.58-.09,1.87-.95-.34-.26-.9-.49-.97-.77-.28-1.15-.41-2.33-.57-3.29-.92-.7-1.59-1.21-2.21-1.68-1.93.13-3.87.26-5.86.4-.09-.56-.14-1.18-.47-1.41-1.41-.97-2.99-1.72-4.32-2.45-.42.09-.79.17-1.19.26-.18-.13-.29-.29-.53-.39-.16.2-.31.4-.46.61-1.01.22-1.99.43-2.95.64-.36.66-.73,1.33-1.09,1.97-.68.17-1.33.34-1.99.5-.27-.19-.52-.35-.75-.42-2.15.04-3.75.07-5.33.1.22,1.3.43,2.47.62,3.59-1.63,2.15-3.22,4.24-4.81,6.33.22.21.36.39.52.57-.94,1.03-2.23,1.6-3.91,1.65-.41.63-.83,1.25-1.28,1.94.35,1.1.72,2.25,1.11,3.45-.34.62-.71,1.29-1.06,1.93.2,1.36,1.27,1.97,2.34,2.75,1.11.8,1.42,1.98.52,3.03-.56.65-.56,1.37.1,2.34,1.07-.15,2.19-.32,3.36-.49.43,1.04.89,2.14,1.34,3.22.78.43,1.54.85,2.23,1.23,1.28-.22,2.48-.43,3.08-.53,1.76.45,2.93.75,4.2,1.08,1.03-1.87,1.95-3.53,2.86-5.19.27-.49.6-.83.95-1.09.27.88.56,1.8.96,3.06,1.03.78,2.48,1.75,3.73,2.91.39.36.25,1.26.34,1.87-.3.1-.65.1-1.01.09.08-.18.18-.36.26-.54.12-.27-.25-.76-.39-1.15-.73-.45-1.47-.9-2.25-1.38-3.27-.11-2.51,3.45-4.58,4.46-2.01.44-4.03.88-6.24,1.36-.64,1.13-1.22,2.76-3.3,2.15-1.23-.36-2.29-1.2-2.48-2.57.26-1.05,1.51-1.81.65-3.2-1.97-1.34-3.61-3.67-6.45-2.65.36,1.16.71,2.31,1.03,3.35-.34.8-.63,1.49-.91,2.17.57,1.56,1.09,3.12,1.73,4.65.12.28.73.43,1.12.65.15-.92.8-1.55,1.75-1.23,1.6.55,3.18,1.29,4.62,2.18.56.34.7,1.33,1.03,2.02-.41.63-.81,1.26-1.16,1.81-1.13.35-2.18.67-3.21.98,1.34,3.68,2.61,7.17,3.91,10.65.08.22.48.38.92.7,2.8-1.73,3.07-5.12,4.9-7.47-.99-.25-1.61-.85-1.54-1.75.15-1.92,1.19-3.4,2.45-4.68,2.31-.51,3.73,1.38,5.91,2.21.21.26.32.55.5.82.21.8.43,1.67.76,2.56.05.14.25.24.51.28.06.23.12.47.16.7-.9.96-1.56,1.1-2.45.69-1.52-.69-3.01-1.51-4.58-2.04-.92-.31-1.55.32-1.71,1.22.37.2.96.35,1.07.62.45,1.1.75,2.24,1.04,3.17.16.09.27.15.42.23.03.19.04.41.15.52,1.26,1.17,2.71,2.14,3.92,3.06,1.93-.13,3.57-.24,5.23-.36.46-.6.92-1.21,1.36-1.79.89-.09,1.73-.18,2.58-.26-.07.87.56,1.46,1.52,1.71.91-1.64,1.81-3.29,2.68-4.88,1.62-1.08,3.07.41,3.99.55,2.12-.35,3.7-.61,5.25-.87-.41-1.25-.78-2.38-1.14-3.46.51-.92.99-1.8,1.49-2.71.29,0,.57-.03.88,0,.5-.56,1-1.12,1.55-1.74-.11-.65-.23-1.37-.34-2.06.09-.16.17-.31.26-.47-.16-.11-.25-.21-.39-.32-.04-.25-.08-.48-.12-.73.32-.42.66-.87,1-1.32.21.11.42.15.62.34.7-.62.83-1.42.11-2.16-.27-.28-.59-.5-.89-.74h2.53c2.16,2.17,4.34,4.36,6.52,6.54.87.87,1.75.58,2.67-.96v-7.31c-1.47-3.15-5.67-1.01-7.52-3.9ZM514.66,142.99s-.02-.07-.04-.1c.23-.06.47-.13.7-.19,0,.02,0,.04,0,.07-.22.08-.44.15-.66.23ZM513.65,134.25c0-.06,0-.12,0-.18.68-.15,1.37-.3,2.05-.45-.47.45-1.09.75-2.05.62ZM516.83,175.82c-.35.04-.71.09-1.07.13-2.09-.81-4.57-1.11-5.12-3.84,1.17-.32,2.32-.64,3.52-.97.52-1.07,1.02-2.13,1.53-3.2.59.49,1.4,1.01,2.15,1.8-1.55,1.4-2.01,3.56-1.01,6.08ZM521.83,160.64s-.07.07-.11.11c-.1.02-.18.04-.28.06-.4-.84-.84-1.74-1.39-2.89,1.11.36,1.79,1.14,2.03,2.38-.08.11-.17.22-.25.33ZM524.72,147.53c-.67-.77-1.82-.91-4.43-1.17-.85-.74-1.67-1.46-2.51-2.19.36-.42.65-.99,1.04-1.34.24-.21.78-.11,1.18-.16,2.01,1.31,4.86,1.81,5.02,4.83-.1.01-.2.02-.29.04Z"/>
        <path class="cls-1" d="M376.38,124.87c2.18,2.18,4.36,4.36,6.55,6.55.72-.72,1.98-1.38,2.07-2.17.28-2.38.1-4.8.1-6.38-2.25-2.48-3.91-4.3-5.36-5.9h-7.66c-1.8,1.8-3.54,3.54-5.43,5.43,2.5,3.8,6.79.69,9.74,2.47Z"/>
        <path class="cls-1" d="M262.81,172.5c2.96-.49,3.22-.75,3.71-3.71h-3.71v3.71Z"/>
        <path class="cls-1" d="M370.91,129.28c-.49.78-.05,1.68,1.25,2.39.14.08.79-.76,1.2-1.17.41-.82.03-1.69-1.27-2.4-.14-.08-.88.7-1.18,1.18Z"/>
        <path class="cls-1" d="M387.57,313.94c-.82-.41-1.69-.03-2.4,1.27-.08.14.7.88,1.18,1.18.78.49,1.68.05,2.39-1.25.08-.14-.76-.79-1.17-1.2Z"/>
        <path class="cls-1" d="M465.38,421.43c-.78-.49-1.63-.02-2.46,1.22.41.41.77.91,1.25,1.21.78.49,1.68.05,2.39-1.25.08-.14-.7-.88-1.18-1.18Z"/>
        <path class="cls-1" d="M514.8,270.71c.41.41.77.91,1.25,1.21.78.49,1.68.05,2.39-1.25.08-.14-.7-.88-1.18-1.18-.78-.49-1.63-.02-2.46,1.22Z"/>
        <path class="cls-1" d="M608.69,264.51c.78.49,1.68.05,2.39-1.25.08-.14-.76-.79-1.17-1.2-.82-.41-1.69-.03-2.4,1.27-.08.14.7.88,1.18,1.18Z"/>
        <path class="cls-1" d="M529.31,185.18c-.14-.08-.88.7-1.18,1.18-.49.78-.05,1.68,1.25,2.39.14.08.79-.76,1.2-1.17.41-.82.03-1.69-1.27-2.4Z"/>
      </g>
    </g>
  </g>
</svg>