<?xml version="1.0" encoding="UTF-8"?>
<svg id="_レイヤー_2" data-name="レイヤー 2" xmlns="http://www.w3.org/2000/svg" viewBox="0 0 867.81 667.32">
  <defs>
    <style>
      .cls-1 {
        fill: #f5b3bd;
        stroke-width: 0px;
      }
    </style>
  </defs>
  <g id="Camada_1" data-name="Camada 1">
    <g>
      <g>
        <path class="cls-1" d="M841.32,230.65c3.69-.31,5.16,2.67,2.9,5.43-1.56,1.91-3.24,3.42-3.02,6.23.06.72-1.41,1.67-2.33,2.29-.42.29-1.2.06-1.81.05-1.25-.03-2.51.47-2.84,1.75-.11.42,1.52,1.78,2.43,1.86,1.85.17,4.44.35,4.38,2-.06,1.75-2.71,1.67-4.53,1.91-1.02.14-1.91,1.29-2.82,2.02-.48.38-.88.86-1.6,1.58-2.14,0-4.59-.19-6.98.08-1.35.15-2.05,1.3-1.78,2.22.15.52.82.89,1.34,1.41,3.6,0,7.3-.21,10.95.1,1.4.12,1.88,1.53,1.34,2.38-.31.49-.83,1.09-1.33,1.17-1.72.28-4.19-.69-4.81,1.49-.47,1.66,1.84,2.59,3,4.05-1.6,1.68-3.23,3.38-5.14,5.4-1.25-1.01-2.49-2.02-4.05-3.29h-10.96c-1.02.91-2.36,2.1-3.97,3.53-2.13,0-4.6-.24-6.99.09-1.4.19-1.95,1.45-1.52,2.32.25.52.8,1.16,1.29,1.24,1.2.18,2.45.06,3.59.06,1.39,1.29,2.72,2.53,3.99,3.71,1.32-.08,2.52-.16,3.68-.23,1.9-1.18,1.46-3.1,1.74-4.86.21-1.35,1.32-2.17,2.2-1.85,1.34.5,1.72,1.68,1.46,3.05-.11.59-.02,1.23-.02,1.84,1.24,1.34,2.47,2.67,3.71,4.02-.19,1.73.76,4.18-1.44,4.82-1.68.49-2.45-2.3-3.94-2.74-1.92-.58-4.55-1.42-5.28,1.97,4.43,4.6,4.41,4.74,1.22,8.72h-3.54c-1.95-1.25-1.64-3.12-1.93-4.9-.29-1.83-1.98-2.62-4.13-2.44-2.35.2-2.96.75-3.2,3.42-.06.61,0,1.23,0,1.97-1.2,1.25-2.52,2.52-3.66,3.93-.3.37-.05,1.19-.05,1.81-1.36-.41-2.53-.06-3.04,1.23-.81,2.03-1.4,4.15-2.05,6.13-4.51.01-4.49.07-5.48,2.44.84.84,1.69,1.69,2.57,2.57-.67,2.87-3.26,4.12-5.06,5.99-1.29-1.2-2.58-2.4-3.81-3.54-3.1,0-6.09,0-10.72-1.12-1.21-.31-.72.69.03,1.05,1.55.76,2.32,0,1.56-1.56-.37-.75-1.36-1.24-2.17-1.68-.14-.07-1.14.93.58,2.18,1.65,2.33,1.81,3.58,1.61,4.77-.24,1.42.02,2.48,1.29,3.14.83.43,1.69-.1,2.59-1.34.35-.49.85-.87,1.34-1.36.74.63,2.05,1.2,2.13,1.91.27,2.38.1,4.8.1,7q-1.8,1.67-5.47-1.77c-1.27,1.2-2.49,2.47-3.86,3.57-.37.3-1.18.05-3.44-1.07-1.21-.31-.72.69.03,1.05,1.55.76,2.32,0,1.56-1.56-.37-.75-1.36-1.24-2.17-1.68-.14-.07-1.14.93.58,2.18,1.65,2.92,1.65,4.72,1.65,7.12-1.02.9-2.49,1.97-3.67,3.29-1.03,1.15-1.73,1.66-2.58,1.13-1.16-.72-1.5-1.75-1.18-3.13.13-.56.02-1.18.02-1.69-1.19-1.71-2.84-1.96-4.69-1.92-2.3.04-4.81.59-6.54-2.04,1.31-1.11,2.67-2.27,3.81-3.24,0-2.21,0-4.01,1.12-7.46.31-1.21-.69-.72-1.05.03-.76,1.55,0,2.32,1.56,1.56.75-.37,1.24-1.36,1.68-2.17.07-.14-.93-1.14-2.18.58-2.97,1.65-4.82,1.65-6.67,1.65-3.12,1.41-.4,6.01-3.93,7.2-2.18-2.18-4.36-4.36-6.59-6.59-2.84.76-4.31,3.04-5.83,5.25,1.19,1.99,3.15,1.47,5.04,1.56,1.26,1.18,2.59,2.42,3.96,3.7,1.17,0,2.4,0,3.63,0,1.75,1.75,3.49,3.49,5.38,5.38-1.12,1.27-2.25,2.55-3.53,4.01,0,2.84-.12,5.92.05,8.98.08,1.42-.04,2.5-1.26,3.2-.84.48-1.71-.02-2.63-1.3-.35-.5-.86-.88-1.51-1.53-1.25,1.06-2.51,2.13-3.88,3.29-1.21-1.11-2.51-2.29-3.84-3.51-1.16,0-2.39,0-3.63,0-.61.98-1.71,1.94-1.76,2.95-.2,4.31-.08,8.63-.08,13.03-1.35,2.73-3.86,4.4-6.17,6.59-1.73-.6-3.35-1.15-4.95-1.7,0-2.22-.15-4.08.05-5.89.16-1.43-.03-2.5-1.25-3.2-.84-.49-1.65.06-2.64,1.28-1.13,1.4-2.44,2.67-3,3.27-.78,2.54-1.29,4.17-1.82,5.9-4.05,0-7.73-.04-11.4.05-.48.01-1.01.61-1.39,1.05-.72.83-.29,1.69,1.06,2.61,1.68,1.15,2.05,2.87,1.84,4.82-.23.47-.37,1.09-.75,1.47-3.9,3.95-7.84,7.87-11.76,11.8-5.27.75-5.51.39-6.32-5.44-1.75-1.76-3.49-3.5-5.23-5.25h-6.55c-.17,0,.63.23.92-.06.29-.29.3-1.31.02-1.62-.71-.79-1.58-1.72-2.54-1.95-3.23-.8-5.53,1.53-4.76,4.81.21.9,1.25,1.61,2.02,2.55,1.17-1.29,2.32-2.57,4.34-3.72.99,1.84.99,3.68.99,5.48-1.26,1.34-2.51,2.66-3.77,4.01v7.25c-.5.5-.89,1.25-1.38,1.32-4.13.59-8.29,1.21-12.34-.41-.36-.14-.5-.83-.75-1.26,4.48-4.61,4.43-4.67,1.6-8.98-1.77,0-3.62.15-5.42-.05-1.42-.15-2.48.04-3.19,1.23-.51.85-.05,1.7,1.24,2.61.49.35.88.85,1.31,1.29-.32,2.14-1.8,2.49-3.61,2.33-2.03-.18-3.51-.25-3.29-3.28.1-1.38-.07-2.43-1.02-3.28-.91-.81-1.74-.55-2.67.98v10.9c-1.26,1.34-2.49,2.66-3.72,3.98,1.4,3.09,5.98.35,7.16,3.88-4.16,1.55-2.31,6.6-5.28,8.97h-3.69c-1.19-1.12-2.52-2.37-3.86-3.63h-5.47c.03-3.66-3.66-4.57-5.21-7.06-1.19-.12-2.37-.23-3.74-.37-1.23,1.13-2.49,2.42-3.88,3.55-1.19.97-1.79,1.79-1.38,2.62.64,1.29,1.73,1.39,3.15,1.32,3.68-.17,7.37-.06,11.07-.06,0,1.83,0,3.65,0,5.48-4.22,3.02-4.28,3.05-8.78-1.29-3.03-1.68-7.38,1.59-9.82-2.7v-3.41c-1.79-1.79-3.51-3.51-5.24-5.24-1.18-.09-2.37-.17-3.82-.27-1.58-1.51-3.31-3.17-5-4.78-1.23-4.16-.96-8.26-.21-12.37.43-.43.85-1.22,1.29-1.23,3.64-.1,7.29-.06,10.56-.06,3.88-1.35,1.07-5.99,4.8-7.45h11.3c.77-.93,1.86-2.39,3.12-3.68.3-.3,1.17-.05,1.78-.05,0,2.94-.17,5.88.1,8.78.08.84,1.41,1.56,2.38,2.57,1.43-.37,3.01-.77,4.6-1.18v-5.06c-2.69-1.68-3.57-5.2-7.08-5.11,0-.6-.26-1.44.04-1.77,1.64-1.77,3.41-3.42,5.38-5.34,1.13.95,2.36,1.98,3.76,3.16,1.16-1.02,2.42-2.13,3.83-3.38h7.34c1.48,1.44,3.52,2.89,4.78,4.84,1.17,1.81,1.51,4.17,2.19,6.19,2.12-.18,4.36.84,5.27-1.22.85-1.94-1.65-2.49-2.49-3.99-.11-.35-.47-.89-.43-1.41.24-3.54-.74-7.18.6-10.63.51-1.32,1.7-1.69,3.08-1.27.49,2.96.75,3.22,6.45,3.71.95,0-.9,0-2.74.08-.03,0,0,1.15,0,1.79,1.73,1.72,3.48,3.46,5.58,5.55,2.04,0,4.46.16,6.85-.07,1.31-.13,2.24-1.27,1.95-2.14-.45-1.33-1.66-1.73-3.01-1.51-.6.09-1.23.02-1.94.02-1.27-1.2-2.6-2.44-6.69-3.71-2.74-1.24-2.74-2.47-2.74-3.71h9.34c1.61-1.69,3.29-3.45,5.09-5.34.12-.97.26-2.13.4-3.32,1.62-2.51,3.64-4.64,6.21-6.15,1.9-.14,3.72,0,4.8,1.76,1.5,2.44,4.38,1.35,6.28,2.6,1.45.95,2.23,2.88,4.26,3.03.61.04,1.22,0,1.84,0,3.18-1.87,5.32-4.87,8.06-7.36h3.52q2.91-3.62.19-7.47h-7.35c-3.11,1.52-.59,6.02-3.81,7.36h-7.34c-1.52-.92-1.89-1.87-.97-2.63,1.96-1.62,3.19-3.43,2.97-6.19-.05-.68,1.5-2.07,2.39-2.13,3.6-.25,7.23-.1,10.76-.1,1.77-3.34,4.81-3.56,7.65-4.33,1.37-.37,1.73-1.68,1.3-3.09.62,0,1.44.26,1.81-.05,1.41-1.14,2.67-2.47,3.92-3.65,1.34-.08,2.54-.15,3.75-.22,3.42-3.7.98-8.19,1.63-12.27.81-.78,1.58-2.18,2.44-2.25,4.86-.34,9.75-.33,14.62-.55.45-.02.87-.82,1.34-1.28-1.17-1.3-2.34-2.6-3.52-3.9,2.17-3.12,7.45-.93,8.99-5.4,1.34,1.2,2.62,2.35,4,3.58h3.6c3.13-1.44.59-6.01,4.12-7.46h6.94c3.22-3.15,6.29-6.16,9.36-9.17-1.88-2.15-4.03-2.6-6.35-1.05-1.01.67-1.77,1.71-2.64,2.59-3.92-1.7-1.43-5.17-2.16-7.78,1.97-4.67,6.64-6.84,9.11-10.5,5.51.39,5.3.45,5.88,5.41.16,1.37,2.36,2.53,3.5,3.94.3.37.05,1.2.05,3.14,0-.11.19-1.16-.03-1.25-1.33-.57-2.66-.15-3.04,1.21-1.12,4.05-1.03,8.17-.03,12.25.12.5.81.87,1.21,1.27,1.28-1.2,2.56-2.39,3.78-3.53,1.33,1.17,2.59,2.28,3.84,3.38.57-.57,1.27-.94,1.38-1.44.25-1.14.22-2.35.36-4.28-2.39-2.01-5.15-4.33-7.47-7.6,1.85-1.33,3.71-1.33,5.56-1.32.62-.98,1.59-1.89,1.78-2.95.54-2.87-.42-3.81-3.96-4.46-2.82-.52-3.17-.86-3.39-3.26-.16-1.81.17-3.32,2.25-3.7,1.4.79,1.98,3.34,3.94,2.48,2.07-.92,1.03-3.24,1.21-4.98.06-.61,0-1.23.01-1.85.02-.6.08-1.2.12-1.68,1.27-1.42,2.48-2.76,3.45-3.84.76-3.19-.99-4.85-2.81-6.56-.76-.71-.23-1.72,1.18-2.57h11.07c2.1-1.85,2.56-3.99.98-6.32-.68-1-1.71-1.77-2.86-2.91,1.65-1.66,3.15-3.51,4.99-4.91,1.77-1.35,4.89.04,6.12-2.88.05-1.08.11-2.29.17-3.62,2.72-1.71,3.62-4.38,4.04-7.51.13-.97,1.68-1.72,2.47-2.66.23-.27.08-.85.11-1.28-.87-.87-1.75-1.75-2.62-2.62,3.48-4.56,3.54-4.5,9.31-6.58.53-.19,1.2-.82,1.23-1.28.02-.41-.71-1.19-1.19-1.25-2.38-.31-4.81-.26-7.16-.7-.91-.17-1.65-1.29-2.46-1.97.88-.88,1.75-1.75,2.83-2.83,1.86-5.04-.29-10.63,1.1-15.93.87-.87,1.75-1.75,2.63-2.63.34-2.12-1.8-2.58-2.84-4.35v-10.51c-1.28-1.46-2.46-2.81-3.73-4.26,1.11-1.22,2.3-2.52,3.51-3.85v-3.53c-1.22-1.35-2.39-2.65-3.48-3.85,1.16-1.39,2.22-2.65,3.25-3.88q-3.35-3.46.16-7.12c-2.44-2.5-4.89-5.02-7.37-7.57v-3.52c-1.23-1.38-2.38-2.67-3.51-3.94,1.68-1.89,4.1-3.16,3.48-6.35-1.34-3.32-4.55-5.33-7.02-7.94-2.53-2.68-5.31-5.13-7.78-7.48v-8.22c-1.53-.53-3.15-1.1-4.46-1.55-7.48-7.49-14.86-14.88-21.68-21.71-4.51.25-6.95-1.26-8.83-3.85-1.22-.06-2.43-.12-3.72-.19-2.59-2.47-5.24-4.98-7.92-7.54h-7.22c-2.32-2.32-4.5-4.5-6.68-6.68-1.15-.2-2.31-.57-3.46-.57-4.42.02-4.46.09-8.07-3.55h-7.07c-1.44-1.28-2.79-2.48-4.28-3.82h-14.48c-1.42-1.31-2.76-2.54-4.15-3.82h-18.42c-2.5-2.5-4.95-4.95-7.35-7.35-5.42,5.01-5.71,5.01-10.8.32-.44.21-.95.34-1.3.65-.92.83-1.76,1.73-2.69,2.66h-7.38c-2.5-2.37-5.07-4.8-7.57-7.17-1.5.87-1.69,1.94-1.84,3.22-.43,3.66-3.22,5.19-6.04,3.4-1.02-.65-1.77-1.71-2.87-2.81-1.54-.09-3.33-.22-5.11-.29-3.53-.13-3.88-.36-4.39-4.07-.17-1.26-.38-2.33-2.12-3.35-1.31,0-3.12,0-4.93,0-2.95.01-2.89.03-4.17,4.35-.32,1.07-1.14,1.99-1.76,3.02h-7.32c-1.38,1.27-2.72,2.51-3.98,3.67h-10.94c-1.5-1.33-2.84-2.54-3.86-3.44h-11.2c-1.06,1.06-1.93,1.93-2.81,2.81-4.77,1.68-9.71-.02-16.08,1.29,1.02-.38.36-.32-.03.04-4.8,4.4-5.06,4.34-10.34-.28-.72-.63-2.33-.25-3.69-.35-1.25-1.15-2.58-2.38-3.98-3.67h-3.71c-1.65,1.7-3.36,3.47-5.15,5.31-.11,1.06-.22,2.24-.38,3.78-1.48,1.56-3.15,3.32-4.82,5.08-.47,0-1.21.15-1.3-.02-2.13-4.27-8.39-1.98-10.36-6.66-1.32,1.23-2.54,2.49-3.91,3.57-.38.3-1.2.05-3.47-1.07-1.21-.31-.72.69.03,1.05,1.55.76,2.32,0,1.56-1.56-.37-.75-1.36-1.24-2.17-1.68-.14-.07-1.14.93.58,2.18,1.65,2.96,1.65,4.81,1.65,6.69-1.74,1.72-3.49,3.46-5.42,5.38h-7.07c-1.42,1.28-2.76,2.48-4.24,3.81h-22.05c-1.24-1.14-2.57-2.37-4.22-3.89-.8,2.32-1.17,4.71-2.38,6.55-1.28,1.96-3.36,3.4-4.63,4.62-3.55.78-5.19-1.05-6.81-2.93-3.55,1.14-5.17,4.52-7.85,6.64-1.21.06-2.41.12-3.72.19-1.27,1.19-2.6,2.43-3.95,3.7-5.5,0-11.05,0-18.24-1.12-1.21-.31-.72.69.03,1.05,1.55.76,2.32,0,1.56-1.56-.37-.75-1.36-1.24-2.17-1.68-.14-.07-1.14.93.58,2.18,2.08,2.52,1.72,3.89.34,4.19-2.32.51-4.73.57-7.8.89-.83.69-2.19,1.83-3.89,3.25h-14.42c-1.69,1.63-3.75,3.07-5.03,5.02-1.2,1.84-1.57,4.22-2.36,6.53-1.62-1.48-2.92-2.65-4.2-3.82-1.2.77-1.54,1.81-1.78,2.99-.91,4.36-1,4.33-4.12,4.3-1.8-.02-3.6,0-4.88,0-1.71-1.41-2.96-2.45-4.26-3.53q-1.51,2.9-1.52,8.99c-2.82,4.06-6.66.48-8.83,1.94-3.11-1.87-1.9-3.96-2.65-6.08-.58-.96-1.55-1.36-2.3-.46-1.43,1.72-3.74,2.73-4.3,5.16.46.46.85.97,1.34,1.32,1.3.91,1.78,1.79,1.21,2.6-.34.47-.88,1.13-1.34,1.13-4.9.08-9.8.05-15.11.05-.72-2.09-1.09-4.47-2.29-6.3-1.28-1.95-3.35-3.39-4.61-4.61h-11.36c-.64.64-1.08,1.08-1.51,1.51.86.66,1.66,1.73,2.61,1.91,2.33.42,4.81-.37,6.55.37.91.81,1.75,1.2,1.77,1.62.11,3.07.06,6.14.06,9.21-.62,0-1.43.25-1.81-.05-1.37-1.08-2.59-2.35-4.26-3.91-.61,1.96-1.13,3.59-1.81,5.78-2.04,1.9-3.22,5.86-7.81,5.67-2.5-.11-3.22,3.6-5.85,3.58-1.97-.01-3.46.5-4.52,2.53v6.9c-.56.56-.97,1.35-1.43,1.37-4.26.2-8.53.3-12.79.35-3.15.03-3.23-.05-4.14,4.31-.25,1.18-.58,2.23-1.8,3.01-1.29-1.19-2.6-2.39-3.88-3.56h-3.62c-3.16,1.52-.49,6.15-4.07,7.38-1.2-.08-2.39-.16-3.43-.23-1.45-1.26-2.8-2.43-4.35-3.78-1.63.57-3.24,1.13-4.77,1.66v4.09c.87.63,1.72,1.69,2.73,1.89,2.32.47,4.82-.47,6.79.54,2.35,1.46,1.24,3.47,1.54,5.11-1.9,2.15-4.05,2.57-6.36.99-1-.68-1.76-1.71-2.63-2.58-3.7,1.03-.79,5.71-3.99,7.1h-7.31c-1.29-1.2-2.63-2.43-3.91-3.62h-11.02c-1.51.91-1.83,1.8-.99,2.65,2.17,2.19,4.35,4.35,6.54,6.55v4.12c-1.97.68-4.35,1.06-6.17,2.26-1.97,1.29-3.43,3.36-4.88,4.86-.16,1.59-.28,2.78-.39,3.91-1.76,1.78-3.49,3.53-5.19,5.26h-5.58c0-.61.26-1.44-.04-1.8-2.24-2.69-5.26-4.68-7.01-7.81.95-1.32,3.3-2.07,2.67-3.88-.77-2.22-3.16-1.09-4.82-1.33-1.34-1.26-2.66-2.5-3.93-3.7-1.29.06-2.5.11-3.7.16-1.17.74-1.71,1.73-1.7,2.97.04,3.32.1,3.49,4.17,4.22,1.21.22,2.27.46,3.18,1.96-3.65,3.65-7.36,7.37-11.05,11.07,1.19,1.19,2.27,1.94,2.86,2.96.55.95,1.1,2.43.73,3.27-.92,2.08-2.82,3.79-3.46,5.9-.51,1.7-.46,3.46-2.28,4.58h-3.93c-.71,2.06-1.31,4.25-2.22,6.31-.51,1.16-1.82,1.2-3.2,1.11-1.29-.08-2.36-.36-3.01-1.62-.25-.49-.21-1.13-.34-1.7-.89-4.03-.89-4.08-4.28-4.15-1.79-.04-3.57,0-4.92,0-2.15-2.13-3.93-3.81-5.58-5.61-.3-.33-.04-1.19-1.9-4.66-.65-1.6.67-.35,1.81,1.06.3.37-.19,1.43.11,1.74.31.31,1.16.07,1.79.07,1.72-1.73,3.46-3.48,5.2-5.23.11-1.16.33-2.34.3-3.52-.02-.49-.53-1.02-.9-1.45-.82-.94-1.93-1.13-3.3-.94-2.3.31-4.93-.8-6.68,1.71-.06,1.19-.12,2.39,1.67,6.56.02,2.87-1.82,2.87-3.65,2.87-3.14,1.5-.64,6-4.06,7.46h-3.47c-3.05,2.26-1,7.39-5.19,8.98-.27.1-.15,1.11-.32,1.65q-1.38,4.2-5.83,3.75c-1.82-1.77-3.58-3.47-5.28-5.12v-5.61c1.67,0,3.42.31,4.99-.09,1.58-.4,2.82-1.6,2.42-3.62,1.36.41,2.43.02,3.06-1.23.66-1.29-.4-2.13-3.06-2.48.43-1.4,0-2.45-1.28-3.13-1.97-1.04-4.87.09-6.08-2.61v-4.02c1.52-.53,3.11-1.1,6.28-2.21,2.91-2.4,6.42-6.59,10.42-10.26h5.49c-.38,1.31-.05,2.42,1.15,2.95.97.43,2.07.59,3.14.74,1.18.17,2.41-.34,2.68-1.55.12-.55-1.06-1.9-1.81-2.04-1.67-.32-3.43-.1-5.16-.1,0-.6-.26-1.46.04-1.76,1.27-1.26,2.7-2.36,3.68-3.19v-4.33c.44-.44.8-1.11,1.31-1.25,3.04-.84,5.1-.89,8.54.08,1.33.37,1.68,1.67,1.26,3.97,0,.31.19-.75-.03-.85-1.34-.58-2.71-.15-3.06,1.24-.97,3.73-.88,5.03.16,8.66.13.47.87.77,1.34,1.15,2.84-.64,6.12,1.31,9-1.87-2.44-2.45-4.93-4.92-7.4-8.33,3.07-.92,6.14-.92,9.18-.92,1.33,1.25,2.66,2.5,3.96,3.72,1.8-.15,3.78.54,5.04-1.6-2.8-4.45-7.53-7.26-10.51-11.47,3-3.08,5.99-6.14,8.93-9.17,1.4,1.3,2.73,2.53,3.97,3.68,1.34.08,2.53.16,3.59.22,1.43,1.25,2.77,2.43,4.32,3.79,1.62-.54,3.23-1.08,4.79-1.61v-4.17c-1.14-1.21-2.38-2.53-3.62-3.85v-3.65c2.28-3.17,5.62-1.32,8.48-1.85,3.8-2.08,6.01-5.92,9.04-8.11,1.59-2.35.27-5.34,2.97-6.7h3.5c1.34,1.22,2.62,2.4,3.9,3.58,3.14-2.44.91-5.82,2.46-9.63,1.07-1.36,2.74-4.43,5.68-4.87,2.71-.4,4.16-1.91,6.09-3.28,1.81-1.28,4.75-.24,6.24-2.67,1.13-1.84,3.17-1.24,4.78-1.8,1.59-.55,2.81-2.16,4.32-3.41.99-.05,2.2-.11,3.5-.17,1.26,1.21,2.52,2.53,3.92,3.67.37.3,1.19.05,2.62.06.33-.15-.68-.18-.75,0-.47,1.19.01,2.09.94,2.88.88.75,1.62.64,2.32-.73.12-.25-.21-.82-.46-1.13-.33-.41-.75-.84-2.04-1.02-.82-.64-1.08-1.46-.77-1.83,1.14-1.41,2.47-2.68,3.65-3.92.09-1.91-.42-3.86,1.74-5.16,1.22,1.07,2.5,2.19,3.97,3.49,2.79-3.11,5.65-6.29,9-10.01.51-5.39,2.41-6.42,7.45-2.84.58.41.08,2.36.08,3.59.44.44.8,1.05,1.33,1.27.89.38,2.11-.23,2.29-1.61.31-2.4.08-4.86.08-6.94.96-1.57,1.97-2.09,3.25-2,3.13.24,4.31-1.38,4.17-4.33-.06-1.23.58-2.23,1.82-3.03h3.64c1.27,1.14,2.59,2.34,4.23,3.82.8-2.31,1.51-4.47,2.34-6.59.13-.33.95-.72,1.24-.6.53.22,1.17.75,1.28,1.26.24,1.17-.02,2.47.32,3.59.43,1.4,1.45,1.98,2.33,1.58.52-.24,1.24-.82,1.26-1.28.12-2.46.06-4.93.06-7.4,1.75-1.75,3.49-3.49,5.38-5.38,1.27,1.12,2.55,2.25,3.96,3.48h3.54c1.29-1.19,2.62-2.42,4.02-3.72h3.53c2.24-2.24,4.42-4.42,6.6-6.6,4.01-1.68,8.38.06,12.42-1.3q1.3-1.94,1.31-4.98c1.18-1.72,3.03-1.55,4.75-2.02,1.6-.43,2.88-2.02,4.49-3.25,1.11.98,2.39,2.11,3.68,3.24,1.27-1.15,2.59-2.35,3.99-3.62h3.46c1.91-1.24,1.66-3.1,1.97-4.88.16-.93,1.4-2.3,2.23-2.36,3.64-.26,7.31-.11,10.63-.11,1.21-1.21,2.08-2.08,2.95-2.95,3.52-1.42,7.2-.47,11.34-.8,1.02-.81,2.41-1.91,4.26-3.38,1.2-.07,3.01-.42,4.75-.23,2.96.33,4.29-1.82,6.17-3.6h7.11c1.42-1.28,2.76-2.5,4.22-3.81h3.44c1.4-1.29,2.74-2.53,4.13-3.81h3.44c1.46-1.32,2.8-2.53,4.22-3.81h6.91c1.55-1.27,2.79-2.29,4.01-3.28,1.16,1.16,2.03,2.03,2.92,2.92,2.76-.41,3.92-4.64,7.92-2.99,2.29,2.17,4.91,4.65,7.53,7.12,1.19-.77,1.77-1.76,1.76-3,0-1.85-.08-3.71.02-5.55.11-2.03,3.82-3.4,5.85-2.1,1.34.86,2.46,2.05,3.66,3.07,2.47-2.47,4.65-4.65,6.99-6.99h11.17c1.07.97,2.41,2.18,3.86,3.5h3.56c1.27-1.15,2.59-2.34,3.91-3.54,1.75,1.74,3.49,3.49,5.24,5.24-1.21,3.49-5.79.79-7.19,3.93,2.28,3.17,5.64,1.32,8.49,1.84.22.24,7.53,3.7,7.9,3.71,1.24,1.13,2.58,2.35,3.94,3.57,3.57-2.82,1.65-6.41,1.24-9.74-1.27-2.06-3.38-.84-5.54-1.7-.65-.42-1.13-1.42-1.24-2.65-.17-2.05,1.04-4.3,2.35-4.31,6.13,0,12.25,0,18.05,0,.76-.76,1.26-1.16,1.62-1.64.91-1.21,1.81-1.85,2.62-1.49,1.35.6,1.61,1.7,1.36,3.14-.21,1.2-.04,2.46-.06,4.51.15.33.18-.68,0-.75-1.19-.47-2.09.01-2.88.94-.75.88-.64,1.62.73,2.32.24.12.82-.21,1.13-.46.41-.33.84-.75,1.02-2.04.64-.82,1.46-.56,1.83-.87,1.41-1.14,2.68-2.47,4.04-3.76h14.45c3.49-1.27,0-6.3,4.21-6.89,4.8,4.8,9.6,9.6,14.41,14.41,1.74-1.75,3.47-3.5,5.23-5.27.73-1.85-.58-4.71,2.54-5.5,2.25,2.25,4.43,4.43,6.83,6.83,1.24-1.05,2.51-2.12,3.87-3.27,1.04-.06,2.37.16,3.42-.27,1.84-.76,2.39-2.44,2.23-4.41-.04-.52.23-1.14.53-1.61.32-.51.85-.89,1.28-1.33,1.23,0,2.47,0,4.14,0,.69,2.01,1.39,4.18,2.21,6.29.16.41.94.94,1.24.84.52-.18,1.14-.73,1.29-1.25.63-2.13-.2-5.02,2.85-5.82,1.07-.28,2.36.1,3.5.4.52.14.89.82,1.32,1.26-1.16,1.31-2.32,2.62-3.49,3.93.44.44.86,1.24,1.31,1.25,7.34.29,14.68.49,22.06.7,1.43-1.24,2.79-2.42,4.24-3.68,1.58-.16,3.47-.89,4.83.84,1.53,1.95,1.35,3.58-1.06,6.26-1.04,1.16-1.69,1.79-1.1,2.66.77,1.12,1.83,1.31,3.24,1.17,1.81-.19,3.65-.05,5.14-.05,1.62-1.43,2.97-2.63,3.97-3.51h10.99c2.1,1.98,3.88,3.67,5.54,5.24.23,1.95-.77,4.4,1.45,5.06,1.71.51,2.59-1.81,4.01-2.92,1.27,1.14,2.55,2.3,4,3.59,3.39-3.45,6.81-6.98,10.29-10.45.23-.23.93-.24,1.27-.07,1.27.65,1.65,1.75,1.25,3.16-.38,1.38.03,2.74,1.4,3,.74.14,1.75-.95,2.58-1.56.49-.36.88-.86,1.43-1.4,1.28,1.16,2.57,2.32,3.93,3.54h3.56c.64.98,1.66,1.87,1.83,2.91.3,1.8.02,3.69.1,5.54.08,1.65,1.61,2.69,3.93,2.69,1.83,0,3.65,0,5.86,0,.54,1.67,1.07,3.3,1.96,6.05,1.68,2.61,4.65,5.2,9.19,5.78.97.12,1.76,1.64,2.87,2.75h7.37c2.78-1.65,4.95-4.67,7.66-7.13,1.72.17,3.76-.82,4.97,1.23.47.79-.14,1.71-1.39,2.62-.49.36-.88.86-1.32,1.3-1.31,1.31-2.62,2.62-3.93,3.93.85.67,1.63,1.76,2.56,1.92,1.8.31,3.72-.13,5.52.17,1.03.17,1.92,1.2,2.9,1.86v3.66c1.86,2.1,4,2.55,6.32.97,1-.68,1.77-1.71,3.14-3.08,2.7,3.22,5.4,6.44,8.81,10.52-.02-.23.1.95.27,2.51,1.45,1.54,3.11,3.29,4.55,4.82,3.22,2.45,7.72-1.14,10.25,2.86v3.54c1.29,1.4,2.52,2.74,3.68,3.99.25,5.03.29,5.06,5.18,5.34,3.57,2.4,6.05,5.48,6.74,9.94.15.98,1.64,1.76,2.9,3.03,0,2.64-.02,5.67,0,8.7.03,3.31.04,3.38,4.22,4.22,1.2.24,2.26.53,3,1.72.06,1.21.12,2.42.19,3.71-1.2,1.29-2.45,2.62-3.7,3.96v3.65c1.76,1.76,3.5,3.5,5.55,5.54,1.51,0,3.32-.02,5.13,0,3.3.05,3.3.09,4.14,4.35.11.56.3,1.11.45,1.66,2.18,2.18,4.36,4.36,6.6,6.6-.66.73-1.27,2.02-2.01,2.11-2.39.27-4.83.1-6.63.1-2.58,1.54-2.03,3.51-2.13,5.39-1.18,1.26-2.41,2.59-3.62,3.88,1.22,1.31,2.46,2.64,3.62,3.9.09,1.34.17,2.54.24,3.74,3.49,3.49,6.98,6.98,10.67,10.67-1.07,1.25-2.15,2.52-3.3,3.88,1.11,1.21,2.28,2.51,3.43,3.77-1.21,1.31-2.45,2.64-3.61,3.9-.05,1.92.42,4.01-1.59,4.98-1.01.49-2.37.18-3.54.41-.52.1-1.05.56-1.41.99-.27.32-.29.85-.42,1.28.87.87,1.74,1.74,2.62,2.62,2.5,4.22-2.25,9.85,2.74,13.66h7.18c1.56.93,1.99,2.1.92,2.61-2.04.97-4.26,1.57-6.39,2.32v7.29c-1.29,3.21-4.22,2.09-6.21,3.09-1.32.66-1.75,1.74-1.33,3.97.15.33.18-.68,0-.75-1.19-.47-2.09.01-2.88.94-.75.88-.64,1.62.73,2.32.25.12.82-.21,1.13-.46.41-.33.84-.75,1.02-2.04ZM775.04,305.42c.44.8.93,1.8,1.68,2.17,1.55.76,2.32,0,1.56-1.56-.37-.75-1.36-1.24-2.17-1.68-.14-.07-1.14.93,3.87,3.34-.49-.17-1.5-.2-1.57-.01-.47,1.19.01,2.09.94,2.88.88.75,1.62.64,2.32-.73.12-.25-.21-.82-.46-1.13-.33-.41-.75-.84-6.16-3.27ZM622.7,404c0-1.73.21-3.5-.1-5.17-.14-.75-1.33-1.31-2.05-1.95-1.67,1.67-3.3,3.3-4.98,4.98.64.71,1.2,1.91,1.95,2.05,1.67.31,3.44.1,6.81.14-.49-.17-1.5-.2-1.57-.01-.47,1.19.01,2.09.94,2.88.88.75,1.62.64,2.32-.73.12-.24-.21-.82-.46-1.13-.33-.41-.75-.84-2.86-1.04ZM229.85,153.65c.17-.49.2-1.5.01-1.57-1.19-.47-2.09.01-2.88.94-.75.88-.64,1.62.73,2.32.25.12.82-.21,1.13-.46.41-.33.84-.75,1.04-2.86,2.93,0,5.88.14,8.79-.1.73-.06,1.39-1.31,1.96-2.1.06-.08-.72-1.08-1.19-1.15-2.8-.4-5.65-.97-8.38.34-1.22.59-1.58,1.68-1.22,4.65ZM455.94,37.13c-2.93,0-5.88-.14-8.79.1-.73.06-1.39,1.31-1.96,2.1-.06.08.72,1.08,1.19,1.15,2.8.4,5.65.97,8.38-.34,1.22-.59,1.58-1.68,6.74-6.72-1-1-1.42-1.42-1.85-1.85-.42-.42-.79-.95-1.29-1.23-.31-.17-.96-.13-1.23.09-2.28,1.88-.74,4.47-1.18,6.7h2.61c1.9,2.25,4.16,4.95,6.43,7.64,2.12-2.12,3.81-3.81,5.51-5.51.09-1.16.18-2.33.3-3.85-1.98-1.56-3.18-4.3-6-5.28-.9.9-1.75,1.75-8.85,7ZM257.38,122.13c-.64,1.69-1.25,3.28-1.75,4.6,1.61,3.12,3.89,5.01,4.67,5.57,6.05,3.07,7.05-3.74,11.18-2.53,3.06-.99,4.52-3.78,6.61-5.78-.19-4.53-.21-4.63-1.52-4.95-1.14-.28-2.47-.63-3.51-.3-1.85.59-2.67,2.13-2.41,4.17.16,1.24-.48,2.25-1.8,3.07h-7.36c-1.17-1.1-2.5-2.34-4.1-3.85ZM678.22,368.73c1.06,1.06,1.44,1.56,1.93,1.9,1.32.9,1.7,1.73,1.11,2.6-.76,1.12-1.81,1.44-3.2,1.15-.56-.12-1.27-.11-1.75.14-1.48.77-1.69,1.64-.89,2.56,1.13,1.3,2.53,2.22,2.95,4.27,1.05,5.14,2.41,5.44,7.23,2.39-1.2-1.29-2.39-2.57-3.71-3.99,2.51-1.14,5-2.28,7.51-3.42-1.39-1.53-2.6-2.85-3.66-4.02-.66-3.04,1.25-6.31-1.8-8.94-1.65,1.54-3.31,3.1-5.73,5.37ZM502.27,26.02c-2.12,1.72-2.6,3.94-1.18,6.14,1.28,1.98,3.09,3.62,4.26,4.94h4.9c1.55-2.72,1.19-6.75,4.45-8.84.5-.32-.4-1.61-1.65-2.24-3.6,0-7.2,0-10.8,0ZM398.5,66.78h10.8c.46-.35.99-.63,1.34-1.07.25-.31.38-1.19.35-1.2-4.24-1.48-1.85-6.72-5.04-8.81h-4.36c-1.17,1.33-2.98,2.97-4.26,4.94-1.42,2.2-.94,4.42,1.17,6.14ZM839.49,177.95c-2.39,0-4.79-.16-7.15.11-.64.07-1.13,1.43-1.69,2.18,1.75,1.75,3.44,3.44,5.13,5.13,2.39,0,4.79.16,7.15-.11.64-.07,1.13-1.43,1.69-2.18-1.75-1.75-3.44-3.44-5.13-5.13ZM292.89,113.33c-2.45,1.08-4.98,2.2-7.41,3.28,0,1.45-.31,2.76.08,3.83.51,1.41,1.65,1.84,2.42,1.26,1.36-1.04,2.19-2.97,4.15-2.98,1.89,0,3.42-.42,4.47-2.09,0-2.37.06-4.77-.06-7.17-.02-.45-.7-.97-1.19-1.27-.82-.49-1.91-.05-2.38,1.34-.37,1.08-.07,2.37-.07,3.8ZM374.42,68.66c-1.15-1.61-2.75-1.85-4.6-1.94-1.89-.09-2.73-2.02-4.1-3.03-.73-.54-1.89.01-2.34,1.38-.36,1.07-.07,2.36-.07,3.55,1.69,1.69,3.22,3.59,5.11,4.99,1.39,1.02,3.23.88,4.83-.11,1.17-.72,1.52-1.73,1.2-3.1-.13-.56-.02-1.19-.02-1.76ZM200.25,164.13c0,2.17-.32,3.48.08,4.53.54,1.42,1.94,1.92,2.41,1.16,1.76-2.86,4.89-2.7,7.48-3.73.43-.17,1.03-.9.94-1.21-.13-.5-.7-1.12-1.2-1.25-2.84-.74-5.7-.88-9.7.5ZM819.11,235.31c.78,1.26,1.74,1.87,2.42,1.3,1.79-1.5,3.45-3.16,5.15-4.76-1.9-1.9-3.57-3.57-5.3-5.3-.75.55-2.1,1.04-2.17,1.68-.26,2.33-.1,4.72-.1,7.08ZM824.57,263.18c-2.41,0-4.82-.06-7.23.05-.45.02-.98.69-1.28,1.17-.52.82-.02,1.69,1.28,2.48h7.23c1.3-.79,1.8-1.66,1.28-2.48-.31-.49-.85-.82-1.28-1.23ZM578.24,16.75c-2.48-2.66-4.95-2.66-7.43,0,2.48,2.66,4.95,2.66,7.43,0ZM235.45,129.77c-2.66,2.48-2.66,4.95,0,7.43,2.66-2.48,2.66-4.95,0-7.43ZM431.86,63.07c-2.66,2.48-2.66,4.95,0,7.43,2.66-2.48,2.66-4.95,0-7.43ZM163.81,198.95c.41.41,1.06,1.25,1.2,1.17,1.3-.71,1.74-1.62,1.25-2.39-.3-.48-1.04-1.26-1.18-1.18-1.3.71-1.68,1.58-1.27,2.4ZM277.45,106.31c.41-.82.03-1.69-1.27-2.4-.14-.08-.88.7-1.18,1.18-.49.78-.05,1.68,1.25,2.39.14.08.79-.76,1.2-1.17ZM363.3,94.57c.41.41.77.91,1.25,1.21.78.49,1.68.05,2.39-1.25.08-.14-.7-.88-1.18-1.18-.78-.49-1.63-.02-2.46,1.21ZM415.8,64.31c-.41.82-.03,1.69,1.27,2.4.14.08.88-.7,1.18-1.18.49-.78.05-1.68-1.25-2.39-.14-.08-.79.76-1.2,1.17ZM433.09,45.78c-.41-.41-1.06-1.25-1.2-1.17-1.3.71-1.74,1.62-1.25,2.39.3.48,1.04,1.26,1.18,1.18,1.3-.71,1.68-1.58,1.27-2.4ZM488.06,52.58c-.82-.41-1.69-.03-2.4,1.27-.08.14.7.88,1.18,1.18.78.49,1.68.05,2.39-1.25.08-.14-.76-.79-1.17-1.2ZM599.23,403.39c.41-.41,1.25-1.06,1.17-1.2-.71-1.3-1.62-1.74-2.39-1.25-.48.3-1.26,1.04-1.18,1.18.71,1.3,1.58,1.68,2.4,1.27ZM623.32,412.65c-.41.82-.03,1.69,1.27,2.4.14.08.88-.7,1.18-1.18.49-.78.05-1.68-1.25-2.39-.14-.08-.79.76-1.2,1.17ZM627.64,30.34c-.41.41-1.25,1.06-1.17,1.2.71,1.3,1.62,1.74,2.39,1.25.48-.3,1.26-1.04,1.18-1.18-.71-1.3-1.58-1.68-2.4-1.27ZM630.73,23.55c-.41.82-.03,1.69,1.27,2.4.14.08.88-.7,1.18-1.18.49-.78.05-1.68-1.25-2.39-.14-.08-.79.76-1.2,1.17ZM798.11,78.52c-.41.41-1.25,1.06-1.17,1.2.71,1.3,1.62,1.74,2.39,1.25.48-.3,1.26-1.04,1.18-1.18-.71-1.3-1.58-1.68-2.4-1.27ZM806.75,256.39c-.82-.41-1.69-.03-2.4,1.27-.08.14.7.88,1.18,1.18.78.49,1.68.05,2.39-1.25.08-.14-.76-.79-1.17-1.2ZM812.31,257.01c-.41.82-.03,1.69,1.27,2.4.14.08.88-.7,1.18-1.18.49-.78.05-1.68-1.25-2.39-.14-.08-.79.76-1.2,1.17ZM825.28,189.69c-.82-.41-1.69-.03-2.4,1.27-.08.14.7.88,1.18,1.18.78.49,1.68.05,2.39-1.25.08-.14-.76-.79-1.17-1.2ZM827.13,168.07c-.41.82-.03,1.69,1.27,2.4.14.08.88-.7,1.18-1.18.49-.78.05-1.68-1.25-2.39-.14-.08-.79.76-1.2,1.17Z"/>
        <path class="cls-1" d="M711.62,456.7c1.87-.82,3.72-.82,5.58-.82.62-.98,1.49-1.89,1.78-2.96.31-1.15.02-2.45.08-3.69.17-3.64.86-4.45,4.01-4.47,1.82-.01,3.64,0,5.24,0,1.97-1.97,3.72-3.72,5.46-5.46-1.16-1.31-2.32-2.62-3.47-3.92,1.17-1.81,3.14-1.33,4.79-1.87,1.6-.53,2.84-2.14,4.38-3.4.97-.05,2.18-.11,3.49-.18,1.28-1.19,2.61-2.44,3.98-3.72h7.24c1.4-1.29,2.73-2.52,4.14-3.82h10.88c1-1,1.88-1.88,2.75-2.75.44-.11,1.19-.43,1.26-.31,1.8,2.83,4.82,3.21,7.51,3.72,2.36,2.36,4.54,4.54,6.8,6.8h3.5c1.41,1.31,2.75,2.54,4.13,3.82h6.67c4.81,4.59,9.27,8.84,13.56,12.93.08,1.49.15,2.7.21,3.76,1.26,1.44,2.45,2.79,3.73,4.24v6.84c1.42,2.44,3.43,1.67,5.19,1.84,2.32,1.65,2.87,3.99,1.27,6.13-1.44,1.94-3.1,3.39-3.12,6.21-.01,1.81-1.93,2.78-4.03,2.49-1.27-.18-2.29.43-3.13,1.8v11.28c-3.01,2.74-6.19,5.63-9.86,8.96-2.13.21-5.42-.07-5.16,4.54.05.95-.9,2.17-1.72,2.92-1.16,1.06-1.7,1.79-1.21,2.67,2.18,2.18,4.37,4.37,6.51,6.51-1.15,3.59-5.96.51-7.22,4.96v2.7c-1.01.61-1.97,1.69-2.98,1.73-4.31.19-8.65-.02-12.96.18-.79.04-1.53,1.32-2.29,2.02,1.01,1.3,3.33,2.17,2.81,3.89-.68,2.23-3.13,1.19-4.82,1.41-1.75-1.15-1.89-2.85-2.06-4.72-.08-.89-1.45-2.48-1.89-2.37-1.29.32-1.77,1.6-1.72,2.86.03.62,0,1.23,0,2.17-1.51,1.59-3.17,3.35-4.8,5.07-2.23.45-2.66-1.76-4.12-2.58-.7.58-2.06,1.18-2.1,1.85-.21,3.65-.1,7.33-.1,10.68-2.05,2.05-3.8,3.8-5.51,5.51-1.3-1.18-2.59-2.36-3.86-3.51-1.31.81-1.58,1.86-1.8,3.08-.74,4.05-.82,4.06-4.27,4.19-1.8.06-3.59.17-5.19.24-1.06,1.06-1.93,1.93-3.23,3.23-1.95.09-4.33.2-7.01.33-1.25-1.03-2.63-2.15-4.05-3.32-3.13,1.54-5.04,4.65-7.73,6.9-3.12-1.38-.31-6.03-3.94-7.14-1.82,2.7-4.42,3.92-7.62,3.92-.88.88-1.76,1.76-2.63,2.63-3.57,1.15-7.24.39-10.86.61-3.34-1.71-5.4-4.85-8.11-7.25-1.21-.06-2.42-.11-3.69-.17-1.3,1.22-2.64,2.46-3.94,3.68h-7.4c-3.1-2.23-1.01-7.44-5.23-9.04-.27-.1-.3-1.11-.27-1.68.22-3.24-1.59-4.05-4.44-4.16-1.01-.04-1.97-1.12-2.97-1.73v-3.64c-1.42-3.21-6-.53-7.2-3.88,1.12-1.31,2.2-2.58,3.27-3.83-2.38-2.38-4.57-4.57-6.76-6.76,1.36-3.47,5.11-4.82,6.98-8.78v-4.63h2.09c1.03,1.17,2.19,2.49,3.36,3.82,1.84-1.84,3.53-3.53,5.28-5.28-.59-.74-1.14-2.09-1.79-2.14-2.96-.23-5.96-.1-8.94-.1v-5.35c1.44-3.41,6.12-.56,7.44-4.86v-6.52c1.01-.61,1.93-1.56,2.97-1.73,1.79-.28,3.66-.01,5.49-.1,1.57-.07,2.63-1.67,2.62-3.95,0-1.22-.02-2.45,0-3.67.01-.59.09-1.18.13-1.66,1.26-1.4,2.46-2.73,3.56-3.94.32-5.02.35-5.06,5.59-5.31,4.9-4.9,10.02-10.02,14.7-14.7q4.09-.57,6.99-3.27c2.73-.88,5.64-.96,8.5.06,1.36.49,1.72,1.7,1.28,3.92.15.33.18-.68,0-.75-1.19-.47-2.09.01-2.88.94-.75.88-.64,1.62.73,2.32.25.12.82-.21,1.13-.46.41-.33.84-.75,1.02-2.04ZM791.42,481.82c3.39,0,7.08.15,10.73-.12.77-.06,1.86-1.57,2.04-2.55.33-1.79.29-3.7.04-5.52-.27-1.94-1.32-3.35-3.65-2.93.56-3.09-2.82-3.68-3.7-5.98.06-1.08.13-2.28.19-3.33,1.16-1.36,2.24-2.63,3.18-3.73-1.88-2.02-3.55-3.81-5.14-5.52h-7.43c-1.42-1.3-2.76-2.53-3.89-3.57-4.09-1.48-5.25,2.69-7.97,3.6-3.63.17-7.29-.4-10.89.47-.44.44-.9.84-1.3,1.31-2.37,2.78-7.07,1.53-8.98,5.19-.18.34-1.1.49-1.62.41-2.98-.46-4.17,2.01-5.96,3.53-1.19.07-2.39.14-3.9.23-3.7,3.69-7.56,7.54-10.99,10.95-3.58.7-6.91-1.18-8.99,1.51-.43,2.08-.77,3.77-1.07,5.23-2.17.56-3.83,1-5.5,1.43-6.53,6.53-13.07,13.07-19.6,19.6-.06,1.21-.11,2.42-.22,4.58-2.19,2-5.02,4.37-7.58,6.99-2.52,2.58-5.59,4.69-7.19,8.04,0,5.59-.09,11.14.09,16.67.03.95,1.23,1.87,1.87,2.76h7.23c1.39-1.23,2.67-2.37,3.85-3.42,1.41,1.16,2.66,2.2,3.88,3.21,1.13-1.13,2-2,3.01-3.01,4.67-1.05,9.56-.17,14.41-.41.51-.03,1.04.43,1.56.66.87.87,1.74,1.74,2.6,2.6,3.25-.71,1.81-3.64,2.56-5.35,1.81-1.86,3.53-3.62,5.19-5.33,1.34,1.21,2.63,2.38,3.91,3.55,2.28-2.28,4.46-4.46,6.68-6.67,1.91-1.12,4.87.1,6.21-2.83v-3.38c1.79-1.79,3.54-3.54,5.28-5.28q5.04-.53,6.13-5.51c2.04-2.38,3.63-4.24,5.02-5.87q5.24.3,5.78,5.24c-1.11,1.25-2.31,2.59-3.57,4.01,0,1.61-.85,3.5,1.06,4.91,5.18,1.79,10.75-.29,16.03,1.24.87.87,1.74,1.74,2.64,2.64,2.78-1.08,4.46-3.34,6.06-5.67-.15-1.18-.29-2.35-.43-3.43-.84-1.42-2.97-1.89-2.63-4.05,1.87-1.57,3.64-3.24,2.98-6.21-1.57-2.41-3.56-4.57-5.27-5.54-3.77-1.19-7.15.79-9.7-2.71,2.26-.78,4.69-1.09,6.42-2.35,1.96-1.43,3.44-2.98,6.23-3.03,1.79-.03,2.68-2.03,2.41-4.08-.16-1.25.48-2.26,1.94-3.17ZM668.41,500.97c-.41.41-1.25,1.06-1.17,1.2.71,1.3,1.62,1.74,2.39,1.25.48-.3,1.26-1.04,1.18-1.18-.71-1.3-1.58-1.68-2.4-1.27ZM685.08,483.06c-.41-.41-1.06-1.25-1.2-1.17-1.3.71-1.74,1.62-1.25,2.39.3.48,1.04,1.26,1.18,1.18,1.3-.71,1.68-1.58,1.27-2.4ZM749.31,534.94c-.41.82-.03,1.69,1.27,2.4.14.08.88-.7,1.18-1.18.49-.78.05-1.68-1.25-2.39-.14-.08-.79.76-1.2,1.17ZM759.2,520.12c-.41-.41-1.06-1.25-1.2-1.17-1.3.71-1.74,1.62-1.25,2.39.3.48,1.04,1.26,1.18,1.18,1.3-.71,1.68-1.58,1.27-2.4ZM793.16,487.38c.41.41.77.91,1.25,1.21.78.49,1.68.05,2.39-1.25.08-.14-.7-.88-1.18-1.18-.78-.49-1.63-.02-2.46,1.21Z"/>
        <path class="cls-1" d="M155.78,481.82c-.37-2.84-2.56-4.64-4.71-3.64-1.57.73-2.87,2.05-4.75,3.45h-7.08c-.99-.87-2.33-2.05-3.76-3.31-1.06-.06-2.25-.14-3.59-.22-1.25-1.16-2.57-2.39-3.96-3.68h-10.97c-3.19,1.43-.69,5.94-3.86,7.37h-7.38c-1.58-1.84-1.44-3.23.39-3.66.58-.14,1.23-.08,1.83,0,1.31.16,2.61-.26,2.91-1.58.12-.53-1.23-1.95-2.02-2.04-2.42-.27-4.9-.1-7.35-.1h-6.56c-2.62-1.54-2.02-3.52-2.22-5.86-1.5-1.25-3.37-2.82-5.46-4.57-3.05.96-4.28,4.78-8.69,6.72-1.01,0-3.47.23-5.86-.09-1.38-.18-1.86-1.38-1.67-2.08.78-1.59,3.42-2.04,2.4-4.1-.97-1.94-3.51-.5-4.86-1.4-2.84-1.89-4.4-5.37-7.77-6.58-1.46.68-1.8,3.25-3.98,2.31-1.2-.52-1.41-1.8-1.13-3.19.11-.55.04-1.24-.21-1.73-.26-.52-.83-.89-1.43-1.48-1.26,1.09-2.53,2.2-3.81,3.31-.37-.28-1.08-.54-1.19-.95-1.01-3.81-1.1-4.96-.13-8.65.36-1.38,1.69-1.74,3.91-1.29.33-.15-.68-.18-.75,0-.47,1.19.01,2.09.94,2.88.88.75,1.62.64,2.32-.73.12-.25-.21-.82-.46-1.13-.33-.41-.75-.84-2.04-1.02-.82-.63-.56-1.49-.86-1.83-1.65-1.82-3.44-3.51-5.54-5.6-2.05,0-4.48.17-6.87-.1-.75-.09-1.35-1.37-2.02-2.1.93-.93,1.85-1.76,2.64-2.69.23-.27.26-.95.07-1.26-.3-.5-.84-1.2-1.3-1.21-3.69-.1-7.37-.05-11.02-.05-.47-.47-1.21-.86-1.29-1.35-.31-1.75-.44-3.54-.55-5.32-.23-3.6-.89-4.41-4.04-4.44-1.23-.01-2.46.02-3.69-.01-.59-.02-1.17-.13-1.76-.21-1.2-.74-1.61-1.75-1.67-3.01-.11-2.21.64-3.65,2.48-4.15,1.13-.3,2.37-.19,3.5-.49.51-.14.88-.82,1.59-1.52-1.84-1.56-3.67-3.11-5.79-4.91-.9.75-2.15,1.8-3.6,3.01-1.6-1.52-3.3-3.14-4.95-4.7-.45-1.75-.89-3.42-1.45-5.58-1.47-.3-3.15-.65-5.22-1.07-2.69-2.09-.8-5.42-1.46-8.74,2.38-2.38,4.98-4.93,7.47-7.57.31-.33.04-1.19.04-1.81h6.05c2.53-2.67,5.51-5.59,8.17-8.77,1.11-1.33.88-3.22-.03-4.83-.69-1.22-1.71-1.63-3.07-1.22,0-1.73.07-3.45-.04-5.17-.03-.46-.53-.95-.92-1.32-.32-.29-.9-.67-1.18-.55-.49.21-1.08.69-1.21,1.17-1.02,3.97-.35,5.1,3.35,5.87.43,1.4.07,2.74-1.3,3.08-2.87.71-5.66,1.25-7.66,3.86-.5.65-2.35.69-3.38.37-.96-.3-1.97-1.3-2.41-2.24-.71-1.54.35-4.38,1.53-4.82,1.86-.69,5.34.81,5.14-2.56-.12-2.07-3.08-.99-4.72-1.47-1.44-.41-1.88-1.56-1.36-2.4.3-.49.82-1.1,1.32-1.18,1.19-.17,2.42-.06,3.58-.06,1.79-1.79,3.52-3.52,5.26-5.26.1-1.18.2-2.37.32-3.71-1.13-1.25-2.33-2.58-3.56-3.94,1.31-3.26,5.81-.68,7.25-3.82,0-1.84,0-3.67,0-5.51,4.07,0,8.15.19,12.2-.09,1.7-.12,3.03-1.47,2.62-3.61,1.36.41,2.2-.17,3.12-1.18,1.12-1.23,2.05-3.09,4.29-2.53,0,.62-.26,1.44.05,1.81,1.14,1.41,2.47,2.68,3.67,3.94-.08,1.32-.15,2.53-.22,3.73-.74,1.2-1.74,1.73-3.02,1.64-3.11-.23-4.32,1.36-4.2,4.32.02.55-.26,1.11-.41,1.67-2.27,3.4-7.7,4.6-6.94,10.37,1.02,1.16,2.2,2.51,3.47,3.98-1.12,1.2-2.39,2.43-3.47,3.8-.3.38-.05,1.2-.05,1.81-1.41-.44-2.6-.05-3.11,1.32-.4,1.08-.41,2.3-.59,3.46,1.8,3.26,4.87,5.37,7.35,8.14v3.65c-1.18,1.27-2.41,2.61-3.6,3.9v7.25c1.23,1.39,2.37,2.68,3.49,3.94-4.85,5.26-4.86,5.58-.39,10.4,1.06,2.3.34,4.76.57,7.14.15,1.59,1.18,2.41,3.95,2.62,1.31.1,2.37.29,3.21,1.77-1.04,1.21-2.14,2.48-3.26,3.78,1.94,3.47,5.34,1.33,8.41,2,2.72.93,4.05,3.85,6.19,5.5.11,1.56.2,2.75.29,3.95,1.74,1.74,3.49,3.49,5.26,5.26h4.72c1.81,2.3,4.07,5.18,5.76,7.32,2.38.24,3.97-.08,4.67.56,3.64,3.33,7.04,6.9,10.66,10.52,1.28-1.13,2.56-2.27,3.85-3.42,1.27,1.16,2.6,2.37,4,3.65h3.3c1.57,1.32,2.91,3.38,4.34,3.44,2.76.12,4.36,1.45,6.22,3.09,1.9,1.69,3.52,1.22,6.26-1.07.47-.39.88-.87,1.59-1.58,1.22,1,2.47,2.03,4.01,3.3h29.13c1.41,1.26,2.75,2.47,4.23,3.79h55.28c1.34,1.26,2.67,2.5,4.03,3.77h3.57c1.37-1.28,2.7-2.52,4.04-3.78h58.95c1.43-1.24,2.71-2.35,3.97-3.44,1.04,1.04,1.91,1.91,2.81,2.81,2.86,1.16,5.77.91,8.67.15.89-.89,1.76-1.76,2.89-2.89h7.39c2.05,1.19,4.12,3.08,5.41,5.73-.89.89-1.76,1.76-2.73,2.72.53,3.16,3.79,3.95,4.92,5.95h7.66c.6-.6,1.39-1.02,1.42-1.48.18-3.05.22-6.1.27-9.15.06-3.67,2.11-4.88,6.08-3.47.52.19.88.84,1.33,1.28v3.67c1.78,2.18,3.94,2.61,6.28,1.14,1.88-1.18.85-3.32,1.36-5.04,2.32-3.01,5.72-.8,10.46-2.68.94-1.19,3.21-4.07,4.97-6.32h15.77c1.37,1.23,2.65,2.38,3.94,3.54.55-.55.94-1.05,1.43-1.41.83-.61,1.85-1.69,2.58-1.55,1.37.27,1.78,1.62,1.4,3-.39,1.41-.02,2.51,1.25,3.17.83.44,1.67-.14,2.63-1.35,1.04-1.32,2.23-2.52,3.35-3.77-1.04-1.04-1.91-1.92-2.79-2.79-.05-.44-.31-1.07-.11-1.28,1.6-1.71,3.29-3.34,4.73-4.77,3.38,3.18,6.52,6.12,9.48,8.9,0,.94.09,1.57-.02,2.17-.24,1.37.14,2.56,1.48,3.04.88.31,2.09-.58,2.17-1.89.21-3.64.07-7.31.07-10.32,1.21-2.23,2.27-2.45,2.91-1.02.92,2.07,1.52,4.27,2.22,6.29,2.29,0,4.14,0,6.81.02.33-.15-.68-.18-.75,0-.47,1.19.01,2.09.94,2.88.88.75,1.62.64,2.32-.73.12-.25-.21-.82-.46-1.13-.33-.41-.75-.84-2.04-1.02-1.24-1.41-.89-2.68.46-3.09,2.77-.83,5.86-.9,7.58-4.25,1.38,1.15,2.62,2.19,4.53,3.78,2.05-2.64,4.2-5.43,6.48-8.37,1.13,1.75,2.15,2.65,2.29,3.68.48,3.53-.63,7.19.69,10.66.51,1.33,1.7,1.7,3.09,1.28,0,3.07,0,6.14,0,9.21-2.93,3.46-6.51,1.76-9.96,1.24-2.38-2.6-.47-5.84-1.26-8.69-.43-.43-.79-1.09-1.31-1.26-4.02-1.31-5.9-.16-6,3.59-.05,1.81,0,3.62,0,4.93-3.39,3.39-6.42,6.42-9.48,9.48h-3.42c-1.38-1.23-2.66-2.38-3.93-3.52-2.29,2.29-4.35,4.58-6.69,6.56-.77.65-2.3.83-3.34.6-1.02-.22-1.87-1.23-2.82-1.92v-10.97c-.89-1.45-1.86-1.87-2.61-1.02-1.66,1.88-3.38,3.5-6.35,2.79-1.71,1.63-3.45,3.29-5.1,4.86-1.3,2.03,0,4.99-3.04,6.42-.74-2.14-1.06-4.58-2.32-6.34-1.25-1.76-2.68-3.77-5.02-4.4-2.14,1.21-1.23,3.24-1.52,4.9,1.26,1.37,2.47,2.69,3.68,4.01-1.74,1.74-3.47,3.47-5.21,5.21-4.76.46-4.79.43-5.83-4.08-.13-.56-.19-1.17-.47-1.64-.31-.51-.84-.89-1.27-1.32-1.3,1.17-2.6,2.34-3.86,3.46-1.34-1.22-2.67-2.43-3.77-3.44h-7.42c-3.05,2.54-1.14,5.84-1.74,8.69-.81.76-1.56,2.07-2.47,2.19-2.36.31-4.79.11-6.76.11-5.45-5.02-5.75-5.02-10.91-.26h-7.62c-1.89-.77-3.28-4.42-6.91-3.44-1.38-1.15-2.76-2.29-4.27-3.54-.99-.05-2.2-.11-3.5-.17-1.26,1.21-2.52,2.53-3.92,3.67-.37.3-1.19.05-1.8.05,0-.61.26-1.45-.04-1.78-1.64-1.79-3.42-3.44-5.21-5.2-2.24.67-3.69,2.63-4.93,4.39-1.24,1.76-1.55,4.16-2.36,6.55-1.62-1.53-2.84-2.81-4.2-3.9-.37-.3-1.18-.04-1.79-.04,0-.59-.25-1.42.04-1.74,1.19-1.3,2.55-2.44,3.65-3.46-1.06-2.14-2.94-1.8-4.52-2.35-2.04-.71-3.63-2.66-5.66-3.48-1.61-.65-3.42.05-4.9,2.2,2.49,2.29,5.12,4.63,7.64,7.08.3.29.04,1.14.04,1.74h-9.16c-1.3,1.2-2.61,2.4-3.86,3.56-1.34-1.22-2.66-2.43-3.79-3.46h-11.08c-.53.53-1.4,1.25-1.33,1.35.92,1.39,1.97,2.7,3.13,4.21.04.92.1,2.12.16,3.31q-3.42,2.85-7.39.32v-3.61c-.95-.67-1.82-1.76-2.82-1.9-3.55-.49-7.24.61-10.73-.68-1.35-.5-1.72-1.7-.18-4.75.31-1.21-.69-.72-1.05.03-.76,1.55,0,2.32,1.56,1.56.75-.37,1.24-1.36,1.68-2.17.07-.14-.93-1.14-2.18.58-1.72,1.65-2.58,1.91-2.9,1.61-3.92-3.73-7.75-7.54-11.15-10.88-3.5-.78-5.15.95-7.06,3.24-3.77.15-7.87.32-11.46.46-2.51,1.46-1.71,3.45-1.9,5.17q-3.5,2.84-7.39.2v-3.63q-3.71-2.73-7.42,0v5.47h-6.11c-.86-.99-1.97-2.41-3.25-3.66-.31-.3-1.16-.04-1.76-.04ZM24.19,392.89c1.64-1.16,2-2.79,1.9-4.66-.13-2.31.56-4.83-1.91-6.46h-5.38c-.6,0-1.29-.19-1.79.04-1.34.62-1.97,1.62-1.44,2.36,1,1.4,2.96,2.23,3.03,4.15.07,1.87.37,3.46,2.03,4.56h3.56ZM18.8,346.43c.33.42.63.86.99,1.25.39.44.79.91,1.26,1.25,1.23.89,1.9,3.18,3.73,2.5,2.16-.79,1.06-3.07,1.31-4.71-3.52-2.78-3.53-2.75-7.29-.3ZM14.34,399.06c.41-.82.03-1.69-1.27-2.4-.14-.08-.88.7-1.18,1.18-.49.78-.05,1.68,1.25,2.39.14.08.79-.76,1.2-1.17ZM102.66,470.09c.41-.41,1.25-1.06,1.17-1.2-.71-1.3-1.62-1.74-2.39-1.25-.48.3-1.26,1.04-1.18,1.18.71,1.3,1.58,1.68,2.4,1.27ZM114.4,468.24c-.41-.41-1.06-1.25-1.2-1.17-1.3.71-1.74,1.62-1.25,2.39.3.48,1.04,1.26,1.18,1.18,1.3-.71,1.68-1.58,1.27-2.4Z"/>
        <path class="cls-1" d="M497.52,433.67c-1.25-1.42-.87-2.59.47-3.13,3.97-1.59,8.34.43,12.31-1.27.47-.2,1.12-.91,1.05-1.25-.1-.5-.71-1.12-1.23-1.26-1.11-.32-2.39-.14-3.43-.58-.9-.38-2.31-1.51-2.2-2,.3-1.29,1.58-1.74,2.86-1.65.61.04,1.22,0,2.02,0,1.22-1.1,2.56-2.3,3.96-3.56,1.23,1.14,2.52,2.34,3.84,3.56h3.61c2.48-2.47,4.95-4.95,7.42-7.41,1.23,1.23,2.09,2.09,2.96,2.96,4.08,1.36,8.2.94,12.33.28.86-.86,1.73-1.73,2.59-2.59.43,0,1.02-.18,1.27.03.93.78,1.76,1.7,2.85,2.79h6.6c1.25.92,2.38,1.46,3.07,2.34,1.33,1.69,3.08,1.75,4.86,1.56,1.5-.16,2.3-1.71,2.36-4.18.05-1.79,0-3.58,0-5.17,3.04-1.99,4.11-4.63,4.16-7.43,1.81-1.98,3.46-3.77,5-5.46,1.97.22,4.39-.73,5.04,1.45.51,1.7-1.79,2.57-2.91,4,1.1,1.25,2.23,2.52,3.47,3.92v7.14c1.26,1.32,2.58,2.57,3.72,3.97.3.37.05,1.19.05,1.8-.6,0-1.44-.26-1.77.04-1.76,1.63-3.39,3.4-5.32,5.39.9,1.09,1.92,2.31,2.99,3.6-.66,3.93-5.51.5-6.79,3.84,1.03,1.17,2.13,2.42,3.23,3.67-1.06,2.71-3.82,1.6-5.74,2.42-.87.87-1.72,1.72-2.78,2.78-2.63.28-5.49.58-8.07.85-1.41,1.15-2.63,2.14-3.62,2.95-2.09-1.92-3.86-3.53-5.48-5.02v-5.69c1.79,0,3.57,0,5.36,0,.68-.87,2-1.79,1.94-2.6-.22-2.76,1.32-4.33,3.06-5.95.25-.23.36-.92.2-1.21-.27-.5-.79-1.22-1.22-1.23-5.95-.1-11.89-.18-17.84-.03-.89.02-1.74,1.27-2.61,1.96,0,1.79,0,3.57,0,5.36h-5.19c-3,2.96-2.98,3.31-.84,6.94q4.68-3.68,6.03-6.94c2.86,0,5.75-.25,8.57.09,1.66.2,2.95,1.52,2.54,3.61-.6,0-1.45-.26-1.77.04-2.63,2.43-5.17,4.97-7.61,7.36h-15.55c-2.12-2.12-4.66-4.66-7.38-7.38-.78.05-1.95.13-3.13.21-3.42,3.42-6.83,6.84-10.26,10.27-1.63.4-3.32.67-4.9,1.25-1.33.49-1.69,1.68-1.27,3.06-.6,0-1.44.25-1.75-.04-1.27-1.22-2.38-2.6-3.75-4.16-1.45,1.7-2.61,3.05-3.59,4.2-2.16,0-3.94,0-7.46-6.62-2-2.6-2.59,1.45-1.29,5.41.16.49.75.98,1.25,1.18,1.74.67,1.65-.11,1.97-1.7.29-1.41,2.37-2.46,3.5-3.51v-7.42c-3.28-3.01-3.29-2.97-5.43,6.04,2.14,8,1.72,9.03.47,9.72-1.95,1.09-4.82-.06-6.16,2.62v3.55c-1.7,1.69-3.42,3.39-5.37,5.32h-11.53c-1.73-.36-2.69-4.74-6.46-3.47-.47.23-1.07.37-1.45.74-3.44,3.39-6.85,6.81-10.52,10.49-1.5-1.83-3-3.66-5.72-6.96-.2-.43.5-2.84.28-5.18-.15-1.69-1.09-2.38-3.7-2.81,0-.61-.26-1.48.04-1.8,2.96-3.1,5.85-6.3,9.1-9.07,2.13-1.81,1.68-4.25,2.03-5.18,2.34-2.74,3.93-4.59,5.27-6.16,1.7-.08,2.9-.13,3.98-.18,1.4-1.26,2.74-2.45,3.98-3.56,1.36.13,2.54.24,3.72.36.43.43,1.23.86,1.24,1.3.16,4.87.11,9.75.37,14.61.03.67,1.4,1.27,1.96,1.74,1.55-1.11,2.85-2.64,4.44-3.03,1.72-.43,3.47-.35,4.5-2.01-1.15-1.28-2.3-2.56-3.3-3.68,3.08-3.21,6.04-6.3,8.89-9.27,5.73,0,11.25,0,17.58.02.33-.15-.68-.18-.75,0-.47,1.19.01,2.09.94,2.88.88.75,1.62.64,2.32-.73.12-.25-.21-.82-.46-1.13-.33-.41-.75-.84-2.04-1.02ZM455.35,446.03c-.42-.42-.8-1.14-1.27-1.21-1.17-.18-2.39-.17-3.56,0-.48.07-.97.67-1.28,1.14-.2.31-.25.89-.1,1.23.81,1.87,4.86,1.93,6.1.08.2-.31.08-.83.11-1.25ZM529.44,423.77c-.41-.41-1.06-1.25-1.2-1.17-1.3.71-1.74,1.62-1.25,2.39.3.48,1.04,1.26,1.18,1.18,1.3-.71,1.68-1.58,1.27-2.4Z"/>
        <path class="cls-1" d="M85.35,249.18c1.85-.82,3.68-.82,5.51-.82,1.31,1.24,2.62,2.48,4.02,3.8,1.15,0,2.37-.12,3.55.06.49.07,1.09.73,1.25,1.25.28.9-.41,2.13-1.73,2.22-3.62.24-7.27.08-10.73.08-.61.61-1.47,1.32-1.4,1.43.89,1.39,1.92,2.7,3.07,4.23.05.88.12,2.07.19,3.23-.96,1.77-2.43,2.29-4.38,2.27-2.62-.03-3.32,3.43-5.79,3.6-1.87.13-3.52.31-4.65,2.01v5.46c-.61,0-1.47-.26-1.8.04-1.82,1.65-3.5,3.44-5.43,5.38v7.03c-1.26,1.42-2.46,2.76-3.72,4.17-.05,1.08-.11,2.29-.17,3.47-1.54,2.47-3.7,2.65-6.11,1.56-1.34-.6-1.74-1.73-1.3-3.13,3.28-.68,3.87-1.36,3.71-4.28-.13-2.17-.97-3.01-3.13-3.13-2.92-.17-3.6.42-4.28,3.71h-11.12v-5.33c-1.08-1.17-2.22-2.42-3.37-3.68.86-2.84,3.36-1.94,5.29-2.22,1.28-1.22,2.47-2.47,3.8-3.56.35-.28,1.12-.04,1.7-.04-.41,1.36-.02,2.43,1.23,3.06,1.29.66,2.13-.4,2.48-3.06,1.82,0,3.64.08,5.45-.06.47-.04.99-.68,1.3-1.17.52-.83.11-2.06-1.31-2.39-1.73-.39-3.61-.09-5.43-.09,0-.61-.26-1.47.04-1.79,2.96-3.06,6.01-6.03,9.11-9.11.44-.06,1.02-.15,1.6-.22,3.53-.48,5.22-3.21,3.64-5.96-.29-.51-.8-.93-1.28-1.29-1.22-.9-1.83-1.8-1.39-2.58,1.17-2.08,3.23-1.05,5.05-1.32,4.65-4.67,9.36-9.42,14.12-14.13.21-.21.93-.17,1.24.03.48.31,1.15.84,1.17,1.3.1,3.04.05,6.09.03,9.95.15.33.18-.68,0-.75-1.19-.47-2.09.01-2.88.94-.75.88-.64,1.62.73,2.32.25.12.82-.21,1.13-.46.41-.33.84-.75,1.02-2.04Z"/>
        <path class="cls-1" d="M100.19,215.01v5.32c1.3,2.71,4.11,1.68,5.45,2.31,2.28,2.1,4.04,3.72,5.69,5.23v3.84c.97.62,1.86,1.56,2.89,1.76,2.28.44,4.73-.48,6.96.68,1.26.66,1.66,1.72,1.25,3.09h-9.37c-1.56,1.67-3.22,3.44-5.12,5.46.92,1.09,1.96,2.34,3.02,3.6-.67.64-1.38,1.91-2.16,1.96-3.6.22-7.22.1-10.46.1-2.09-2.09-3.82-3.82-5.55-5.55v-3.64c-1.25-1.32-2.5-2.63-3.66-3.87v-3.61c1.42-3.2,6.03-.34,7.08-3.87-1.21-1.38-2.38-2.71-3.45-3.94.16-1.38.29-2.55.41-3.61,1.77-1.8,3.44-3.58,5.24-5.22.33-.3,1.18-.04,1.79-.04ZM104.51,232.3c.41.41,1.06,1.25,1.2,1.17,1.3-.71,1.74-1.62,1.25-2.39-.3-.48-1.04-1.26-1.18-1.18-1.3.71-1.68,1.58-1.27,2.4Z"/>
        <path class="cls-1" d="M40.9,318.77v-5.72c-2.44-1.11-4.97-2.26-7.4-3.37v-3.83c1.27-1.35,2.51-2.65,3.63-3.84v-3.6c-1.42-3.24-6.05-.32-7.08-3.99,1.72-1.72,3.44-3.44,5.21-5.21,1.27,1.21,2.49,2.48,3.86,3.58.37.3,1.18.05,1.79.05v5.51c1.5,3.14,6.01.63,7.4,3.93.16,1.76-.56,3.74,1.42,4.95,1.3-1.01,2.54-2.13,3.97-2.9.22-.12,1.88,1.39,1.93,2.2.22,3.6.1,7.22.1,10.61-3.89,2.16-3.97,6.08-4.49,9.06h-10.34v-3.71c1.36.41,2.43.02,3.06-1.23.66-1.29-.4-2.13-3.06-2.48Z"/>
        <path class="cls-1" d="M526.35,454.03c-1.68,1.68-3.36,3.36-5.03,5.03-1.66.72-3.39.96-4.86-.16-1.87-1.43-3.55-3.12-4.92-4.34v-4.26c2.88-3.33,6.42-1.58,9.76-1.32,1.68,1.68,3.36,3.36,5.05,5.05Z"/>
        <path class="cls-1" d="M161.27,229.9c-1.73-.22-3.15.01-4.02-.58-1.98-1.36-3.69-3.12-5.45-4.66,2.73-3.57,6.07-1.69,9.25-2.31,1.13-.99,2.48-2.17,3.92-3.43,1.06-.06,2.27-.25,3.46-.15.49.04,1.03.6,1.37,1.06.24.31.4,1.06.22,1.25-2.97,3.06-6,6.06-8.76,8.82Z"/>
        <path class="cls-1" d="M122.43,211.3c-.6,0-1.44-.25-1.75.04-1.27,1.22-2.38,2.6-3.75,4.16-1.45-1.7-2.61-3.05-3.59-4.2h-5.73c-.39-1.34,0-2.35,1.18-3.03,2.66-1.52,5.67-.03,8.28-.97,1.34-1.21,2.62-2.35,3.79-3.41h8.98v3.71c-1.67,0-3.42-.31-4.99.09-1.58.4-2.82,1.6-2.42,3.62Z"/>
        <path class="cls-1" d="M33.49,329.89h-5.43c-2.28-1.63-2.72-3.89-1.34-6.08,1.26-2.01,3.12-3.63,4.37-5.03h9.81v3.71c-1.14,0-2.29-.02-3.43,0-2.97.05-3.92,1.01-3.97,3.97-.02,1.14,0,2.29,0,3.43Z"/>
        <path class="cls-1" d="M203.95,189.07v5.28c-1.45,2.46-4.08,3.06-5.82,1.6-2.3-1.94-4.42-3.47-7.48-3.56-.43-.01-.84-.78-1.26-1.2.71-.71,1.39-1.99,2.14-2.03,4.13-.2,8.28-.1,12.42-.1Z"/>
        <path class="cls-1" d="M124.34,226.13c3.57,0,7.21-.18,10.82.1,1.34.1,1.9,1.44,1.5,2.29-.24.52-.82.87-1.26,1.31h-14.51c-2.92-2.18-3.04-3.29-.42-7.33,1.28,1.21,2.56,2.4,3.86,3.63Z"/>
        <path class="cls-1" d="M315.12,114.96h5.22c2.52,1.37,2.5,3.52,1.87,5.88-1.63,1.63-3.29,3.29-4.95,4.95-.71-.68-1.99-1.31-2.05-2.05-.24-2.91-.1-5.85-.1-8.78Z"/>
        <path class="cls-1" d="M585.64,422.52c3.65-.02,4.57,3.67,7.07,5.22-.89,2.27-3.02,3.47-4.54,5.18-.21.24-.94.28-1.25.1-.51-.29-1.21-.83-1.23-1.28-.11-3.06-.06-6.14-.06-9.22Z"/>
        <path class="cls-1" d="M100.19,215.01c-.41-2.01.83-3.22,2.42-3.62,1.57-.4,3.32-.09,4.99-.09,0,.57-.24,1.33.04,1.68,1.06,1.31,2.29,2.49,3.45,3.72-1.19,2.51-3.36,2.15-5.49,1.83-1.25-1.18-2.43-2.41-3.74-3.48-.34-.28-1.11-.04-1.68-.04Z"/>
        <path class="cls-1" d="M800.58,311.36v-6.11c-.99-.86-2.41-1.97-3.66-3.25-.3-.31-.04-1.16-.04-1.76h5.47c.44.41,1.11.74,1.28,1.24.93,2.86,1,4.95.03,8.59-.36,1.36-1.68,1.71-3.07,1.28Z"/>
        <path class="cls-1" d="M548.59,405.85c2.45-2.64,4.91-2.66,7.52.11-1.28,1.21-2.68,2.33-3.81,3.66-1,1.17-1.7,1.63-2.55,1.1-1.14-.72-1.49-1.73-1.17-3.09.13-.56.02-1.18.02-1.78Z"/>
        <path class="cls-1" d="M856.16,198.19c-3.5,2.77-3.52,2.74-7.34.24,1.2-1.25,2.46-2.43,3.55-3.75.95-1.15,1.72-1.7,2.53-1.3,1.28.63,1.63,1.66,1.29,3.03-.14.56-.02,1.18-.02,1.77Z"/>
        <path class="cls-1" d="M593.05,3.78c.76-3.7,1.89-4.38,5.87-3.35.48.12.97.71,1.17,1.21.12.28-.26.86-.55,1.18-.36.39-.85.89-1.32.92-1.72.11-3.45.04-5.17.04Z"/>
        <path class="cls-1" d="M533.7,448.47c2.3.02,3.81,1.17,3.17,2.44-.64,1.28-1.67,1.64-3.05,1.29-.56-.14-1.28.17-1.77-.06-1.33-.64-1.83-1.57-1.38-2.39.27-.5.75-1.02,1.26-1.23.51-.21,1.17-.05,1.77-.05Z"/>
        <path class="cls-1" d="M711.64,333.59c-1.73,0-3.49.22-5.16-.1-.75-.14-1.93-1.49-1.81-2.04.27-1.21,1.51-1.72,2.68-1.55,1.06.15,2.17.32,3.14.74,1.2.53,1.52,1.64,1.15,2.95Z"/>
        <path class="cls-1" d="M4.25,375.83c-.07-.14.93-1.14,1.07-1.07.8.44,1.8.93,2.17,1.68.76,1.55,0,2.32-1.56,1.56-.75-.37-1.24-1.36-1.68-2.17Z"/>
        <path class="cls-1" d="M15.37,331.36c-.07-.14.93-1.14,1.07-1.07.8.44,1.8.93,2.17,1.68.76,1.55,0,2.32-1.56,1.56-.75-.37-1.24-1.36-1.68-2.17Z"/>
        <path class="cls-1" d="M19.28,323.71c.41-.41,1.06-1.25,1.2-1.17,1.3.71,1.74,1.62,1.25,2.39-.3.48-1.04,1.26-1.18,1.18-1.3-.71-1.68-1.58-1.27-2.4Z"/>
        <path class="cls-1" d="M29.16,308.89c.41.82.03,1.69-1.27,2.4-.14.08-.88-.7-1.18-1.18-.49-.78-.05-1.68,1.25-2.39.14-.08.79.76,1.2,1.17Z"/>
        <path class="cls-1" d="M31.42,363.28c.47.16.89.6,1.22,1,.26.31.59.89.46,1.13-.69,1.37-1.44,1.48-2.32.73-.93-.79-1.41-1.69-.94-2.88.08-.19,1.08-.16,1.57.01Z"/>
        <path class="cls-1" d="M48.31,278.01c.49-2.96.75-3.22,3.71-3.71v3.71h-3.71Z"/>
        <path class="cls-1" d="M55.72,296.54c-2.96-.49-3.22-.75-3.71-3.71,2.96.49,3.22.75,3.71,3.71Z"/>
        <path class="cls-1" d="M75.89,278.05c.47.16.89.6,1.22,1,.26.31.59.89.46,1.13-.69,1.37-1.44,1.48-2.32.73-.93-.79-1.41-1.69-.94-2.88.08-.19,1.08-.16,1.57.01Z"/>
        <path class="cls-1" d="M124.06,237.28c.47.16.89.6,1.22,1,.26.31.59.89.46,1.13-.69,1.37-1.44,1.48-2.32.73-.93-.79-1.41-1.69-.94-2.88.08-.19,1.08-.16,1.57.01Z"/>
        <path class="cls-1" d="M142.19,229.22c-.41-.41-1.25-1.06-1.17-1.2.71-1.3,1.62-1.74,2.39-1.25.48.3,1.26,1.04,1.18,1.18-.71,1.3-1.58,1.68-2.4,1.27Z"/>
        <path class="cls-1" d="M141.57,212.54c.41-.41,1.06-1.25,1.2-1.17,1.3.71,1.74,1.62,1.25,2.39-.3.48-1.04,1.26-1.18,1.18-1.3-.71-1.68-1.58-1.27-2.4Z"/>
        <path class="cls-1" d="M149.6,245.27c.82-.41,1.69-.03,2.4,1.27.08.14-.7.88-1.18,1.18-.78.49-1.68.05-2.39-1.25-.08-.14.76-.79,1.17-1.2Z"/>
        <path class="cls-1" d="M155.74,483.46c-.16.47-.6.89-1,1.22-.31.26-.89.59-1.13.46-1.37-.69-1.48-1.44-.73-2.32.79-.93,1.69-1.41,2.88-.94.19.08.16,1.08-.01,1.57Z"/>
        <path class="cls-1" d="M157.01,214.39c-.41-.41-1.25-1.06-1.17-1.2.71-1.3,1.62-1.74,2.39-1.25.48.3,1.26,1.04,1.18,1.18-.71,1.3-1.58,1.68-2.4,1.27Z"/>
        <path class="cls-1" d="M168.53,485.57c.47.16.89.6,1.22,1,.26.31.59.89.46,1.13-.69,1.37-1.44,1.48-2.32.73-.93-.79-1.41-1.69-.94-2.88.08-.19,1.08-.16,1.57.01Z"/>
        <path class="cls-1" d="M266.95,485.53c-.35,2.66-1.19,3.72-2.48,3.06-1.25-.63-1.63-1.7-1.23-3.06h3.71Z"/>
        <path class="cls-1" d="M285.44,487.17c-.16.47-.6.89-1,1.22-.31.26-.89.59-1.13.46-1.37-.69-1.48-1.44-.73-2.32.79-.93,1.69-1.41,2.88-.94.19.08.16,1.08-.01,1.57Z"/>
        <path class="cls-1" d="M502.05,452.22c.47.16.89.6,1.22,1,.26.31.59.89.46,1.13-.69,1.37-1.44,1.48-2.32.73-.93-.79-1.41-1.69-.94-2.88.08-.19,1.08-.16,1.57.01Z"/>
        <path class="cls-1" d="M593.02,5.42c-.16.47-.6.89-1,1.22-.31.26-.89.59-1.13.46-1.37-.69-1.48-1.44-.73-2.32.79-.93,1.69-1.41,2.88-.94.19.08.16,1.08-.01,1.57Z"/>
        <path class="cls-1" d="M599.23,426.86c.41.41,1.25,1.06,1.17,1.2-.71,1.3-1.62,1.74-2.39,1.25-.48-.3-1.26-1.04-1.18-1.18.71-1.3,1.58-1.68,2.4-1.27Z"/>
        <path class="cls-1" d="M652.35,511.47c-2.66-.35-3.72-1.19-3.06-2.48.63-1.25,1.7-1.63,3.06-1.23v3.71Z"/>
        <path class="cls-1" d="M652.35,366.95c.35-2.66,1.19-3.72,2.48-3.06,1.25.63,1.63,1.7,1.23,3.06h-3.71Z"/>
        <path class="cls-1" d="M707.89,383.41c-.16.47-.6.89-1,1.22-.31.26-.89.59-1.13.46-1.37-.69-1.48-1.44-.73-2.32.79-.93,1.69-1.41,2.88-.94.19.08.16,1.08-.01,1.57Z"/>
        <path class="cls-1" d="M710.16,378.47c.14-.07,1.14.93,1.07,1.07-.44.8-.93,1.8-1.68,2.17-1.55.76-2.32,0-1.56-1.56.37-.75,1.36-1.24,2.17-1.68Z"/>
        <path class="cls-1" d="M800.54,313c-.16.47-.6.89-1,1.22-.31.26-.89.59-1.13.46-1.37-.69-1.48-1.44-.73-2.32.79-.93,1.69-1.41,2.88-.94.19.08.16,1.08-.01,1.57Z"/>
        <path class="cls-1" d="M800.58,470.71c0,1.76,0,3.51,0,5.27-.82.71-1.58,1.93-2.47,2.04-2.28.29-4.63.1-6.79.1-.57-.57-1.41-1.11-1.34-1.38.81-2.83,3.44-4.11,5.24-6.03h5.36Z"/>
        <path class="cls-1" d="M774.57,504.06c2.3.02,3.81,1.17,3.17,2.44-.64,1.28-1.67,1.64-3.05,1.29-.56-.14-1.28.17-1.77-.06-1.33-.64-1.83-1.57-1.38-2.39.27-.5.75-1.02,1.26-1.23.51-.21,1.17-.05,1.77-.05Z"/>
        <path class="cls-1" d="M770.93,513.32c.82-1.24,1.68-1.7,2.46-1.21.48.3,1.26,1.04,1.18,1.18-.71,1.3-1.62,1.74-2.39,1.25-.48-.3-.84-.8-1.25-1.21Z"/>
        <g>
          <path class="cls-1" d="M858.92,608.23c5.26-1.92,5.46-1.99,8.88-6.44.05-.06-.81-.82-1.37-1.39-1.7,0-3.44-.01-5.17-.01.05-.12.08-.25.14-.37-.62-.49-1.25-1.56-1.43-2.33-.25-1.04,0-2.45.55-3.39.88-1.49,2.19-2.72,3.15-3.86-.4-2.77.61-5.26-.83-7.45-2.21-2.21-4.39-4.39-6.62-6.62v-3.86c-1.7-1.54-3.52-3.19-5.59-5.06-1.03.87-2.29,1.93-3.67,3.09-1.2-1.08-2.49-2.25-3.84-3.47h-3.56c-1.32,1.24-2.65,2.48-3.94,3.69-1.28-.06-2.49-.11-3.56-.16-1.36-1.17-2.63-2.27-3.78-3.27-1.57,1.31-2.93,2.45-3.98,3.33-3.3.59-6.66-1.26-8.9,1.96v5.54c1.28-.36,2.19.05,2.96,1.08,1.13,1.49,1.1,3.28.43,4.65-.7,1.44-2.28,2.43-3.34,3.73-.28.34-.04,1.1-.04,1.66,2.01-.41,3.22.83,3.62,2.42.4,1.57.09,3.32.09,4.99h9.22c3.14-1.5.6-6.04,3.79-7.33h3.62c1.49,1.33,2.83,2.53,4.06,3.63,1.43,0,2.67-.03,3.89,0q4.73.14,5.07,5.37c1.17,1.25,2.41,2.58,3.62,3.88-1.15,1.26-2.33,2.55-3.44,3.76,1.16,1.36,2.24,2.62,3.15,3.68-1.24,1.69-2.45,3.03-3.27,4.58-.52.98-.45,2.26-.65,3.41-2.18,2.17-4.35,4.35-6.65,6.65,1.13,1.27,2.27,2.55,3.56,4.01-1.73,1.56-3.53,3.19-5.7,5.14-5,1.38-6.17.09-5.13,6.14.98,1.29,3.3,2.13,2.76,3.87-.7,2.23-3.13,1.17-4.81,1.39-1.74-1.14-1.9-2.83-2.06-4.7-.08-.91-1.23-1.72-1.9-2.57-2.18,2.18-4.35,4.35-7.01,7.01-1.85.1-4.21.23-6.93.37-1.22-.97-2.6-2.06-4.34-3.43-1.05.86-2.29,1.87-3.85,3.14h-14.65c-1.02-.9-2.36-2.09-3.78-3.35-1.07-.06-2.28-.12-3.6-.19-1.25-1.19-2.51-2.51-3.91-3.65-.35-.28-1.1-.03-1.72.69-.02.12-.05.2-.11.08-.18,1.29-.62,1.71-1.02,2.04-.31.26-.89.59-1.13.46-1.37-.69-1.48-1.44-.73-2.32.79-.92,1.68-1.4,2.85-.94-.05-.91-.14-1.58.1-1.88,1.08-1.37,2.34-2.59,3.55-3.89-2.54-2.92-5.86-1.09-8.67-1.8-.92-.23-2.02-1.45-2.24-2.4-.41-1.77-.13-3.63,1.76-4.86h3.48q1.97-1.75,2.07-8.79c-.93-1.13-2.05-2.51-3.24-3.96.39-1.94,1.89-2.28,3.7-2.12,1.28.11,2.29-.44,3.03-1.64.07-1.2.14-2.41.22-3.72-1.19-1.28-2.44-2.61-3.71-3.98v-9.19h-5.58c-1.71,1.73-3.44,3.48-5.19,5.26q-.84,5.31-6.1,6.21c-1.89,1.81-3.66,3.51-5.38,5.15v8.63c-2.26,1.76-5.15,4-6.86,5.34-1.97,5.77,4.33,6.98,3.17,11.09,1.16,2.94,3.74,4.57,5.89,6.48,1.3.11,2.86-.24,3.61.39,3.29,2.74,6.34,5.76,8.95,8.2.2,2.69-.44,4.67,1.91,6.06h10.58c1.43,1.26,2.78,2.45,4.24,3.74,1.66.64,4.67-1.04,5.06,2.54l-2.65,2.65c.4,3.57,3.41,1.9,5.03,2.53,1.41,1.2,2.68,2.28,3.81,3.24,1.6-1.32,2.97-2.45,4.13-3.41,3.97.24,7.63-.5,11.19.62.87.87,1.62,1.94,2.63,2.57,2.88,1.79,5.75.22,5.99-3.52.08-1.29.37-2.33,1.85-3.2h7.01c1.41-1.27,2.75-2.48,4.2-3.8h3.42c1.4-1.29,2.73-2.53,4.1-3.79h10.98c1.46-.9,1.82-1.8,1.01-2.63-.4-.41-.89-.91-1.41-1.01-1.17-.22-2.54.11-3.54-.37-1.97-.96-1.61-3.01-1.62-4.98,1.13-1.24,2.35-2.58,3.66-4.01v-10.86c.83-.91,1.61-1.77,2.41-2.64.34.31.66.59.99.92,1.76-.57,3.39-1.1,4.97-1.61v-7.91c-.87-.93-1.86-1.98-2.84-3.03.26-1.93.56-3.9.98-5.9Z"/>
          <path class="cls-1" d="M780.16,589.34c.52.21.89.81,1.32,1.25,1.3,1.3,2.6,2.6,4.09,4.08v6.8c1.85,2.49,3.45,4.82,6.26,5.83.9-.9,1.76-1.76,2.67-2.67,1.96-.93,4.85.14,6.08-2.75.05-1.08.1-2.28.16-3.43,3.06-3.07,6.06-6.14,9.16-9.12.32-.31,1.19-.04,1.8-.04v-6.11c.99-.86,2.41-1.97,3.66-3.25.3-.31.04-1.16.04-1.76-.62,0-1.48.27-1.81-.04-2.64-2.49-5.19-5.09-7.65-7.54-3.91,1.64-4.99-2.78-6.91-2.88-2.43,1.91-4.35,3.41-5.93,4.64.14,1.87-.08,3.22.41,4.22.7,1.44,3.24,2.2,2.73,3.91-.67,2.21-3.11,1.21-4.83,1.41-1.34-1.25-2.67-2.49-4.01-3.72-1.75.15-3.75-.56-5.09,1.72,1,1.18,2.08,2.44,3.08,3.6-.82,3.16-3.9,1.5-5.76,2.63-1.26.76-1.73,1.76-1.29,3.17.61,0,1.3-.17,1.82.05ZM789.46,587.47c1.15-1.61,2.74-2.02,4.6-1.89,2.27.16,4.78-.63,6.56,2.01-1.28,1.09-2.61,2.23-3.67,3.14-.3,2.09.64,4.05-1.25,5.3-.82.54-1.54,0-2.56-1.14-1.18-1.32-2.63-2.39-3.67-3.3v-4.12Z"/>
          <path class="cls-1" d="M864.99,609.69c-1.17-.18-2.39-.17-3.56,0-.48.07-.97.67-1.28,1.14-.2.31-.24.89-.1,1.23.8,1.91,4.87,1.98,6.1.08.2-.31.08-.83.11-1.25-.42-.42-.8-1.14-1.27-1.21Z"/>
          <path class="cls-1" d="M817.3,596.74c-3.1,2.98-6.11,6.05-9.15,9.1.84.65,1.71,1.9,2.54,1.87,2.87-.1,6.16,1.27,8.41-1.79v-9.22c-.61,0-1.48-.27-1.8.04Z"/>
          <path class="cls-1" d="M812.92,592.35c1.29.66,2.13-.4,2.48-3.06h-3.7c-.41,1.36-.02,2.43,1.23,3.06Z"/>
        </g>
      </g>
      <g>
        <path class="cls-1" d="M695.05,99.06c-.29.05-.52.09-.79.13.19.1.42.1.79-.13Z"/>
        <path class="cls-1" d="M703.39,110.31c-.41-2.39-.82-4.78-1.2-7-2.2-1.56-4.22-2.99-7.14-4.25-1.04,3.93-2.04,4.79-6.13,4.45-.49-.04-1.07-.54-1.36-.99-.16-.25.11-.89.34-1.25.29-.45.69-1.03,1.14-1.13,1.49-.35,3.05-.58,5.22-.95-.77-.4-.41-2.95-1.95-2.87-2.93.15-5.86.28-8.52.4-2.81-1.99-5.33-3.77-7.91-5.6-3.57.61-7.2,1.24-11.22,1.93-1.14,1.81-2.45,3.88-3.91,6.2.53,2.79-.32,5.52-2.74,7.88.4,2.33.81,4.73,1.22,7.13-1.04,1.59-2.03,3.11-3.06,4.7.61,3.56,1.24,7.2,1.85,10.8-1.03,1.56-2.03,3.08-2.99,4.55.28,1.26.55,2.44.81,3.63,4.1,2.93,4.11,2.96,2.89,4.56-1.89.74-3.5,1.37-4.8,1.88-.28,1.1-.55,1.65-.53,2.2.1,2.9,2.21,5.99-.51,8.63-2.39,2.33.25,6.04-2.53,8.23-1.75,1.37-1.01,3.3-.71,5.22,1.35,1.04,2.79,2.15,4.23,3.26-2.86,4.57-6.52,8.69-8.69,12.68.19,3.38.33,5.77.47,8.15-3.92,2.75-.63,8.46-4.63,11.32-.49.35.14,2.27.27,3.63-.91,1.41-1.9,2.94-2.94,4.55.4,2.31.81,4.73,1.22,7.13-1.02,1.56-2.02,3.08-3.06,4.67.62,3.59,1.24,7.22,1.81,10.54-1.05,2.38-3.46,3.83-2.57,6.77.61,2.03-1.58,3.13-2.09,4.77-.66,2.14-.81,4.45-1.15,6.53-4.09.7-7.74,1.33-11.37,1.95-1.89-1.58-2.01-2.95-.27-3.68.55-.23,1.23-.16,1.81-.34,2.91-.94,2.93-.98,2.44-5.76-1.34-1.05-2.76-2.16-4.3-3.36-.39-2.27-.81-4.69-1.21-7.06-1.46-1.14-2.86-2.25-3.98-3.13,1.22-3.57,4.58-5.73,5.37-8.76-.51-2.97-.91-5.33-1.27-7.41-2.83-2-5.35-3.78-8.04-5.68.89-1.44,1.78-2.89,2.76-4.49-.18-1.03-.38-2.23-.64-3.72-3.37-2.27-6.94-4.67-10.62-7.15-.93,1.19-2,2.58-3.05,3.91-1.43-.91-2.9-1.85-4.37-2.79-.43.61-.74,1.17-1.16,1.61-.72.75-1.52,2.04-2.27,2.02-1.39-.03-2.04-1.3-1.91-2.71.13-1.45-.39-2.73-1.74-2.88-2.12-.23-2.24,2.14-3.47,3.19-4.2.15-1.6-5.42-5.57-6.12-4.26.73-9.1,1.53-13.92,2.44-.46.09-.81.82-1.98,2.1,1.59,5.72,1.62,12.41,3.92,18.72.17.48.96.73,1.49,1.1.58-.1,1.24-.09,1.78-.33,1.35-.59,2.49-.43,3.33.76.52.74.03,1.68-.97,2.83-1.18,1.35-2.22,2.82-2.62,3.33-2.5,1.34-4.01,2.15-5.46,2.93.27,1.6.48,2.8.7,4.07,1.36,1.05,2.81,2.16,4.29,3.3.2,1.17.41,2.37.59,3.42,1.45,1.16,2.79,2.23,4.12,3.3-.46.65-.72,1.41-1.2,1.61-1.1.45-2.4.44-3.46.95-1.29.63-1.64,1.66.13,6.4-.71-2.4,2.27-2.68,1.58-.4-.63,2.09-3.07,1.44-4.47,2.08-1.23,1.53-2.36,2.93-3.19,3.97-1.05.18-2.01.34-3,.52-.11-1.06-1.31-3.29-2.63-5.48-.51-.85-2.52-1.85-2.85-1.57-2.36,1.94-2.57-2.07-4.33-1.39-1.08.41-2.17.97-3.29,1.08-1.04.1-2.93-.1-3.03-.52-.32-1.27.52-2.36,1.65-2.86,1.67-.75,3.4-2.28,2.32-3.69-1.05-1.38-2.67-.41-4.18.46-.07-1.26-.4-3.02-.79-4.8-.21-.97-1.79-2.56-2.2-2.41-2.86,1.08-1.77-2.78-3.66-2.71-.02,0-.05,0-.07,0-.17-1.32-.5-2.85-.96-4.58.63-.45.99-1.06.72-1.86-.24-.71-.76-.96-1.36-1.08.08-.78.14-1.62.17-2.54.3-.14.27-.64.02-1.38.01-1.63-.02-3.4-.15-5.49,2.47,2.61,1.66-1.6.55-5.73-.25-.96-1.91-2.47-2.3-2.31-2.81,1.21-1.9-2.7-3.78-2.54-.98.08-1.99.22-2.96.14-.33-.58-.68-1.16-1.04-1.76-.25-.42-.88-.86-1.48-1.18.44-.38,1.02-.63,1.62-.71,1.81-.26,3.9-1.24,3.25-2.9-.74-1.9-3.15-.88-5.04-.52-1.45-.85-3.01-1.75-4.57-2.66-.98,1.38-2,2.8-2.98,4.16-.85-.48-1.72-.96-2.57-1.44,1.62-.78,3.21-2.26,2.14-3.63-1.26-1.61-3.27.06-4.98.95-1.63-.4-3.38-.82-5.14-1.25-.55,1.6-1.12,3.25-1.66,4.84-1.67-.38-3.33-.75-5.07-1.15.77,4.62-4.77,5.29-5.24,9.01,3.33,1.07,6.66,2.15,9.87,3.18-.36,1.8-.67,3.41-.99,5,.5.14.97.27,1.44.41-1.36,1.2-2.87,2.29-3.12,4.15,3.32,1.1,6.64,2.2,9.84,3.26-.37,1.8-.7,3.4-1.03,4.99.79.23,1.53.45,2.23.69-.18.56-.32,1.14-.46,1.72-.05.08-.12.14-.16.22.03.02.06.04.09.06-.04.18-.11.35-.14.54.54.99,1.13,2.04,1.73,3.14.56.11,1.05.2,1.48.27.1.46.19.89.3,1.37,2.65,1.36,3.54,1.78,4.8.9-.92,1.57-1.74,2.97-2.56,4.37.6.41,1.17.8,1.7,1.2-.16.54-.34,1.07-.45,1.63.54.99,1.11,2.05,1.71,3.16.88.17,1.55.29,2.13.37.08.11.17.23.26.34-.14.05-.28.07-.43.15-.59.1-1.3.02-1.74.34-1.2.86-1.54,1.86-.96,2.59.35.45.91.88,1.45,1,.54.12,1.17-.15,1.75-.25,1.26-.23,2.16-.77,2.62-1.39.09.08.18.16.27.24-.75,3.26-3.59,5.56-5.37,8.63.19,1.11.39,2.3.61,3.54.04.02.06.03.09.05.03.19.07.39.06.58-.11,1.42.42,2.37,1.78,2.77.87.26,1.54-.42,2.28-1.71.08-.14.18-.26.26-.39.71-.36,1.51-1.13,2.8-2.38-.08-.48-.17-.96-.25-1.44.02-.02.03-.05.05-.07-.02-.01-.04-.02-.07-.03-.12-.69-.24-1.38-.36-2.07.84-.78,1.55-1.91,2.54-2.27.03-.01.05,0,.08-.02,1.47.49,2.95.98,4.39,1.45.21.45.42.93.57,1.56,0,0,0,0,0,0-.11-.45-.68-.84-1.13-1.13-.36-.23-1-.5-1.25-.34-.45.29-.95.87-.99,1.36-.3,3.68.38,4.85,3.27,5.14-.25.34-.5.66-.75,1-1.22.27-2.4.53-3.59.79-1.42,2.01-2.85,4.03-4.33,6.13.61,3.55,1.23,7.18,1.88,10.95,1.33,1,2.78,2.1,4.26,3.23.41,2.4.83,4.82,1.23,7.14,1.52,1.17,2.95,2.28,4.35,3.36-.02.11-1.93,8.06-1.93,8.06q3.6,2.62.86,6.68c1.27,1.05,2.57,2.12,4.04,3.34.79,4.61,1.62,9.45,2.45,14.28,1.5,1.14,2.95,2.24,4.44,3.37.2,1.16.41,2.37.6,3.49,1.51,1.16,3.76,2.02,4.16,3.34,1.45,4.8,1.27,4.89,6.3,4.33,1.41.9,2.93,1.88,4.47,2.86,1.06-1.37,2.17-2.78,3.21-4.12,2.49-.43,4.9-.84,7.11-1.22,1.62.98,3.06,1.86,4.49,2.73,1.91-2.71,3.69-5.22,5.47-7.74.45.02.98-.12,1.32.08,1.05.63,1.95,1.6,3.06,2.06,2.16.89,5.11-.87,5.35-3.13.12-1.16-.07-2.36-.11-3.53,1.78-2.52,3.56-5.04,5.51-7.79-.58-3.39-1.2-6.98-1.82-10.58,1.01-1.64,1.95-3.17,2.95-4.8-.12-1.06-.26-2.26-.4-3.47,1.7-2.42,2.73-5.38,5.54-6.88,1.86-.32,3.67-.71,5.51-.92,1.54-.18,2.59.88,3.2,3.51.3,1.27.74,2.25,2.38,2.87,8.19-1.41,16.66-2.86,25.14-4.32,1.61,1.01,3.14,1.98,4.7,2.96,2.98-1.8-.38-5.84,2.51-7.67,1.49.92,2.94,1.82,4.22,2.61,1.37-1.48,2.36-3.27,3.85-3.97,1.61-.76,3.48-.86,4.36-2.79-.41-2.38-.83-4.81-1.24-7.23.85-.79,1.57-1.94,2.56-2.28,1.72-.6,3.63-.64,5.44-1.04,1.6-.36,2.37-2.05,1.97-4.34-.31-1.8-.62-3.6-.9-5.23,2.63-3.73,5.17-7.22,7.59-10.8.63-.93.87-2.12,1.29-3.19-.31-1.83-.63-3.66-.99-5.76.81-1.35,1.73-2.88,2.75-4.57-1.26-1-2.62-2.07-4-3.16.88-3.3,5.82-1.55,6.56-5.11-.15-1.2-.3-2.4-.44-3.48,1-1.61,1.96-3.14,2.97-4.78-.41-2.39-.82-4.77-1.2-6.97,1.51-2.16,2.82-3.88,2.62-6.72-.14-2.05,1.63-4.23,2-5.09.63-3.68-1.23-5.95.07-8.43,1.76-2.49,3.54-5.01,5.35-7.56-.2-1.18-.41-2.38-.8-4.66,1.96-2.16,4.42-4.88,6.5-7.19-.78-4.55-1.4-8.15-2-11.65,2.7-2.33,2.91-5.26,2.72-8.29,1.79-2.53,3.57-5.05,5.47-7.74-1.22-7.11-2.47-14.36-3.72-21.68,2.06-3.07,4.08-6.1,6.06-9.06-.43-2.48-.84-4.9-1.23-7.15-1.55-1.22-2.97-2.34-4.47-3.52ZM559.91,253.66s-.07.01-.11.02c-.01-.03-.02-.05-.03-.08.06.03.08.03.14.06ZM524.46,210.95c.21-.26.44-.47.7-.62-.01.04-.03.09-.04.13-.17.25-.4.39-.66.49ZM530.77,238.78c.62-1.05,1.42-1.68,2.68-1.41,0,0,0,0,0,0-.17-.84-.17-1.56.01-2.13.16.21.32.35.48.6.38.61.75,1.12,1.23,1.48-.52.17-1.02.39-1.51.73,0,.09-.03.14-.09.05.04,1.3-.32,1.79-.66,2.18-.26.3-.78.73-1.04.65-1.47-.45-1.71-1.17-1.11-2.16ZM536.36,242.61c-.1-.13.54-.98.97-1.36.26-.23.56-.29.88-.27-.29.82-.58,1.64-.86,2.43-.06-.01-.13-.03-.19-.04-.26-.18-.53-.42-.8-.76ZM549.81,249.57c.88-.81,2.05-1.31,5.43.75-.58.14-.98.67-1.48,1.13-.78.72-1.77,1.22-2.67,1.91-.93-.52-1.55-.62-2.16-.28-.54-1.51-.03-2.67.88-3.5ZM540.13,235.77c-.6-.06-1.14.32-1.76.59-.29.13-.6.22-.91.31.39-.82.67-1.73.83-2.75.53.42,1.13,1,1.84,1.85ZM533.24,208.19c-.6-.03-1.12.37-1.73.67-.63.31-1.32.51-2.02.72-.35-1.1-.74-2.26-1.21-3.53,1.32.76,1.69.48,1.55-.33.83.16,1.89.8,3.42,2.47ZM540.24,276.03c-2.02.77-3.45-.31-4-1.93-.72-2.14-.86-4.48-1.21-6.57.46-.66.95-1.58,1.11-1.53,3.09,1.01,6.09,2.19,7.14,5.75.89.03,1.58.11,2.14.24-.4,1.16-.81,2.34-1.06,3.57.52.97,1.08,2,1.67,3.08-.28.12-.56.24-.93.33-2.85.66-3.62.19-4.85-2.93ZM555.24,272.16c-.2-.32-.26-.89-.11-1.23.22-.52.6-1.19,1.07-1.34.4-.13.83-.12,1.25-.21.27.31.55.58.82,1.02.57.91,1.11,1.62,2.1,1.88-1.52,1.15-4.24,1.28-5.12-.11ZM584.69,260.95c.13-.1.9.61,1.38.95.54.74.31,1.67-.85,2.59-.13.1-.98-.54-1.36-.97-.61-.68-.33-1.65.83-2.57ZM589.52,303.92c-.34.48-.83,1.41-.98,1.35-1.4-.48-1.99-1.3-1.64-2.15.22-.52.81-1.42.96-1.36,1.4.48,1.93,1.27,1.66,2.15ZM589.1,286.04c-2.61-1.6-4.59-2.81-6.57-4.01.51-.72.74-1.42,1.21-1.65,2.62-1.28,5.4-1.85,8.3-1.37.52.09.97.65,1.58,1.08-1.42,1.86-2.83,3.72-4.53,5.96ZM607.78,282.59c-.68.61-1.65.33-2.57-.83-.1-.13.61-.9.95-1.38.74-.55,1.66-.31,2.58.85.1.13-.54.98-.96,1.36ZM620.53,269.14c-.74.54-1.67.31-2.59-.85-.1-.13.54-.98.97-1.36.68-.61,1.65-.33,2.57.83.1.13-.61.9-.95,1.38ZM689.47,167.05c-.68.61-1.65.33-2.57-.83-.1-.13.61-.9.95-1.38.74-.55,1.67-.31,2.58.85.1.13-.54.98-.96,1.36Z"/>
        <path class="cls-1" d="M319.82,253.9c-.39-.19-1.07.28-1.47,1.15.02.12,0,.21-.08.11.18,1.29-.12,1.81-.41,2.25-.23.33-.69.81-.96.76-1.51-.28-1.83-.97-1.35-2.02.5-1.11,1.23-1.83,2.5-1.7.02,0,.05.05.07.08-.21-.97-.3-1.69-.61-1.87-3.73-2.16-7.53-4.2-11.4-6.32-4.63,1.34-9.35,2.71-14.46,4.19-1.79,3.53-3.73,7.36-5.85,11.56.13.64.38,1.81.67,3.21-1.6,3.07-3.27,6.3-4.97,9.57,2.39,8.25,4.79,16.52,7.16,24.69-.66,2.12-2.44,2.5-4.1,3.24-.76.33-1.7,2.05-1.44,2.52.66,1.18,1.99.93,3.24.77,4.81-.61,5.81.98,4.23,6.35-1.55.8-3.81.37-4.51,2.95-.39,2.24,1.18,4.38,1.38,6.75.09,1.02-.72,2.12-1.12,3.19q-2.52.81-4.35,2.76c.17,5.46,3.73,10.22,3.39,15.57-.73,1.32-1.32,2.4-1.92,3.48.26,1.17.52,2.35.81,3.66-.76,1.52-1.58,3.15-2.44,4.86.31,1.08.77,2.24.94,3.44.07.49-.4,1.19-.82,1.59-.71.66-1.86.44-2.69-.79-.65-.97-.83-2.25-1.18-3.28-1.61-1.01-3.13-1.97-4.75-2.99-.68-2.33-1.35-4.65-2.01-6.94-3.38-1.03-5.08-3.26-5.63-6.57-.18-1.11-.95-2.12-1.32-2.89-1.66-1.19-3.09-2.21-4.03-2.88-1.26-2.78-.99-5.45-2.97-7.16-2.74-1.51-5.44-2.99-8.21-4.52-1.35-4.66-2.72-9.38-4.13-14.24-5.37-2.83-10.8-5.69-16.56-8.73-6.61,1.92-13.7,3.98-21.04,6.1-1.89,3.63-3.88,7.44-5.94,11.38,1.3.79,2.79,1.7,4.33,2.65l2.34,8.05c-1.68,2.35-3.8,5.33-5.67,7.95,1.87,3.32.44,5.33-.63,7.54-.83,1.71-.12,3.52,1.27,4.76.9.8,2.12,1.23,3.36,1.91.13,3.17-2.89,2.79-4.56,3.91-1.18,2.15-2.37,4.31-3.58,6.51.33,1.14.67,2.31,1,3.45-.84,1.68-1.65,3.3-2.54,5.07.99,3.42,2.06,6.94,2.99,10.5.11.43-.54,1.06-.98,1.87-1.48-.69-3.02-1.32-4.45-2.13-1.01-.57-2.6-1.34-2.67-2.13-.33-3.75-4.89-3.61-5.71-6.39-.83-2.79-2.95-3.61-5.45-5.04-.92-3.16-1.79-6.71-3.05-10.12-.29-.8-1.92-1.64-2.85-1.56-1.77.15-3.49,1.05-5.19-.45.75-1.53,1.52-3.1,2.27-4.63-1.53-.92-3.09-1.86-4.54-2.74-.46-1.27-.87-2.39-1.23-3.38-1.61-1.04-3.11-2.01-4.73-3.05-.67-2.32-1.34-4.63-1.95-6.72-1.35-.74-2.43-1.34-3.51-1.93-3.11-4.58-2.66-10.51-5.71-15.11-1.08-.59-2.16-1.19-3.53-1.94-.6-2.08-1.27-4.38-1.94-6.7-1.62-1.05-3.12-2.03-5.06-3.29-.89-3.06-1.87-6.59-2.97-10.08-.15-.46-.83-.81-1.33-1.09-1.04-.58-1.78,0-2.25,1.61-.44,1.52-1.18,2.16-2.15,1.94-1.08-.59-2.16-1.19-3.75-2.06-1.69,3.04-3.36,6.13-5.07,9.19-1.76.51-3.53,1.02-5.29,1.54.18-.36.03-.9-.54-1.53-.56-.62-1.65-.81-2.55-1.01-.15-.03-.84,1.21-.73,1.32.64.65,1.39,1.47,2.21,1.62.83.15,1.38-.02,1.58-.36l1.51,5.22c1.52.91,3.04,1.82,4.51,2.7-.8,1.6-1.6,3.2-2.36,4.72.44,1.24.83,2.36,1.18,3.35,1.49.96,2.88,1.87,4.15,2.69-.73,1.7-1.36,3.17-1.98,4.59,6.18,3.4,12.04,6.62,17.89,9.84-.36,3.57-5.34,2.33-5.9,5.67,1.55.91,3.1,1.81,4.61,2.7,1.03,3.55,2.05,7.05,3.06,10.55,3.72,2.05,7.45,4.1,11.14,6.13,2.02.12,4.37-2.04,5.85.84-1.18,2.2-2.28,4.37-3.53,6.44-.23.38-1.09.37-1.67.53.18-.36.03-.91-.54-1.53-.56-.62-1.65-.81-2.55-1.01-.15-.03-.84,1.21-.73,1.32.64.65,1.39,1.47,2.21,1.61.83.15,1.37-.01,1.58-.36-.01,1.46.69,2.49,2.14,2.6,1.71.12,3.68-.59,5.13.02,2.28.98,4.19,1.95,6.86,1.09,1.59-.51,3.14,1.27,3.32,3.41.09,1.09-.5,2.23-.82,3.45-1.12.33-2.34.56-3.45,1.06-.46.21-.8.94-.95,1.5-.26.97.51,1.99,2,1.94,5.49-.2,5.52-.3,6.55,3.33.34,1.19.69,2.37,1.03,3.56-.15.56-.21,1.16-.46,1.66-.54,1.11-1.17,2.17-1.64,3.01,7.49,4.12,14.99,8.25,22.67,12.48-.92,2.01-1.62,3.54-2.41,5.27.27.94.61,2.11,1.09,3.75,1.86.87,4.08,1.9,6.65,3.1,2.58-.73,5.41-.32,7.91,1.78,1.18-.25,2.36-.51,3.68-.79,1.52.76,3.15,1.57,4.85,2.42,2.28-.66,4.64-1.35,6.94-2.01,1.64.81,3.22,1.59,4.66,2.3,1.1-1.59,1.84-3.48,3.23-4.43,1.43-.98,3.46-1.07,4.12-3.27-.99-3.41-2.02-6.96-3.03-10.43.83-1.7,1.61-3.31,2.37-4.86-1.55-.95-3.09-1.9-4.54-2.79-1.01-4.7-1.07-4.98,1.82-5.93,2.03-.67,3.2-1.77,3.03-3.71-.16-1.81-1.45-3.59-1.35-5.34.13-2.26,1.98-4.61,1.6-6.64-.53-2.82.7-4.64,1.78-6.74-.06-.59-.05-1.19-.19-1.75-.3-1.2-.71-2.37-1.01-3.56-.95-3.73.47-5.32,4.72-5.2.55.02,1.08.56,1.69.89.67,2.31,1.36,4.67,2.03,6.99,3.21,1.87,6.36,3.7,9.56,5.57.7,2.4,1.37,4.73,2,6.89,6.17,3.39,12.12,6.67,18.07,9.94-.76,1.58-1.52,3.15-2.29,4.74,3.01,1.14,5.26,2.95,5.93,6.24,4.88,2.69,9.75,5.38,14.63,8.03.48.26,1.11.25,1.64.36,4.78-1.09,9.27-3.22,14.06-3.65,1.22.67,2.3,1.27,3.41,1.88,2.6-1.07,2.48-5.53,6.3-5.1,1.76-2.42,3.57-4.81,3.98-7.65-.62-2.56-1.17-4.88-1.63-6.78,1.77-3.21,3.26-5.92,4.75-8.63-.96-.44-1.97-1.33-2.87-1.23-1.81.2-3.54,1.15-5.36,1.37-1.06.13-2.22-.56-3.35-.88,1.43-4.38,6.72-2.25,9.15-5.62.92-1.81,2.01-3.96,2.76-5.44.55-4.56-4.1-4.31-4.91-7.07,1.51-2.74,3-5.44,4.55-8.27-.65-2.25-1.33-4.6-2-6.9,1.67-3.26,3.29-6.43,4.82-9.44-1.63-1.17-3.92-1.94-4.37-3.32-.87-2.68-2.7-3.8-4.83-5.02-.8-.46-.55-2.29.73-2.6,3.74-.91,5.29-2.65,3.7-6.42.72-1.66,1.43-3.31,2.22-5.12-.24-.97-.52-2.15-.82-3.38.81-1.59,1.63-3.22,2.43-4.81-.35-1.21-.69-2.39-.99-3.43-1.57-.98-3.03-1.9-4.47-2.81,1.58-2.86,3.09-5.55,4.54-8.28.62-1.17-.18-3.73-1.56-4.74-.99-.73-2.15-1.22-3.52-1.97,1.62-3.12,3.25-6.25,4.9-9.45-.33-1.14-.67-2.31-.97-3.34.86-1.76,1.65-3.39,2.28-4.68-1.12-3.86-2.14-7.38-3.11-10.73-2.36-1.3-4.5-2.55-6.72-3.63Z"/>
        <path class="cls-1" d="M318.35,255.05c-.02-.18-.11-.42-.22-.53.05.23.07.38.14.64.02-.05.06-.06.08-.11Z"/>
        <path class="cls-1" d="M467.53,224.43c-1.17-.3-2.4-1.03-3.38-.78-2.84.74-4.59.18-5.38-2.86-.53-2.05-2.07-2.95-4.1-2.16-2.02.79-3.71.29-4.53-1.46-.79-1.66-1.23-3.39-3.24-4.05-4.69,1.36-9.42,2.77-14.18,4.05-.41.11-1.04-.58-1.76-1.02-.18-.26-.58-.69-.84-1.19-2.18-4.17-2.2-4.08-5.09-3.23-6.49,1.91-12.99,3.78-19.15,5.57-1.87-.85-3.39-1.54-4.76-2.16-1.16,1.71-2.16,3.18-2.95,4.35-4.97,1.82-9.94,2.29-14.05,4.57-1.15,1.69-1.43,3.94-3.42,4.33-2.94.57-3.52,3.04-4.77,5.04-1.13.42-2.25.84-3.53,1.31-.87,1.45-1.82,3-2.82,4.66-3.42.99-6.98,1.98-10.5,3.1-.43.14-.76.97-.9,1.53-.09.35.15.99.45,1.18,1.03.68,2.14,1.22,3.46,1.95.62,2.14,1.29,4.46,2.13,7.34-.87,1.65-1.7,4.04-3.23,5.84-1.42,1.67-3.6,2.69-5.3,3.9.82,2.81,1.5,5.17,2.15,7.41,1.56.98,3.03,1.89,4.49,2.8-1.27,2.31-2.46,4.47-3.65,6.63-.87-.72-2.06-1.27-2.55-2.2-1.11-2.1-.79-4.83-2.74-6.58-.38-.34-1.2-.71-1.47-.54-.46.29-.98,1.09-.88,1.54.8,3.56,1.76,7.08,2.61,10.64.41,1.71,1.55,3.35.58,5.22-.94,1.82-3.14,1.51-4.43,2.67-.43.39-.62,1.06-.91,1.6.28,1.18.56,2.36.84,3.53,2.25,2.9,5.93-.83,8.25,1.81.26,1.7,1.96,3.75.01,5.04-1.52,1-2.99-1-4.95-1.76-1.97.57-4.32,1.2-6.62,1.97-.46.16-.81.83-1.09,1.34-.57,1.03.08,1.64,1.6,2.3,1.02.45,1.8,1.44,2.68,2.19,1.24,3.39,1.45,7.16,3.67,10.2,1.08.59,2.16,1.19,3.49,1.92.96,3.31,1.98,6.81,3.09,10.65,2.02,1.12,4.01,2.66,6.27,3.34,2.1.63,4.48.34,6.92.46-1.81,3.68-4.08,6.62-4.94,9.77.78,2.68,1.45,4.98,2.05,7.07,1.37.75,2.7,1.12,3.47,2,1.12,1.28,1.61,3.11,2.77,4.34,1.17,1.24,2.82,2.03,3.87,2.75.52,1.78.83,2.97,1.21,4.14,1.03,3.19,2.03,3.76,5.22,2.94,1.74-.45,3.47-.99,4.8-1.38,2.65,1.42,4.82,2.59,6.96,3.75.36,1.23.7,2.41,1.04,3.59,2.17,1.2,4.34,2.39,6.46,3.55,2.03.26,4.45-2.06,5.97,1.02-.3.55-.53,1.15-.91,1.62-.99,1.24-1.2,2.2-.46,2.87,1.03.94,2.11.83,3.43.28,1.69-.69,3.5-1.07,5.02-1.51,1.87.9,3.5,1.69,4.77,2.3,3.88-1.13,7.39-2.14,10.54-3.06,1.21-1.81,2.2-3.3,2.82-4.23,2.85-1.16,5.07-2.06,7.29-2.97.73-4.75,7.43-4.26,8.02-9.14,3.17-.81,5.17-2.85,6.15-5.92,1.24-.36,2.41-.7,3.53-1.03.98-1.62,1.92-3.18,2.91-4.81,2.29-.67,4.65-1.35,6.95-2.02.34-.61.89-1.16.88-1.69-.02-1.17-.33-2.34-.68-4.52-2.81-1.13-6.21-2.49-9.61-3.85,1.02-1.86,1.62-2.94,2.22-4.02.3-.54.59-1.08.89-1.62,1.19-2.16,2.08-4.57,3.64-6.43,2.2-2.61-1.02-6.04,1.85-8.49l3.22-.94c2.25-3.09-1.01-7.47,2.69-10.2-1.53-.94-3.03-1.85-4.48-2.74.8-1.59,1.62-3.21,2.42-4.8-.06-.07-5.28-6.4-5.28-6.4.3-.54.59-1.08.89-1.61,2.52-1.57,6.2-.59,8.22-4.01-.32-1.47-.45-3.3-1.12-4.91-1.12-2.72.36-4.65,1.52-6.71-.02-.61.06-1.21-.08-1.75-.47-1.79-.96-3.58-1.55-5.33-.56-1.67-.5-3.65-2.27-4.75-1.76-1.1-3.46.36-5.17.11-.57-.08-1.25-.45-1.56-.9-.18-.26.13-1.07.44-1.44,2.06-2.49,5.76-1.54,7.97-3.72.42-.41.82-1.04.87-1.61.18-1.94-.57-1.64-2.28-1.46-1.83.19-2.74-2-3.08-3.93.82-3.59,3.18-6.48,4.75-9.75-1.52-.94-3.04-1.88-4.63-2.85-1.7-5.86-3.42-11.77-5.12-17.66ZM366.29,305.33c-.68.62-1.62.5-2.66-.55-.12-.12.43-1.04.81-1.46.61-.68,1.6-.51,2.65.53.11.12-.51.97-.79,1.48ZM375.95,238.86c.28-.51.67-1.49.83-1.46,1.44.32,2.12,1.07,1.87,1.95-.16.55-.64,1.5-.8,1.46-1.44-.32-2.06-1.05-1.89-1.95ZM454.68,356.62c-.23.33-.69.81-.96.76-1.51-.28-1.83-.97-1.35-2.02.5-1.11,1.23-1.83,2.5-1.7.16.02.35.65.41,1.17-.26,1.25-.44,1.56-.6,1.8ZM455.52,353.63c-.77.23-1.24-.37-1.02-1.62.14-.82.96-1.57,1.62-2.21-.24,1.7-.43,2.91-.6,3.84ZM456.43,353.07c-.29.26-.56.42-.8.51.86-3.73,1.84-3.2,1.81-3.06-.2.89-.39,1.99-1.01,2.55ZM449.03,289.02c-.55-.16-1.03-.54-1.54-.82.45-1.42,1.14-2.1,2.02-1.85.55.16,1.5.64,1.46.8-.32,1.44-1.07,2.12-1.95,1.87ZM443.8,282.84c-.92-.4-2.41-1.05-3.92-1.7-.43.82-1.46,1.86-1.29,2.63.8,3.55,1.93,7.02,2.82,10.06,1.65.91,2.73,1.5,3.75,2.07.13.46.49,1.01.34,1.28-2.34,4.33-4.75,8.62-7.11,12.86,1.57.97,3.05,1.88,4.44,2.73-.82,1.77-1.57,3.39-2.1,4.53.82,2.81,1.49,5.12,2.09,7.22,1.36.75,2.47,1.29,3.49,1.97.27.18.44.86.33,1.21-.17.55-.51,1.34-.95,1.48-3.51,1.12-7.06,2.1-10.5,3.1-1.26,2.29-2.45,4.45-3.71,6.75.65,2.23,1.33,4.57,2.01,6.91-.85,1.69-1.67,3.31-2.52,5,.32,1.1.66,2.28.99,3.42-.64,1.99-2.16,2.89-4.04,3.16-3.33.48-5.55,2.23-6.54,5.45-5.17-.65-2.64-6.01-5.17-8.23-1.08-.59-2.16-1.19-3.26-1.79-2.76-2.92-1.31-8.83-7.16-9.8-.64-2.21-1.31-4.52-1.98-6.83-1.62-1.06-3.12-2.04-4.77-3.12.69-1.44,1.43-2.99,2.17-4.55-1.42-.88-2.91-1.81-4.32-2.68.72-1.57,1.42-3.1,2.15-4.68-4.78-1.04-5.06-5.03-6.15-8.45.49-3.75,3.07-6.53,4.66-10.02-.63-2.16-1.3-4.49-2.07-7.14-1.25-.77-2.79-1.71-4.45-2.73-.3-1.04-.64-2.21-1-3.43,1.65-3.17,3.33-6.4,5.04-9.67l-2.04-7.03c3.92-2.68.07-7.27,2.71-10.09,2.31-2.46-1.17-6.02,2.11-8.47,1.96-.57,4.3-1.25,6.48-1.88,1.07-1.18,1.03-2.28.92-3.5-.41-4.89,1.78-6.38,6.25-4.39.56.25,1.08.59,1.64.9,2.15-.21,1.87-2.55,3.07-3.52,1.33-1.07,3.08-1.63,4.36-2.75.87-.76,1.24-2.1,1.84-3.18,1.13-.41,2.26-.83,3.54-1.3,3.13,1.63,6.36,3.31,9.55,4.96.66-.19,1.29-.29,1.84-.55,1.24-.58,2.52-.54,3.32.62.53.76-.08,2.08-1.3,2.6-1.67.71-3.53.97-4.16,3.12,1.48.9,2.99,1.82,4.48,2.73.34,1.18.68,2.36.99,3.4-.8,1.66-1.54,3.22-2.28,4.76q5.62,3.39,4.2,8.24l-3.9,1.13c-.16,1.56-.34,3.24-.48,4.63,2.88,3.06,6.46,4.16,9.94,6.36-1.36,1.93-2.73,3.9-4.35,6.2ZM448.59,269.85c-.61.68-1.6.51-2.65-.54-.11-.12.51-.97.79-1.48.68-.62,1.62-.5,2.66.55.12.12-.43,1.04-.81,1.46ZM443.89,229.37c-.12.12-1.04-.43-1.46-.81-.68-.61-.51-1.6.54-2.65.12-.12.97.51,1.48.79.62.68.5,1.62-.55,2.66ZM465.9,287.36c-.28.51-.67,1.49-.83,1.46-1.44-.32-2.12-1.07-1.87-1.95.16-.55.64-1.5.8-1.46,1.44.32,2.06,1.05,1.89,1.96ZM439.58,221.04c1.64-3.25,4.01-3.94,7.14-2.07-1.64,3.25-4.01,3.94-7.14,2.07ZM464.28,268.53c-.16.55-.64,1.5-.8,1.46-1.44-.32-2.06-1.05-1.89-1.95.28-.51.67-1.49.83-1.46,1.44.32,2.12,1.07,1.87,1.95ZM470.53,278.94c-.68.63-1.62.5-2.66-.55-.11-.12.43-1.04.81-1.46.61-.68,1.6-.51,2.65.53.11.12-.51.97-.79,1.48Z"/>
        <path class="cls-1" d="M533.68,238.06c.01-.2-.09-.64-.22-.68.05.25.04.46.13.73.03-.02.06-.03.09-.05Z"/>
        <path class="cls-1" d="M478.63,254.51c-.65.64-1.47,1.39-1.62,2.21-.3,1.7.65,2.22,1.93,1.06.62-.56.81-1.65,1.01-2.55.03-.15-1.21-.84-1.32-.73Z"/>
        <path class="cls-1" d="M543.27,271.75c-2.83.98-3.05,1.28-3.03,4.28,2.83-.98,3.05-1.28,3.03-4.28Z"/>
      </g>
    </g>
  </g>
</svg>